<svg xmlns="http://www.w3.org/2000/svg" version="1.1" width="596pt" height="118pt" viewBox="0 0 596 118">
    <g>
        <path d="M132.3,93.1c33.71999,3.31041 75.14494,5.61325 120.76142,6.49786l9.08777,-43.488c-2.26858,0.78256 -4.40188,1.17384 -6.3999,1.17384c-0.78256,0 -1.42983,-0.51199 -1.94182,-1.53598c-0.31635,-0.65768 -0.46204,-1.35282 -0.43707,-2.08543c0,-0.82834 0.23102,-1.53598 0.69306,-2.12289c3.41328,-0.75758 6.68087,-2.356 9.80278,-4.79524c1.45795,-1.12838 3.09114,-2.62502 4.89955,-4.48992c-65.21898,0.76916 -123.04369,4.37218 -163.56579,9.84576l-7,1c-33.6,4.9 -53.7,11.2 -53.7,17.9c0,7 22,13.5 58.4,18.5l8.9,1.2c3.7,0.4 7.5,0.9 11.5,1.3zM295,100c61.2,0 117.3,-2.5 160.8,-6.7l9,-0.9c4.1,-0.5 8.2,-0.9 12.1,-1.4l8.7,-1.1c37.4,-5.1 60,-11.6 60,-18.8c0,-6.9 -20.8,-13.2 -55.5,-18.2l-6.4,-0.9c-43.97035,-5.84355 -107.76273,-9.57643 -179.15757,-9.87996c1.26946,1.00787 2.31592,2.28076 3.13939,3.81867c0.8783,1.62339 1.53702,3.65471 1.97616,6.09395c0.43915,2.43925 0.65872,5.28642 0.65872,8.54153c0,2.53707 -0.12956,5.00233 -0.38868,7.39579c-0.25912,2.39346 -0.64779,4.71511 -1.16603,6.96497c-0.51824,2.24985 -1.16603,4.4279 -1.94338,6.53414c-0.77735,2.10624 -1.68427,4.14068 -2.72074,6.10332c-1.18216,2.2332 -2.48972,4.21301 -3.92267,5.93942c-1.43295,1.72641 -2.9913,3.19943 -4.67505,4.41905c-1.10731,0.80731 -2.25856,1.49636 -3.45376,2.06716c0.98318,0.00131 1.96772,0.00196 2.9536,0.00196zM5,6.5c0,-0.7 0.3,-1.3 0.8,-1.4h584.8c0.5,0.1 0.8,0.7 0.8,1.4v73.6c0,17.9 -131.3,32.5 -293.2,32.5c-161.9,0 -293.2,-14.5 -293.2,-32.5zM273.012,54.49384c0.12833,-0.25339 0.25877,-0.5056 0.39133,-0.75662c1.18216,-2.22071 2.4866,-4.19428 3.91331,-5.92069c1.42671,-1.72641 2.97569,-3.20567 4.64695,-4.43778c0.62747,-0.45447 1.26859,-0.87147 1.92335,-1.25098c-2.78108,0.01381 -5.55049,0.03273 -8.30748,0.0567zM269.81939,95.37092c-0.8783,-1.62339 -1.53702,-3.65159 -1.97616,-6.08459c-0.3666,-2.03105 -0.58018,-4.34419 -0.64074,-6.93944l-2.96787,14.22908c-0.27097,1.26248 -0.79479,2.32452 -1.57144,3.1861c3.74038,0.05546 7.50665,0.10144 11.29693,0.1377c-1.7299,-1.09452 -3.11015,-2.60414 -4.14072,-4.52885zM284.4861,95.91413c2.54955,0 4.79732,-1.33201 6.74331,-3.99604c0.97299,-1.33201 1.87054,-2.99703 2.69264,-4.99504c0.8221,-1.99802 1.56876,-4.32904 2.23997,-6.99306c0.46204,-1.8773 0.87257,-3.86179 1.23159,-5.95347c0.35902,-2.09167 0.66653,-4.29054 0.92252,-6.59658c0.39128,-3.55897 0.58692,-6.57056 0.58692,-9.03479c0,-4.05015 -0.52448,-7.20951 -1.57344,-9.4781c-1.02398,-2.29356 -2.46214,-3.44034 -4.31447,-3.44034c-2.54955,0 -4.7968,1.33253 -6.74175,3.9976c-0.97247,1.33253 -1.86937,2.9982 -2.69069,4.997c-0.82132,1.9988 -1.56707,4.33073 -2.23723,6.99579c-0.47661,1.8773 -0.89495,3.86179 -1.255,5.95347c-0.36006,2.09167 -0.66184,4.29054 -0.90535,6.59658c-0.39128,3.55897 -0.58692,6.55808 -0.58692,8.99732c0,4.05015 0.51199,7.222 1.53598,9.51556c1.04896,2.2894 2.4996,3.43409 4.35193,3.43409z" fill="#ffffff" fill-rule="nonzero" stroke="#000000" stroke-width="1" stroke-linecap="butt" stroke-linejoin="miter" stroke-miterlimit="10" stroke-dasharray="" stroke-dashoffset="0" style="mix-blend-mode: normal"/>
    </g>
</svg>