<svg id="logoSVG" version="1.1" xmlns="http://www.w3.org/2000/svg" viewBox="0 0 100 88">
		<path id="kanji_ko02ID" class="st1" d="M63.373,27.475c0.012,0.054,0.023,0.133,0.026,0.251c-0.056,0.031-0.099,0.09-0.099,0.174v0.023 c-0.344,0.25-0.75,0.512-1.172,0.664c0.063-0.066,0.116-0.134,0.146-0.195c0.119-0.023,0.206-0.098,0.29-0.171 c0.056-0.049,0.114-0.099,0.181-0.133l0.078-0.039l-0.027-0.082c-0.036-0.109,0.181-0.241,0.356-0.347 C63.235,27.571,63.312,27.524,63.373,27.475 M62.3,28.3h0.003H62.3 M63.4,27.3c-0.1,0.2-0.8,0.4-0.7,0.7c-0.2,0.1-0.3,0.3-0.5,0.3 c0,0.1-0.3,0.4-0.5,0.5c0.7-0.1,1.4-0.6,1.8-0.9h-0.1c0-0.1,0.1-0.1,0.1-0.1C63.5,27.7,63.5,27.4,63.4,27.3L63.4,27.3z"/>
		<path id="kanji_ko01ID" class="st0" d="M62.183,17.117c-0.201,0.238-0.619,0.547-0.919,0.658l-0.052-0.155 c0.183-0.209,0.502-0.327,0.785-0.433C62.061,17.164,62.124,17.141,62.183,17.117 M62.4,16.9h0.003H62.4z M62.4,16.9 c-0.3,0.2-1,0.3-1.3,0.7l0.1,0.3C61.6,17.8,62.4,17.2,62.4,16.9L62.4,16.9z"/>
		<path id="glasses" d="M60.076,55.622c4.625,0,9.088,0.783,9.948,1.744c1.079,1.249,0.958,2.891,0.666,4.048 c-0.366,1.454-1.229,3.029-2.366,4.321c-0.914,1.039-3.408,1.659-6.671,1.659c-3.41,0-6.514-0.698-7.38-1.661 c-1.8-1.95-2.869-3.717-3.175-5.252l-0.011-0.057l-0.055-0.018C50.716,60.3,50.302,60.3,50,60.3c-0.157,0-0.339,0.026-0.514,0.051 C49.317,60.375,49.143,60.4,49,60.4h-0.082l-0.016,0.08c-0.393,1.963-2.057,3.93-3.159,5.232l-0.019,0.023 c-0.816,0.96-3.881,1.657-7.288,1.657c-3.257,0-5.747-0.62-6.661-1.659c-2.264-2.573-3.609-6.273-1.801-8.367 c0.861-0.962,5.324-1.745,9.949-1.745c4.199,0,7.265,0.652,8.206,1.749c0.24,0.24,0.455,0.599,0.576,0.961l0.029,0.088l0.09-0.022 C49.212,58.3,49.613,58.3,50,58.3c0.194,0,0.394,0.025,0.588,0.049c0.2,0.025,0.406,0.051,0.612,0.051h0.072l0.023-0.068 c0.121-0.362,0.336-0.721,0.581-0.967C52.812,56.273,55.877,55.622,60.076,55.622 M60.076,55.522 c-3.675,0-7.188,0.509-8.276,1.778c-0.3,0.3-0.5,0.7-0.6,1c-0.4,0-0.8-0.1-1.2-0.1c-0.4,0-0.8,0-1.2,0.1c-0.1-0.3-0.3-0.7-0.6-1 c-1.088-1.269-4.602-1.778-8.276-1.778c-4.43,0-9.094,0.74-10.024,1.778c-1.9,2.2-0.4,6,1.8,8.5 c1.039,1.181,3.865,1.693,6.736,1.693c3.205,0,6.468-0.638,7.364-1.693c1.1-1.3,2.8-3.3,3.2-5.3c0.3,0,0.7-0.1,1-0.1s0.7,0,1,0.1 c0.4,2,2,4,3.2,5.3c0.949,1.055,4.237,1.693,7.454,1.693c2.882,0,5.707-0.511,6.746-1.693c2.2-2.5,3.6-6.3,1.7-8.5 C69.171,56.262,64.506,55.522,60.076,55.522L60.076,55.522z"/>
		<path id="afro" d="M48.165,0v0.1c0.855,0,1.585,0.579,1.776,1.407l0.097,0.422l0.098-0.422 c0.192-0.827,0.922-1.405,1.775-1.405l0.065,0.001c0.871,0.03,1.601,0.673,1.737,1.528l0.068,0.426l0.127-0.412 c0.232-0.755,0.948-1.282,1.741-1.282c0.064,0,0.128,0.003,0.193,0.01c0.867,0.091,1.55,0.783,1.625,1.646l0.037,0.43l0.156-0.403 c0.268-0.695,0.951-1.163,1.699-1.163c0.107,0,0.215,0.009,0.321,0.028c0.859,0.152,1.491,0.891,1.504,1.757l0.006,0.433 l0.184-0.391c0.298-0.634,0.946-1.044,1.65-1.044c0.15,0,0.301,0.019,0.448,0.056c0.846,0.213,1.424,0.995,1.374,1.861 l-0.025,0.432l0.212-0.378c0.322-0.573,0.931-0.928,1.591-0.928c0.194,0,0.387,0.031,0.574,0.093 c0.829,0.273,1.348,1.096,1.234,1.957l-0.057,0.43l0.24-0.362c0.338-0.511,0.907-0.816,1.523-0.816 c0.24,0,0.475,0.047,0.698,0.139c0.807,0.333,1.264,1.192,1.086,2.043l-0.089,0.425l0.266-0.343 c0.342-0.442,0.883-0.706,1.446-0.706c0.287,0,0.563,0.066,0.821,0.196c0.78,0.393,1.171,1.284,0.929,2.119L75.172,8.3 l0.291-0.323c0.345-0.382,0.84-0.601,1.358-0.601c0.331,0,0.657,0.091,0.942,0.262c0.749,0.451,1.07,1.369,0.764,2.184 l-0.153,0.408l0.316-0.3c0.34-0.323,0.788-0.501,1.261-0.501c0.382,0,0.748,0.117,1.06,0.339c0.712,0.508,0.96,1.449,0.59,2.238 l-0.185,0.395l0.339-0.275c0.324-0.263,0.733-0.407,1.153-0.407c0.429,0,0.846,0.152,1.174,0.427 c0.67,0.562,0.842,1.521,0.41,2.279l-0.216,0.379l0.36-0.247c0.305-0.209,0.663-0.32,1.036-0.32c0.484,0,0.941,0.187,1.284,0.527 c0.621,0.614,0.715,1.581,0.224,2.301l-0.243,0.356l0.375-0.213c0.274-0.156,0.586-0.238,0.903-0.238 c0.536,0,1.042,0.232,1.388,0.638c0.568,0.664,0.58,1.637,0.029,2.315l-0.273,0.335l0.393-0.181 c0.241-0.112,0.499-0.168,0.766-0.168c0.589,0,1.144,0.284,1.485,0.76c0.51,0.711,0.437,1.683-0.173,2.311l-0.302,0.311 l0.408-0.147c0.199-0.072,0.408-0.109,0.62-0.109c0.645,0,1.247,0.343,1.573,0.895c0.446,0.755,0.286,1.717-0.38,2.289 l-0.331,0.284l0.421-0.111c0.152-0.04,0.309-0.061,0.466-0.061c0.703,0,1.351,0.408,1.65,1.04c0.376,0.793,0.127,1.738-0.59,2.247 l-0.357,0.253l0.432-0.073c0.1-0.017,0.203-0.026,0.305-0.026c0.765,0,1.454,0.48,1.714,1.195 c0.301,0.826-0.036,1.745-0.801,2.185l-0.382,0.22l0.439-0.033c0.046-0.003,0.092-0.005,0.138-0.005 c0.831,0,1.557,0.559,1.764,1.359c0.22,0.849-0.201,1.732-1.002,2.099l-0.396,0.182l0.436,0.009 c0.882,0.019,1.622,0.661,1.76,1.528c0.138,0.866-0.366,1.705-1.198,1.994l-0.411,0.143l0.432,0.051 c0.875,0.103,1.55,0.813,1.605,1.688c0.054,0.876-0.528,1.663-1.384,1.872l-0.425,0.104l0.428,0.091 c0.862,0.184,1.467,0.954,1.438,1.831c-0.029,0.876-0.683,1.605-1.555,1.733l-0.43,0.063l0.415,0.131 c0.84,0.265,1.368,1.089,1.255,1.958c-0.113,0.871-0.835,1.535-1.717,1.578l-0.438,0.021l0.404,0.171 c0.813,0.343,1.26,1.214,1.065,2.07c-0.19,0.83-0.921,1.41-1.777,1.41c-0.027,0-0.053-0.001-0.08-0.002l-0.433-0.019l0.381,0.207 c0.773,0.419,1.134,1.327,0.858,2.159c-0.247,0.744-0.943,1.244-1.731,1.244c-0.084,0-0.169-0.006-0.252-0.018l-0.432-0.06 l0.363,0.242c0.731,0.489,1.005,1.426,0.652,2.229c-0.29,0.66-0.946,1.086-1.671,1.086c-0.141,0-0.282-0.016-0.419-0.049 l-0.426-0.1l0.34,0.275c0.683,0.553,0.87,1.512,0.445,2.279c-0.32,0.578-0.933,0.938-1.598,0.938 c-0.197,0-0.391-0.032-0.578-0.094l-0.416-0.139l0.315,0.306c0.63,0.611,0.731,1.582,0.239,2.309 c-0.339,0.501-0.905,0.8-1.513,0.8c-0.253,0-0.498-0.051-0.729-0.151l-0.403-0.176l0.288,0.333 c0.574,0.663,0.589,1.639,0.036,2.32c-0.347,0.428-0.864,0.673-1.418,0.673c-0.304,0-0.604-0.076-0.87-0.22l-0.387-0.21 l0.259,0.356c0.515,0.709,0.447,1.682-0.161,2.314c-0.347,0.36-0.814,0.559-1.316,0.559c-0.358,0-0.704-0.103-1.001-0.297 l-0.369-0.241l0.228,0.377c0.454,0.748,0.306,1.712-0.351,2.291c-0.334,0.294-0.762,0.456-1.208,0.456 c-0.405,0-0.804-0.136-1.122-0.383l-0.348-0.27l0.197,0.394c0.391,0.781,0.166,1.73-0.535,2.255 c-0.318,0.239-0.697,0.365-1.094,0.365c-0.458,0-0.896-0.169-1.233-0.475l-0.325-0.296l0.165,0.408 c0.328,0.809,0.029,1.736-0.711,2.205c-0.293,0.186-0.631,0.284-0.977,0.284c-0.504,0-0.99-0.209-1.333-0.574l-0.301-0.32 l0.133,0.419c0.264,0.831-0.106,1.732-0.879,2.143c-0.264,0.14-0.56,0.215-0.857,0.215c-0.557,0-1.075-0.247-1.423-0.677 l-0.276-0.341l0.101,0.427c0.2,0.848-0.237,1.718-1.038,2.07c-0.234,0.103-0.481,0.155-0.735,0.155 c-0.6,0-1.161-0.293-1.501-0.783l-0.248-0.357l0.067,0.43c0.134,0.858-0.367,1.693-1.19,1.984 c-0.198,0.07-0.403,0.105-0.611,0.105c-0.645,0-1.248-0.344-1.574-0.898l-0.221-0.376l0.035,0.434 c0.004,0.048,0.008,0.097,0.008,0.146c0,1-0.818,1.814-1.824,1.814c-1.006,0-1.824-0.814-1.824-1.814c0-1,0.818-1.814,1.824-1.814 c0.192,0,0.382,0.031,0.567,0.091l0.254,0.083l-0.137-0.229c-0.368-0.615-0.339-1.39,0.075-1.974 c0.341-0.481,0.898-0.768,1.491-0.768c0.124,0,0.249,0.013,0.37,0.038l0.264,0.054l-0.164-0.213 c-0.443-0.576-0.499-1.357-0.144-1.989c0.322-0.572,0.933-0.928,1.593-0.928c0.065,0,0.131,0.003,0.196,0.011l0.268,0.029 l-0.184-0.197c-0.5-0.535-0.63-1.311-0.33-1.977c0.293-0.652,0.947-1.073,1.666-1.073l0.044,0.001l0.27,0.007l-0.2-0.181 c-0.547-0.493-0.741-1.259-0.494-1.951c0.248-0.694,0.885-1.167,1.625-1.205l0.27-0.014l-0.214-0.165 c-0.586-0.451-0.838-1.202-0.642-1.912c0.196-0.711,0.798-1.229,1.534-1.321l0.269-0.033l-0.226-0.149 c-0.618-0.409-0.924-1.14-0.78-1.863c0.144-0.723,0.707-1.283,1.434-1.427l0.266-0.053l-0.236-0.133 c-0.645-0.363-1.003-1.069-0.913-1.8c0.09-0.729,0.608-1.328,1.319-1.526l0.26-0.073l-0.245-0.114 c-0.667-0.312-1.079-0.987-1.047-1.719c0.031-0.728,0.495-1.364,1.181-1.621l0.253-0.095l-0.253-0.093 c-0.684-0.251-1.151-0.881-1.19-1.605c-0.038-0.712,0.35-1.382,0.989-1.709l0.24-0.123l-0.262-0.063 c-0.691-0.167-1.225-0.722-1.361-1.413c-0.134-0.683,0.13-1.37,0.689-1.792l0.215-0.162l-0.268-0.018 c-0.751-0.049-1.403-0.562-1.623-1.277l-0.16-0.521l-0.035,0.544c-0.058,0.891-0.776,1.618-1.671,1.69 c-0.05,0.004-0.1,0.006-0.149,0.006c-0.844,0-1.572-0.571-1.769-1.39l-0.121-0.504l-0.075,0.513 c-0.13,0.889-0.879,1.542-1.803,1.552c-0.893,0-1.648-0.636-1.796-1.513l-0.086-0.51l-0.11,0.506 c-0.181,0.827-0.928,1.428-1.778,1.428c-0.036,0-0.072-0.001-0.109-0.003c-0.9-0.053-1.618-0.739-1.706-1.632l-0.05-0.51 l-0.145,0.492c-0.226,0.766-0.944,1.302-1.745,1.302c-0.078,0-0.158-0.005-0.237-0.015c-0.895-0.116-1.562-0.851-1.586-1.748 l-0.014-0.513l-0.18,0.48c-0.264,0.706-0.95,1.18-1.705,1.18c-0.122,0-0.245-0.012-0.365-0.037 c-0.885-0.179-1.497-0.96-1.456-1.858l0.023-0.513l-0.214,0.466c-0.296,0.644-0.946,1.059-1.656,1.059 c-0.166,0-0.331-0.023-0.493-0.068c-0.87-0.243-1.423-1.066-1.317-1.959l0.061-0.51l-0.248,0.45 c-0.32,0.581-0.932,0.941-1.598,0.941c-0.211,0-0.419-0.036-0.619-0.108c-0.85-0.306-1.341-1.168-1.168-2.05l0.099-0.504 l-0.281,0.431c-0.337,0.517-0.91,0.826-1.53,0.826c-0.257,0-0.507-0.053-0.743-0.159c-0.825-0.368-1.25-1.265-1.011-2.132 l0.137-0.496l-0.313,0.409c-0.343,0.448-0.886,0.715-1.452,0.715c-0.301,0-0.6-0.076-0.866-0.22 c-0.796-0.43-1.152-1.357-0.845-2.205l0.176-0.485l-0.344,0.385c-0.347,0.388-0.843,0.61-1.362,0.61 c-0.56,0-1.081-0.251-1.43-0.69l-0.219-0.275l0.041,0.349c0.087,0.736-0.278,1.443-0.929,1.801 c-0.269,0.148-0.572,0.226-0.877,0.226c-0.388,0-0.773-0.126-1.086-0.355l-0.267-0.195l0.114,0.31 c0.241,0.656,0.079,1.399-0.411,1.895c-0.345,0.348-0.805,0.54-1.297,0.54c-0.202,0-0.4-0.033-0.591-0.097l-0.313-0.106 l0.201,0.261c0.426,0.554,0.496,1.311,0.178,1.929c-0.313,0.609-0.936,0.987-1.625,0.987c-0.034,0-0.069-0.001-0.103-0.003 l-0.334-0.019l0.269,0.199c0.588,0.435,0.857,1.174,0.685,1.882c-0.178,0.734-0.781,1.272-1.536,1.37l-0.342,0.045l0.313,0.145 c0.687,0.319,1.108,1.037,1.048,1.786c-0.061,0.766-0.606,1.412-1.355,1.608l-0.337,0.088l0.332,0.104 c0.744,0.233,1.256,0.909,1.276,1.683c0.02,0.78-0.463,1.484-1.202,1.75l-0.329,0.119l0.342,0.073 c0.77,0.164,1.345,0.797,1.43,1.575c0.086,0.78-0.339,1.522-1.058,1.847l-0.319,0.144l0.347,0.046 c0.783,0.104,1.407,0.692,1.552,1.464c0.145,0.772-0.223,1.545-0.916,1.923l-0.307,0.167l0.349,0.02 c0.789,0.046,1.455,0.587,1.657,1.347c0.202,0.759-0.108,1.557-0.772,1.984l-0.294,0.19l0.35-0.005l0.029,0 c0.777,0,1.469,0.49,1.723,1.219c0.258,0.74,0.01,1.557-0.615,2.033l-0.278,0.212l0.348-0.032c0.057-0.005,0.113-0.008,0.17-0.008 c0.724,0,1.379,0.425,1.67,1.082c0.315,0.713,0.138,1.544-0.441,2.07l-0.258,0.234l0.343-0.062 c0.106-0.019,0.215-0.029,0.324-0.029c0.664,0,1.276,0.358,1.596,0.934c0.376,0.675,0.279,1.515-0.241,2.09l-0.233,0.258 l0.334-0.094c0.162-0.046,0.329-0.069,0.497-0.069c0.595,0,1.153,0.288,1.493,0.771c0.44,0.625,0.438,1.464-0.006,2.088 l-0.201,0.282l0.32-0.132c0.222-0.091,0.456-0.138,0.696-0.138c1.006,0,1.824,0.814,1.824,1.814c0,1-0.818,1.814-1.824,1.814 c-1.006,0-1.824-0.814-1.824-1.814c0-0.116,0.012-0.233,0.035-0.35l0.171-0.87l-0.361,0.81c-0.292,0.655-0.946,1.079-1.666,1.079 c-0.208,0-0.415-0.036-0.613-0.106c-0.822-0.293-1.322-1.127-1.187-1.985l0.067-0.429l-0.248,0.356 c-0.34,0.488-0.901,0.78-1.499,0.78c-0.255,0-0.503-0.053-0.738-0.156c-0.799-0.353-1.235-1.223-1.036-2.069l0.1-0.424 l-0.275,0.338c-0.347,0.428-0.865,0.673-1.419,0.673c-0.298,0-0.595-0.075-0.86-0.216c-0.771-0.411-1.14-1.312-0.877-2.141 l0.132-0.415l-0.3,0.316c-0.343,0.362-0.827,0.569-1.329,0.569c-0.347,0-0.686-0.099-0.98-0.286 c-0.738-0.469-1.036-1.396-0.709-2.203l0.164-0.404l-0.323,0.293c-0.336,0.304-0.772,0.471-1.228,0.471 c-0.398,0-0.778-0.127-1.097-0.366c-0.698-0.525-0.923-1.471-0.535-2.251l0.194-0.388l-0.344,0.264 c-0.317,0.243-0.713,0.377-1.115,0.377c-0.446,0-0.876-0.163-1.21-0.458c-0.655-0.579-0.802-1.541-0.351-2.287l0.225-0.372 l-0.365,0.236c-0.296,0.191-0.64,0.293-0.994,0.293c-0.503,0-0.971-0.199-1.318-0.561c-0.606-0.631-0.673-1.603-0.161-2.31 l0.255-0.352l-0.383,0.205c-0.264,0.141-0.562,0.216-0.863,0.216c-0.555,0-1.073-0.246-1.42-0.676 c-0.551-0.68-0.535-1.655,0.037-2.317l0.285-0.33l-0.4,0.172c-0.229,0.099-0.472,0.149-0.723,0.149 c-0.609,0-1.175-0.3-1.514-0.802c-0.49-0.726-0.389-1.697,0.24-2.307l0.313-0.304l-0.414,0.137 c-0.185,0.061-0.378,0.092-0.573,0.092c-0.666,0-1.279-0.36-1.599-0.94c-0.424-0.768-0.235-1.726,0.448-2.278l0.34-0.275 l-0.426,0.1c-0.136,0.032-0.276,0.048-0.416,0.048c-0.726,0-1.383-0.427-1.672-1.089c-0.352-0.804-0.076-1.742,0.658-2.23 l0.365-0.243l-0.434,0.06c-0.083,0.012-0.168,0.017-0.252,0.017c-0.79,0-1.486-0.501-1.732-1.247 c-0.275-0.835,0.089-1.743,0.866-2.16l0.387-0.208l-0.439,0.02c-0.027,0.001-0.055,0.002-0.082,0.002 c-0.858,0-1.588-0.581-1.777-1.413c-0.195-0.858,0.255-1.728,1.07-2.069l0.407-0.17l-0.44-0.022 c-0.883-0.044-1.605-0.709-1.717-1.581c-0.111-0.871,0.419-1.694,1.261-1.957l0.418-0.131l-0.433-0.064 c-0.873-0.128-1.527-0.858-1.554-1.736c-0.028-0.878,0.579-1.647,1.443-1.829l0.43-0.091l-0.427-0.104 c-0.857-0.21-1.439-0.998-1.383-1.874c0.056-0.875,0.732-1.584,1.607-1.685l0.432-0.05l-0.411-0.144 c-0.831-0.291-1.334-1.13-1.194-1.996c0.14-0.866,0.881-1.507,1.763-1.525l0.436-0.009l-0.396-0.182 c-0.8-0.368-1.22-1.251-0.998-2.1c0.209-0.799,0.934-1.356,1.764-1.356c0.044,0,0.089,0.002,0.133,0.005l0.431,0.032l-0.373-0.218 c-0.759-0.442-1.091-1.36-0.79-2.182c0.261-0.713,0.949-1.193,1.713-1.193c0.102,0,0.204,0.009,0.305,0.026l0.429,0.073 L4.66,29.56c-0.715-0.51-0.961-1.455-0.585-2.247c0.3-0.63,0.947-1.037,1.649-1.037c0.159,0,0.317,0.021,0.47,0.062l0.423,0.113 l-0.332-0.285c-0.666-0.573-0.825-1.536-0.378-2.29c0.326-0.55,0.928-0.892,1.572-0.892c0.215,0,0.426,0.037,0.628,0.111 l0.413,0.151L8.212,22.93c-0.613-0.629-0.686-1.602-0.174-2.315c0.341-0.475,0.896-0.758,1.483-0.758 c0.271,0,0.532,0.058,0.776,0.173l0.4,0.187l-0.28-0.341c-0.556-0.679-0.545-1.655,0.027-2.321 c0.347-0.404,0.852-0.635,1.386-0.635c0.322,0,0.638,0.085,0.915,0.245l0.383,0.222l-0.251-0.365 c-0.497-0.722-0.404-1.694,0.222-2.31c0.343-0.338,0.799-0.525,1.282-0.525c0.376,0,0.737,0.113,1.044,0.326l0.365,0.253 l-0.221-0.385c-0.436-0.76-0.264-1.72,0.41-2.284c0.328-0.274,0.744-0.426,1.172-0.426c0.421,0,0.832,0.145,1.156,0.409 l0.338,0.275l-0.185-0.395c-0.369-0.79-0.119-1.731,0.594-2.237c0.311-0.221,0.677-0.338,1.057-0.338 c0.474,0,0.923,0.179,1.263,0.503l0.315,0.301l-0.153-0.408c-0.305-0.815,0.017-1.733,0.767-2.183 c0.284-0.171,0.609-0.261,0.939-0.261c0.52,0,1.015,0.22,1.36,0.603l0.291,0.323l-0.121-0.418 c-0.241-0.835,0.151-1.726,0.932-2.118c0.257-0.129,0.533-0.194,0.819-0.194c0.564,0,1.105,0.265,1.447,0.708l0.266,0.344 l-0.088-0.425c-0.177-0.851,0.281-1.709,1.089-2.041c0.223-0.092,0.457-0.138,0.696-0.138c0.617,0,1.187,0.306,1.525,0.818 l0.239,0.362l-0.056-0.43c-0.113-0.861,0.407-1.683,1.237-1.955c0.186-0.061,0.378-0.092,0.571-0.092 c0.661,0,1.271,0.357,1.592,0.931l0.212,0.378l-0.025-0.433c-0.049-0.866,0.53-1.648,1.376-1.859 c0.146-0.037,0.296-0.055,0.445-0.055c0.705,0,1.353,0.411,1.651,1.047l0.184,0.392l0.007-0.433 c0.014-0.867,0.648-1.605,1.507-1.755c0.105-0.018,0.212-0.028,0.318-0.028c0.749,0,1.433,0.468,1.7,1.165l0.155,0.403 l0.038-0.431c0.076-0.863,0.761-1.554,1.628-1.644c0.064-0.007,0.128-0.01,0.191-0.01c0.794,0,1.511,0.528,1.742,1.285 l0.126,0.413l0.068-0.426c0.137-0.855,0.868-1.496,1.739-1.526L48.165,0.1V0 M70.1,7.524C70.074,7.51,70.041,7.5,70,7.5h-0.241 l0.157,0.157l-0.06-0.04l-0.242-0.162l0.092,0.276c0.103,0.309,0.063,0.499,0.021,0.7c-0.036,0.17-0.073,0.347-0.024,0.588 l0.003,0.013l0.006,0.012l0.092,0.18c0.094,0.376,0.195,1.365-0.001,1.956c-0.115,0.577-0.328,1.211-0.554,1.882 c-0.149,0.444-0.303,0.903-0.426,1.344c-0.607,0.049-1.285,0.138-2,0.232c-0.788,0.103-1.602,0.21-2.322,0.262l-0.224,0.003 c-0.392,0.098-0.887,0.197-1.097,0.199c-0.452,0.1-0.936,0.228-1.404,0.351c-0.451,0.119-0.917,0.241-1.353,0.339 c-0.158-0.121-0.253-0.313-0.355-0.515c-0.056-0.112-0.114-0.228-0.19-0.342c-0.692-0.83-1.984-2.237-2.877-2.336h-0.1h-0.048 l-0.03,0.038c-0.466,0.583-0.068,2.992,0.089,3.607c0.095,0.191,0.178,0.355,0.095,0.532c-0.075,0.114-0.856,0.366-1.189,0.473 c-0.252,0.081-0.398,0.129-0.465,0.163c-0.578,0.321-1.387,0.477-2.169,0.628c-0.398,0.077-0.81,0.156-1.183,0.256 c-0.15-0.039-0.34-0.059-0.564-0.059c-0.828,0-1.992,0.278-2.406,0.692l-0.044,0.044l0.02,0.059 c0.185,0.554,0.562,1.009,1.038,1.251c0.035,0.03,0.077,0.046,0.121,0.046c0.052,0,0.096-0.022,0.131-0.039 c0.014-0.007,0.035-0.017,0.035-0.019l0.5,0.5l0.029,0.029H50.9c0.324,0,0.408,0.049,0.436,0.077 c0.38,0.317,0.831,0.477,1.308,0.646c0.297,0.105,0.605,0.214,0.911,0.367c0.547,0.273,1.07,0.412,1.555,0.412 c1.237,0,2.249-0.917,2.855-2.586c0.121,0.157,0.27,0.412,0.44,0.703c0.567,0.972,1.424,2.44,2.565,2.44 c0.224,0,0.451-0.057,0.694-0.181l0.6-0.5l0.052-0.044l-0.022-0.065c-0.042-0.125,0.083-0.344,0.193-0.538 C62.597,21.34,62.7,21.159,62.7,21c0-0.076-0.021-0.174-0.049-0.299c-0.049-0.224-0.116-0.53-0.056-0.77 c0.062-0.186,0.123-0.514,0.193-0.894c0.162-0.873,0.384-2.068,0.782-2.467c0.242-0.242,3.605-0.729,4.702-0.768 c-0.295,1.177-0.815,2.287-1.319,3.362c-0.196,0.417-0.38,0.811-0.543,1.191c-0.112,0.223-0.279,0.46-0.457,0.71 c-0.288,0.406-0.586,0.826-0.653,1.235c0,0,0,0,0,0h0h-0.242l0.171,0.171c0.013,0.013,0.019,0.021,0.021,0.021 c0,0.008,0.001,0.016,0.003,0.023c-0.227,0.271-0.753,0.984-0.908,1.335c-0.165-0.103-0.315-0.217-0.461-0.327 C63.46,23.202,63.06,22.9,62.4,22.9h-0.122l0.024,0.12l0.589,2.948l-0.262,0.262L62.459,26.4h0.115 c-0.017,0.014-0.034,0.026-0.051,0.038c-0.11,0.081-0.189,0.153-0.214,0.329l-0.036-0.036l-0.062,0.124 c-0.206,0.412-0.605,0.89-0.971,1.165l-0.04,0.03v0.05v0.101c-0.058,0.003-0.085,0.013-0.133,0.045 c-0.02,0.014-0.051,0.034-0.111,0.064L60.9,28.338V28.4v0.1v0.1H61h0.2v0.1h0.1h0.059C61.21,28.848,61.056,28.978,61,29h-0.423 l0.379,0.189c0.052,0.026,0.102,0.039,0.154,0.039c0,0,0.001,0,0.001,0L60.8,29.352v-0.194l-0.171,0.171 c-0.061,0.061-0.092,0.122-0.119,0.176c-0.018,0.037-0.035,0.07-0.061,0.102c-0.28,0.049-0.605,0.205-0.978,0.385 C58.88,30.277,58.209,30.6,57.5,30.6h-0.156l0.065,0.142c0.465,1.008,2.397,1.466,3.996,1.466c0.655,0,1.251-0.073,1.727-0.213 c0.315-0.105,1.178-0.359,1.508-0.392c0.419,0.84,0.844,1.745,1.255,2.621c0.562,1.197,1.144,2.435,1.722,3.531l0.113,0.167 c0.307,0.449,0.821,1.201,0.676,1.611c-0.045,0.128-0.155,0.217-0.335,0.271L68,39.826V39.9V40v0.1h0.054 c-0.425,0.405-0.868,0.755-1.41,1.117l-0.045,0.03v0.044c-0.006,0-0.013,0-0.019,0c-0.359,0-0.707,0.227-1.044,0.447 c-0.216,0.142-0.44,0.288-0.654,0.362c-0.208,0-0.513,0.003-0.728,0.111l-0.117,0.059c-0.271,0.063-0.541,0.147-0.805,0.229 c-0.517,0.161-1.052,0.327-1.571,0.327c-0.407,0-0.77-0.102-1.11-0.311L60.4,42.421v0.178c-0.205-0.085-0.39-0.14-0.571-0.195 c-0.253-0.076-0.492-0.148-0.784-0.294l-0.551-0.275l0.436,0.436c0.13,0.13,0.256,0.256,0.352,0.406l-0.053,0.053l-0.1,0.1 l-0.114,0.114l0.153,0.051c0.295,0.098,1.38,0.843,1.432,1.005v0.041l0.029,0.029C61.057,44.498,62.974,45,63.7,45h0.241 l-0.139-0.139c0.051,0.006,0.082,0.026,0.135,0.06c0.034,0.021,0.071,0.045,0.118,0.069l0.028,0.014l0.031-0.004 c0.458-0.065,0.867-0.252,1.263-0.432c0.226-0.103,0.44-0.2,0.66-0.274c0.085-0.034,0.169-0.051,0.256-0.051 c0.115,0,0.225,0.029,0.33,0.057c0.107,0.029,0.217,0.058,0.334,0.058c0.102,0,0.196-0.022,0.288-0.068 c0.252-0.126,0.392-0.253,0.527-0.375c0.081-0.074,0.158-0.144,0.259-0.214H68.2h0.041l0.029-0.029 c0.16-0.16,0.351-0.226,0.554-0.296c0.146-0.05,0.296-0.102,0.436-0.196l1.254-0.965c0.223,0.112,0.468,0.486,0.634,0.739 l0.08,0.118c0.349,0.349,0.678,0.704,0.997,1.047c0.32,0.345,0.651,0.702,1.005,1.055c1.945,1.837,3.947,3.281,6.124,4.417 c0.157,0.079,0.351,0.192,0.538,0.301c0.301,0.175,0.585,0.341,0.762,0.399c0.19,0.095,0.547,0.184,0.925,0.278 c0.383,0.095,0.859,0.213,0.949,0.304l0.029,0.029H82.6l0.28-0.002c0.139,0.028,0.28,0.042,0.418,0.042 c0.6,0,1.102-0.266,1.545-0.501c0.172-0.091,0.334-0.177,0.497-0.247l0.061-0.026V50.1v-0.251 c0.212-0.197,0.567-0.925,0.684-1.368c0.068-0.257,0.068-0.433-0.001-0.537l-0.113-0.17c-0.095-0.259-0.162-0.54-0.224-0.796 l-0.057-0.223c-0.053-0.106-0.084-0.141-0.119-0.176c-0.021-0.021-0.039-0.039-0.081-0.124L85.462,46.4H85.4h-0.1h-0.1v0.1v0.043 c-0.202-0.129-0.25-0.358-0.304-0.616c-0.043-0.204-0.087-0.416-0.216-0.587l-0.075-0.087l-0.044,0.044 C84.531,45.255,84.483,45.2,84.4,45.2h-0.011c-0.108-0.081-0.363-0.595-0.517-0.906c-0.207-0.417-0.298-0.593-0.372-0.66V43.5 v-0.1h-0.1c-0.008,0-0.009,0-0.029-0.021c-0.016-0.016-0.039-0.039-0.071-0.055V43.3v-0.1v-0.241l-0.171,0.171 c-0.033,0.033-0.065,0.064-0.074,0.069c-0.002,0.001-0.005,0.001-0.01,0.001c-1.136-1.346-2.014-2.539-2.763-3.755 c-0.167-0.25-0.458-0.589-0.767-0.949c-0.406-0.472-0.865-1.006-0.919-1.22L78.578,37.2H78.5h-0.1h-0.148l0.055,0.137 c0.169,0.422,0.423,0.823,0.669,1.212c0.207,0.327,0.407,0.643,0.545,0.952l-1.038-1.557l-0.03-0.045H78.4h-0.1h-0.162H77.9h-0.2 l0.12,0.16c0.21,0.28,0.265,0.402,0.357,0.604c0.036,0.079,0.077,0.168,0.133,0.281l0.189,0.379v-0.1l0.214,0.427 c0.747,1.271,0.986,2.199,1.317,3.485c0.07,0.272,0.146,0.568,0.232,0.887l-0.135-0.135l0.074,0.335l0.197,0.884l-0.085,0.847 c-0.082-0.08-0.197-0.124-0.316-0.171c-0.106-0.041-0.226-0.088-0.338-0.162c-0.265-0.198-0.69-0.434-1.102-0.662 c-0.219-0.121-0.431-0.239-0.598-0.338c-1.946-1.46-3.958-2.969-5.545-4.839c0.245-0.606,0.79-1.229,1.231-1.732 c0.118-0.135,0.231-0.264,0.331-0.384L74,37.636V37.6c0-0.026,0.02-0.066,0.039-0.105c0.023-0.046,0.049-0.098,0.057-0.155 c0.486-0.585,0.99-1.291,1.099-2.104l0.187-0.281L75.4,34.93V34.9c0-0.104,0.028-0.242,0.057-0.388 c0.053-0.262,0.108-0.533,0.038-0.741c-0.301-1.005-0.803-1.819-1.636-2.651c-0.104-0.078-0.217-0.179-0.338-0.286 c-0.339-0.302-0.76-0.677-1.295-0.83l-0.08-0.023l-0.037,0.074c-0.102,0.204-0.071,0.512-0.035,0.868 c0.041,0.409,0.088,0.873-0.069,1.239c-0.299,0.747-0.679,1.533-1.047,2.294c-0.346,0.715-0.703,1.454-0.995,2.163 c-0.664-0.803-1.766-4.13-1.866-4.936c-0.037-0.223-0.127-0.472-0.214-0.713c-0.15-0.416-0.306-0.847-0.195-1.126 c0.042-0.077,0.442-0.209,0.68-0.287c0.279-0.092,0.543-0.179,0.679-0.27c0.309-0.172,0.648-0.432,1.007-0.708 c0.681-0.523,1.452-1.116,2.153-1.18l0.055-0.005l0.025-0.05c0.072-0.143,0.104-0.216,0.074-0.291 c1.068-0.36,1.146-1.013,1.094-1.379c-0.121-0.847-1.142-1.677-2.062-1.677c-0.034,0-0.068,0.001-0.102,0.003 c-1.523,0.102-2.545,0.414-3.638,1.11c-0.157,0.079-0.217,0.209-0.261,0.305c-0.02,0.043-0.037,0.08-0.058,0.105l-0.638,0.364 c-0.17-0.104-0.407-0.344-0.579-0.586l0.162-0.244l-0.13-0.106l0.055-0.002l0.026-0.062c0.008-0.019,0.01-0.035,0.008-0.051 l0.089-0.05c0.514-0.29,0.656-0.369,0.753-0.884H67.1h0.033l0.027-0.02c0.168-0.126,0.327-0.339,0.495-0.564 c0.244-0.327,0.497-0.665,0.764-0.718l-0.008-0.084c0.094-0.139,0.207-0.297,0.32-0.456c0.104-0.145,0.208-0.291,0.297-0.422 c0.013,0.003,0.027,0.004,0.041,0.004c0.222,0,0.731-0.477,0.729-0.657l-0.092-0.554c0.258-0.305,0.477-0.604,0.688-0.895 c0.26-0.357,0.506-0.694,0.776-0.964c0.163-0.163,0.269-0.401,0.371-0.63c0.09-0.202,0.182-0.41,0.308-0.548 c0.091-0.021,0.288-0.089,0.734-0.249c0.28-0.1,0.662-0.237,0.74-0.247c0.018-0.004,0.037-0.007,0.057-0.007 c0.313,0,0.803,0.516,1.029,0.854c0.271,0.543,1.7,2.112,2.93,2.112c0.305,0,0.581-0.093,0.83-0.286 c0.252-0.252,0.496-0.628,0.692-0.93c0.043-0.067,0.084-0.129,0.121-0.185L79,18.43V18.4V18v-0.03l-0.017-0.025 c-0.097-0.145-0.168-0.288-0.244-0.439c-0.075-0.15-0.153-0.305-0.254-0.457c-0.316-0.527-1.936-1.736-2.641-2.038 c-0.205-0.102-0.41-0.179-0.609-0.254c-0.194-0.073-0.395-0.148-0.575-0.236c-0.141-0.106-0.318-0.157-0.539-0.157 c-0.131,0-0.258,0.017-0.381,0.033c-0.102,0.013-0.199,0.026-0.28,0.026c-0.053,0-0.095-0.005-0.128-0.016l-0.012-0.004 c0.037-0.124,0.122-0.312,0.204-0.497c0.207-0.463,0.442-0.988,0.374-1.327c-0.329-1.4-1.115-2.45-1.946-3.562 c-0.19-0.254-0.382-0.51-0.58-0.786c-0.067-0.067-0.158-0.097-0.239-0.124c-0.066-0.022-0.128-0.043-0.148-0.061 c-0.206-0.309-0.419-0.629-0.752-0.739L70.1,7.261V7.4V7.524 M77.436,21.7H77.4h-0.22l0.145,0.166 c0.214,0.244,0.538,0.562,0.912,0.93c0.806,0.79,1.802,1.768,2.047,2.379c-0.865,0.849-2.015,1.529-3.132,2.138l-0.168,0.092 l0.171,0.086c0.05,0.025,0.104,0.038,0.159,0.038c0.153,0,0.286-0.097,0.381-0.183c0.043,0.029,0.095,0.045,0.153,0.045 c0.126,0,0.254-0.072,0.295-0.098c0.368-0.12,0.994-0.2,1.565-0.2c0.39,0,0.724,0.036,0.965,0.105 c0.341,0.097,0.501,0.358,0.669,0.633c0.154,0.251,0.312,0.51,0.603,0.654c0.292,0.194,0.483,0.385,0.685,0.587l0.017,0.017 l0.022,0.007c0.098,0.033,0.191,0.036,0.254,0.036c0.039,0,0.077-0.002,0.113-0.003c0.031-0.001,0.061-0.003,0.09-0.003 c0.115,0,0.152,0.022,0.18,0.107l0.036,0.109l0.103-0.052c0.08-0.04,0.281-0.087,0.458-0.128c0.315-0.074,0.497-0.119,0.565-0.187 c0.365-0.332,0.556-0.729,0.566-1.179c0.023-0.972-0.805-1.908-1.163-2.266c-0.799-0.799-1.704-1.704-2.608-2.407 c-0.239-0.191-0.517-0.335-0.81-0.488c-0.332-0.172-0.674-0.35-0.988-0.611l-0.016-0.013l-0.02-0.006l-0.997-0.299 c-0.093-0.031-0.202-0.085-0.317-0.143C77.869,21.439,77.59,21.3,77.3,21.3h-0.162l0.072,0.145 C77.286,21.596,77.366,21.653,77.436,21.7 M51.9,44.416V45.3v0.03l0.017,0.025c0.081,0.122,0.204,0.24,0.323,0.354 c0.177,0.17,0.36,0.346,0.36,0.49v0.05l0.04,0.03c0.507,0.38,1.53,0.56,1.946,0.619l0.031,0.004l0.028-0.014 c0.081-0.041,0.135-0.094,0.178-0.137c0.056-0.057,0.082-0.079,0.135-0.079c0.03,0,0.067,0.007,0.111,0.022l0.068,0.023 l0.043-0.058c0.153-0.204,0.256-0.455,0.365-0.721c0.112-0.273,0.238-0.582,0.442-0.888c0.785-1.328,2.532-4.792,1.807-8.288 c-0.113-0.282-0.125-0.565-0.137-0.838c-0.008-0.194-0.016-0.377-0.067-0.569C57.396,34.969,57.2,34.286,57.2,34v-0.1v-0.041 l-0.029-0.029c-0.14-0.14-0.229-0.339-0.307-0.514c-0.026-0.057-0.05-0.111-0.074-0.16l-0.007-0.015l-0.011-0.011 c-0.496-0.496-1.504-0.92-2.154-1.028l-0.099-0.016l-0.016,0.099c-0.051,0.308-0.027,0.608-0.002,0.924 c0.025,0.312,0.051,0.634,0.002,0.974c-0.259,1.38-0.651,3.182-1.394,4.879c-0.12,0.28-0.422,0.793-0.742,1.336 c-0.583,0.99-0.966,1.658-0.966,1.903c0,0.739,0.246,1.467,0.445,2.052L51.9,44.416 M66.108,24.951l-0.005,0.005 c0,0,0-0.001,0-0.001c0-0.001,0-0.002-0.001-0.003C66.103,24.951,66.106,24.951,66.108,24.951 M61.628,28.4 c-0.01,0.013-0.02,0.027-0.032,0.041c0.002-0.013,0.004-0.026,0.004-0.041v0h0H61.628 M61.6,29v0.032v0V29L61.6,29 M74.1,37.3 h0.003H74.1 M48.165,0c-0.022,0-0.044,0-0.066,0.001c-0.936,0.031-1.692,0.723-1.834,1.61c-0.243-0.797-0.988-1.356-1.837-1.356 c-0.066,0-0.133,0.003-0.201,0.01C43.295,0.362,42.589,1.105,42.51,2c-0.283-0.737-0.999-1.229-1.794-1.229 c-0.111,0-0.223,0.01-0.336,0.029c-0.923,0.162-1.575,0.953-1.589,1.852c-0.316-0.674-1-1.104-1.741-1.104 c-0.155,0-0.312,0.019-0.469,0.058c-0.91,0.227-1.503,1.064-1.452,1.962c-0.341-0.61-0.99-0.982-1.68-0.982 c-0.199,0-0.402,0.031-0.602,0.097c-0.891,0.292-1.422,1.17-1.305,2.063c-0.359-0.544-0.97-0.863-1.608-0.863 c-0.245,0-0.493,0.047-0.734,0.146c-0.868,0.357-1.332,1.272-1.148,2.154c-0.369-0.478-0.939-0.747-1.527-0.747 c-0.291,0-0.586,0.066-0.863,0.205c-0.839,0.421-1.233,1.368-0.983,2.235c-0.371-0.412-0.897-0.637-1.435-0.637 c-0.338,0-0.68,0.089-0.991,0.275c-0.805,0.483-1.125,1.459-0.809,2.304c-0.365-0.348-0.846-0.531-1.332-0.531 c-0.387,0-0.777,0.116-1.115,0.356c-0.765,0.544-1.009,1.542-0.627,2.361c-0.351-0.285-0.784-0.432-1.219-0.432 c-0.437,0-0.876,0.147-1.236,0.449c-0.722,0.604-0.884,1.623-0.432,2.41c-0.33-0.229-0.715-0.343-1.101-0.343 c-0.489,0-0.977,0.184-1.352,0.553c-0.67,0.661-0.748,1.69-0.234,2.438c-0.299-0.173-0.633-0.258-0.965-0.258 c-0.543,0-1.082,0.227-1.462,0.67h0c-0.613,0.714-0.604,1.746-0.028,2.449c-0.261-0.123-0.541-0.182-0.819-0.182 c-0.599,0-1.189,0.278-1.565,0.8h0C7.408,21.321,7.506,22.348,8.14,23c-0.216-0.079-0.44-0.117-0.662-0.117 c-0.658,0-1.299,0.336-1.658,0.941c-0.479,0.809-0.291,1.824,0.399,2.417c-0.164-0.044-0.331-0.065-0.496-0.065 c-0.72,0-1.411,0.404-1.739,1.095c-0.404,0.849-0.124,1.843,0.617,2.371c-0.107-0.018-0.215-0.027-0.322-0.027 c-0.786,0-1.523,0.481-1.807,1.258h0c-0.322,0.882,0.048,1.845,0.834,2.303c-0.047-0.003-0.094-0.005-0.14-0.005 c-0.855,0-1.635,0.57-1.86,1.431c-0.238,0.91,0.225,1.835,1.053,2.216c-0.912,0.018-1.71,0.681-1.859,1.609 c-0.149,0.928,0.399,1.805,1.26,2.106c-0.906,0.105-1.636,0.84-1.696,1.778c-0.06,0.939,0.572,1.761,1.459,1.978 c-0.894,0.189-1.552,0.99-1.522,1.93c0.03,0.94,0.736,1.699,1.64,1.832c-0.871,0.272-1.45,1.132-1.33,2.065 c0.12,0.934,0.897,1.623,1.811,1.668c-0.843,0.353-1.337,1.265-1.129,2.183v0c0.202,0.889,0.996,1.491,1.875,1.491 c0.029,0,0.058-0.001,0.087-0.002c-0.805,0.431-1.209,1.385-0.914,2.279c0.266,0.806,1.018,1.316,1.827,1.316 c0.088,0,0.177-0.006,0.266-0.018c-0.759,0.505-1.071,1.491-0.694,2.353c0.315,0.72,1.022,1.149,1.764,1.149 c0.146,0,0.293-0.017,0.439-0.051c-0.708,0.572-0.927,1.581-0.473,2.404c0.35,0.634,1.008,0.991,1.687,0.991 c0.202,0,0.406-0.032,0.605-0.097c-0.652,0.632-0.779,1.656-0.254,2.435h0c0.371,0.55,0.978,0.846,1.597,0.846 c0.258,0,0.517-0.051,0.762-0.157c-0.593,0.686-0.63,1.715-0.039,2.445c0.38,0.469,0.936,0.713,1.498,0.713 c0.312,0,0.625-0.075,0.911-0.228c-0.531,0.733-0.481,1.761,0.169,2.438c0.378,0.394,0.883,0.592,1.39,0.592 c0.365,0,0.73-0.103,1.049-0.309c-0.468,0.774-0.332,1.792,0.371,2.414v0c0.366,0.324,0.822,0.483,1.276,0.483 c0.417,0,0.833-0.134,1.176-0.398c-0.403,0.808-0.186,1.812,0.564,2.375c0.347,0.261,0.753,0.386,1.157,0.386 c0.469,0,0.934-0.17,1.295-0.497c-0.339,0.837-0.044,1.821,0.748,2.325c0.321,0.204,0.679,0.301,1.033,0.301 c0.52,0,1.032-0.21,1.401-0.6c-0.273,0.86,0.097,1.818,0.925,2.26c0.289,0.154,0.6,0.228,0.907,0.228 c0.571,0,1.126-0.254,1.497-0.71c-0.206,0.877,0.235,1.804,1.093,2.183c0.253,0.112,0.518,0.165,0.778,0.165 c0.621,0,1.218-0.301,1.581-0.823c-0.139,0.889,0.369,1.78,1.253,2.095c0.214,0.076,0.432,0.112,0.647,0.112 c0.744,0,1.444-0.433,1.758-1.138c-0.024,0.12-0.037,0.243-0.037,0.369c0,1.057,0.861,1.914,1.924,1.914s1.924-0.857,1.924-1.914 c0-1.057-0.861-1.914-1.924-1.914c-0.26,0-0.508,0.052-0.734,0.145c0.456-0.641,0.486-1.523,0.006-2.203 c-0.374-0.53-0.969-0.813-1.575-0.813c-0.176,0-0.352,0.024-0.525,0.072c0.534-0.59,0.662-1.473,0.254-2.206 c-0.351-0.631-1.007-0.985-1.684-0.985c-0.114,0-0.228,0.01-0.341,0.03c0.594-0.538,0.807-1.412,0.465-2.184 c-0.317-0.716-1.022-1.142-1.761-1.142c-0.06,0-0.119,0.003-0.179,0.008c0.641-0.488,0.928-1.345,0.649-2.145h0 c-0.276-0.791-1.021-1.286-1.818-1.286c-0.01,0-0.021,0-0.031,0c0.679-0.438,1.032-1.273,0.814-2.094 c-0.218-0.821-0.94-1.374-1.747-1.421c0.71-0.387,1.123-1.195,0.967-2.029h0c-0.157-0.834-0.835-1.438-1.637-1.545 c0.736-0.333,1.208-1.106,1.116-1.949h0c-0.092-0.841-0.72-1.494-1.509-1.662c0.757-0.273,1.289-1.002,1.268-1.847h0 c-0.021-0.839-0.584-1.537-1.346-1.776c0.769-0.201,1.363-0.864,1.429-1.697c0.066-0.819-0.398-1.557-1.105-1.885 c0.766-0.1,1.428-0.655,1.62-1.446c0.187-0.769-0.122-1.542-0.723-1.987c0.036,0.002,0.072,0.003,0.108,0.003 c0.699,0,1.373-0.379,1.714-1.041v0c0.35-0.679,0.25-1.468-0.188-2.036c0.202,0.068,0.412,0.102,0.623,0.102 c0.496,0,0.992-0.19,1.368-0.569c0.539-0.544,0.681-1.327,0.434-2c0.332,0.243,0.735,0.374,1.145,0.374 c0.313,0,0.631-0.076,0.925-0.238c0.706-0.387,1.069-1.15,0.98-1.9c0.352,0.443,0.896,0.727,1.508,0.727 c0.572,0,1.084-0.25,1.436-0.643c-0.316,0.874,0.045,1.871,0.891,2.327c0.291,0.157,0.605,0.232,0.914,0.232 c0.589,0,1.161-0.27,1.532-0.754c-0.247,0.895,0.189,1.859,1.067,2.25h0c0.255,0.114,0.522,0.168,0.784,0.168 c0.64,0,1.254-0.32,1.614-0.872c-0.178,0.91,0.329,1.839,1.232,2.164c0.216,0.078,0.436,0.114,0.653,0.114 c0.691,0,1.344-0.374,1.686-0.993c-0.11,0.92,0.464,1.809,1.389,2.067c0.173,0.048,0.348,0.071,0.52,0.071 c0.743,0,1.432-0.433,1.747-1.118c-0.042,0.925,0.595,1.77,1.536,1.96c0.129,0.026,0.258,0.039,0.385,0.039 c0.797,0,1.518-0.496,1.799-1.245c0.025,0.925,0.721,1.722,1.673,1.845c0.084,0.011,0.168,0.016,0.25,0.016 c0.852,0,1.602-0.564,1.841-1.373c0.091,0.921,0.841,1.666,1.799,1.722c0.038,0.002,0.077,0.003,0.115,0.003 c0.91,0,1.686-0.637,1.876-1.506c0.153,0.907,0.943,1.596,1.895,1.596c0.007,0,0.014,0,0.021,0c0.961-0.01,1.747-0.72,1.881-1.637 c0.205,0.852,0.974,1.466,1.866,1.466c0.052,0,0.104-0.002,0.157-0.006c0.964-0.078,1.702-0.85,1.763-1.783 c0.229,0.744,0.902,1.294,1.712,1.347c-0.566,0.428-0.873,1.15-0.727,1.891h0c0.149,0.757,0.728,1.32,1.436,1.491 c-0.653,0.334-1.085,1.026-1.043,1.804c0.042,0.787,0.557,1.437,1.256,1.693c-0.7,0.262-1.212,0.92-1.246,1.71 c-0.034,0.794,0.424,1.496,1.105,1.814c-0.725,0.202-1.294,0.82-1.392,1.61c-0.098,0.792,0.306,1.53,0.963,1.899 c-0.741,0.147-1.357,0.722-1.513,1.505c-0.156,0.783,0.193,1.549,0.823,1.965c-0.75,0.093-1.406,0.623-1.618,1.394 c-0.212,0.77,0.081,1.558,0.678,2.018c-0.754,0.039-1.446,0.519-1.714,1.271c-0.268,0.75-0.036,1.555,0.522,2.059 c-0.016,0-0.031-0.001-0.047-0.001c-0.735,0-1.437,0.421-1.757,1.132c-0.326,0.723-0.163,1.541,0.348,2.086 c-0.069-0.007-0.138-0.011-0.207-0.011c-0.674,0-1.328,0.353-1.68,0.979c-0.387,0.688-0.301,1.51,0.151,2.099 c-0.129-0.027-0.26-0.04-0.391-0.04c-0.604,0-1.198,0.282-1.573,0.81c-0.452,0.637-0.456,1.454-0.08,2.083 c-0.188-0.061-0.389-0.096-0.598-0.096c-1.062,0-1.924,0.857-1.924,1.914c0,1.057,0.861,1.914,1.924,1.914 c1.062,0,1.924-0.857,1.924-1.914c0-0.052-0.004-0.103-0.008-0.154c0.347,0.591,0.986,0.947,1.66,0.947 c0.214,0,0.431-0.036,0.644-0.111v0c0.884-0.313,1.394-1.204,1.256-2.094c0.363,0.523,0.961,0.826,1.584,0.826 c0.259,0,0.523-0.052,0.775-0.163c0.86-0.378,1.302-1.306,1.095-2.185c0.371,0.459,0.928,0.714,1.501,0.714 c0.306,0,0.616-0.073,0.904-0.226c0.83-0.441,1.2-1.401,0.927-2.262c0.37,0.393,0.883,0.605,1.406,0.605 c0.353,0,0.711-0.097,1.031-0.3c0.794-0.503,1.09-1.489,0.75-2.327c0.362,0.329,0.829,0.501,1.3,0.501 c0.402,0,0.808-0.125,1.154-0.385v0c0.752-0.564,0.97-1.57,0.564-2.38c0.345,0.268,0.763,0.404,1.183,0.404 c0.453,0,0.908-0.158,1.274-0.481c0.705-0.622,0.841-1.643,0.371-2.418c0.32,0.209,0.688,0.313,1.056,0.313 c0.506,0,1.011-0.197,1.388-0.59v0c0.652-0.678,0.703-1.708,0.17-2.442c0.287,0.155,0.603,0.232,0.918,0.232 c0.561,0,1.116-0.243,1.496-0.71c0.593-0.73,0.556-1.761-0.038-2.448c0.247,0.108,0.509,0.16,0.769,0.16 c0.618,0,1.224-0.295,1.596-0.844c0.527-0.779,0.401-1.804-0.252-2.437c0.2,0.067,0.406,0.099,0.61,0.099 c0.678,0,1.335-0.357,1.685-0.989l0,0c0.456-0.823,0.238-1.832-0.469-2.405c0.147,0.035,0.295,0.051,0.442,0.051 c0.741,0,1.447-0.427,1.763-1.146c0.378-0.861,0.068-1.846-0.688-2.353c0.089,0.012,0.178,0.018,0.266,0.018 c0.807,0,1.559-0.508,1.826-1.313c0.296-0.892-0.105-1.844-0.906-2.278c0.028,0.001,0.056,0.002,0.084,0.002 c0.878,0,1.671-0.6,1.874-1.488c0.21-0.917-0.282-1.829-1.123-2.184c0.913-0.045,1.69-0.732,1.811-1.665h0 c0.121-0.932-0.455-1.792-1.324-2.067c0.902-0.133,1.609-0.89,1.64-1.829c0.031-0.94-0.625-1.741-1.517-1.932 c0.887-0.216,1.519-1.037,1.461-1.975h0c-0.058-0.938-0.787-1.674-1.693-1.781c0.861-0.3,1.412-1.176,1.264-2.104h0 c-0.148-0.928-0.944-1.593-1.857-1.612c0.829-0.38,1.293-1.305,1.057-2.215c-0.224-0.863-1.005-1.434-1.861-1.434 c-0.048,0-0.097,0.002-0.145,0.005c0.791-0.455,1.167-1.421,0.845-2.306c-0.283-0.778-1.022-1.261-1.808-1.261 c-0.107,0-0.214,0.009-0.321,0.027c0.743-0.527,1.026-1.521,0.623-2.372c-0.328-0.692-1.019-1.097-1.74-1.097 c-0.164,0-0.329,0.021-0.492,0.064c0.69-0.592,0.879-1.606,0.401-2.416c-0.358-0.607-1-0.944-1.659-0.944 c-0.219,0-0.441,0.037-0.654,0.114c0.632-0.65,0.73-1.676,0.183-2.439c-0.375-0.523-0.966-0.802-1.567-0.802 c-0.274,0-0.55,0.058-0.808,0.177c0.572-0.702,0.58-1.73-0.03-2.443c-0.38-0.444-0.921-0.673-1.464-0.673 c-0.328,0-0.656,0.083-0.952,0.251c0.509-0.747,0.43-1.77-0.237-2.429c-0.375-0.371-0.865-0.556-1.354-0.556 c-0.382,0-0.765,0.113-1.092,0.338c0.448-0.786,0.287-1.801-0.432-2.405h0c-0.361-0.303-0.801-0.451-1.238-0.451 c-0.434,0-0.866,0.146-1.216,0.43c0.383-0.818,0.141-1.817-0.623-2.362v0c-0.339-0.242-0.73-0.358-1.118-0.358 c-0.486,0-0.965,0.182-1.33,0.529c0.317-0.845-0.002-1.821-0.806-2.305c-0.311-0.187-0.654-0.277-0.993-0.277 c-0.536,0-1.062,0.223-1.433,0.634c0.251-0.866-0.142-1.814-0.98-2.236l0,0c-0.278-0.14-0.574-0.206-0.866-0.206 c-0.587,0-1.156,0.268-1.525,0.745c0.185-0.882-0.278-1.797-1.145-2.156c-0.241-0.1-0.491-0.147-0.736-0.147 c-0.637,0-1.247,0.318-1.607,0.86C68.649,3.878,68.119,3,67.229,2.706c-0.201-0.066-0.405-0.098-0.605-0.098 c-0.689,0-1.337,0.371-1.678,0.979c0.052-0.898-0.54-1.735-1.449-1.964c-0.158-0.04-0.316-0.059-0.472-0.059 c-0.741,0-1.424,0.429-1.74,1.102c-0.013-0.899-0.664-1.691-1.587-1.854h0c-0.114-0.02-0.227-0.03-0.338-0.03 c-0.794,0-1.509,0.491-1.793,1.227c-0.078-0.895-0.783-1.639-1.715-1.737c-0.068-0.007-0.136-0.011-0.204-0.011 c-0.849,0-1.592,0.557-1.837,1.353c-0.141-0.887-0.896-1.579-1.832-1.612v0c-0.023-0.001-0.046-0.001-0.069-0.001 c-0.906,0-1.675,0.628-1.873,1.482C49.842,0.63,49.073,0,48.165,0L48.165,0z M70.2,7.7V7.4c0.3,0.1,0.5,0.4,0.7,0.7 c0.1,0.1,0.3,0.1,0.4,0.2c1,1.4,2.1,2.6,2.5,4.3c0.1,0.5-0.6,1.6-0.6,1.9h0.1c0.046,0.015,0.1,0.021,0.159,0.021 c0.187,0,0.427-0.059,0.661-0.059c0.17,0,0.337,0.031,0.479,0.137c0.4,0.2,0.8,0.3,1.2,0.5c0.7,0.3,2.3,1.5,2.6,2 c0.2,0.3,0.3,0.6,0.5,0.9v0.4c-0.2,0.3-0.5,0.8-0.8,1.1c-0.235,0.181-0.493,0.257-0.759,0.257c-1.208,0-2.595-1.565-2.841-2.057 c-0.187-0.28-0.723-0.91-1.119-0.91c-0.028,0-0.055,0.003-0.081,0.01c-0.1,0-1.4,0.5-1.5,0.5c-0.3,0.3-0.4,0.9-0.7,1.2 c-0.5,0.5-0.9,1.2-1.5,1.9l0.1,0.6c0,0.086-0.443,0.541-0.631,0.541c-0.031,0-0.055-0.012-0.069-0.041c-0.2,0.3-0.5,0.7-0.7,1h0.1 c-0.5,0.1-0.9,1-1.3,1.3H67c-0.1,0.6-0.2,0.6-0.9,1c0.1,0.1,0,0-0.1,0.1c0,0.1,0,0.1,0.1,0.2l0.1-0.1L66,25.3 c0.2,0.3,0.5,0.6,0.7,0.7l0.7-0.4c0.1-0.1,0.1-0.3,0.3-0.4c1.1-0.7,2.1-1,3.6-1.1c0.032-0.002,0.064-0.003,0.096-0.003 c1.479,0,3.153,2.218,0.804,2.903c0.1,0.1,0.1,0.1,0,0.3c-1.1,0.1-2.3,1.4-3.2,1.9c-0.3,0.2-1.3,0.4-1.4,0.6 c-0.2,0.5,0.3,1.3,0.4,1.9c0.1,0.8,1.3,4.5,2,5.1c0.6-1.5,1.5-3.1,2.1-4.6c0.3-0.7-0.1-1.7,0.1-2.1c0.7,0.2,1.2,0.8,1.6,1.1 c0.8,0.8,1.3,1.6,1.6,2.6c0.1,0.3-0.1,0.8-0.1,1.1l-0.2,0.3C75,36,74.5,36.7,74,37.3c0,0.1-0.1,0.2-0.1,0.3 c-0.5,0.6-1.3,1.4-1.6,2.2c1.6,1.9,3.6,3.4,5.6,4.9c0.5,0.3,1.3,0.7,1.7,1c0.3,0.2,0.6,0.2,0.7,0.4h0.1l0.1-1l-0.2-0.9 c0.1,0.1,0.1,0.2,0.2,0.3c-0.6-2.1-0.7-3.2-1.7-4.9l-0.4-0.8v0.1c-0.2-0.4-0.2-0.5-0.5-0.9h0.3 c0.082,0.245,0.102,0.423,0.214,0.589c0.039-0.039,0.062-0.059,0.086-0.059c0.025,0,0.052,0.023,0.099,0.07L78.3,38h0.1l1.4,2.1 c-0.1-0.9-1-1.8-1.4-2.8h0.1c0.1,0.4,1.3,1.6,1.7,2.2c0.8,1.3,1.7,2.5,2.8,3.8c0.1,0,0.1,0,0.2-0.1v0.1v0.1c0.1,0,0.1,0.1,0.2,0.1 v0.2c0.003-0.003,0.006-0.004,0.009-0.004c0.125,0,0.759,1.608,0.973,1.608c0.006,0,0.012-0.001,0.017-0.004 c0.08,0,0.096,0.128,0.15,0.128c0.014,0,0.03-0.008,0.05-0.028c0.3,0.4,0.1,1.1,0.7,1.3v-0.2h0.1c0.1,0.2,0.1,0.1,0.2,0.3 c0.1,0.4,0.2,0.9,0.4,1.3V48c0.2,0.3-0.5,1.7-0.7,1.8v0.3c-0.603,0.259-1.207,0.74-2.002,0.74c-0.128,0-0.26-0.012-0.398-0.04 h-0.3c-0.2-0.2-1.5-0.4-1.9-0.6c-0.3-0.1-0.9-0.5-1.3-0.7c-2.3-1.2-4.3-2.7-6.1-4.4c-0.7-0.7-1.3-1.4-2-2.1 c-0.2-0.3-0.5-0.8-0.8-0.9l-1.3,1c-0.3,0.2-0.7,0.2-1,0.5H68c-0.3,0.2-0.4,0.4-0.8,0.6c-0.085,0.042-0.165,0.058-0.243,0.058 c-0.214,0-0.416-0.115-0.664-0.115c-0.091,0-0.187,0.015-0.293,0.058c-0.6,0.2-1.2,0.6-1.9,0.7 c-0.141-0.071-0.183-0.141-0.336-0.141c-0.064,0-0.146,0.012-0.264,0.041c0.1,0,0.1,0,0.2,0.1c-0.7,0-2.6-0.5-3-0.9 c0-0.2-1.2-1-1.5-1.1l0.1-0.1c0.1,0.1,0,0.1,0.2,0.1c-0.1-0.3-0.3-0.5-0.5-0.7c0.6,0.3,1,0.3,1.6,0.6c0-0.1-0.1-0.1-0.1-0.2 c0.387,0.238,0.775,0.326,1.162,0.326c0.913,0,1.825-0.485,2.738-0.626h-0.2c0.2-0.1,0.5-0.1,0.7-0.1 c0.56-0.187,1.121-0.81,1.681-0.81c0.04,0,0.079,0.003,0.119,0.01v-0.1c0.6-0.4,1.1-0.8,1.6-1.3h-0.2v-0.1c1-0.3,0-1.6-0.4-2.2 c-1-1.9-2-4.2-3-6.2c-0.3,0-1.3,0.3-1.6,0.4c-0.472,0.139-1.068,0.208-1.695,0.208c-1.63,0-3.472-0.469-3.905-1.408 c1.2,0,2.3-0.9,3-1c0.1-0.1,0.1-0.2,0.2-0.3v0.1l1-0.4v-0.2h-0.2V29c-0.16,0-0.256,0.128-0.39,0.128 c-0.034,0-0.07-0.008-0.11-0.028c0.1,0,0.9-0.7,0.8-0.9l-0.1,0.1h-0.1v-0.1h-0.1l-0.1,0.2h0.1c0,0.1-0.1,0.1-0.1,0.2h-0.1v-0.1H61 v-0.1c0.2-0.1,0.1-0.1,0.3-0.1v-0.2c0.4-0.3,0.8-0.8,1-1.2l0.1,0.1v-0.1c0-0.4,0.2-0.3,0.4-0.6h-0.1L63,26l-0.6-3 c0.9,0,1.3,0.6,2,1c0-0.2,0.8-1.3,1-1.5c-0.1,0,0,0-0.1-0.1c0.1,0,0.1,0,0.1-0.1c0.1-0.6,0.8-1.3,1.1-1.9c0.6-1.4,1.5-3,1.9-4.7 c-0.8,0-4.6,0.5-4.9,0.8c-0.6,0.6-0.8,2.8-1,3.4c-0.1,0.4,0.1,0.9,0.1,1.1c0,0.3-0.5,0.8-0.4,1.1l-0.6,0.5 c-0.219,0.109-0.429,0.158-0.63,0.158c-1.453,0-2.443-2.543-2.97-3.158h-0.1c-0.524,1.497-1.44,2.602-2.79,2.602 c-0.454,0-0.957-0.125-1.51-0.402c-0.8-0.4-1.6-0.5-2.2-1c-0.1-0.1-0.4-0.1-0.5-0.1l-0.5-0.5 c-0.021-0.021-0.042-0.029-0.063-0.029c-0.058,0-0.115,0.058-0.173,0.058c-0.021,0-0.042-0.008-0.063-0.029 c-0.4-0.2-0.8-0.6-1-1.2c0.393-0.393,1.528-0.663,2.336-0.663c0.22,0,0.415,0.02,0.564,0.063c1.1-0.3,2.5-0.4,3.4-0.9 c0.2-0.1,1.7-0.5,1.7-0.7c0.1-0.2,0-0.4-0.1-0.6c-0.2-0.8-0.5-3-0.1-3.5H57c0.9,0.1,2.3,1.7,2.8,2.3c0.2,0.3,0.3,0.7,0.6,0.9 c0.9-0.2,1.9-0.5,2.8-0.7c0.2,0,0.7-0.1,1.1-0.2h0.2c1.4-0.1,3.1-0.4,4.4-0.5c0.3-1.1,0.8-2.3,1-3.3c0.2-0.6,0.1-1.6,0-2L69.8,9 c-0.1-0.5,0.2-0.7,0-1.3l0.3,0.2c0-0.1,0-0.2-0.1-0.3C70.1,7.6,70.1,7.7,70.2,7.7L70.2,7.7z M77.314,27.427 c-0.038,0-0.076-0.008-0.114-0.027c1.1-0.6,2.3-1.3,3.2-2.2c-0.3-0.9-2.3-2.6-3-3.4h0.2v-0.1c-0.1-0.1-0.2-0.1-0.3-0.3 c0.4,0,0.8,0.3,1.1,0.4l1,0.3c0.6,0.5,1.3,0.7,1.8,1.1c0.9,0.7,1.8,1.6,2.6,2.4c0.9,0.9,1.7,2.3,0.6,3.3c-0.1,0.1-0.8,0.2-1,0.3 c-0.05-0.15-0.15-0.175-0.275-0.175c-0.062,0-0.131,0.006-0.203,0.006c-0.072,0-0.147-0.006-0.222-0.031c-0.2-0.2-0.4-0.4-0.7-0.6 c-0.6-0.3-0.6-1.1-1.3-1.3c-0.267-0.076-0.622-0.109-0.992-0.109c-0.599,0-1.237,0.085-1.608,0.209c0,0-0.133,0.089-0.252,0.089 c-0.059,0-0.115-0.022-0.148-0.089C77.619,27.281,77.473,27.427,77.314,27.427L77.314,27.427z M54.6,46.8 c-0.7-0.1-1.5-0.3-1.9-0.6c0-0.3-0.5-0.6-0.7-0.9v-0.9c-0.2-0.6-0.5-1.4-0.5-2.2c0-0.4,1.4-2.5,1.7-3.2c0.7-1.6,1.1-3.3,1.4-4.9 c0.1-0.7-0.1-1.3,0-1.9c0.6,0.1,1.6,0.5,2.1,1c0.1,0.2,0.2,0.5,0.4,0.7V34c0,0.3,0.2,1,0.4,1.4c0.1,0.4,0,0.9,0.2,1.4 c0.6,2.9-0.5,6-1.8,8.2c-0.4,0.6-0.5,1.2-0.8,1.6c-0.057-0.019-0.104-0.027-0.143-0.027C54.793,46.573,54.762,46.719,54.6,46.8 L54.6,46.8z"/>
</svg>
