<svg id="logoSVG"  version="1.1" xmlns="http://www.w3.org/2000/svg" viewBox="0 0 100 88">
    <path id="afro" d="M34.8,42.2C34.7,42.2,34.7,42.2,34.8,42.2c0.3,0.9,0,1.8-0.8,2.2c-0.2,0.1-0.5,0.2-0.8,0.2 c-0.6,0-1.1-0.3-1.4-0.8c0,0,0,0-0.1,0.1c0.5,0.7,0.5,1.7-0.2,2.3l0,0c-0.3,0.3-0.7,0.5-1.1,0.5c-0.4,0-0.8-0.2-1.1-0.5l0,0.1 c0.7,0.5,1,1.5,0.5,2.2c-0.3,0.5-0.9,0.8-1.5,0.8c-0.3,0-0.5-0.1-0.8-0.2c0,0,0,0.1,0,0.1c0.8,0.3,1.3,1.2,1,2.1 c-0.2,0.7-0.9,1.2-1.6,1.2c-0.1,0-0.3,0-0.4-0.1c0,0,0,0.1,0,0.1c0.9,0.1,1.5,1,1.4,1.9c-0.1,0.9-0.8,1.5-1.7,1.5c0,0-0.1,0-0.2,0 c0,0,0,0.1,0,0.1c0.9,0,1.6,0.8,1.6,1.7c0,0.9-0.8,1.7-1.7,1.7c0,0,0,0.1,0,0.1c0.9-0.1,1.7,0.6,1.8,1.6s-0.6,1.7-1.5,1.8l0,0.1 c0.9-0.1,1.7,0.5,1.9,1.4c0.1,0.9-0.5,1.8-1.4,1.9c0,0,0,0.1,0,0.1c0.9-0.2,1.8,0.4,2,1.3c0.2,0.9-0.4,1.8-1.3,2c0,0,0,0.1,0,0.1 c0.9-0.2,1.8,0.3,2.1,1.2c0.3,0.9-0.2,1.8-1.1,2.1l0,0.1c0.9-0.3,1.8,0.1,2.1,1c0.3,0.9-0.1,1.8-1,2.2c0,0,0,0.1,0,0.1 c0.8-0.4,1.8,0,2.2,0.8c0.4,0.8,0,1.8-0.8,2.2c0,0,0,0.1,0,0.1c0.8-0.4,1.8-0.2,2.3,0.6c0.5,0.8,0.2,1.8-0.6,2.3c0,0,0,0.1,0,0.1 c0.8-0.5,1.8-0.3,2.3,0.4l0,0c0.5,0.7,0.4,1.8-0.4,2.3c0,0,0,0,0,0.1c0,0,0,0,0,0c0,0,0.1-0.1,0.1-0.1c0,0,0.1-0.1,0.1-0.1 c0,0,0.1-0.1,0.1-0.1c0,0,0.1,0,0.2-0.1c0,0,0.1,0,0.2,0c0,0,0.1,0,0.2,0c0.1,0,0.2,0,0.3,0c0,0,0.1,0,0.2,0s0.1,0,0.2,0 c0,0,0.1,0,0.2,0.1c0,0,0.1,0,0.1,0.1c0,0,0.1,0.1,0.1,0.1c0,0,0.1,0.1,0.1,0.1c0,0,0.1,0.1,0.1,0.1c0,0,0.1,0.1,0.1,0.1 c0,0,0.1,0.1,0.1,0.1c0,0.1,0.1,0.1,0.1,0.1c0,0.1,0,0.1,0.1,0.2c0,0.1,0,0.1,0.1,0.2c0,0.1,0,0.1,0,0.2s0,0.1,0,0.2 c0,0.1,0,0.1,0,0.2s0,0.1,0,0.2c0,0.1,0,0.1,0,0.2s0,0.1,0,0.2c0,0.1,0,0.1-0.1,0.2c0,0.1,0,0.1-0.1,0.2c0,0.1,0,0.1-0.1,0.1 c0,0.1-0.1,0.1-0.1,0.1c0,0-0.1,0.1-0.1,0.1s-0.1,0.1-0.1,0.1c0,0-0.1,0.1-0.1,0.1c0,0-0.1,0.1-0.1,0.1c0,0-0.1,0.1-0.1,0.1 c0,0-0.1,0-0.2,0.1c0,0-0.1,0-0.2,0s-0.1,0-0.2,0c-0.1,0-0.1,0-0.2,0s-0.1,0-0.2,0c-0.1,0-0.1,0-0.2,0c0,0-0.1,0-0.2,0 c0,0-0.1,0-0.2-0.1c0,0-0.1,0-0.1-0.1s-0.1-0.1-0.1-0.1c0,0-0.1-0.1-0.1-0.1c0,0-0.1-0.1-0.1-0.1c0,0-0.1-0.1-0.1-0.1 s-0.1-0.1-0.1-0.1c0-0.1-0.1-0.1-0.1-0.1c0-0.1,0-0.1-0.1-0.2s0-0.1-0.1-0.2c0-0.1,0-0.1,0-0.2c0-0.1,0-0.1,0-0.2c0-0.1,0-0.1,0-0.2 c0-0.1,0-0.1,0-0.2c0-0.1,0-0.1,0-0.2c0-0.1,0-0.1,0-0.2c0,0,0,0-0.1,0c0,0,0,0,0,0c-0.3,0.9-1.3,1.3-2.1,1l0,0 c-0.9-0.3-1.3-1.2-1.1-2.1c-0.4,0.8-1.3,1.2-2.2,0.8c-0.8-0.4-1.2-1.3-0.9-2.2c-0.4,0.8-1.4,1.1-2.2,0.7c-0.8-0.4-1.1-1.4-0.8-2.2 c-0.5,0.8-1.5,1-2.3,0.5c-0.8-0.5-1-1.5-0.6-2.3c-0.5,0.7-1.6,0.9-2.3,0.4c-0.7-0.5-0.9-1.5-0.5-2.3c-0.6,0.7-1.6,0.8-2.3,0.2 c-0.7-0.6-0.8-1.6-0.3-2.3c-0.6,0.6-1.7,0.7-2.3,0.1c-0.7-0.6-0.7-1.7-0.1-2.3c-0.7,0.6-1.7,0.5-2.3-0.1c-0.6-0.7-0.6-1.7,0-2.3 C11,72,9.9,71.9,9.4,71.1c-0.6-0.7-0.5-1.8,0.2-2.3c-0.8,0.5-1.8,0.3-2.3-0.5C6.8,67.6,7,66.6,7.7,66c-0.8,0.4-1.8,0.1-2.3-0.7l0,0 C5,64.6,5.3,63.6,6,63.1c-0.8,0.4-1.8,0-2.2-0.8c-0.4-0.8,0-1.8,0.8-2.2c-0.9,0.3-1.8-0.2-2.1-1c-0.3-0.9,0.1-1.8,1-2.1 c-0.9,0.2-1.8-0.3-2-1.2c-0.2-0.9,0.3-1.8,1.1-2.1c-0.9,0.1-1.8-0.5-1.9-1.4s0.4-1.8,1.3-2c-0.9,0.1-1.7-0.6-1.8-1.5 c-0.1-0.9,0.6-1.7,1.5-1.8C0.8,47,0,46.2,0,45.3c0-0.9,0.7-1.7,1.6-1.7c-0.9-0.1-1.6-0.9-1.5-1.8c0.1-0.9,0.8-1.6,1.8-1.6 c-0.9-0.2-1.5-1-1.3-1.9s1-1.5,1.9-1.4c-0.9-0.3-1.4-1.2-1.2-2c0.2-0.9,1.1-1.4,2-1.2c-0.8-0.3-1.3-1.3-1-2.1 c0.3-0.9,1.2-1.3,2.1-1.1c-0.8-0.4-1.2-1.4-0.8-2.2s1.3-1.2,2.2-0.9c-0.8-0.5-1.1-1.5-0.6-2.3c0.4-0.8,1.4-1.1,2.2-0.7 c-0.7-0.5-1-1.5-0.5-2.3c0.5-0.8,1.5-1,2.3-0.5c-0.7-0.6-0.8-1.6-0.3-2.3c0.6-0.7,1.6-0.9,2.3-0.3c-0.7-0.6-0.7-1.7-0.1-2.4 s1.7-0.8,2.4-0.1c-0.6-0.7-0.6-1.7,0.1-2.4c0.7-0.6,1.7-0.6,2.4,0c-0.6-0.7-0.5-1.8,0.2-2.4c0.7-0.6,1.7-0.5,2.3,0.2 c-0.5-0.8-0.3-1.8,0.4-2.3c0.7-0.5,1.8-0.4,2.3,0.3c-0.4-0.8-0.2-1.8,0.6-2.3c0.8-0.5,1.8-0.3,2.3,0.5c-0.4-0.8-0.1-1.8,0.7-2.2 s1.8-0.1,2.3,0.7c-0.3-0.8,0-1.8,0.9-2.2c0.8-0.4,1.8,0,2.2,0.8c-0.3-0.9,0.2-1.8,1-2.1c0.9-0.3,1.8,0.1,2.1,1 c-0.2-0.9,0.3-1.8,1.2-2c0.9-0.3,1.8,0.2,2.1,1.1c-0.2-0.9,0.4-1.8,1.3-2s1.8,0.3,2,1.2c-0.1-0.9,0.5-1.7,1.4-1.9l0,0 c0.9-0.1,1.7,0.5,1.9,1.3c0-0.9,0.6-1.7,1.5-1.8l0,0c0.9-0.1,1.7,0.6,1.8,1.5c0-0.9,0.7-1.6,1.6-1.7c0.9,0,1.7,0.7,1.7,1.6 C50.1,0.7,50.9,0,51.8,0c0.9,0,1.6,0.8,1.6,1.7c0.1-0.9,0.9-1.5,1.8-1.5c0.9,0.1,1.6,0.9,1.5,1.8c0.2-0.9,1-1.5,1.9-1.3 c0.9,0.1,1.5,1,1.4,1.9c0.2-0.9,1.1-1.4,2-1.2c0.9,0.2,1.5,1.1,1.3,2c0.3-0.9,1.2-1.3,2.1-1.1c0.9,0.3,1.4,1.2,1.2,2 C67,3.4,68,3,68.8,3.3s1.3,1.3,1,2.1c0.4-0.8,1.4-1.2,2.2-0.8c0.8,0.4,1.2,1.3,0.9,2.2c0.4-0.8,1.4-1.1,2.3-0.7 c0.8,0.4,1.1,1.4,0.7,2.2c0.5-0.8,1.5-1,2.3-0.5c0.8,0.5,1,1.5,0.6,2.3c0.5-0.7,1.6-0.9,2.3-0.3c0.7,0.5,0.9,1.6,0.4,2.3 c0.6-0.7,1.6-0.8,2.3-0.2c0.7,0.6,0.8,1.6,0.2,2.3c0.6-0.6,1.7-0.6,2.3,0c0.6,0.6,0.7,1.7,0.1,2.3c0.7-0.6,1.7-0.5,2.3,0.2 c0.6,0.7,0.6,1.7-0.1,2.3c0.7-0.5,1.8-0.4,2.3,0.4c0.5,0.7,0.4,1.7-0.3,2.3c0.8-0.5,1.8-0.2,2.3,0.5c0.5,0.8,0.3,1.8-0.4,2.3 c0.8-0.4,1.8-0.1,2.2,0.7c0.4,0.8,0.1,1.8-0.6,2.3c0.8-0.3,1.8,0.1,2.2,0.9c0.4,0.8,0,1.8-0.8,2.2c0.9-0.3,1.8,0.2,2.1,1.1 c0.3,0.9-0.2,1.8-1,2.1c0.9-0.2,1.8,0.3,2,1.2c0.2,0.9-0.3,1.8-1.2,2c0.9-0.1,1.7,0.5,1.9,1.4c0.1,0.9-0.4,1.8-1.3,1.9 c0.9,0,1.7,0.7,1.8,1.6c0.1,0.9-0.6,1.7-1.5,1.8c0.9,0,1.6,0.8,1.6,1.7c0,0.9-0.7,1.6-1.6,1.6l0,0l0,0l0,0c0.9,0.1,1.6,0.9,1.5,1.8 c-0.1,0.9-0.9,1.6-1.8,1.5c0.9,0.2,1.5,1.1,1.3,2l0,0c-0.2,0.9-1,1.5-1.9,1.4c0.9,0.3,1.4,1.2,1.1,2.1c-0.2,0.9-1.1,1.4-2,1.2 c0.8,0.3,1.3,1.3,1,2.1c-0.3,0.9-1.3,1.3-2.1,1c0.8,0.4,1.2,1.4,0.8,2.2c-0.4,0.8-1.4,1.2-2.2,0.8c0.8,0.5,1,1.5,0.6,2.3l0,0 c-0.4,0.8-1.5,1.1-2.3,0.7c0.7,0.5,0.9,1.6,0.4,2.3l0,0c-0.5,0.8-1.5,1-2.3,0.5c0.7,0.6,0.8,1.6,0.2,2.3C90,71.9,89,72,88.3,71.5 c0.6,0.6,0.7,1.7,0,2.3c-0.6,0.7-1.7,0.7-2.3,0.1c0.6,0.7,0.5,1.7-0.1,2.3s-1.7,0.6-2.4-0.1c0.5,0.7,0.4,1.8-0.3,2.3 c-0.7,0.6-1.7,0.5-2.3-0.2c0.5,0.8,0.3,1.8-0.5,2.3c-0.7,0.5-1.8,0.3-2.3-0.4c0.4,0.8,0.2,1.8-0.6,2.3c-0.8,0.5-1.8,0.2-2.3-0.5 c0.4,0.8,0,1.8-0.8,2.2c-0.8,0.4-1.8,0.1-2.2-0.7c0.3,0.8-0.1,1.8-0.9,2.2c-0.8,0.4-1.8,0-2.2-0.8c0.3,0.9-0.2,1.8-1.1,2.1l0,0 C67.8,87,67.6,87,67.4,87c-0.7,0-1.3-0.4-1.6-1.1c0,0,0,0.1,0,0.1c0,0.1,0,0.1,0,0.2c0,0.1,0,0.1,0,0.2s0,0.1,0,0.2 c0,0.1,0,0.1,0,0.2c0,0.1,0,0.1,0,0.2c0,0.1,0,0.1-0.1,0.2c0,0.1,0,0.1-0.1,0.2c0,0.1,0,0.1-0.1,0.1c0,0.1-0.1,0.1-0.1,0.1 c0,0-0.1,0.1-0.1,0.1c0,0-0.1,0.1-0.1,0.1c0,0-0.1,0.1-0.1,0.1c0,0-0.1,0.1-0.1,0.1c0,0-0.1,0.1-0.1,0.1c0,0-0.1,0-0.2,0.1 c0,0-0.1,0-0.2,0s-0.1,0-0.2,0c-0.1,0-0.1,0-0.2,0s-0.1,0-0.2,0c-0.1,0-0.1,0-0.2,0c0,0-0.1,0-0.2,0c0,0-0.1,0-0.2-0.1 c0,0-0.1,0-0.1-0.1s-0.1-0.1-0.1-0.1c0,0-0.1-0.1-0.1-0.1c0,0-0.1-0.1-0.1-0.1c0,0-0.1-0.1-0.1-0.1c0,0-0.1-0.1-0.1-0.1 c0-0.1-0.1-0.1-0.1-0.1c0-0.1,0-0.1-0.1-0.2c0-0.1,0-0.1-0.1-0.2c0-0.1,0-0.1,0-0.2c0-0.1,0-0.1,0-0.2c0-0.1,0-0.1,0-0.2 c0-0.1,0-0.1,0-0.2c0-0.1,0-0.1,0-0.2c0-0.1,0-0.1,0-0.2c0-0.1,0-0.1,0.1-0.2c0-0.1,0-0.1,0.1-0.2c0-0.1,0-0.1,0.1-0.1 c0,0,0.1-0.1,0.1-0.1c0,0,0.1-0.1,0.1-0.1c0,0,0.1-0.1,0.1-0.1c0,0,0.1-0.1,0.1-0.1c0,0,0.1-0.1,0.1-0.1c0,0,0.1-0.1,0.1-0.1 c0,0,0.1,0,0.2-0.1c0,0,0.1,0,0.2,0c0,0,0.1,0,0.2,0c0.1,0,0.2,0,0.3,0c0.1,0,0.1,0,0.2,0s0.1,0,0.2,0s0.1,0,0.2,0.1 c0,0,0.1,0,0.1,0.1c-0.5-0.6-0.5-1.4-0.1-2.1c0.5-0.6,1.3-0.9,2-0.6c-0.5-0.5-0.7-1.4-0.3-2.1c0.4-0.7,1.2-1,1.9-0.8 c-0.6-0.5-0.8-1.3-0.5-2c0.3-0.7,1.1-1.1,1.9-0.9c-0.6-0.4-0.9-1.3-0.6-2l0,0c0.3-0.8,1.1-1.2,1.8-1.1c-0.7-0.4-1-1.2-0.8-2 c0.2-0.8,1-1.2,1.7-1.2c-0.7-0.3-1.1-1.1-0.9-1.9c0.2-0.8,0.9-1.3,1.7-1.3c-0.7-0.3-1.2-1-1-1.8c0.1-0.8,0.8-1.4,1.6-1.4 c-0.7-0.2-1.2-1-1.1-1.8c0.1-0.8,0.7-1.4,1.5-1.5c-0.7-0.2-1.3-0.9-1.3-1.7c0-0.8,0.6-1.5,1.3-1.6c-0.7-0.1-1.3-0.8-1.4-1.5 c-0.1-0.8,0.4-1.5,1.1-1.7c-0.7,0-1.4-0.6-1.6-1.3c-0.2-0.8,0.2-1.5,0.8-1.8h0c-0.1,0-0.1,0-0.2,0c-0.1,0-0.1,0-0.2,0 c-0.1,0-0.1,0-0.2,0c0,0-0.1,0-0.2,0c0,0-0.1,0-0.2-0.1c0,0-0.1,0-0.1-0.1c0,0-0.1-0.1-0.1-0.1c0,0-0.1-0.1-0.1-0.1 c0,0-0.1-0.1-0.1-0.1c0,0-0.1-0.1-0.1-0.1c0,0-0.1-0.1-0.1-0.1c0-0.1-0.1-0.1-0.1-0.1c0-0.1,0-0.1-0.1-0.2c0-0.1,0-0.1-0.1-0.2 s0-0.1,0-0.2c0,0,0-0.1,0-0.1l-0.1,0c0,0,0,0,0,0c0.1,0.9-0.6,1.7-1.5,1.8c0,0-0.1,0-0.1,0c-0.9,0-1.6-0.7-1.7-1.5c0,0,0,0,0,0 c0,0,0,0-0.1,0c0,0,0,0,0,0c0,0.9-0.7,1.7-1.6,1.7c0,0,0,0,0,0c-0.9,0-1.7-0.7-1.7-1.6c0,0,0,0,0,0H64c0,0,0,0,0,0 c0,0.9-0.8,1.6-1.7,1.6c0,0,0,0-0.1,0c-0.9,0-1.7-0.8-1.6-1.8c0,0,0,0,0,0c0,0,0,0-0.1,0c0,0,0,0,0,0c-0.1,0.9-0.8,1.5-1.7,1.5 c-0.1,0-0.1,0-0.2,0c-0.9-0.1-1.6-0.9-1.5-1.9c0,0,0,0,0,0l-0.1,0c0,0,0,0,0,0c-0.1,0.8-0.9,1.4-1.7,1.4c-0.1,0-0.2,0-0.3,0 c-0.9-0.2-1.5-1-1.4-1.9c0,0,0,0,0,0c0,0,0,0-0.1,0c0,0,0,0,0,0c-0.2,0.8-0.9,1.3-1.6,1.3c-0.1,0-0.3,0-0.4-0.1 c-0.9-0.2-1.5-1.1-1.2-2c0,0,0,0,0,0c0,0,0,0-0.1,0c0,0,0,0,0,0c-0.2,0.7-0.9,1.2-1.6,1.2c-0.2,0-0.3,0-0.5-0.1 c-0.9-0.3-1.4-1.2-1.1-2.1c0,0,0,0,0,0l-0.1,0c0,0,0,0,0,0c-0.3,0.7-0.9,1.1-1.6,1.1c-0.2,0-0.4,0-0.6-0.1c-0.9-0.3-1.3-1.3-1-2.2 c0,0,0,0,0,0l-0.1,0c0,0,0,0,0,0c-0.3,0.6-0.9,1-1.5,1c-0.2,0-0.5-0.1-0.7-0.2c-0.8-0.4-1.2-1.4-0.8-2.2c0,0,0,0,0,0c0,0,0,0-0.1,0 c0,0,0,0,0,0c-0.3,0.6-0.9,0.9-1.5,0.9c-0.3,0-0.6-0.1-0.8-0.2l0,0c-0.8-0.5-1.1-1.5-0.7-2.3c0,0,0,0,0,0c0,0,0,0-0.1,0 c0,0,0,0,0,0.1c0,0.1-0.1,0.1-0.1,0.1c0,0-0.1,0.1-0.1,0.1c0,0-0.1,0.1-0.1,0.1c0,0-0.1,0.1-0.1,0.1c0,0-0.1,0.1-0.1,0.1 c0,0-0.1,0.1-0.1,0.1s-0.1,0-0.2,0.1c0,0-0.1,0-0.2,0c0,0-0.1,0-0.2,0c0,0-0.1,0-0.2,0c-0.1,0-0.1,0-0.2,0c-0.1,0-0.1,0-0.2,0 c0,0-0.1,0-0.2,0c0,0-0.1,0-0.2-0.1c0,0-0.1-0.1-0.1-0.1c0,0-0.1-0.1-0.1-0.1c0,0-0.1-0.1-0.1-0.1c0,0-0.1-0.1-0.1-0.1 c0,0-0.1-0.1-0.1-0.1c0,0-0.1-0.1-0.1-0.1c0-0.1-0.1-0.1-0.1-0.1C34.8,42.4,34.8,42.3,34.8,42.2C34.8,42.2,34.8,42.2,34.8,42.2z  M77.4,21.6c0.1,0.2,0.1,0.2,0.3,0.3l0,0.1c-0.1,0-0.1,0-0.2-0.1c0.7,0.8,2.8,2.5,3,3.5c-0.9,0.9-2.1,1.6-3.2,2.2 c0.2,0.1,0.4-0.2,0.5-0.2c0,0.1,0.3-0.1,0.4-0.1c0.6-0.3,1.9-0.4,2.6-0.2c0.7,0.2,0.7,1,1.3,1.3c0.3,0.2,0.4,0.4,0.7,0.6 c0.2,0.2,0.5-0.1,0.7,0.2c0.2-0.1,0.9-0.1,1-0.3c1.1-1,0.3-2.4-0.6-3.3c-0.9-0.8-1.8-1.7-2.6-2.4c-0.5-0.4-1.2-0.6-1.7-1l-1-0.3 C78.2,21.8,77.8,21.6,77.4,21.6z M57.4,35.5C57.2,35,57,34.3,57,34l0-0.2c-0.2-0.2-0.3-0.5-0.4-0.7c-0.4-0.5-1.5-1-2.1-1 c-0.2,0.6,0.1,1.2,0,1.9c-0.3,1.6-0.7,3.3-1.4,4.9c-0.3,0.7-1.7,2.8-1.7,3.2c0,0.8,0.3,1.6,0.5,2.2l0,0.9c0.2,0.3,0.7,0.6,0.7,0.9 c0.3,0.4,1.2,0.6,1.9,0.6c0.2-0.1,0.2-0.3,0.5-0.2c0.3-0.5,0.4-1,0.8-1.7c1.3-2.2,2.4-5.3,1.7-8.1C57.4,36.4,57.5,35.9,57.4,35.5z  M86.1,48l-0.3-0.2c-0.1-0.4-0.3-0.9-0.4-1.3c-0.1-0.2-0.1-0.1-0.2-0.3h-0.1l0,0.2c-0.5-0.2-0.4-0.9-0.7-1.3c0,0.1-0.1-0.1-0.2-0.1 c-0.2,0.1-0.8-1.7-1-1.6l0-0.2c-0.1,0-0.1-0.1-0.2-0.1c0,0,0-0.1,0-0.1l0,0.1l0-0.1l0-0.1c-0.1,0-0.1,0.1-0.2,0.1 c-1-1.3-2-2.5-2.8-3.8c-0.3-0.6-1.5-1.8-1.7-2.2h0l-0.1,0c0.4,0.9,1.3,1.9,1.4,2.8c-0.5-0.7-0.9-1.4-1.4-2.1l-0.1,0l0.3,0.6 c-0.1-0.1-0.1-0.1-0.2,0h0.1c0,0.1,0.1,0,0.1,0.2c-0.1,0,0,0-0.1,0c-0.2-0.2-0.2-0.5-0.3-0.7c0,0-0.1,0-0.3,0h0 c0.2,0.4,0.2,0.5,0.5,0.9l0-0.1l0.4,0.8c1,1.7,1.1,2.9,1.7,4.9c-0.1-0.1-0.1-0.2-0.2-0.3l0.2,1l-0.1,1c0,0-0.1,0-0.1,0 c-0.2-0.2-0.5-0.2-0.7-0.4c-0.4-0.3-1.2-0.7-1.7-1c-2-1.4-4-3-5.6-4.9c0.3-0.8,1.1-1.6,1.6-2.2c0-0.1,0.1-0.2,0.1-0.3 c0.5-0.6,1-1.3,1.2-2.1l0.2-0.3c0-0.3,0.2-0.8,0.1-1.1c-0.3-1-0.8-1.8-1.6-2.6c-0.3-0.3-0.8-0.9-1.6-1.1c-0.2,0.4,0.2,1.4-0.1,2.1 c-0.6,1.5-1.5,3.1-2.1,4.7l0,0c-0.7-0.6-2-4.4-2-5.1c0-0.6-0.6-1.3-0.4-1.9c0.1-0.2,1.1-0.4,1.4-0.6c0.8-0.6,2-1.9,3.2-1.9 c0.1-0.1,0.1-0.1,0-0.3c2.3-0.8,0.6-3-0.9-2.9c-1.5,0.1-2.5,0.4-3.6,1.1c-0.2,0.1-0.2,0.3-0.3,0.4l-0.7,0.4 c-0.3-0.2-0.5-0.4-0.7-0.7l0.2-0.3c0,0,0,0,0-0.1c0,0.1-0.1,0.1-0.1,0.2c0-0.1,0-0.1-0.1-0.2c0.1-0.1,0.2-0.1,0.1-0.1 c0.6-0.5,0.7-0.5,0.9-1c0.1,0.1,0,0.1,0.1,0c0.4-0.3,0.8-1.2,1.3-1.3l-0.1-0.1c0.2-0.3,0.5-0.7,0.7-1c0.1,0.2,0.6-0.5,0.7-0.5 l0.2-0.6c0.6-0.6,0.9-1.4,1.5-1.9c0.3-0.3,0.3-0.9,0.7-1.2c0,0,1.3-0.5,1.5-0.5c0.5-0.1,1.1,0.6,1.2,0.9c0.3,0.5,2.4,2.7,3.6,1.8 c0.3-0.3,0.6-0.7,0.8-1.1l0-0.4c-0.1-0.4-0.3-0.6-0.5-0.9c-0.3-0.5-1.9-1.7-2.6-2c-0.4-0.2-0.9-0.2-1.2-0.5c-0.4-0.2-1,0-1.3-0.1 c-0.1,0,0,0-0.1-0.1c0-0.3,0.7-1.4,0.6-1.9c-0.4-1.7-1.5-2.9-2.5-4.3c-0.1-0.1-0.3-0.1-0.4-0.2c-0.2-0.3-0.4-0.6-0.7-0.7v0.1 c0,0,0,0.1,0,0.1c-0.1,0-0.1-0.1-0.2-0.1c0,0.1,0,0.2,0.1,0.3l-0.3-0.2l0,0c0.2,0.6,0,0.8,0,1.3c0-0.1,0.1,0.1,0.1,0.2 c0.1,0.5,0.1,1.4,0,2.1c-0.3,1-0.7,2.3-1,3.3c-1.3,0.1-3,0.4-4.4,0.5L64.4,15c-0.4,0.1-0.9,0.1-1.1,0.2c-0.9,0.2-1.9,0.5-2.8,0.7 c-0.3-0.1-0.4-0.6-0.6-0.9c-0.5-0.7-1.9-2.3-2.8-2.4v0h0.1c-0.4,0.5-0.1,2.7,0.1,3.5c0.1,0.2,0.2,0.4,0.1,0.6c0,0.2-1.4,0.6-1.7,0.7 c-0.9,0.5-2.2,0.6-3.4,1c-0.7-0.2-2.4,0.1-2.9,0.6c0.1,0.5,0.6,1,1,1.2c0.1,0,0.2-0.1,0.3,0l0.5,0.5c0.2,0.1,0.5,0.1,0.5,0.2 c0.6,0.6,1.4,0.7,2.2,1.1c2.2,1.1,3.6-0.2,4.3-2.2l0.1,0c0.6,0.7,1.8,3.9,3.6,3l0.6-0.5c-0.1-0.4,0.4-0.9,0.4-1.1 c0-0.3-0.2-0.8-0.1-1.2c0.2-0.6,0.4-2.8,1-3.4c0.3-0.3,4.1-0.8,4.9-0.8v0c-0.4,1.7-1.3,3.2-1.9,4.7c-0.3,0.6-1,1.3-1.1,1.9 c0,0.1,0,0.1,0,0.1c-0.1,0.1,0,0.1-0.1,0.1c0,0.1,0,0,0.1,0.1c-0.2,0.2-1,1.3-1,1.5h0c-0.7-0.4-1.2-1-2-1c0,0,0.6,3,0.6,3l-0.3,0.3 h0.1c-0.2,0.3-0.4,0.2-0.4,0.6c0,0,0,0.1,0,0.1L62.4,27c-0.2,0.4-0.6,0.9-1,1.2l0,0.2c-0.2-0.1-0.1,0-0.3,0.1l0,0.1v0l0.3-0.2l0,0.1 l0.1,0.1c0-0.1,0.1-0.1,0.1-0.2c0-0.1,0,0-0.1-0.1l0.1-0.2h0.1l0,0.1l0.1,0l0.1-0.1c0,0,0,0,0-0.1c0.1,0.2-0.8,0.9-0.8,0.9 c0.2,0.1,0.3-0.1,0.5-0.1l0-0.1c0.1,0.1,0.1,0.1,0.2,0c0,0.1,0,0.1,0,0.2l-1,0.4l0-0.1c-0.1,0.1-0.1,0.1-0.2,0.3c-0.7,0.1-1.8,1-3,1 c0.6,1.3,3.9,1.7,5.6,1.2c0.3-0.1,1.3-0.4,1.6-0.4c1,2,2,4.4,3,6.2c0.4,0.7,1.4,2,0.4,2.3l0,0.1l0.2,0c-0.5,0.5-1,0.9-1.6,1.3 c0.1,0.1,0,0,0,0.1c-0.6-0.1-1.2,0.7-1.8,0.8c-0.2,0.1-0.5,0-0.7,0.1l0.2,0.1l0,0c-1.3,0.2-2.6,1.1-3.9,0.3c0,0.1,0.1,0.1,0.1,0.2 c-0.7-0.2-1.1-0.3-1.6-0.6h0c0.1,0.2,0.4,0.4,0.5,0.7c-0.2,0-0.1,0-0.2-0.1l-0.1,0.1v0c0.3,0.1,1.5,0.9,1.5,1.1 c0.4,0.4,2.3,0.9,3,0.9c-0.1,0-0.1-0.1-0.2-0.1v0c0.3-0.1,0.4-0.1,0.6,0.1c0.7-0.1,1.3-0.4,1.9-0.7c0.5-0.2,0.8,0.2,1.2,0 c0.4-0.2,0.5-0.4,0.8-0.6l0.2,0.1c0.3-0.3,0.8-0.3,1-0.5l1.3-1c0.3,0.1,0.6,0.7,0.8,1c0.7,0.7,1.3,1.4,2,2.1 c1.9,1.7,3.8,3.2,6.1,4.5c0.4,0.2,1,0.6,1.3,0.7c0.4,0.2,1.8,0.4,1.9,0.6c0-0.1,0.2-0.1,0.3-0.1c1,0.2,1.7-0.4,2.4-0.7l0-0.3 C85.6,49.7,86.3,48.3,86.1,48z"/>
    <g>
        <path id="glassesID" d="M70.2,57.3c-1.7-2-15.9-2.8-18.3,0c-0.3,0.3-0.5,0.7-0.6,1c-0.4-0.1-0.8-0.1-1.2-0.1c-0.4,0-0.8,0-1.2,0.1 c-0.1-0.4-0.3-0.7-0.6-1c-2.4-2.8-16.6-2-18.3,0c-1.9,2.2-0.4,6,1.8,8.5c2.2,2.5,12.4,2,14.1,0c1.1-1.3,2.8-3.3,3.2-5.3 c0.3-0.1,0.7-0.1,1-0.1c0.4,0,0.7,0,1,0.1c0.4,2,2,4,3.2,5.3c1.8,2,12,2.6,14.2,0C70.6,63.3,72.1,59.5,70.2,57.3z"/>
        <path id="kanji_ko01ID" class="st0" d="M62.4,16.9c-0.3,0.2-1,0.3-1.3,0.7l0.1,0.3C61.6,17.7,62.4,17.2,62.4,16.9z"/>
        <path id="kanji_ko02ID" class="st1" d="M62.2,28.3L62.2,28.3c0.1-0.1,0.1-0.1,0.2-0.2l0,0.1c-0.2,0.1-0.3,0.2-0.4,0.3 c0.2-0.1,0.1-0.1,0.3,0c-0.1,0-0.4,0.3-0.6,0.4c0.7-0.1,1.4-0.6,1.8-0.9c0,0-0.1,0-0.1,0c0-0.1,0.1-0.1,0.1-0.1 c0-0.1,0-0.4-0.1-0.5c-0.1,0.2-0.8,0.4-0.7,0.7C62.5,28.1,62.4,28.3,62.2,28.3z"/>
    </g>
</svg>
