<svg id="logoSVG" version="1.1" xmlns="http://www.w3.org/2000/svg" viewBox="0 0 100 88">
	<path id="kanji_ko02ID" class="st1" style="fill:#010101;" d="M63.5,27.8c0-0.1,0-0.4-0.1-0.5c-0.1,0.2-0.8,0.4-0.7,0.7 c-0.2,0.1-0.3,0.3-0.5,0.3c0,0.1-0.3,0.4-0.5,0.5c0.7-0.1,1.4-0.6,1.8-0.9h-0.1C63.4,27.8,63.5,27.8,63.5,27.8z"/>
	<path id="kanji_ko01ID" class="st0" style="fill:#010101;" d="M61.2,17.9c0.4-0.1,1.2-0.7,1.2-1c-0.3,0.2-1,0.3-1.3,0.7L61.2,17.9z"/>
	<path id="glasses" d="M70.1,57.3c-1.7-1.9-15.9-2.8-18.3,0c-0.3,0.3-0.5,0.7-0.6,1 c-0.4,0-0.8-0.1-1.2-0.1c-0.4,0-0.8,0-1.2,0.1c-0.1-0.3-0.3-0.7-0.6-1c-2.4-2.8-16.6-1.9-18.3,0c-1.9,2.2-0.4,6,1.8,8.5 c2.2,2.5,12.4,2,14.1,0c1.1-1.3,2.8-3.3,3.2-5.3c0.3,0,0.7-0.1,1-0.1s0.7,0,1,0.1c0.4,2,2,4,3.2,5.3c1.8,2,12,2.5,14.2,0 C70.6,63.3,72,59.5,70.1,57.3z"/>
	<path id="afro" d="M98.359,48.115c0.902-0.133,1.609-0.89,1.64-1.829c0.031-0.94-0.625-1.741-1.517-1.932 c0.887-0.216,1.519-1.037,1.461-1.975h0c-0.058-0.938-0.787-1.674-1.693-1.781c0.861-0.3,1.412-1.176,1.264-2.104h0 c-0.148-0.928-0.944-1.593-1.857-1.612c0.829-0.38,1.293-1.305,1.057-2.215c-0.237-0.911-1.095-1.497-2.006-1.428 c0.791-0.455,1.167-1.421,0.845-2.306c-0.322-0.884-1.23-1.386-2.13-1.234c0.743-0.527,1.026-1.521,0.623-2.372 c-0.402-0.849-1.351-1.266-2.232-1.033c0.69-0.592,0.879-1.606,0.401-2.416c-0.477-0.808-1.458-1.138-2.314-0.829 c0.632-0.65,0.73-1.676,0.183-2.439c-0.546-0.762-1.551-1.005-2.375-0.625c0.572-0.702,0.58-1.73-0.03-2.443 c-0.609-0.712-1.629-0.869-2.417-0.422c0.509-0.747,0.43-1.77-0.237-2.429c-0.668-0.66-1.699-0.731-2.447-0.218 c0.448-0.786,0.287-1.801-0.432-2.405h0c-0.719-0.604-1.752-0.592-2.455-0.021c0.383-0.818,0.141-1.817-0.623-2.362v0 c-0.764-0.545-1.792-0.452-2.448,0.171c0.317-0.845-0.002-1.821-0.806-2.305c-0.804-0.484-1.82-0.313-2.426,0.358 c0.251-0.866-0.142-1.814-0.98-2.236l0,0c-0.838-0.422-1.838-0.175-2.391,0.539c0.185-0.882-0.278-1.797-1.145-2.156 c-0.867-0.358-1.845-0.038-2.343,0.714C68.649,3.878,68.119,3,67.229,2.706c-0.89-0.293-1.842,0.096-2.283,0.882 c0.052-0.898-0.54-1.735-1.449-1.964c-0.909-0.228-1.829,0.229-2.212,1.043c-0.013-0.899-0.664-1.691-1.587-1.854h0 C58.775,0.65,57.89,1.171,57.567,2.01c-0.078-0.895-0.783-1.639-1.715-1.737c-0.931-0.098-1.776,0.483-2.04,1.342 c-0.141-0.887-0.896-1.579-1.832-1.612v0c-0.936-0.033-1.739,0.606-1.941,1.481c-0.202-0.875-1.003-1.515-1.939-1.484 c-0.936,0.031-1.692,0.723-1.834,1.61c-0.263-0.859-1.107-1.441-2.038-1.345C43.295,0.362,42.589,1.105,42.51,2 c-0.323-0.839-1.206-1.362-2.129-1.2c-0.923,0.162-1.575,0.953-1.589,1.852c-0.382-0.815-1.301-1.273-2.211-1.046 c-0.91,0.227-1.503,1.064-1.452,1.962c-0.44-0.786-1.391-1.177-2.282-0.885c-0.891,0.292-1.422,1.17-1.305,2.063 c-0.497-0.753-1.475-1.074-2.342-0.717c-0.868,0.357-1.332,1.272-1.148,2.154C27.5,5.468,26.5,5.219,25.661,5.64 c-0.839,0.421-1.233,1.368-0.983,2.235c-0.604-0.672-1.621-0.844-2.425-0.361c-0.805,0.483-1.125,1.459-0.809,2.304 c-0.655-0.624-1.683-0.718-2.447-0.175c-0.765,0.544-1.009,1.542-0.627,2.361c-0.702-0.572-1.735-0.585-2.455,0.017 c-0.722,0.604-0.884,1.623-0.432,2.41c-0.747-0.519-1.782-0.451-2.453,0.21c-0.67,0.661-0.748,1.69-0.234,2.438 c-0.788-0.455-1.814-0.302-2.427,0.412h0c-0.613,0.714-0.604,1.746-0.028,2.449c-0.825-0.387-1.834-0.147-2.383,0.617h0 C7.408,21.321,7.506,22.348,8.14,23c-0.856-0.313-1.84,0.014-2.32,0.824c-0.479,0.809-0.291,1.824,0.399,2.417 c-0.881-0.235-1.832,0.18-2.235,1.029c-0.404,0.849-0.124,1.843,0.617,2.371c-0.899-0.152-1.806,0.349-2.129,1.231h0 c-0.322,0.882,0.048,1.845,0.834,2.303c-0.909-0.066-1.763,0.518-2.001,1.426c-0.238,0.91,0.225,1.835,1.053,2.216 c-0.912,0.018-1.71,0.681-1.859,1.609c-0.149,0.928,0.399,1.805,1.26,2.106c-0.906,0.105-1.636,0.84-1.696,1.778 c-0.06,0.939,0.572,1.761,1.459,1.978c-0.894,0.189-1.552,0.99-1.522,1.93c0.03,0.94,0.736,1.699,1.64,1.832 c-0.871,0.272-1.45,1.132-1.33,2.065c0.12,0.934,0.897,1.623,1.811,1.668c-0.843,0.353-1.337,1.265-1.129,2.183v0 c0.208,0.918,1.048,1.53,1.961,1.489c-0.805,0.431-1.209,1.385-0.914,2.279c0.295,0.894,1.188,1.423,2.092,1.297 c-0.759,0.505-1.071,1.491-0.694,2.353c0.377,0.861,1.315,1.306,2.203,1.098c-0.708,0.572-0.927,1.581-0.473,2.404 c0.454,0.823,1.427,1.18,2.291,0.894c-0.652,0.632-0.779,1.656-0.254,2.435h0c0.525,0.778,1.525,1.049,2.36,0.689 c-0.593,0.686-0.63,1.715-0.039,2.445c0.591,0.73,1.608,0.913,2.409,0.485c-0.531,0.733-0.481,1.761,0.169,2.438 c0.649,0.677,1.678,0.775,2.439,0.283c-0.468,0.774-0.332,1.792,0.371,2.414v0c0.702,0.621,1.735,0.636,2.452,0.085 c-0.403,0.808-0.186,1.812,0.564,2.375c0.75,0.564,1.781,0.497,2.452-0.111c-0.339,0.837-0.044,1.821,0.748,2.325 c0.792,0.504,1.813,0.357,2.435-0.299c-0.273,0.86,0.097,1.818,0.925,2.26c0.828,0.442,1.834,0.219,2.404-0.482 c-0.206,0.877,0.235,1.804,1.093,2.183c0.858,0.378,1.844,0.082,2.359-0.658c-0.139,0.889,0.369,1.78,1.253,2.095 c0.955,0.34,2-0.118,2.404-1.026c-0.024,0.12-0.037,0.243-0.037,0.369c0,1.057,0.861,1.914,1.924,1.914s1.924-0.857,1.924-1.914 c0-1.057-0.861-1.914-1.924-1.914c-0.26,0-0.508,0.052-0.734,0.145c0.456-0.641,0.486-1.523,0.006-2.203 c-0.483-0.684-1.334-0.957-2.099-0.741c0.534-0.59,0.662-1.473,0.254-2.206c-0.41-0.737-1.236-1.097-2.025-0.955 c0.594-0.538,0.807-1.412,0.465-2.184c-0.343-0.774-1.138-1.208-1.94-1.133c0.641-0.488,0.928-1.345,0.649-2.145h0 c-0.279-0.801-1.04-1.299-1.849-1.286c0.679-0.438,1.032-1.273,0.814-2.094c-0.218-0.821-0.94-1.374-1.747-1.421 c0.71-0.387,1.123-1.195,0.967-2.029h0c-0.157-0.834-0.835-1.438-1.637-1.545c0.736-0.333,1.208-1.106,1.116-1.949h0 c-0.092-0.841-0.72-1.494-1.509-1.662c0.757-0.273,1.289-1.002,1.268-1.847h0c-0.021-0.839-0.584-1.537-1.346-1.776 c0.769-0.201,1.363-0.864,1.429-1.697c0.066-0.819-0.398-1.557-1.105-1.885c0.766-0.1,1.428-0.655,1.62-1.446 c0.187-0.769-0.122-1.542-0.723-1.987c0.737,0.041,1.464-0.342,1.822-1.038v0c0.35-0.679,0.25-1.468-0.188-2.036 c0.677,0.229,1.455,0.074,1.991-0.467c0.539-0.544,0.681-1.327,0.434-2c0.586,0.429,1.391,0.509,2.07,0.136 c0.706-0.387,1.069-1.15,0.98-1.9c0.352,0.443,0.896,0.727,1.508,0.727c0.572,0,1.084-0.25,1.436-0.643 c-0.316,0.874,0.045,1.871,0.891,2.327c0.845,0.456,1.881,0.216,2.445-0.523c-0.247,0.895,0.189,1.859,1.067,2.25h0 c0.877,0.391,1.891,0.074,2.398-0.704c-0.178,0.91,0.329,1.839,1.232,2.164c0.904,0.325,1.89-0.066,2.338-0.879 c-0.11,0.92,0.464,1.809,1.389,2.067c0.925,0.258,1.879-0.204,2.266-1.046c-0.042,0.925,0.595,1.77,1.536,1.96 c0.941,0.191,1.859-0.338,2.184-1.206c0.025,0.925,0.721,1.722,1.673,1.845c0.952,0.123,1.829-0.469,2.091-1.357 c0.091,0.921,0.841,1.666,1.799,1.722c0.959,0.056,1.793-0.597,1.991-1.503c0.154,0.914,0.955,1.606,1.916,1.596 c0.961-0.01,1.747-0.72,1.881-1.637c0.217,0.901,1.066,1.537,2.023,1.46c0.964-0.078,1.702-0.85,1.763-1.783 c0.229,0.744,0.902,1.294,1.712,1.347c-0.566,0.428-0.873,1.15-0.727,1.891h0c0.149,0.757,0.728,1.32,1.436,1.491 c-0.653,0.334-1.085,1.026-1.043,1.804c0.042,0.787,0.557,1.437,1.256,1.693c-0.7,0.262-1.212,0.92-1.246,1.71 c-0.034,0.794,0.424,1.496,1.105,1.814c-0.725,0.202-1.294,0.82-1.392,1.61c-0.098,0.792,0.306,1.53,0.963,1.899 c-0.741,0.147-1.357,0.722-1.513,1.505c-0.156,0.783,0.193,1.549,0.823,1.965c-0.75,0.093-1.406,0.623-1.618,1.394 c-0.212,0.77,0.081,1.558,0.678,2.018c-0.754,0.039-1.446,0.519-1.714,1.271c-0.268,0.75-0.036,1.555,0.522,2.059 c-0.752-0.018-1.477,0.406-1.804,1.131c-0.326,0.723-0.163,1.541,0.348,2.086c-0.744-0.08-1.498,0.278-1.887,0.968 c-0.387,0.688-0.301,1.51,0.151,2.099c-0.727-0.15-1.508,0.128-1.963,0.77c-0.452,0.637-0.456,1.454-0.08,2.083 c-0.188-0.061-0.389-0.096-0.598-0.096c-1.062,0-1.924,0.857-1.924,1.914c0,1.057,0.861,1.914,1.924,1.914 c1.062,0,1.924-0.857,1.924-1.914c0-0.052-0.004-0.103-0.008-0.154c0.457,0.778,1.419,1.149,2.304,0.836v0 c0.884-0.313,1.394-1.204,1.256-2.094c0.514,0.741,1.5,1.04,2.359,0.663c0.86-0.378,1.302-1.306,1.095-2.185 c0.568,0.704,1.576,0.929,2.405,0.488c0.83-0.441,1.2-1.401,0.927-2.262c0.62,0.659,1.643,0.808,2.437,0.305 c0.794-0.503,1.09-1.489,0.75-2.327c0.67,0.61,1.702,0.68,2.454,0.117v0c0.752-0.564,0.97-1.57,0.564-2.38 c0.717,0.556,1.752,0.544,2.457-0.077c0.705-0.622,0.841-1.643,0.371-2.418c0.761,0.497,1.792,0.401,2.444-0.276v0 c0.652-0.678,0.703-1.708,0.17-2.442c0.8,0.433,1.821,0.251,2.414-0.479c0.593-0.73,0.556-1.761-0.038-2.448 c0.835,0.363,1.837,0.095,2.364-0.684c0.527-0.779,0.401-1.804-0.252-2.437c0.865,0.289,1.839-0.067,2.295-0.89l0,0 c0.456-0.823,0.238-1.832-0.469-2.405c0.888,0.209,1.826-0.234,2.204-1.095c0.378-0.861,0.068-1.846-0.688-2.353 c0.903,0.126,1.796-0.402,2.092-1.294c0.296-0.892-0.105-1.844-0.906-2.278c0.911,0.04,1.749-0.57,1.958-1.486 c0.21-0.917-0.282-1.829-1.123-2.184c0.913-0.045,1.69-0.732,1.811-1.665h0C99.804,49.25,99.228,48.39,98.359,48.115z M81.2,23.2 c0.9,0.7,1.8,1.6,2.6,2.4c0.9,0.9,1.7,2.3,0.6,3.3c-0.1,0.1-0.8,0.2-1,0.3c-0.1-0.3-0.4-0.1-0.7-0.2c-0.2-0.2-0.4-0.4-0.7-0.6 c-0.6-0.3-0.6-1.1-1.3-1.3c-0.7-0.2-2-0.1-2.6,0.1c0,0-0.3,0.2-0.4,0c-0.1,0.1-0.3,0.3-0.5,0.2c1.1-0.6,2.3-1.3,3.2-2.2 c-0.3-0.9-2.3-2.6-3-3.4h0.2v-0.1c-0.1-0.1-0.2-0.1-0.3-0.3c0.4,0,0.8,0.3,1.1,0.4l1,0.3C80,22.6,80.7,22.8,81.2,23.2z M55.9,45 c-0.4,0.6-0.5,1.2-0.8,1.6c-0.3-0.1-0.3,0.1-0.5,0.2c-0.7-0.1-1.5-0.3-1.9-0.6c0-0.3-0.5-0.6-0.7-0.9v-0.9 c-0.2-0.6-0.5-1.4-0.5-2.2c0-0.4,1.4-2.5,1.7-3.2c0.7-1.6,1.1-3.3,1.4-4.9c0.1-0.7-0.1-1.3,0-1.9c0.6,0.1,1.6,0.5,2.1,1 c0.1,0.2,0.2,0.5,0.4,0.7V34c0,0.3,0.2,1,0.4,1.4c0.1,0.4,0,0.9,0.2,1.4C58.3,39.7,57.2,42.8,55.9,45z M85.3,49.8v0.3 c-0.7,0.3-1.4,0.9-2.4,0.7h-0.3c-0.2-0.2-1.5-0.4-1.9-0.6c-0.3-0.1-0.9-0.5-1.3-0.7c-2.3-1.2-4.3-2.7-6.1-4.4 c-0.7-0.7-1.3-1.4-2-2.1c-0.2-0.3-0.5-0.8-0.8-0.9l-1.3,1c-0.3,0.2-0.7,0.2-1,0.5H68c-0.3,0.2-0.4,0.4-0.8,0.6 c-0.4,0.2-0.7-0.2-1.2,0c-0.6,0.2-1.2,0.6-1.9,0.7c-0.2-0.1-0.2-0.2-0.6-0.1c0.1,0,0.1,0,0.2,0.1c-0.7,0-2.6-0.5-3-0.9 c0-0.2-1.2-1-1.5-1.1l0.1-0.1c0.1,0.1,0,0.1,0.2,0.1c-0.1-0.3-0.3-0.5-0.5-0.7c0.6,0.3,1,0.3,1.6,0.6c0-0.1-0.1-0.1-0.1-0.2 c1.3,0.8,2.6-0.1,3.9-0.3h-0.2c0.2-0.1,0.5-0.1,0.7-0.1c0.6-0.2,1.2-0.9,1.8-0.8v-0.1c0.6-0.4,1.1-0.8,1.6-1.3h-0.2v-0.1 c1-0.3,0-1.6-0.4-2.2c-1-1.9-2-4.2-3-6.2c-0.3,0-1.3,0.3-1.6,0.4c-1.7,0.5-5,0.1-5.6-1.2c1.2,0,2.3-0.9,3-1 c0.1-0.1,0.1-0.2,0.2-0.3v0.1l1-0.4v-0.2h-0.2V29c-0.2,0-0.3,0.2-0.5,0.1c0.1,0,0.9-0.7,0.8-0.9l-0.1,0.1h-0.1v-0.1h-0.1l-0.1,0.2 h0.1c0,0.1-0.1,0.1-0.1,0.2h-0.1v-0.1H61v-0.1c0.2-0.1,0.1-0.1,0.3-0.1v-0.2c0.4-0.3,0.8-0.8,1-1.2l0.1,0.1v-0.1 c0-0.4,0.2-0.3,0.4-0.6h-0.1L63,26l-0.6-3c0.9,0,1.3,0.6,2,1c0-0.2,0.8-1.3,1-1.5c-0.1,0,0,0-0.1-0.1c0.1,0,0.1,0,0.1-0.1 c0.1-0.6,0.8-1.3,1.1-1.9c0.6-1.4,1.5-3,1.9-4.7c-0.8,0-4.6,0.5-4.9,0.8c-0.6,0.6-0.8,2.8-1,3.4c-0.1,0.4,0.1,0.9,0.1,1.1 c0,0.3-0.5,0.8-0.4,1.1l-0.6,0.5c-1.8,0.9-3-2.3-3.6-3h-0.1c-0.7,2-2.1,3.3-4.3,2.2c-0.8-0.4-1.6-0.5-2.2-1 c-0.1-0.1-0.4-0.1-0.5-0.1l-0.5-0.5c-0.1-0.1-0.2,0.1-0.3,0c-0.4-0.2-0.8-0.6-1-1.2c0.5-0.5,2.2-0.8,2.9-0.6 c1.1-0.3,2.5-0.4,3.4-0.9c0.2-0.1,1.7-0.5,1.7-0.7c0.1-0.2,0-0.4-0.1-0.6c-0.2-0.8-0.5-3-0.1-3.5H57c0.9,0.1,2.3,1.7,2.8,2.3 c0.2,0.3,0.3,0.7,0.6,0.9c0.9-0.2,1.9-0.5,2.8-0.7c0.2,0,0.7-0.1,1.1-0.2h0.2c1.4-0.1,3.1-0.4,4.4-0.5c0.3-1.1,0.8-2.3,1-3.3 c0.2-0.6,0.1-1.6,0-2L69.8,9c-0.1-0.5,0.2-0.7,0-1.3l0.3,0.2c0-0.1,0-0.2-0.1-0.3c0.1,0,0.1,0.1,0.2,0.1V7.4 c0.3,0.1,0.5,0.4,0.7,0.7c0.1,0.1,0.3,0.1,0.4,0.2c1,1.4,2.1,2.6,2.5,4.3c0.1,0.5-0.6,1.6-0.6,1.9h0.1c0.3,0.1,0.9-0.2,1.3,0.1 c0.4,0.2,0.8,0.3,1.2,0.5c0.7,0.3,2.3,1.5,2.6,2c0.2,0.3,0.3,0.6,0.5,0.9v0.4c-0.2,0.3-0.5,0.8-0.8,1.1c-1.3,1-3.3-1.2-3.6-1.8 c-0.2-0.3-0.8-1-1.2-0.9c-0.1,0-1.4,0.5-1.5,0.5c-0.3,0.3-0.4,0.9-0.7,1.2c-0.5,0.5-0.9,1.2-1.5,1.9l0.1,0.6c0,0.1-0.6,0.7-0.7,0.5 c-0.2,0.3-0.5,0.7-0.7,1h0.1c-0.5,0.1-0.9,1-1.3,1.3H67c-0.1,0.6-0.2,0.6-0.9,1c0.1,0.1,0,0-0.1,0.1c0,0.1,0,0.1,0.1,0.2l0.1-0.1 L66,25.3c0.2,0.3,0.5,0.6,0.7,0.7l0.7-0.4c0.1-0.1,0.1-0.3,0.3-0.4c1.1-0.7,2.1-1,3.6-1.1c1.5-0.1,3.3,2.2,0.9,2.9 c0.1,0.1,0.1,0.1,0,0.3c-1.1,0.1-2.3,1.4-3.2,1.9c-0.3,0.2-1.3,0.4-1.4,0.6c-0.2,0.5,0.3,1.3,0.4,1.9c0.1,0.8,1.3,4.5,2,5.1 c0.6-1.5,1.5-3.1,2.1-4.6c0.3-0.7-0.1-1.7,0.1-2.1c0.7,0.2,1.2,0.8,1.6,1.1c0.8,0.8,1.3,1.6,1.6,2.6c0.1,0.3-0.1,0.8-0.1,1.1 l-0.2,0.3C75,36,74.5,36.7,74,37.3c0,0.1-0.1,0.2-0.1,0.3c-0.5,0.6-1.3,1.4-1.6,2.2c1.6,1.9,3.6,3.4,5.6,4.9c0.5,0.3,1.3,0.7,1.7,1 c0.3,0.2,0.6,0.2,0.7,0.4h0.1l0.1-1l-0.2-0.9c0.1,0.1,0.1,0.2,0.2,0.3c-0.6-2.1-0.7-3.2-1.7-4.9l-0.4-0.8v0.1 c-0.2-0.4-0.2-0.5-0.5-0.9h0.3c0.082,0.245,0.102,0.423,0.214,0.589c0.08-0.08,0.093-0.082,0.186,0.011L78.3,38h0.1l1.4,2.1 c-0.1-0.9-1-1.8-1.4-2.8h0.1c0.1,0.4,1.3,1.6,1.7,2.2c0.8,1.3,1.7,2.5,2.8,3.8c0.1,0,0.1,0,0.2-0.1v0.1v0.1c0.1,0,0.1,0.1,0.2,0.1 v0.2c0.1-0.1,0.8,1.7,1,1.6c0.1,0,0.1,0.2,0.2,0.1c0.3,0.4,0.1,1.1,0.7,1.3v-0.2h0.1c0.1,0.2,0.1,0.1,0.2,0.3 c0.1,0.4,0.2,0.9,0.4,1.3V48C86.2,48.3,85.5,49.7,85.3,49.8z"/>
</svg>
