<svg id="logoSVG"  version="1.1" xmlns="http://www.w3.org/2000/svg" viewBox="0 0 100 88">
    <path id="afro" d="M81.2,23.2c0.9,0.7,1.8,1.6,2.6,2.4c0.9,0.9,1.7,2.3,0.6,3.3c-0.1,0.1-0.8,0.2-1,0.3c-0.1-0.3-0.4-0.1-0.7-0.2 c-0.2-0.2-0.4-0.4-0.7-0.6c-0.6-0.3-0.6-1.1-1.3-1.3c-0.7-0.2-2-0.1-2.6,0.1c0,0-0.3,0.2-0.4,0c-0.1,0.1-0.3,0.3-0.5,0.2 c1.1-0.6,2.3-1.3,3.2-2.2c-0.3-0.9-2.3-2.6-3-3.4h0.2v-0.1c-0.1-0.1-0.2-0.1-0.3-0.3c0.4,0,0.8,0.3,1.1,0.4l1,0.3 C80,22.6,80.7,22.8,81.2,23.2z M55.9,45c-0.4,0.6-0.5,1.2-0.8,1.6c-0.3-0.1-0.3,0.1-0.5,0.2c-0.7-0.1-1.5-0.3-1.9-0.6 c0-0.3-0.5-0.6-0.7-0.9v-0.9c-0.2-0.6-0.5-1.4-0.5-2.2c0-0.4,1.4-2.5,1.7-3.2c0.7-1.6,1.1-3.3,1.4-4.9c0.1-0.7-0.1-1.3,0-1.9 c0.6,0.1,1.6,0.5,2.1,1c0.1,0.2,0.2,0.5,0.4,0.7V34c0,0.3,0.2,1,0.4,1.4c0.1,0.4,0,0.9,0.2,1.4C58.3,39.7,57.2,42.8,55.9,45z  M85.3,49.8v0.3c-0.7,0.3-1.4,0.9-2.4,0.7h-0.3c-0.2-0.2-1.5-0.4-1.9-0.6c-0.3-0.1-0.9-0.5-1.3-0.7c-2.3-1.2-4.3-2.7-6.1-4.4 c-0.7-0.7-1.3-1.4-2-2.1c-0.2-0.3-0.5-0.8-0.8-0.9l-1.3,1c-0.3,0.2-0.7,0.2-1,0.5H68c-0.3,0.2-0.4,0.4-0.8,0.6 c-0.4,0.2-0.7-0.2-1.2,0c-0.6,0.2-1.2,0.6-1.9,0.7c-0.2-0.1-0.2-0.2-0.6-0.1c0.1,0,0.1,0,0.2,0.1c-0.7,0-2.6-0.5-3-0.9 c0-0.2-1.2-1-1.5-1.1l0.1-0.1c0.1,0.1,0,0.1,0.2,0.1c-0.1-0.3-0.3-0.5-0.5-0.7c0.6,0.3,1,0.3,1.6,0.6c0-0.1-0.1-0.1-0.1-0.2 c1.3,0.8,2.6-0.1,3.9-0.3h-0.2c0.2-0.1,0.5-0.1,0.7-0.1c0.6-0.2,1.2-0.9,1.8-0.8v-0.1c0.6-0.4,1.1-0.8,1.6-1.3h-0.2v-0.1 c1-0.3,0-1.6-0.4-2.2c-1-1.9-2-4.2-3-6.2c-0.3,0-1.3,0.3-1.6,0.4c-1.7,0.5-5,0.1-5.6-1.2c1.2,0,2.3-0.9,3-1c0.1-0.1,0.1-0.2,0.2-0.3 v0.1l1-0.4v-0.2h-0.2V29c-0.2,0-0.3,0.2-0.5,0.1c0.1,0,0.9-0.7,0.8-0.9l-0.1,0.1h-0.1v-0.1h-0.1l-0.1,0.2h0.1c0,0.1-0.1,0.1-0.1,0.2 h-0.1v-0.1H61v-0.1c0.2-0.1,0.1-0.1,0.3-0.1v-0.2c0.4-0.3,0.8-0.8,1-1.2l0.1,0.1v-0.1c0-0.4,0.2-0.3,0.4-0.6h-0.1L63,26l-0.6-3 c0.9,0,1.3,0.6,2,1c0-0.2,0.8-1.3,1-1.5c-0.1,0,0,0-0.1-0.1c0.1,0,0.1,0,0.1-0.1c0.1-0.6,0.8-1.3,1.1-1.9c0.6-1.4,1.5-3,1.9-4.7 c-0.8,0-4.6,0.5-4.9,0.8c-0.6,0.6-0.8,2.8-1,3.4c-0.1,0.4,0.1,0.9,0.1,1.1c0,0.3-0.5,0.8-0.4,1.1l-0.6,0.5c-1.8,0.9-3-2.3-3.6-3 h-0.1c-0.7,2-2.1,3.3-4.3,2.2c-0.8-0.4-1.6-0.5-2.2-1c-0.1-0.1-0.4-0.1-0.5-0.1l-0.5-0.5c-0.1-0.1-0.2,0.1-0.3,0 c-0.4-0.2-0.8-0.6-1-1.2c0.5-0.5,2.2-0.8,2.9-0.6c1.1-0.3,2.5-0.4,3.4-0.9c0.2-0.1,1.7-0.5,1.7-0.7c0.1-0.2,0-0.4-0.1-0.6 c-0.2-0.8-0.5-3-0.1-3.5H57c0.9,0.1,2.3,1.7,2.8,2.3c0.2,0.3,0.3,0.7,0.6,0.9c0.9-0.2,1.9-0.5,2.8-0.7c0.2,0,0.7-0.1,1.1-0.2h0.2 c1.4-0.1,3.1-0.4,4.4-0.5c0.3-1.1,0.8-2.3,1-3.3c0.2-0.6,0.1-1.6,0-2L69.8,9c-0.1-0.5,0.2-0.7,0-1.3l0.3,0.2c0-0.1,0-0.2-0.1-0.3 c0.1,0,0.1,0.1,0.2,0.1V7.4c0.3,0.1,0.5,0.4,0.7,0.7c0.1,0.1,0.3,0.1,0.4,0.2c1,1.4,2.1,2.6,2.5,4.3c0.1,0.5-0.6,1.6-0.6,1.9h0.1 c0.3,0.1,0.9-0.2,1.3,0.1c0.4,0.2,0.8,0.3,1.2,0.5c0.7,0.3,2.3,1.5,2.6,2c0.2,0.3,0.3,0.6,0.5,0.9v0.4c-0.2,0.3-0.5,0.8-0.8,1.1 c-1.3,1-3.3-1.2-3.6-1.8c-0.2-0.3-0.8-1-1.2-0.9c-0.1,0-1.4,0.5-1.5,0.5c-0.3,0.3-0.4,0.9-0.7,1.2c-0.5,0.5-0.9,1.2-1.5,1.9l0.1,0.6 c0,0.1-0.6,0.7-0.7,0.5c-0.2,0.3-0.5,0.7-0.7,1h0.1c-0.5,0.1-0.9,1-1.3,1.3H67c-0.1,0.6-0.2,0.6-0.9,1c0.1,0.1,0,0-0.1,0.1 c0,0.1,0,0.1,0.1,0.2l0.1-0.1L66,25.3c0.2,0.3,0.5,0.6,0.7,0.7l0.7-0.4c0.1-0.1,0.1-0.3,0.3-0.4c1.1-0.7,2.1-1,3.6-1.1 s3.3,2.2,0.9,2.9c0.1,0.1,0.1,0.1,0,0.3c-1.1,0.1-2.3,1.4-3.2,1.9c-0.3,0.2-1.3,0.4-1.4,0.6c-0.2,0.5,0.3,1.3,0.4,1.9 c0.1,0.8,1.3,4.5,2,5.1c0.6-1.5,1.5-3.1,2.1-4.6c0.3-0.7-0.1-1.7,0.1-2.1c0.7,0.2,1.2,0.8,1.6,1.1c0.8,0.8,1.3,1.6,1.6,2.6 c0.1,0.3-0.1,0.8-0.1,1.1l-0.2,0.3C75,36,74.5,36.7,74,37.3c0,0.1-0.1,0.2-0.1,0.3c-0.5,0.6-1.3,1.4-1.6,2.2 c1.6,1.9,3.6,3.4,5.6,4.9c0.5,0.3,1.3,0.7,1.7,1c0.3,0.2,0.6,0.2,0.7,0.4h0.1l0.1-1l-0.2-0.9c0.1,0.1,0.1,0.2,0.2,0.3 c-0.6-2.1-0.7-3.2-1.7-4.9l-0.4-0.8v0.1c-0.2-0.4-0.2-0.5-0.5-0.9h0.3c0.1,0.3,0.1,0.5,0.3,0.7h0.1c0.1-0.1-0.1,0-0.1-0.1h-0.1 c0.1-0.1,0.1-0.1,0.2,0L78.3,38h0.1l1.4,2.1c-0.1-0.9-1-1.8-1.4-2.8h0.1c0.1,0.4,1.3,1.6,1.7,2.2c0.8,1.3,1.7,2.5,2.8,3.8 c0.1,0,0.1,0,0.2-0.1v0.2v-0.1v0.1c0.1,0,0.1,0.1,0.2,0.1v0.2c0.1-0.1,0.8,1.7,1,1.6c0.1,0,0.1,0.2,0.2,0.1c0.3,0.4,0.1,1.1,0.7,1.3 v-0.2h0.1c0.1,0.2,0.1,0.1,0.2,0.3c0.1,0.4,0.2,0.9,0.4,1.3V48C86.2,48.3,85.5,49.7,85.3,49.8L85.3,49.8z M98.3,47 c0.9,0,1.6-0.7,1.7-1.7c0-0.9-0.7-1.7-1.6-1.7c0.9-0.1,1.6-0.9,1.5-1.8c-0.1-0.9-0.8-1.6-1.8-1.6c0.9-0.2,1.5-1,1.3-1.9 c-0.1-0.9-1-1.5-1.9-1.4c0.9-0.2,1.4-1.1,1.2-2c-0.2-0.9-1.1-1.4-2-1.2c0.9-0.3,1.3-1.3,1-2.1c-0.3-0.9-1.2-1.3-2.1-1.1 c0.8-0.4,1.2-1.4,0.8-2.2c-0.4-0.8-1.3-1.2-2.2-0.9c0.8-0.4,1.1-1.4,0.6-2.3c-0.4-0.8-1.4-1.1-2.2-0.7c0.7-0.5,0.9-1.5,0.4-2.3 s-1.5-1-2.3-0.5c0.7-0.6,0.8-1.6,0.3-2.3c-0.5-0.7-1.6-0.9-2.3-0.3c0.6-0.6,0.7-1.6,0.1-2.3c-0.6-0.7-1.6-0.7-2.3-0.2 c0.6-0.7,0.6-1.7-0.1-2.3c-0.6-0.6-1.7-0.6-2.3,0c0.5-0.7,0.4-1.7-0.3-2.3c-0.7-0.5-1.6-0.5-2.2,0.1c0.4-0.7,0.2-1.7-0.5-2.2 s-1.6-0.4-2.2,0.2c0.3-0.7,0-1.6-0.7-2.1c-0.7-0.4-1.6-0.3-2.1,0.3H76c0.2-0.8-0.1-1.6-0.8-2c-0.7-0.4-1.6-0.2-2.1,0.4H73 c0.2-0.8-0.2-1.6-1-1.9c-0.7-0.3-1.6-0.1-2.1,0.6h-0.1c0.1-0.8-0.3-1.6-1.1-1.8c-0.8-0.3-1.6,0-2,0.7h-0.1c0.1-0.8-0.4-1.6-1.2-1.8 c-0.8-0.2-1.7,0.2-2,0.9c0.1-0.8-0.5-1.6-1.3-1.8c-0.9-0.2-1.7,0.3-2,1.1c0-0.9-0.5-1.6-1.4-1.8C57.8,0.5,57,1.1,56.8,2 c0-0.9-0.6-1.7-1.5-1.7c-0.9-0.1-1.7,0.6-1.8,1.4c0-0.9-0.7-1.6-1.6-1.7c-0.9,0-1.7,0.7-1.7,1.6C50,0.7,49.2,0,48.3,0 s-1.6,0.8-1.6,1.7c-0.1-0.9-0.9-1.5-1.8-1.5C44,0.3,43.3,1,43.4,1.9c-0.2-0.9-1-1.5-1.9-1.3c-0.9,0.1-1.5,0.9-1.4,1.8 c-0.3-0.8-1.1-1.3-2-1.1c-0.8,0.2-1.4,1-1.3,1.8c-0.3-0.8-1.2-1.2-2-0.9c-0.8,0.2-1.3,1-1.2,1.8h-0.1c-0.4-0.7-1.3-1-2-0.7 c-0.8,0.3-1.2,1.1-1.1,1.8h-0.1c-0.4-0.6-1.3-0.9-2.1-0.6c-0.7,0.3-1.1,1.1-1,1.9h-0.1C26.6,5.8,25.7,5.6,25,6s-1.1,1.2-0.8,2h-0.1 c-0.5-0.6-1.4-0.7-2.1-0.3c-0.7,0.4-1,1.3-0.7,2.1c-0.6-0.6-1.5-0.7-2.2-0.2s-0.9,1.4-0.5,2.2c-0.6-0.6-1.6-0.6-2.2-0.1 c-0.7,0.6-0.8,1.6-0.3,2.3c-0.6-0.6-1.7-0.6-2.3,0c-0.7,0.6-0.7,1.7-0.1,2.4c-0.7-0.6-1.7-0.5-2.4,0.1c-0.6,0.7-0.6,1.7,0.1,2.4 c-0.7-0.5-1.8-0.4-2.3,0.3c-0.6,0.7-0.4,1.8,0.3,2.3C8.6,21,7.6,21.2,7.1,22s-0.3,1.8,0.5,2.3c-0.8-0.4-1.8-0.1-2.2,0.7 c-0.7,1-0.5,2,0.3,2.4c-0.8-0.3-1.8,0-2.2,0.9c-0.4,0.8,0,1.8,0.8,2.2c-0.9-0.3-1.8,0.2-2.1,1.1c-0.3,0.8,0.1,1.8,0.9,2.1 c-0.7-0.2-1.8,0.3-2,1.2s0.3,1.8,1.2,2c-0.9-0.1-1.7,0.5-1.9,1.4s0.4,1.7,1.3,1.9c-0.9,0-1.7,0.6-1.8,1.5s0.6,1.7,1.5,1.8 c-0.9,0-1.6,0.8-1.6,1.7s0.7,1.6,1.6,1.7C0.6,47-0.2,47.8,0,48.7c0.1,0.9,0.9,1.6,1.8,1.5c-0.8,0.1-1.5,1-1.3,1.9s1,1.5,1.9,1.4 c-0.7,0.2-1.4,1.2-1.1,2c0.2,0.9,1.1,1.4,2,1.2C2.5,57,2,58,2.3,58.8c0.3,0.9,1.3,1.3,2.1,1c-0.8,0.4-1.2,1.4-0.8,2.2 s1.4,1.2,2.2,0.8c-0.8,0.5-1,1.5-0.6,2.3s1.4,1.1,2.2,0.7c-0.7,0.5-0.9,1.5-0.4,2.3c0.5,0.7,1.4,0.9,2.2,0.5 c-0.6,0.6-0.7,1.6-0.1,2.2c0.5,0.7,1.4,0.8,2.2,0.4c-0.5,0.6-0.5,1.6,0.1,2.2s1.5,0.7,2.1,0.3c-0.4,0.7-0.3,1.6,0.3,2.1 c0.6,0.6,1.5,0.6,2.2,0.1h0.1c-0.4,0.7-0.2,1.6,0.4,2.1c0.6,0.5,1.6,0.5,2.2,0c-0.3,0.7-0.1,1.6,0.6,2.1s1.6,0.4,2.2-0.2 c-0.3,0.8,0,1.7,0.7,2.1s1.7,0.2,2.2-0.4c-0.3,0.8,0,1.7,0.8,2.1s1.8,0.1,2.2-0.6c-0.3,0.8,0.1,1.8,0.9,2.1c0.8,0.4,1.8,0,2.2-0.8 c-0.3,0.9,0.2,1.8,1.1,2.1c0.9,0.3,1.8-0.2,2.1-1h0.1c-0.2,1,0.3,2.1,1.6,2.1c2.3,0,2.1-3.6-0.2-3.4c-0.4,0-0.7,0.2-0.9,0.4v-0.1 c0.7-0.5,0.9-1.6,0.3-2.3c-0.5-0.7-1.5-0.9-2.3-0.4v-0.1c0.7-0.5,1-1.5,0.5-2.2c-0.4-0.8-1.4-1.1-2.2-0.7v-0.1 c0.8-0.4,1.1-1.4,0.7-2.2c-0.4-0.8-1.3-1.2-2.2-0.9v-0.1c0.8-0.3,1.2-1.3,0.9-2.1c-0.3-0.9-1.3-1.3-2.1-1v-0.1 c0.9-0.3,1.4-1.2,1.1-2.1s-1.2-1.4-2.1-1.1V69c0.9-0.2,1.5-1.1,1.3-2s-1.1-1.5-2-1.3h-0.1v-0.1h0.1c0.9-0.1,1.6-1,1.4-1.9 c-0.1-0.9-1-1.6-1.9-1.4h-0.1v-0.1h0.1c0.9-0.1,1.6-0.9,1.6-1.8c-0.1-0.9-0.9-1.6-1.8-1.6h-0.1v-0.1h0.1c0.9,0,1.7-0.7,1.7-1.7 c0-0.9-0.7-1.7-1.7-1.7h-0.1v-0.1h0.2c0.8,0,1.6-0.6,1.7-1.5s-0.5-1.7-1.4-1.9v-0.1h0.4c0.7,0,1.4-0.5,1.6-1.2 c0.2-0.8-0.2-1.7-0.9-2v-0.1c0.2,0.1,0.4,0.1,0.6,0.1c0.6,0,1.1-0.3,1.5-0.8c0.4-0.7,0.2-1.6-0.4-2.1v-0.1c0.3,0.2,0.7,0.3,1,0.3 c0.4,0,0.8-0.1,1.1-0.4c0.6-0.6,0.7-1.5,0.2-2.2h0.1c0.3,0.5,0.8,0.7,1.4,0.7c0.3,0,0.5-0.1,0.8-0.2c0.8-0.4,1.1-1.4,0.7-2.2h0.1 c0.2,0.6,0.7,1.1,1.6,1.1c0.7,0,1.2-0.3,1.4-0.8h0.1c-0.4,0.8-0.1,1.8,0.7,2.3c0.3,0.1,0.5,0.2,0.8,0.2c0.6,0,1.2-0.3,1.5-0.9h0.1 c-0.4,0.8,0,1.8,0.8,2.2c0.2,0.1,0.5,0.2,0.7,0.2c0.6,0,1.2-0.4,1.5-1h0.1c-0.3,0.9,0.1,1.8,1,2.2c0.2,0.1,0.4,0.1,0.6,0.1 c0.7,0,1.3-0.4,1.6-1.1h0.1c-0.3,0.9,0.2,1.8,1.1,2.1c0.2,0,0.3,0.1,0.5,0.1c0.7,0,1.4-0.5,1.6-1.2H50c-0.2,0.9,0.3,1.8,1.2,2h0.4 c0.8,0,1.5-0.5,1.6-1.3h0.1c-0.2,0.9,0.5,1.8,1.4,1.9H55c0.8,0,1.5-0.6,1.7-1.4h0.1c-0.1,0.9,0.6,1.7,1.5,1.8h0.2 c0.9,0,1.6-0.6,1.7-1.5h0.1c0,0.9,0.7,1.7,1.6,1.7H62c0.9,0,1.6-0.7,1.7-1.6H64c0,0.9,0.8,1.6,1.7,1.6s1.7-0.8,1.6-1.7h0.1 c0.1,0.9,0.8,1.5,1.7,1.5h0.1c0.9-0.1,1.6-0.9,1.5-1.8h0.1c0.1,0.7,0.6,1.4,1.6,1.4h0.2c-0.6,0.3-1,1.1-0.8,1.8s0.8,1.3,1.5,1.3 c-0.6,0.2-1.2,0.9-1.1,1.7s0.6,1.4,1.4,1.5c-0.6,0.1-1.3,0.8-1.3,1.6s0.5,1.5,1.3,1.7c-0.8,0.1-1.4,0.7-1.5,1.5s0.4,1.5,1.1,1.8 c-0.8,0-1.4,0.6-1.6,1.4c-0.1,0.8,0.3,1.5,1,1.8c-0.8,0-1.5,0.5-1.7,1.3s0.2,1.6,0.9,1.9c-0.8-0.1-1.5,0.4-1.7,1.2 c-0.2,0.8,0.1,1.6,0.8,1.9c-0.8-0.1-1.5,0.3-1.8,1.1c-0.3,0.7,0,1.6,0.6,2c-0.7-0.2-1.5,0.2-1.9,0.9c-0.3,0.7-0.1,1.6,0.5,2 c-0.7-0.2-1.5,0.1-1.9,0.8c-0.4,0.7-0.3,1.5,0.3,2.1c-0.7-0.3-1.5-0.1-2,0.6c-0.4,0.6-0.4,1.5,0,2c-0.3-0.1-0.6-0.2-0.9-0.2 c-2.1,0.2-1.9,3.4,0.2,3.4c1.3,0,1.8-1.2,1.6-2.1c0.2,0.7,0.9,1.1,1.6,1.1c0.2,0,0.4,0,0.6-0.1c0.9-0.3,1.3-1.2,1.1-2.1 c0.4,0.8,1.3,1.2,2.2,0.8c0.8-0.3,1.2-1.3,0.9-2.1c0.4,0.8,1.4,1,2.2,0.6c0.8-0.4,1.1-1.3,0.8-2.1c0.5,0.7,1.5,0.9,2.2,0.4 c0.7-0.4,1-1.3,0.7-2.1c0.6,0.6,1.5,0.7,2.2,0.2s0.9-1.4,0.6-2.1h0.1c0.6,0.5,1.5,0.6,2.2,0c0.6-0.5,0.8-1.4,0.4-2.1h0.1 c0.6,0.5,1.5,0.4,2.2-0.1c0.6-0.6,0.7-1.5,0.3-2.1c0.7,0.4,1.6,0.3,2.1-0.3c0.6-0.6,0.6-1.5,0.1-2.2c0.7,0.4,1.6,0.2,2.2-0.4 c0.5-0.7,0.5-1.6-0.1-2.2c0.7,0.4,1.7,0.2,2.2-0.5s0.3-1.7-0.4-2.3c0.8,0.4,1.8,0.1,2.2-0.7c0.4-0.8,0.2-1.8-0.6-2.3 c0.8,0.4,1.8,0,2.2-0.8c0.4-0.8,0-1.8-0.8-2.2c0.9,0.3,1.8-0.2,2.1-1c0.3-0.9-0.1-1.8-1-2.1c0.9,0.2,1.8-0.3,2-1.2s-0.3-1.8-1.1-2 c0.9,0.1,1.7-0.5,1.9-1.4s-0.4-1.8-1.3-1.9c0.9,0.1,1.7-0.6,1.8-1.5C99.9,47.9,99.3,47.1,98.3,47L98.3,47z"/>
    <path id="glasses" d="M70.1,57.3c-1.7-1.9-15.9-2.8-18.3,0c-0.3,0.3-0.5,0.7-0.6,1c-0.4,0-0.8-0.1-1.2-0.1s-0.8,0-1.2,0.1 c-0.1-0.3-0.3-0.7-0.6-1c-2.4-2.8-16.6-1.9-18.3,0c-1.9,2.2-0.4,6,1.8,8.5c2.2,2.5,12.4,2,14.1,0c1.1-1.3,2.8-3.3,3.2-5.3 c0.3,0,0.7-0.1,1-0.1s0.7,0,1,0.1c0.4,2,2,4,3.2,5.3c1.8,2,12,2.5,14.2,0S72,59.5,70.1,57.3z"/>
    <path id="kanji_ko01ID" d="M62.4,16.9c-0.3,0.2-1,0.3-1.3,0.7l0.1,0.3C61.6,17.8,62.4,17.2,62.4,16.9z"/>
    <path id="kanji_ko02ID" d="M62.2,28.3l0.2-0.2c-0.2,0.1-0.3,0.2-0.4,0.3C62.2,28.3,62.1,28.3,62.2,28.3c0,0.1-0.3,0.4-0.5,0.5 c0.7-0.1,1.4-0.6,1.8-0.9h-0.1c0-0.1,0.1-0.1,0.1-0.1c0-0.1,0-0.4-0.1-0.5c-0.1,0.2-0.8,0.4-0.7,0.7C62.5,28.1,62.4,28.3,62.2,28.3z "/>
</svg>
