<svg id="logoSVG"  version="1.1" xmlns="http://www.w3.org/2000/svg" viewBox="0 0 100 88">
    <path d="M98.3,47c0.9,0,1.6-0.7,1.7-1.7c0-0.9-0.7-1.7-1.6-1.7c0.9-0.1,1.6-0.9,1.5-1.8c-0.1-0.9-0.8-1.6-1.8-1.6 c0.9-0.2,1.5-1,1.3-1.9c-0.1-0.9-1-1.5-1.9-1.4c0.9-0.2,1.4-1.1,1.2-2c-0.2-0.9-1.1-1.4-2-1.2c0.9-0.3,1.3-1.3,1-2.1 c-0.3-0.9-1.2-1.3-2.1-1.1c0.8-0.4,1.2-1.4,0.8-2.2c-0.4-0.8-1.3-1.2-2.2-0.9c0.8-0.4,1.1-1.4,0.6-2.3c-0.4-0.8-1.4-1.1-2.2-0.7 c0.7-0.5,0.9-1.5,0.4-2.3c-0.5-0.8-1.5-1-2.3-0.5c0.7-0.6,0.8-1.6,0.3-2.3c-0.5-0.7-1.6-0.9-2.3-0.3c0.6-0.6,0.7-1.6,0.1-2.3 c-0.6-0.7-1.6-0.7-2.3-0.2c0.6-0.7,0.6-1.7-0.1-2.3c-0.6-0.6-1.7-0.6-2.3,0l0,0c0.5-0.7,0.4-1.7-0.3-2.3c-0.7-0.5-1.6-0.5-2.2,0.1 c0,0,0,0,0,0c0.4-0.7,0.2-1.7-0.5-2.2c-0.7-0.5-1.6-0.4-2.2,0.2c0,0,0,0,0,0c0.3-0.7,0-1.6-0.7-2.1c-0.7-0.4-1.6-0.3-2.1,0.3 c0,0,0,0-0.1,0c0.2-0.8-0.1-1.6-0.8-2c-0.7-0.4-1.6-0.2-2.1,0.4c0,0,0,0-0.1,0c0.2-0.8-0.2-1.6-1-1.9c-0.7-0.3-1.6-0.1-2.1,0.6 c0,0,0,0-0.1,0c0.1-0.8-0.3-1.6-1.1-1.8c-0.8-0.3-1.6,0-2,0.7c0,0,0,0-0.1,0c0.1-0.8-0.4-1.6-1.2-1.8c-0.8-0.2-1.7,0.2-2,0.9 c0,0,0,0,0,0c0.1-0.8-0.5-1.6-1.3-1.8c-0.9-0.2-1.7,0.3-2,1.1h0c0-0.9-0.5-1.6-1.4-1.8C57.8,0.5,57,1.1,56.8,2h0 c0-0.9-0.6-1.7-1.5-1.7c-0.9-0.1-1.7,0.6-1.8,1.4c0-0.9-0.7-1.6-1.6-1.7c-0.9,0-1.7,0.7-1.7,1.6C50,0.7,49.2,0,48.3,0 c-0.9,0-1.6,0.8-1.6,1.7c-0.1-0.9-0.9-1.5-1.8-1.5c-0.9,0.1-1.6,0.8-1.5,1.7h0c-0.2-0.9-1-1.5-1.9-1.3c-0.9,0.1-1.5,0.9-1.4,1.8h0 c-0.3-0.8-1.1-1.3-2-1.1c-0.8,0.2-1.4,1-1.3,1.8c0,0,0,0,0,0c-0.3-0.8-1.2-1.2-2-0.9c-0.8,0.2-1.3,1-1.2,1.8c0,0,0,0-0.1,0 c-0.4-0.7-1.3-1-2-0.7c-0.8,0.3-1.2,1.1-1.1,1.8c0,0,0,0-0.1,0c-0.4-0.6-1.3-0.9-2.1-0.6c-0.7,0.3-1.1,1.1-1,1.9c0,0,0,0-0.1,0 c-0.5-0.6-1.4-0.8-2.1-0.4c-0.7,0.4-1.1,1.2-0.8,2c0,0,0,0-0.1,0c-0.5-0.6-1.4-0.7-2.1-0.3c-0.7,0.4-1,1.3-0.7,2.1c0,0,0,0,0,0 c-0.6-0.6-1.5-0.7-2.2-0.2c-0.7,0.5-0.9,1.4-0.5,2.2c0,0,0,0,0,0c-0.6-0.6-1.6-0.6-2.2-0.1c-0.7,0.6-0.8,1.6-0.3,2.3l0,0 c-0.6-0.6-1.7-0.6-2.3,0c-0.7,0.6-0.7,1.7-0.1,2.4c-0.7-0.6-1.7-0.5-2.4,0.1c-0.6,0.7-0.6,1.7,0.1,2.4c-0.7-0.5-1.8-0.4-2.3,0.3 c-0.6,0.7-0.4,1.8,0.3,2.3c-0.8-0.5-1.8-0.3-2.3,0.5c-0.5,0.8-0.3,1.8,0.5,2.3c-0.8-0.4-1.8-0.1-2.2,0.7C4.7,26,4.9,27,5.7,27.4 c-0.8-0.3-1.8,0-2.2,0.9c-0.4,0.8,0,1.8,0.8,2.2c-0.9-0.3-1.8,0.2-2.1,1.1c-0.3,0.8,0.1,1.8,0.9,2.1c-0.7-0.2-1.8,0.3-2,1.2 c-0.2,0.9,0.3,1.8,1.2,2c-0.9-0.1-1.7,0.5-1.9,1.4s0.4,1.7,1.3,1.9c-0.9,0-1.7,0.6-1.8,1.5c-0.1,0.9,0.6,1.7,1.5,1.8 c-0.9,0-1.6,0.8-1.6,1.7c0,0.9,0.7,1.6,1.6,1.7c-0.8,0.1-1.6,0.9-1.4,1.8c0.1,0.9,0.9,1.6,1.8,1.5c-0.8,0.1-1.5,1-1.3,1.9 c0.2,0.9,1,1.5,1.9,1.4c-0.7,0.2-1.4,1.2-1.1,2c0.2,0.9,1.1,1.4,2,1.2c-0.8,0.3-1.3,1.3-1,2.1c0.3,0.9,1.3,1.3,2.1,1 c-0.8,0.4-1.2,1.4-0.8,2.2c0.4,0.8,1.4,1.2,2.2,0.8c-0.8,0.5-1,1.5-0.6,2.3c0.4,0.8,1.4,1.1,2.2,0.7v0c-0.7,0.5-0.9,1.5-0.4,2.3 c0.5,0.7,1.4,0.9,2.2,0.5c0,0,0,0,0,0c-0.6,0.6-0.7,1.6-0.1,2.2c0.5,0.7,1.4,0.8,2.2,0.4c0,0,0,0,0,0c-0.5,0.6-0.5,1.6,0.1,2.2 c0.6,0.6,1.5,0.7,2.1,0.3l0,0c-0.4,0.7-0.3,1.6,0.3,2.1c0.6,0.6,1.5,0.6,2.2,0.1c0,0,0,0,0.1,0c-0.4,0.7-0.2,1.6,0.4,2.1 c0.6,0.5,1.6,0.5,2.2,0c0,0,0,0,0,0c-0.3,0.7-0.1,1.6,0.6,2.1c0.7,0.5,1.6,0.4,2.2-0.2c0,0,0,0,0,0c-0.3,0.8,0,1.7,0.7,2.1 c0.7,0.4,1.7,0.2,2.2-0.4c0,0,0,0,0,0c-0.3,0.8,0,1.7,0.8,2.1c0.8,0.4,1.8,0.1,2.2-0.6c0,0,0,0,0,0c-0.3,0.8,0.1,1.8,0.9,2.1 c0.8,0.4,1.8,0,2.2-0.8c-0.3,0.9,0.2,1.8,1.1,2.1c0.9,0.3,1.8-0.2,2.1-1v0l0.1,0c-0.2,1,0.3,2.1,1.6,2.1c2.3,0,2.1-3.6-0.2-3.4 c-0.4,0-0.7,0.2-0.9,0.4c0,0,0,0,0-0.1c0.7-0.5,0.9-1.6,0.3-2.3c-0.5-0.7-1.5-0.9-2.3-0.4c0,0,0,0,0-0.1c0.7-0.5,1-1.5,0.5-2.2 c-0.4-0.8-1.4-1.1-2.2-0.7c0,0,0,0,0-0.1c0.8-0.4,1.1-1.4,0.7-2.2c-0.4-0.8-1.3-1.2-2.2-0.9c0,0,0,0,0-0.1c0.8-0.3,1.2-1.3,0.9-2.1 c-0.3-0.9-1.3-1.3-2.1-1c0,0,0-0.1,0-0.1c0.9-0.3,1.4-1.2,1.1-2.1c-0.3-0.9-1.2-1.4-2.1-1.1c0,0,0,0,0,0c0,0,0-0.1,0-0.1 c0,0,0,0,0,0c0.9-0.2,1.5-1.1,1.3-2s-1.1-1.5-2-1.3c0,0-0.1,0-0.1,0c0,0,0-0.1,0-0.1c0,0,0.1,0,0.1,0c0.9-0.1,1.6-1,1.4-1.9 c-0.1-0.9-1-1.6-1.9-1.4c0,0-0.1,0-0.1,0c0,0,0-0.1,0-0.1h0.1c0.9-0.1,1.6-0.9,1.6-1.8c-0.1-0.9-0.9-1.6-1.8-1.6c0,0-0.1,0-0.1,0 v-0.1c0,0,0.1,0,0.1,0h0c0.9,0,1.7-0.7,1.7-1.7c0-0.9-0.7-1.7-1.7-1.7h-0.1c0,0,0-0.1,0-0.1c0,0,0,0,0,0c0.1,0,0.1,0,0.2,0 c0.8,0,1.6-0.6,1.7-1.5c0.1-0.9-0.5-1.7-1.4-1.9c0,0,0,0,0-0.1c0.1,0,0.3,0,0.4,0c0.7,0,1.4-0.5,1.6-1.2c0.2-0.8-0.2-1.7-0.9-2 c0,0,0,0,0-0.1c0.2,0.1,0.4,0.1,0.6,0.1c0.6,0,1.1-0.3,1.5-0.8c0.4-0.7,0.2-1.6-0.4-2.1c0,0,0,0,0-0.1c0.3,0.2,0.7,0.3,1,0.3 c0.4,0,0.8-0.1,1.1-0.4c0.6-0.6,0.7-1.5,0.2-2.2c0,0,0,0,0.1,0c0.3,0.5,0.8,0.7,1.4,0.7c0.3,0,0.5-0.1,0.8-0.2 c0.8-0.4,1.1-1.4,0.7-2.2c0,0,0.1,0,0.1,0c0.2,0.6,0.7,1.1,1.6,1.1c0.7,0,1.2-0.3,1.4-0.8c0,0,0,0,0.1,0c0,0,0,0,0,0 c-0.4,0.8-0.1,1.8,0.7,2.3c0.3,0.1,0.5,0.2,0.8,0.2c0.6,0,1.2-0.3,1.5-0.9v0l0.1,0v0c-0.4,0.8,0,1.8,0.8,2.2 c0.2,0.1,0.5,0.2,0.7,0.2c0.6,0,1.2-0.4,1.5-1c0,0,0,0,0,0c0,0,0,0,0.1,0c0,0,0,0,0,0c-0.3,0.9,0.1,1.8,1,2.2 c0.2,0.1,0.4,0.1,0.6,0.1c0.7,0,1.3-0.4,1.6-1.1c0,0,0,0,0,0c0,0,0,0,0.1,0c0,0,0,0,0,0c-0.3,0.9,0.2,1.8,1.1,2.1 c0.2,0,0.3,0.1,0.5,0.1c0.7,0,1.4-0.5,1.6-1.2c0,0,0,0,0,0c0,0,0,0,0.1,0c0,0,0,0,0,0c-0.2,0.9,0.3,1.8,1.2,2c0.1,0,0.3,0,0.4,0 c0.8,0,1.5-0.5,1.6-1.3c0,0,0,0,0,0c0,0,0,0,0.1,0c0,0,0,0,0,0c-0.2,0.9,0.5,1.8,1.4,1.9c0.1,0,0.2,0,0.3,0c0.8,0,1.5-0.6,1.7-1.4 c0,0,0,0,0,0c0,0,0,0,0.1,0c0,0,0,0,0,0c-0.1,0.9,0.6,1.7,1.5,1.8c0.1,0,0.1,0,0.2,0c0.9,0,1.6-0.6,1.7-1.5v0c0,0,0,0,0.1,0v0 c0,0.9,0.7,1.7,1.6,1.7h0.1c0.9,0,1.6-0.7,1.7-1.6v0H64v0c0,0.9,0.8,1.6,1.7,1.6h0c0.9,0,1.7-0.8,1.6-1.7v0h0.1v0 c0.1,0.9,0.8,1.5,1.7,1.5c0,0,0.1,0,0.1,0c0.9-0.1,1.6-0.9,1.5-1.8v0c0,0,0.1,0,0.1,0c0.1,0.7,0.6,1.4,1.6,1.4c0.1,0,0.1,0,0.2,0 c-0.6,0.3-1,1.1-0.8,1.8c0.2,0.7,0.8,1.3,1.5,1.3c-0.6,0.2-1.2,0.9-1.1,1.7c0.1,0.8,0.6,1.4,1.4,1.5c-0.6,0.1-1.3,0.8-1.3,1.6 c0,0.8,0.5,1.5,1.3,1.7c-0.8,0.1-1.4,0.7-1.5,1.5c-0.1,0.8,0.4,1.5,1.1,1.8c-0.8,0-1.4,0.6-1.6,1.4c-0.1,0.8,0.3,1.5,1,1.8 c-0.8,0-1.5,0.5-1.7,1.3c-0.2,0.8,0.2,1.6,0.9,1.9c-0.8-0.1-1.5,0.4-1.7,1.2c-0.2,0.8,0.1,1.6,0.8,1.9c-0.8-0.1-1.5,0.3-1.8,1.1 c-0.3,0.7,0,1.6,0.6,2c-0.7-0.2-1.5,0.2-1.9,0.9c-0.3,0.7-0.1,1.6,0.5,2c-0.7-0.2-1.5,0.1-1.9,0.8c-0.4,0.7-0.3,1.5,0.3,2.1 c-0.7-0.3-1.5-0.1-2,0.6c-0.4,0.6-0.4,1.5,0,2c-0.3-0.1-0.6-0.2-0.9-0.2c-2.1,0.2-1.9,3.4,0.2,3.4c1.3,0,1.8-1.2,1.6-2.1 c0,0,0,0,0,0v0c0.2,0.7,0.9,1.1,1.6,1.1c0.2,0,0.4,0,0.6-0.1c0.9-0.3,1.3-1.2,1.1-2.1c0.4,0.8,1.3,1.2,2.2,0.8 c0.8-0.3,1.2-1.3,0.9-2.1h0c0.4,0.8,1.4,1,2.2,0.6c0.8-0.4,1.1-1.3,0.8-2.1c0,0,0,0,0,0c0.5,0.7,1.5,0.9,2.2,0.4 c0.7-0.4,1-1.3,0.7-2.1c0,0,0,0,0,0c0.6,0.6,1.5,0.7,2.2,0.2c0.7-0.5,0.9-1.4,0.6-2.1c0,0,0,0,0.1,0c0.6,0.5,1.5,0.6,2.2,0 c0.6-0.5,0.8-1.4,0.4-2.1c0,0,0,0,0.1,0c0.6,0.5,1.5,0.4,2.2-0.1c0.6-0.6,0.7-1.5,0.3-2.1l0,0c0.7,0.4,1.6,0.3,2.1-0.3 c0.6-0.6,0.6-1.5,0.1-2.2c0,0,0,0,0,0c0.7,0.4,1.6,0.2,2.2-0.4c0.5-0.7,0.5-1.6-0.1-2.2c0,0,0,0,0,0c0.7,0.4,1.7,0.2,2.2-0.5 c0.5-0.7,0.3-1.7-0.4-2.3v0c0.8,0.4,1.8,0.1,2.2-0.7c0.4-0.8,0.2-1.8-0.6-2.3c0.8,0.4,1.8,0,2.2-0.8c0.4-0.8,0-1.8-0.8-2.2 c0.9,0.3,1.8-0.2,2.1-1c0.3-0.9-0.1-1.8-1-2.1c0.9,0.2,1.8-0.3,2-1.2c0.2-0.9-0.3-1.8-1.1-2c0.9,0.1,1.7-0.5,1.9-1.4 s-0.4-1.8-1.3-1.9c0.9,0.1,1.7-0.6,1.8-1.5C99.9,47.9,99.3,47.1,98.3,47L98.3,47z"/>
    <path d="M2.4,43.5c0,0.1,0,0.1,0,0.2c-0.1-0.1-0.3-0.1-0.5-0.1C2.1,43.6,2.3,43.6,2.4,43.5z"/>
    <path d="M1.9,46.9c0.1,0,0.3-0.1,0.4-0.1c0,0.1,0,0.1,0,0.2C2.2,47,2.1,46.9,1.9,46.9L1.9,46.9z"/>
    <path d="M2.3,50.3c0.1,0,0.2-0.1,0.3-0.1c0,0,0,0.1,0,0.1C2.5,50.3,2.4,50.3,2.3,50.3z"/>
    <path d="M2.7,40.5c-0.1-0.1-0.3-0.1-0.5-0.2c0.2,0,0.4,0,0.5-0.1C2.7,40.3,2.7,40.4,2.7,40.5z"/>
    <path d="M2.9,53.6c0.1,0,0.1,0,0.2-0.1c0,0,0,0,0,0.1C3,53.5,2.9,53.5,2.9,53.6z"/>
    <path d="M3.2,37.2C3.1,37.1,2.9,37,2.7,37c0.2,0,0.4,0,0.5,0C3.2,37,3.2,37.1,3.2,37.2z"/>
    <path d="M3.7,56.8C3.8,56.8,3.8,56.8,3.7,56.8c0.1,0,0.1,0,0.1,0C3.8,56.8,3.8,56.8,3.7,56.8z"/>
    <path d="M4,34c-0.1-0.1-0.3-0.2-0.4-0.2c0.2,0,0.3,0,0.5,0C4,33.8,4,33.9,4,34z"/>
    <path d="M5,30.8c-0.1-0.1-0.2-0.2-0.4-0.2c0.1,0,0.3,0.1,0.4,0.1C5,30.7,5,30.8,5,30.8L5,30.8z"/>
    <path d="M6.3,27.7c-0.1-0.1-0.2-0.1-0.3-0.2c0.1,0,0.2,0.1,0.3,0.1C6.3,27.6,6.3,27.7,6.3,27.7z"/>
    <path d="M7.8,24.7c-0.1,0-0.1-0.1-0.2-0.1C7.6,24.6,7.7,24.6,7.8,24.7C7.8,24.7,7.8,24.7,7.8,24.7z"/>
    <path d="M9.5,21.8C9.5,21.8,9.4,21.8,9.5,21.8C9.4,21.8,9.5,21.8,9.5,21.8C9.5,21.8,9.5,21.8,9.5,21.8z"/>
    <path d="M81.2,23.2c0.9,0.7,1.8,1.6,2.6,2.4c0.9,0.9,1.7,2.3,0.6,3.3c-0.1,0.1-0.8,0.2-1,0.3c-0.1-0.3-0.4-0.1-0.7-0.2 c-0.2-0.2-0.4-0.4-0.7-0.6c-0.6-0.3-0.6-1.1-1.3-1.3c-0.7-0.2-2-0.1-2.6,0.1c0,0-0.3,0.2-0.4,0c-0.1,0.1-0.3,0.3-0.5,0.2 c1.1-0.6,2.3-1.3,3.2-2.2c-0.3-0.9-2.3-2.6-3-3.4c0.1,0,0.1,0,0.2,0l0-0.1c-0.1-0.1-0.2-0.1-0.3-0.3c0.4,0,0.8,0.3,1.1,0.4l1,0.3 C80,22.6,80.7,22.8,81.2,23.2L81.2,23.2z"/>
    <path d="M55.9,45c-0.4,0.6-0.5,1.2-0.8,1.6c-0.3-0.1-0.3,0.1-0.5,0.2c-0.7-0.1-1.5-0.3-1.9-0.6c0-0.3-0.5-0.6-0.7-0.9l0-0.9 c-0.2-0.6-0.5-1.4-0.5-2.2c0-0.4,1.4-2.5,1.7-3.2c0.7-1.6,1.1-3.3,1.4-4.9c0.1-0.7-0.1-1.3,0-1.9c0.6,0.1,1.6,0.5,2.1,1 c0.1,0.2,0.2,0.5,0.4,0.7l0,0.1c0,0.3,0.2,1,0.4,1.4c0.1,0.4,0,0.9,0.2,1.4C58.3,39.7,57.2,42.8,55.9,45L55.9,45z"/>
    <path d="M85.3,49.8l0,0.3c-0.7,0.3-1.4,0.9-2.4,0.7c0,0-0.2,0-0.3,0c-0.2-0.2-1.5-0.4-1.9-0.6c-0.3-0.1-0.9-0.5-1.3-0.7 c-2.3-1.2-4.3-2.7-6.1-4.4c-0.7-0.7-1.3-1.4-2-2.1c-0.2-0.3-0.5-0.8-0.8-0.9l-1.3,1c-0.3,0.2-0.7,0.2-1,0.5l-0.2,0 c-0.3,0.2-0.4,0.4-0.8,0.6c-0.4,0.2-0.7-0.2-1.2,0c-0.6,0.2-1.2,0.6-1.9,0.7c-0.2-0.1-0.2-0.2-0.6-0.1v0c0.1,0,0.1,0,0.2,0.1 c-0.7,0-2.6-0.5-3-0.9c0-0.2-1.2-1-1.5-1.1v0l0.1-0.1c0.1,0.1,0,0.1,0.2,0.1c-0.1-0.3-0.3-0.5-0.5-0.7h0c0.6,0.3,1,0.3,1.6,0.6 c0-0.1-0.1-0.1-0.1-0.2c1.3,0.8,2.6-0.1,3.9-0.3l0,0l-0.2,0c0.2-0.1,0.5-0.1,0.7-0.1c0.6-0.2,1.2-0.9,1.8-0.8c0-0.1,0,0,0-0.1 c0.6-0.4,1.1-0.8,1.6-1.3l-0.2,0l0-0.1c1-0.3,0-1.6-0.4-2.2c-1-1.9-2-4.2-3-6.2c-0.3,0-1.3,0.3-1.6,0.4c-1.7,0.5-5,0.1-5.6-1.2 c1.2,0,2.3-0.9,3-1c0.1-0.1,0.1-0.2,0.2-0.3l0,0.1l1-0.4c0-0.1,0-0.1,0-0.2c-0.1,0-0.1,0-0.2,0l0,0.1c-0.2,0-0.3,0.2-0.5,0.1 c0.1,0,0.9-0.7,0.8-0.9c0,0,0,0,0,0l-0.1,0.1l-0.1,0l0-0.1h-0.1l-0.1,0.2c0.1,0,0.1,0,0.1,0c0,0.1-0.1,0.1-0.1,0.2l-0.1,0l0-0.1 L61,28.5v0l0-0.1c0.2-0.1,0.1-0.1,0.3-0.1l0-0.2c0.4-0.3,0.8-0.8,1-1.2l0.1,0.1c0,0,0-0.1,0-0.1c0-0.4,0.2-0.3,0.4-0.6h-0.1l0.3-0.3 c0,0-0.6-3-0.6-3c0.9,0,1.3,0.6,2,1h0c0-0.2,0.8-1.3,1-1.5c-0.1,0,0,0-0.1-0.1c0.1,0,0.1,0,0.1-0.1c0,0,0,0,0,0 c0.1-0.6,0.8-1.3,1.1-1.9c0.6-1.4,1.5-3,1.9-4.7v0c-0.8,0-4.6,0.5-4.9,0.8c-0.6,0.6-0.8,2.8-1,3.4c-0.1,0.4,0.1,0.9,0.1,1.1 c0,0.3-0.5,0.8-0.4,1.1l-0.6,0.5c-1.8,0.9-3-2.3-3.6-3l-0.1,0c-0.7,2-2.1,3.3-4.3,2.2c-0.8-0.4-1.6-0.5-2.2-1 c-0.1-0.1-0.4-0.1-0.5-0.1l-0.5-0.5c-0.1-0.1-0.2,0.1-0.3,0c-0.4-0.2-0.8-0.6-1-1.2c0.5-0.5,2.2-0.8,2.9-0.6 c1.1-0.3,2.5-0.4,3.4-0.9c0.2-0.1,1.7-0.5,1.7-0.7c0.1-0.2,0-0.4-0.1-0.6c-0.2-0.8-0.5-3-0.1-3.5H57v0c0.9,0.1,2.3,1.7,2.8,2.3 c0.2,0.3,0.3,0.7,0.6,0.9c0.9-0.2,1.9-0.5,2.8-0.7c0.2,0,0.7-0.1,1.1-0.2l0.2,0c1.4-0.1,3.1-0.4,4.4-0.5c0.3-1.1,0.8-2.3,1-3.3 c0.2-0.6,0.1-1.6,0-2c0,0-0.1-0.2-0.1-0.2c-0.1-0.5,0.2-0.7,0-1.3l0,0l0.3,0.2c0-0.1,0-0.2-0.1-0.3c0.1,0,0.1,0.1,0.2,0.1 c0,0,0,0,0-0.1V7.4c0.3,0.1,0.5,0.4,0.7,0.7c0.1,0.1,0.3,0.1,0.4,0.2c1,1.4,2.1,2.6,2.5,4.3c0.1,0.5-0.6,1.6-0.6,1.9 c0.1,0,0,0,0.1,0c0.3,0.1,0.9-0.2,1.3,0.1c0.4,0.2,0.8,0.3,1.2,0.5c0.7,0.3,2.3,1.5,2.6,2c0.2,0.3,0.3,0.6,0.5,0.9l0,0.4 c-0.2,0.3-0.5,0.8-0.8,1.1c-1.3,1-3.3-1.2-3.6-1.8c-0.2-0.3-0.8-1-1.2-0.9c-0.1,0-1.4,0.5-1.5,0.5c-0.3,0.3-0.4,0.9-0.7,1.2 c-0.5,0.5-0.9,1.2-1.5,1.9L69.7,21c0,0.1-0.6,0.7-0.7,0.5c-0.2,0.3-0.5,0.7-0.7,1l0.1,0c-0.5,0.1-0.9,1-1.3,1.3c-0.1,0,0,0-0.1,0 c-0.1,0.6-0.2,0.6-0.9,1c0.1,0.1,0,0-0.1,0.1c0,0.1,0,0.1,0.1,0.2l0.1-0.1c0,0,0,0,0,0L66,25.3c0.2,0.3,0.5,0.6,0.7,0.7l0.7-0.4 c0.1-0.1,0.1-0.3,0.3-0.4c1.1-0.7,2.1-1,3.6-1.1c1.5-0.1,3.3,2.2,0.9,2.9c0.1,0.1,0.1,0.1,0,0.3c-1.1,0.1-2.3,1.4-3.2,1.9 c-0.3,0.2-1.3,0.4-1.4,0.6c-0.2,0.5,0.3,1.3,0.4,1.9c0.1,0.8,1.3,4.5,2,5.1l0,0c0.6-1.5,1.5-3.1,2.1-4.6c0.3-0.7-0.1-1.7,0.1-2.1 c0.7,0.2,1.2,0.8,1.6,1.1c0.8,0.8,1.3,1.6,1.6,2.6c0.1,0.3-0.1,0.8-0.1,1.1l-0.2,0.3C75,36,74.5,36.7,74,37.3c0,0.1-0.1,0.2-0.1,0.3 c-0.5,0.6-1.3,1.4-1.6,2.2c1.6,1.9,3.6,3.4,5.6,4.9c0.5,0.3,1.3,0.7,1.7,1c0.3,0.2,0.6,0.2,0.7,0.4c0,0,0.1,0,0.1,0l0.1-1l-0.2-0.9 c0.1,0.1,0.1,0.2,0.2,0.3c-0.6-2.1-0.7-3.2-1.7-4.9l-0.4-0.8l0,0.1c-0.2-0.4-0.2-0.5-0.5-0.9h0c0.2,0,0.3,0,0.3,0 c0.1,0.3,0.1,0.5,0.3,0.7c0.1,0,0,0,0.1,0c0.1-0.1-0.1,0-0.1-0.1h-0.1c0.1-0.1,0.1-0.1,0.2,0l-0.3-0.6l0.1,0l1.4,2.1 c-0.1-0.9-1-1.8-1.4-2.8l0.1,0h0c0.1,0.4,1.3,1.6,1.7,2.2c0.8,1.3,1.7,2.5,2.8,3.8c0.1,0,0.1,0,0.2-0.1l0,0.1l0,0.1l0-0.1 c0,0,0,0.1,0,0.1c0.1,0,0.1,0.1,0.2,0.1l0,0.2c0.1-0.1,0.8,1.7,1,1.6c0.1,0,0.1,0.2,0.2,0.1c0.3,0.4,0.1,1.1,0.7,1.3l0-0.2h0.1 c0.1,0.2,0.1,0.1,0.2,0.3c0.1,0.4,0.2,0.9,0.4,1.3L86,48C86.2,48.3,85.5,49.7,85.3,49.8L85.3,49.8z"/>
    <path d="M90.6,21.9C90.6,21.9,90.6,21.9,90.6,21.9C90.6,21.9,90.6,21.9,90.6,21.9C90.6,21.9,90.6,21.9,90.6,21.9L90.6,21.9z"/>
    <path d="M92.3,24.8L92.3,24.8c0-0.1,0.1-0.1,0.2-0.1C92.4,24.7,92.4,24.7,92.3,24.8z"/>
    <path d="M93.8,27.8c0,0,0-0.1,0-0.1c0.1,0,0.2,0,0.3-0.1C94,27.6,93.9,27.7,93.8,27.8z"/>
    <path d="M95.1,30.9c0-0.1,0-0.1-0.1-0.2c0.1,0,0.3,0,0.4-0.1C95.3,30.7,95.2,30.8,95.1,30.9L95.1,30.9z"/>
    <path d="M96.2,56.8C96.2,56.8,96.2,56.8,96.2,56.8c0,0,0.1,0,0.1,0C96.3,56.8,96.2,56.8,96.2,56.8z"/>
    <path d="M96.1,34.1c0-0.1,0-0.1-0.1-0.2c0.2,0,0.3,0,0.5,0C96.4,33.9,96.2,33.9,96.1,34.1L96.1,34.1z"/>
    <path d="M96.8,37c0.2,0,0.4,0,0.5,0c-0.2,0-0.3,0.1-0.5,0.2C96.8,37.2,96.8,37.1,96.8,37z"/>
    <path d="M96.9,53.6C96.9,53.6,97,53.6,96.9,53.6c0.1,0,0.1,0,0.2,0C97.1,53.6,97,53.6,96.9,53.6z"/>
    <path d="M97.4,40.5c0-0.1,0-0.2,0-0.2c0.2,0,0.3,0.1,0.5,0.1C97.7,40.4,97.5,40.4,97.4,40.5L97.4,40.5z"/>
    <path d="M97.4,50.4c0,0,0-0.1,0-0.1c0.1,0,0.2,0.1,0.3,0.1C97.7,50.3,97.5,50.3,97.4,50.4L97.4,50.4z"/>
    <path d="M97.7,47.1c0-0.1,0-0.1,0-0.2c0.1,0,0.3,0.1,0.4,0.1C98,47,97.8,47,97.7,47.1L97.7,47.1z"/>
    <path d="M97.6,43.8c0-0.1,0-0.1,0-0.2c0.1,0,0.3,0.1,0.5,0.1C98,43.7,97.8,43.7,97.6,43.8L97.6,43.8z"/>
    <path id="glassesID" d="M70.1,57.3c-1.7-1.9-15.9-2.8-18.3,0c-0.3,0.3-0.5,0.7-0.6,1c-0.4,0-0.8-0.1-1.2-0.1c-0.4,0-0.8,0-1.2,0.1 c-0.1-0.3-0.3-0.7-0.6-1c-2.4-2.8-16.6-1.9-18.3,0c-1.9,2.2-0.4,6,1.8,8.5c2.2,2.5,12.4,2,14.1,0c1.1-1.3,2.8-3.3,3.2-5.3 c0.3,0,0.7-0.1,1-0.1s0.7,0,1,0.1c0.4,2,2,4,3.2,5.3c1.8,2,12,2.5,14.2,0C70.6,63.3,72,59.5,70.1,57.3L70.1,57.3z"/>
    <path id="kanji_ko01ID" d="M62.4,16.9c-0.3,0.2-1,0.3-1.3,0.7l0.1,0.3C61.6,17.8,62.4,17.2,62.4,16.9L62.4,16.9z"/>
    <path id="kanji_ko02ID" d="M62.2,28.3L62.2,28.3c0.1-0.1,0.1-0.1,0.2-0.2l0,0c-0.2,0.1-0.3,0.2-0.4,0.3c0.2-0.1,0.1-0.1,0.3,0 c-0.1,0-0.4,0.3-0.6,0.4c0.7-0.1,1.4-0.6,1.8-0.9c0,0-0.1,0-0.1,0c0-0.1,0.1-0.1,0.1-0.1c0-0.1,0-0.4-0.1-0.5 c-0.1,0.2-0.8,0.4-0.7,0.7C62.5,28.1,62.4,28.3,62.2,28.3L62.2,28.3z"/>
</svg>
