<svg id="logoSVG"  version="1.1" xmlns="http://www.w3.org/2000/svg" viewBox="0 0 1000 880">
    <path id="afro" d="M983.4 470.5c9.1-.2 16.5-7.5 16.6-16.6.1-9.1-7.1-16.6-16.2-17 9-1 15.7-8.9 15.1-18-.7-9.1-8.5-16-17.6-15.6 8.9-1.7 14.9-10.2 13.5-19.2-1.4-9-9.8-15.2-18.9-14 8.8-2.5 14-11.4 11.8-20.3-2.2-8.9-11.2-14.4-20.2-12.3 8.6-3.1 13.2-12.6 10.2-21.3-3-8.7-12.3-13.3-21.1-10.6 8.3-3.9 12-13.6 8.3-22-3.7-8.3-13.4-12.2-21.8-8.8 7.9-4.5 10.7-14.5 6.4-22.6-4.3-8-14.3-11.1-22.4-7.1 7.4-5.2 9.5-15.3 4.5-22.9-5-7.6-15.1-9.9-22.8-5.3 7-5.7 8.2-16 2.6-23.2-5.5-7.2-15.8-8.7-23.1-3.5 6.5-6.3 6.9-16.5.8-23.3-6.1-6.7-16.4-7.5-23.3-1.8 6-6.7 5.6-17-.9-23.3-6.5-6.2-16.8-6.2-23.3-.2l-.1-.1c5.3-7.1 4.2-17.2-2.7-23-6.7-5.5-16.4-5.1-22.5.8-.1-.1-.2-.1-.2-.2 4.2-7.4 2.2-16.8-4.9-21.9-6.8-4.9-16.1-4-21.9 1.8-.2-.1-.3-.2-.5-.3 3.2-7.5.5-16.4-6.7-20.8-7-4.3-16-2.9-21.4 3-.2-.1-.4-.3-.7-.4 2.4-7.6-.9-16-8.3-19.8-7.3-3.8-16-1.8-21 4.3-.3-.1-.5-.2-.8-.4 1.8-7.7-2.1-15.8-9.6-19.1-7.5-3.3-16.2-.7-20.7 5.8-.2-.1-.5-.2-.7-.3 1.3-7.8-3.1-15.7-10.8-18.5-7.9-2.9-16.5.4-20.5 7.5-.2-.1-.4-.1-.6-.2 1-8-4-15.8-12-18.1-8.2-2.4-16.8 1.7-20.2 9.3-.1 0-.3-.1-.4-.1.7-8.3-4.8-16-13.1-17.9-8.6-1.9-17.1 3-19.8 11.2h-.2c.5-8.6-5.5-16.3-14.2-17.7-8.9-1.4-17.3 4.4-19.2 13.1h-.1c.4-8.9-6.3-16.6-15.3-17.4-9.1-.9-17.2 5.6-18.4 14.5 0-9-7.2-16.4-16.4-16.7-9.1-.3-16.8 6.7-17.4 15.7-.6-9-8.2-16-17.4-15.7-9.1.3-16.3 7.7-16.4 16.7-1.2-8.9-9.2-15.4-18.3-14.6-9 .8-15.7 8.5-15.3 17.4h-.1c-1.8-8.7-10.2-14.6-19.2-13.2-8.7 1.4-14.8 9.1-14.2 17.7h-.2c-2.6-8.2-11.2-13.2-19.8-11.2-8.4 1.9-13.9 9.6-13.2 17.9-.1 0-.2.1-.4.1-3.4-7.6-12-11.7-20.2-9.3-8.1 2.3-13 10.1-12 18.1-.2.1-.4.1-.6.2-4-7-12.6-10.4-20.5-7.5-7.8 2.8-12.2 10.7-10.9 18.5-.2.1-.5.2-.7.3-4.5-6.5-13.2-9.2-20.7-5.8-7.5 3.3-11.4 11.4-9.6 19.1-.3.1-.5.2-.8.4-5-6.1-13.7-8.1-21-4.3-7.3 3.8-10.6 12.2-8.3 19.8-.2.1-.4.3-.7.4-5.4-5.9-14.3-7.3-21.4-3-7.2 4.4-9.9 13.3-6.7 20.8-.2.1-.3.2-.5.3-5.7-5.8-15-6.7-21.9-1.9-7.1 5-9 14.5-4.9 21.8-.1.1-.2.1-.3.2-6.1-5.9-15.8-6.3-22.5-.8-6.9 5.7-8.1 15.8-2.8 22.9l-.1.1c-6.5-6.1-16.7-6.1-23.2.2-6.7 6.4-6.9 16.9-.7 23.6-6.9-6-17.5-5.4-23.7 1.4-6.2 6.8-5.7 17.3 1.1 23.6-7.4-5.5-17.8-4-23.5 3.3-5.6 7.3-4.3 17.7 2.8 23.4-7.8-4.8-18-2.6-23.1 5.1-5 7.7-3 17.9 4.6 23-8.1-4.1-18.2-1.1-22.5 7-4.4 8-1.5 18 6.3 22.6-8.4-3.4-18.1.5-21.8 8.8-3.7 8.3-.1 18 8.1 21.9-8.7-2.6-17.9 2-20.9 10.6-2.9 8.5 1.3 17.7 9.5 21-7.5-1.6-17.6 3.5-19.6 12.5-2.2 8.8 3 17.8 11.7 20.3-9-1.2-17.4 5-18.9 14s4.5 17.5 13.4 19.2c-9.1-.4-16.9 6.5-17.6 15.5-.7 9.1 6 17.1 15.1 18-9.1.3-16.4 7.8-16.3 17 .1 9 7.3 16.3 16.3 16.7-7.8.9-15.7 9.1-14.5 18.3.9 9 8.7 15.7 17.7 15.2-7.7 1.5-14.8 10.4-12.9 19.5 1.6 8.9 10 14.9 18.9 13.7-7.5 2.1-13.9 11.6-11.1 20.5 2.4 8.8 11.4 14.1 20.3 11.9-8.5 3.3-12.8 12.8-9.7 21.4 3.1 8.6 12.6 13.1 21.2 10.2-8.2 4-11.7 13.8-7.8 22.1 3.8 8.3 13.6 12 22 8.4-7.8 4.7-10.5 14.7-6 22.7 4.5 7.8 14.3 10.7 22.3 6.7v.1c-7.2 5.3-8.9 15.4-3.9 22.9 4.9 7.2 14.3 9.4 21.9 5.5.1.1.1.2.2.3-6 6-6.7 15.6-1.3 22.4 5.3 6.6 14.5 8.2 21.6 4.1.1.1.2.3.4.4-5.1 6.4-4.9 15.7.9 21.9 5.7 6.1 14.7 7 21.5 2.7l.5.5c-4.3 6.7-3.4 15.8 2.7 21.4 6.1 5.6 15.1 5.9 21.6 1.2.2.2.4.3.6.5-3.8 7-2.1 15.9 4.3 21.1 6.5 5.2 15.7 4.8 21.8-.5.2.1.4.3.5.4-3.4 7.3-1.2 16.2 5.7 20.9 7 4.8 16.4 3.7 22-2.3.1.1.3.2.4.2-3.2 7.6-.4 16.6 7 20.9 7.5 4.4 17 2.4 22.2-4.4.1 0 .2.1.3.1-3 7.9.4 17 8.2 21 8 4 17.7 1.1 22.2-6.5 0 0 .1 0 .1.1-2.9 8.3 1.1 17.6 9.3 21 8.4 3.6 18.1-.2 21.9-8.4-2.7 8.6 1.9 17.9 10.6 20.9 8.8 3.1 18.5-1.6 21.5-10.3v-.1l.9.3c-2.4 9.6 3.2 21.4 16.1 21.4 23.2-.3 21.4-35.6-1.7-33.6-3.8.4-6.9 1.8-9.3 3.7-.1-.2-.3-.4-.4-.6 7.1-5.5 8.7-15.7 3.4-23.1-5.2-7.3-15.2-9.2-22.7-4.5-.2-.2-.3-.5-.5-.7 7.4-4.8 9.9-14.6 5.4-22.4-4.4-7.7-14.1-10.6-22-6.8-.1-.3-.3-.5-.4-.8 7.8-4.2 11-13.7 7.3-21.8-3.8-8.2-13.3-11.9-21.6-8.6-.1-.3-.2-.5-.4-.8 8.2-3.5 12.4-12.8 9.2-21.3-3.2-8.6-12.7-13.1-21.4-10-.1-.3-.2-.6-.3-.8 8.8-2.7 13.8-11.9 11.2-20.8-2.6-8.9-12-14.1-21-11.5-.1 0-.2.1-.3.1-.1-.3-.2-.6-.2-.9.1 0 .3 0 .4-.1 9.1-2 14.9-10.9 12.9-20s-11-14.8-20.1-12.9c-.3.1-.7.2-1 .3-.1-.3-.1-.7-.2-1 .3 0 .7-.1 1-.1 9.2-1.3 15.6-9.9 14.3-19.1-1.4-9.2-9.9-15.6-19.2-14.2-.5.1-1 .2-1.4.3 0-.4-.1-.7-.1-1.1h1.4c9.3-.7 16.3-8.7 15.7-18-.7-9.3-8.8-16.3-18.1-15.6-.5 0-1 .1-1.4.2v-1.1c.5 0 .9.1 1.4.1h.2c9.2 0 16.8-7.4 16.9-16.6.1-9.3-7.4-16.9-16.7-17h-.7c0-.3.1-.7.1-1 .2 0 .3.1.5.1.7.1 1.4.1 2.1.1 8.4 0 15.7-6.2 16.8-14.7 1.1-9-5-17.2-13.9-18.7.1-.3.1-.5.2-.8 1.3.3 2.6.5 3.9.5 7.3 0 14-4.7 16.2-12 2.5-8.2-1.6-16.7-9.2-20.1.1-.2.2-.5.3-.7 2 .8 4.2 1.2 6.3 1.2 5.8 0 11.5-3 14.6-8.3 4.2-7.2 2.5-16.1-3.7-21.3.2-.2.3-.4.5-.6 3 2.2 6.6 3.4 10.1 3.4 4.1 0 8.3-1.5 11.5-4.5 6.3-5.9 7.1-15.4 2.1-22.2.2-.1.4-.3.6-.5 3.2 4.7 8.5 7.4 14 7.4 2.7 0 5.4-.6 7.9-2 8-4.2 11.2-13.9 7.4-22 .4-.1.7-.3 1.1-.5 1.8 6.2 7 11.3 15.8 11.4 6.8 0 11.6-3.3 14.2-7.8.2.1.4.3.6.4 0 0 0 .1-.1.1-4.5 8.1-1.5 18.4 6.6 22.9 2.6 1.4 5.4 2.1 8.1 2.1 6 0 11.7-3.1 14.8-8.7v-.1l.6.3v.1c-3.9 8.4-.3 18.4 8.2 22.4 2.3 1.1 4.7 1.6 7.1 1.6 6.4 0 12.5-3.6 15.3-9.7 0-.1 0-.1.1-.2.2.1.4.2.6.2 0 .1-.1.1-.1.2-3.4 8.7 1 18.4 9.7 21.8 2 .8 4 1.1 6.1 1.1 6.8 0 13.2-4.1 15.8-10.8 0-.1.1-.2.1-.4.2.1.4.1.6.2 0 .1-.1.2-.1.3-2.8 8.9 2.2 18.3 11.2 21.1 1.7.5 3.3.8 5 .8 7.2 0 13.9-4.6 16.1-11.9.1-.2.1-.3.1-.5.2.1.4.1.7.2 0 .2-.1.3-.1.5-2.2 9 3.4 18.1 12.5 20.3 1.3.3 2.6.5 3.9.5 7.7 0 14.6-5.2 16.4-12.9 0-.2.1-.4.1-.5.2 0 .4.1.7.1 0 .2-.1.4-.1.5-1.6 9.2 4.6 17.8 13.8 19.4 1 .2 1.9.2 2.9.2 8.1 0 15.2-5.8 16.6-14 0-.2 0-.3.1-.5.2 0 .4.1.7.1 0 .2-.1.3-.1.5-1 9.2 5.8 17.5 15.1 18.5.6.1 1.2.1 1.8.1 8.6 0 15.9-6.4 16.8-15.1v-.3c.2 0 .4 0 .7.1v.3c-.4 9.3 6.9 17.1 16.2 17.5h.7c9 0 16.5-7.1 16.9-16.2v-.1h.7v.1c.2 9.2 7.7 16.4 16.9 16.4h.4c9.3-.2 16.7-7.9 16.5-17.2v-.1h.7v.1c.8 8.8 8.2 15.4 16.8 15.4.5 0 1 0 1.5-.1 9.3-.8 16.2-9 15.4-18.2v-.1c.3 0 .7-.1 1-.1.9 7.5 6.2 14.4 16.4 14.5.6 0 1.2 0 1.8-.1-6.4 3.4-10.1 10.8-8.5 18.3 1.6 7.5 8 12.8 15.3 13.3-5.9 2.1-12 9.3-11.1 17.2.6 7.8 6.4 14 13.8 15.3-6.2 1.4-13.2 8.1-13 16.1-.2 8 5.3 14.8 12.8 16.7-7.6 1-13.9 7.1-14.6 15.1-.8 8 4.2 15.2 11.5 17.6-7.7.4-14.4 6.1-15.7 14-1.3 7.9 3.1 15.4 10.3 18.3-7.7-.1-14.7 5.2-16.6 13-1.8 7.8 2.1 15.6 9.1 19-7.7-.6-15.1 4.2-17.4 11.9-2.4 7.7 1.1 15.7 7.8 19.5-7.7-1.1-15.3 3.1-18.2 10.6-2.9 7.5-.1 15.7 6.4 20-7.5-1.7-15.5 2-18.9 9.2-3.4 7.2-1.3 15.6 4.7 20.4-7.3-2.2-15.5.8-19.5 7.7s-2.6 15.4 2.9 20.6c-7.1-2.8-15.4-.7-20.1 5.8-4.5 6.3-4.1 14.6.5 20.3-2.6-1.3-5.7-1.9-9.3-1.6-21 2.1-19.4 33.6 1.7 33.6 13.3-.2 18.4-11.8 16-21.3.1 0 .2 0 .2-.1v.1c2.4 7 9 11.3 16 11.3 1.8 0 3.7-.3 5.6-.9 8.6-3 13.3-12.3 10.6-20.9 3.8 8.2 13.5 12 21.9 8.4 8.3-3.5 12.3-12.7 9.3-21.1h.1c4.5 7.6 14.2 10.5 22.2 6.5 7.8-3.9 11.2-13 8.2-21 .1 0 .2-.1.3-.1 5.1 6.8 14.7 8.9 22.2 4.4 7.3-4.3 10.2-13.3 7-20.9.1-.1.3-.2.4-.3 5.6 6 15 7.2 22 2.4 6.9-4.7 9.1-13.6 5.7-20.9.2-.1.4-.3.6-.4 6 5.3 15.2 5.7 21.8.5 6.5-5.1 8.1-14 4.3-21 .2-.2.4-.3.6-.5 6.4 4.7 15.5 4.4 21.6-1.2 6.1-5.6 7.1-14.6 2.8-21.4l.5-.5c6.8 4.3 15.8 3.3 21.5-2.7 5.7-6.1 6-15.4.9-21.8.1-.1.2-.3.4-.4 7.1 4 16.3 2.5 21.6-4.1 5.4-6.8 4.8-16.4-1.2-22.4.1-.1.1-.2.2-.3 7.5 3.9 17 1.7 21.9-5.4 5.1-7.4 3.3-17.5-3.8-22.8v-.1c8 4 17.8 1.1 22.3-6.7 4.5-8 1.9-18-6-22.7 8.4 3.6 18.2-.1 22-8.4 3.9-8.3.4-18.1-7.8-22.1 8.6 2.9 18.1-1.6 21.3-10.2 3.2-8.6-1.1-18.1-9.6-21.4 8.9 2.2 17.9-3.1 20.3-11.9 2.4-8.8-2.7-17.9-11.4-20.5 9 1.4 17.5-4.6 19.2-13.6 1.7-9-4.2-17.6-13.1-19.5 9.1.6 17.1-6.1 18-15.2.8-9.6-5.7-17.7-14.8-18.8zM23.7 435.2c0 .8-.1 1.5-.1 2.3-1.5-.7-3.2-1.1-4.9-1.3 1.7-.1 3.4-.4 5-1zM19 469.6c1.5-.2 2.9-.6 4.3-1.1 0 .6 0 1.2.1 1.8-1.4-.4-2.9-.6-4.4-.7zm3.2 33.3c1.2-.2 2.3-.6 3.3-1.1 0 .4.1.8.1 1.2-1.1-.1-2.2-.1-3.4-.1zm4.2-98.1c-1.5-.9-3.2-1.5-5.1-1.9 1.9.1 3.7-.2 5.4-.7-.1.9-.2 1.7-.3 2.6zm1.8 131c.8-.2 1.5-.5 2.2-.9 0 .2.1.5.1.7-.8.1-1.6.1-2.3.2zm3.4-163.6c-1.5-1-3.1-1.8-4.9-2.3 1.9.2 3.7.2 5.4-.2-.1.8-.3 1.7-.5 2.5zm5.3 195.9c.4-.1.7-.3 1-.5 0 .1 0 .2.1.3-.3.1-.7.1-1.1.2zM39.4 340c-1.3-1-2.7-1.9-4.3-2.5 1.7.3 3.3.4 4.9.3-.2.7-.4 1.5-.6 2.2zm10.1-31.7c-1.1-.9-2.3-1.8-3.7-2.4 1.4.4 2.9.7 4.3.7-.1.6-.3 1.2-.6 1.7zm12.7-30.9c-.9-.8-1.8-1.5-2.8-2.1 1.1.4 2.2.8 3.4 1-.3.3-.5.7-.6 1.1zm15-30c-.6-.5-1.2-1.1-1.9-1.5.7.4 1.5.7 2.2.9l-.3.6zm17.2-28.9c-.3-.3-.6-.6-.9-.8.3.2.7.4 1.1.6-.1.1-.1.2-.2.2zm717.4 13.8c8.6 7.3 17.9 15.8 26.5 24 9.1 8.9 17.2 23.3 6.4 33-1.3 1.2-8.1 2-10.2 2.6-1.3-3.4-4.2-.6-6.7-2.3-2.4-1.6-4-3.8-6.9-5.6-5.8-3.5-5.9-11-13-13-7.3-2-20-1.1-26.1 1.5-.2 0-3.2 1.7-3.6.5-.7.7-3.1 2.9-5.1 2.3 11.3-6 22.9-13.4 32.2-22.2-2.7-9.3-22.9-26.1-30.4-34.5.6.2 1.2.3 1.8.5l-.3-.8c-1.3-.9-1.7-.9-2.6-2.6 3.9.4 7.6 2.8 10.7 4.3l10.2 2.8c5.1 3.4 12.3 5.5 17.1 9.5zM558.6 449.7c-3.8 6.2-5 11.8-8.2 16.5-3-.8-2.8.6-4.9 1.8-7.2-.8-15.5-2.7-18.9-6.4.1-3.2-5.1-6.3-6.7-9l-.5-9c-2-6.5-4.9-14.1-5.4-22-.3-4.3 13.8-25.2 16.9-32 7.1-15.7 11.1-33.2 14.3-48.8 1.5-7.2-1.3-12.9.3-18.9 6.1.6 16.2 4.8 20.7 10.2 1.4 1.7 2.2 4.8 4.1 6.7l-.5 1.5c0 3.2 2.1 10.1 3.6 14.3 1.5 4.1.5 9.2 1.8 13.8 7.9 28.4-3.1 59.5-16.6 81.3zm294.8 48.1l.4 3.3c-7.2 3.5-14.4 9.3-24 7.2-.5-.1-2.2-.4-2.6.5-1.8-1.8-15.1-4-19.4-5.6-3.4-1.3-9.3-5.3-13.3-7.4-23-12.2-42.8-27.3-61.4-44.5-6.6-7-13.3-14-19.9-21-2.3-3-4.8-8.2-7.9-9.5l-13 10c-2.7 2.2-7.5 2.4-10.5 5.4l-2.3-.5c-3.4 1.9-4.3 3.9-8.4 6.1-3.6 1.9-7-2-12 0-6.2 2.5-12.1 6.1-19.2 6.7-1.9-1.5-2.5-1.6-5.6-1v.3c.6.3 1.3.5 2 .8-7 0-25.9-5.1-30.2-8.7.1-1.8-12-9.6-15.1-11v-.3l1-.8c1.2 1.2.2.8 1.8.8-1.2-2.9-3.4-4.9-4.9-6.9h.3c5.8 3 9.6 3.5 16.4 5.6-.4-.6-.9-1.3-1.3-2 13 7.7 26.3-1.2 38.9-3.1l-.5-.3-1.8-.5c2.3-1 4.7-.6 6.9-1.3 5.7-1.8 12.2-9 18.2-8.4-.2-1 .3-.3-.5-1 6.2-3.9 11.4-7.8 16.4-12.8l-1.8.3.3-.8c10.3-2.9-.1-15.6-3.8-22.5-10.1-18.8-19.8-42.3-29.7-62.4-3.2-.3-13.2 3.3-15.9 4.1-17.2 5.3-49.6 1.3-56-11.8 12.3-.4 23.3-8.7 30.4-10 .7-1.3 1-2.1 2-2.6l-.3 1 9.7-4.1c-.4-1-.5-.6 0-1.8-1.5.3-.9.3-2.3-.3l.3 1.3c-2.5.2-2.8 1.9-5.1 1.3.8-.5 9.5-7.2 8.4-9.2-.1.2-.2.3-.3.5l-1.3 1.3-1-.3.5-1.3h-1l-1 2.3c.9.2 1-.4.8.5-.4.6-.9 1.3-1.3 2l-1-.5.3-.8-2.6 1.5v-.3l.3-1c2.2-.9 1.4-1.3 3.3-.8l-.5-1.8c3.8-3.5 7.7-7.8 10-12l1 1c.1-.3.2-.7.3-1-.4-3.7 2.5-3.2 4.1-5.9h-1.3l2.6-2.6c0-.1-5.9-30.4-5.9-30.4 8.9-.1 13.1 5.9 20.5 10h.5c-.2-2.2 7.7-13 10.2-15.3-1.2-.5-.5.3-1-.8 1.1-.2.6.3 1.3-.8-.5 0-.2 0 0-.5.8-6.1 8.4-13 11.3-19.4 6.5-14.5 15-29.7 19.4-46.8v-.3c-8-.2-46 4.8-49.1 7.9-6 6.1-7.9 28.3-9.7 34.3-1.1 3.6 1.5 8.8 1 11.5-.5 2.8-5.5 7.7-4.3 11.3l-5.6 4.6c-18.4 9.1-30.4-23.1-36.1-29.7l-.8.3c-7.5 20.4-21.1 32.7-43.5 22.2-7.9-3.7-15.7-4.7-21.7-10.5-.7-.6-3.8-.6-5.4-1.5l-5.4-5.1c-.9-.7-2 .7-2.8.3-4-2.1-8.5-6.4-9.7-11.8 4.7-4.8 22.5-8.3 29.2-5.9 11.3-3.1 24.7-4.2 33.8-9.5 2.4-1.4 17-5.2 16.6-6.9 1.3-2-.4-4-1-6.1-2-7.7-5.1-29.9-1-35h-.8v-.3c9.5.9 23.1 17 28.1 23.5 2 2.7 3.4 7.5 6.1 8.7 9.5-2.3 18.9-4.6 28.4-6.9 2.5-.5 7.2-1 11.3-1.8l2.3-.5c14-1.1 31-4.3 44.2-5.4 3.3-10.7 7.7-22.8 10.5-33.2 1.7-6.3 1.5-16 .5-20.5-.1-.5-.6-2.4-.8-1.8-.8-5 2-7.2-.5-13l.3-.3 2.8 2c-.3-1.1-.5-2.2-.8-3.3.6.4 1.3.9 2 1.3-.2-.3-.3-.5-.5-.8v-.8c3.4 1.2 5.3 4.3 7.4 6.9.6.7 3.4 1.1 4.1 2 10.4 14.1 20.9 26.5 25.3 43.2 1.3 5.1-5.7 16-5.9 18.7.7.5.3.4 1 .5 3.4 1.1 9.3-1.6 13 .8 3.7 2.5 8.5 3 12.5 4.9 7.1 3.4 22.6 14.7 25.8 19.9 1.9 3.1 3.3 5.7 4.6 9.2l.3 4.1c-1.9 3.4-5.1 8.1-8.4 10.7-12.6 9.8-33.1-12.2-36.3-17.6-1.8-3-7.9-10.5-12.5-9.2-1.4.4-14.5 4.8-14.6 4.9-3.4 2.7-3.6 8.8-6.7 11.8-5.1 5-8.9 12.3-14.6 18.7l-1.8 5.9c-.4.7-5.8 7.2-6.7 5.4-2.5 3.3-4.9 6.7-7.4 10l1 .5c-4.9.6-8.9 10.2-13 12.8-1 .2-.2.3-1.3-.3-1.3 5.6-2.5 5.7-8.7 10.2 1.2.8-.2.4-1 1.3.3.6.5 1.2.8 1.8l1.5-1.5c-.1.2-.2.3-.3.5l-2.3 3.1c1.8 3 4.6 5.7 7.2 7.4l7.2-4.1c1.3-1.1 1.5-3.1 3.1-4.1 11.4-6.8 21.5-9.8 36.3-10.7 14.8-.9 32.7 21.6 9.2 29.4.8 1.4.8 1.5-.3 2.6-11.4.6-23.2 13.9-31.7 19.4-3 2-13.3 4.2-14.1 5.9-2.4 5.4 3.4 13.2 3.8 18.7.6 7.9 13.1 45.4 20.5 51.4l.3-.3c5.7-15.1 15.2-31.3 21.2-46.5 2.7-6.8-1.2-17.3 1-21 7.5 1.7 12.4 7.7 15.9 11 8.4 8 12.9 15.7 16.1 25.6.8 2.7-1.2 7.6-1.3 11l-1.8 2.8c-2.5 8-7.3 14.8-12.5 21.2-.4 1.1-.9 2.2-1.3 3.3-5.3 6.1-12.6 14.1-15.9 22 16.5 18.8 36.3 34.3 56.3 48.6 4.6 3.3 12.6 7.5 16.9 10.2 2.6 1.7 5.8 1.6 7.4 3.6.3-.1.7-.2 1-.3l1-10.2-2-9.5c.7 1.2.6 2.1 1.8 2.8-6.1-20.9-7.5-32-17.4-49.4l-4.1-8.4-.3.8c-2.4-3.9-2.5-5.1-4.9-9h.3c1.6.5 2.8.3 2.8.3 1.2 2.6 1.4 5.1 3.1 7.2 1-.4.1-.4 1-.3.7-1.3-.6-.5-.8-1.5h-.8c1.2-.7.7-.6 2 0l-3.1-6.1 1-.3 13.8 20.7c-.7-8.6-10.5-18.4-14.1-27.6l1-.3h.3c1.2 4 13.1 16.5 16.6 22 8.3 13 17.5 25.4 27.9 38.1.6-.3 1.2-.5 1.8-.8l.3.8-.5 1-.5-1c-.1.3-.2.7-.3 1 .8.4 1.5.9 2.3 1.3l.5 1.8c1.5-.7 7.9 16.6 9.7 15.9.7.3 1.5 1.6 1.8 1 3.3 4 1.5 10.8 6.9 13l-.5-2h.8c.8 2 1.1 1.3 2.3 2.8 1.2 4.4 2.5 8.9 3.8 13.3l2.6 2c2 3.5-4.9 17-6.9 17.9zm52.5-278.7c0-.1-.1-.1-.1-.2.3-.2.6-.3.9-.5-.3.3-.5.5-.8.7zm17.3 28.9l-.3-.6c.7-.2 1.4-.5 2.1-.9-.7.4-1.3.9-1.8 1.5zm14.9 30c-.2-.4-.4-.8-.5-1.2 1.2-.2 2.3-.5 3.4-1-1.1.7-2 1.4-2.9 2.2zm12.6 31c-.2-.6-.4-1.2-.6-1.7 1.4 0 2.8-.3 4.2-.7-1.3.5-2.5 1.4-3.6 2.4zm11.1 259.6c0-.1 0-.2.1-.2.3.2.6.3 1 .4-.4-.1-.8-.1-1.1-.2zm-1-227.9c-.2-.8-.4-1.5-.6-2.3 1.6.2 3.3.1 5-.3-1.5.6-3 1.5-4.4 2.6zm7.2 29.7c1.8.4 3.6.4 5.5.2-1.8.5-3.5 1.3-5 2.3-.1-.8-.3-1.7-.5-2.5zm1.4 166c0-.2.1-.4.1-.7.7.3 1.4.6 2.2.8-.8-.1-1.6-.1-2.3-.1zm4.3-130.9c-.1-.8-.2-1.7-.3-2.5 1.7.5 3.5.7 5.4.7-1.8.3-3.5.9-5.1 1.8zm.6 98.3c0-.4.1-.8.1-1.2 1 .5 2.2.8 3.3 1.1-1.1-.1-2.3-.1-3.4.1zm2.3-32.8c0-.6 0-1.2.1-1.8 1.3.5 2.8.9 4.2 1.1-1.4.1-2.9.3-4.3.7zm-.2-32.8c0-.7-.1-1.5-.1-2.2 1.5.5 3 .9 4.7 1-1.5.1-3.1.5-4.6 1.2z"/>
    <path id="glassesID" d="M701.3 572.8c-16.9-19.5-158.9-27.6-182.9 0-2.9 3.3-4.9 6.7-6.4 10.3-3.9-.5-7.9-.8-12.1-.8s-8.2.3-12.1.8c-1.4-3.5-3.5-7-6.4-10.3-23.9-27.6-166-19.5-182.9 0-19 22-4.1 60.3 17.7 85.4 21.8 25.1 124.1 19.7 141.5-.4 11.2-12.9 27.7-33 31.7-53 3.2-.5 6.7-.7 10.4-.7s7.2.3 10.4.7c4 20 20.5 40 31.7 53 17.6 20.1 119.9 25.5 141.7.4s36.7-63.4 17.7-85.4z"/>
    <path id="kanji_ko01ID" class="st0" d="M624 168.9c-2.6 2.1-9.6 3.1-13 6.6l1.5 3.1c3.6-1 11-6.8 11.5-9.7z"/>
    <path id="kanji_ko02ID" class="st1" d="M622 283l.2-.1c.6-.6 1.2-1.3 1.8-2l-.5.5c-1.6.6-2.7 2-3.6 3.3 1.6-.6 1.4-1.2 2.6-.3-1.4.3-4.3 2.9-5.6 4.3 7-1.1 14.2-5.8 18.4-8.7-.3-.1-.7-.2-1-.3.5-.8 1-1.3 1-1.3.4-1.3-.3-4.2-1.5-4.9-.8 2.1-8 4.1-6.7 6.9-2.7.7-3.1 2.8-5.1 2.6z"/>
</svg>