<svg version="1.1" xmlns="http://www.w3.org/2000/svg" viewBox="0 0 1000 880">
    <path d="M347.3,421.7c-0.3,0.1-0.6,0.2-0.9,0.4c3.8,8.1,0.6,17.7-7.4,21.9c-2.5,1.3-5.2,2-7.9,2c-5.7,0-11.3-2.9-14.4-8.1 c-0.2,0.2-0.4,0.3-0.7,0.5c5.5,6.8,5,16.8-1.6,22.9l0,0c-3.3,3-7.4,4.5-11.5,4.5s-8.3-1.5-11.5-4.5l-0.5,0.6 c7.3,4.9,9.6,14.7,5.1,22.4c-3.1,5.3-8.8,8.3-14.6,8.3c-2.6,0-5.2-0.6-7.6-1.8c-0.1,0.3-0.2,0.5-0.3,0.8c8.4,3,13.1,12,10.5,20.7 c-2.2,7.3-8.9,12-16.2,12c-1.4,0-2.7-0.2-4.1-0.5c-0.1,0.3-0.1,0.6-0.2,0.8c8.9,1.4,15.2,9.7,14.1,18.7c-1.1,8.5-8.4,14.7-16.8,14.7 c-0.5,0-1.1,0-1.6-0.1c0,0.3,0,0.6-0.1,0.8c9.2,0.3,16.4,7.9,16.3,17c-0.1,9.2-7.6,16.5-16.7,16.6c0,0.3,0,0.6,0,0.9 c9.2-0.5,17.1,6.4,17.7,15.6c0.6,9.2-6.2,17.1-15.4,17.9l0.1,0.9c9.1-1.2,17.5,5.2,18.9,14.3c1.3,9.1-4.9,17.5-14,19 c0.1,0.3,0.1,0.6,0.2,0.9c9-1.8,17.9,3.9,19.8,12.9c2,9-3.7,17.8-12.7,19.9c0.1,0.3,0.1,0.6,0.2,0.9c8.9-2.4,18.1,2.7,20.7,11.5 s-2.4,18.1-11.2,20.8l0.3,0.8c8.7-3,18.2,1.4,21.4,10c3.2,8.6-1.1,18.2-9.7,21.5c0.1,0.3,0.2,0.5,0.3,0.8c8.4-3.7,18.3,0,22.1,8.4 c3.9,8.3,0.3,18.2-8,22.2c0.1,0.3,0.3,0.5,0.4,0.8c8.1-4.3,18.2-1.5,22.7,6.4c4.6,8,1.9,18.1-6,22.7c0.2,0.2,0.3,0.5,0.5,0.7 c7.6-5.1,17.9-3.3,23.2,4.2l0,0c5.3,7.4,3.7,17.7-3.6,23.2c0.2,0.2,0.4,0.4,0.5,0.7c0.1-0.1,0.2-0.2,0.3-0.2c0.4-0.3,0.9-0.7,1.3-1 c0.5-0.3,0.9-0.6,1.4-0.8c0.5-0.3,1-0.5,1.5-0.7s1-0.4,1.6-0.6c0.5-0.2,1.1-0.3,1.6-0.4c0.5-0.1,1.1-0.2,1.6-0.2 c1.1-0.1,2.2-0.1,3.3,0c0.5,0.1,1.1,0.1,1.6,0.2c0.5,0.1,1.1,0.2,1.6,0.4s1.1,0.3,1.6,0.6c0.5,0.2,1,0.4,1.5,0.7 c0.5,0.2,1,0.5,1.4,0.8c0.5,0.3,0.9,0.6,1.3,1s0.8,0.7,1.2,1.1c0.4,0.4,0.8,0.8,1.1,1.2c0.3,0.4,0.7,0.9,1,1.3 c0.3,0.5,0.6,0.9,0.9,1.4s0.5,1,0.7,1.5s0.4,1,0.6,1.5s0.3,1.1,0.4,1.6s0.2,1.1,0.2,1.6c0.1,0.5,0.1,1.1,0.1,1.7 c0,0.6,0,1.1-0.1,1.7c-0.1,0.5-0.1,1.1-0.2,1.6s-0.3,1.1-0.4,1.6c-0.2,0.5-0.3,1-0.6,1.5c-0.2,0.5-0.5,1-0.7,1.5 c-0.3,0.5-0.5,1-0.8,1.4c-0.3,0.5-0.6,0.9-1,1.3c-0.4,0.4-0.7,0.8-1.1,1.2s-0.8,0.8-1.2,1.1c-0.4,0.3-0.9,0.7-1.3,1 c-0.5,0.3-0.9,0.6-1.4,0.8c-0.5,0.3-1,0.5-1.5,0.7s-1,0.4-1.6,0.6c-0.5,0.2-1.1,0.3-1.6,0.4c-0.5,0.1-1.1,0.2-1.6,0.2 c-0.6,0.1-1.1,0.1-1.7,0.1s-1.1,0-1.7-0.1s-1.1-0.1-1.6-0.2c-0.5-0.1-1.1-0.2-1.6-0.4s-1.1-0.3-1.6-0.6c-0.5-0.2-1-0.4-1.5-0.7 s-1-0.5-1.4-0.8c-0.5-0.3-0.9-0.6-1.3-1s-0.8-0.7-1.2-1.1c-0.4-0.4-0.8-0.8-1.1-1.2c-0.3-0.4-0.7-0.9-1-1.3 c-0.3-0.5-0.6-0.9-0.9-1.4s-0.5-1-0.7-1.5s-0.4-1-0.6-1.5s-0.3-1.1-0.4-1.6s-0.2-1.1-0.2-1.6c-0.1-0.5-0.1-1.1-0.1-1.7 c0-0.5,0-1.1,0.1-1.7c0-0.5,0.1-1.1,0.2-1.6s0.2-1,0.4-1.5c-0.2-0.1-0.5-0.1-0.7-0.2c0,0.1,0,0.2-0.1,0.3 c-3.1,8.8-12.7,13.4-21.5,10.3l0,0c-8.6-3-13.3-12.3-10.6-20.9c-3.8,8.2-13.5,12-21.9,8.4s-12.4-13.1-9.2-21.6 c-4.4,7.9-14.3,11-22.5,6.9c-8.2-4.1-11.5-13.9-7.7-22.1c-4.9,7.6-15,10-22.9,5.4c-7.9-4.7-10.5-14.7-6.2-22.6 c-5.4,7.2-15.7,8.9-23.2,3.8c-7.5-5.2-9.5-15.4-4.6-22.9c-5.9,6.8-16.3,7.8-23.4,2.1c-7.1-5.7-8.4-16-2.9-23.2 c-6.4,6.4-16.8,6.7-23.5,0.5s-7.2-16.6-1.2-23.4c-6.9,6-17.3,5.4-23.5-1.2c-6.2-6.7-6-17.1,0.5-23.4c-7.3,5.4-17.7,4.1-23.4-3 c-5.7-7.1-4.6-17.5,2.3-23.3c-7.7,4.9-17.9,2.8-23.1-4.8c-5.1-7.6-3.3-17.8,4.1-23.1c-8.1,4.3-18.1,1.4-22.6-6.6l0,0 c-4.5-8-1.8-18,6-22.7c-8.4,3.6-18.2-0.1-22-8.4c-3.9-8.3-0.4-18.1,7.8-22.1c-8.7,2.9-18.1-1.6-21.2-10.2 c-3.1-8.6,1.2-18.1,9.7-21.4c-8.9,2.2-17.9-3.1-20.3-11.9c-2.4-8.8,2.7-17.9,11.4-20.5c-9,1.4-17.6-4.6-19.2-13.6 s4.2-17.6,13.2-19.5c-9.1,0.6-17.1-6.1-18-15.2s5.7-17.2,14.8-18.3c-9.1-0.2-16.5-7.5-16.6-16.7c-0.1-9.1,7.2-16.6,16.3-17 c-9.1-0.9-15.8-8.9-15.1-18s8.5-15.9,17.6-15.5c-8.9-1.7-14.9-10.2-13.4-19.2s9.9-15.2,18.9-14c-8.7-2.5-14-11.5-11.7-20.3 c2.2-8.8,11-14.2,19.8-12.4c-8.4-3.3-12.8-12.6-9.8-21.1c3-8.6,12.2-13.3,20.9-10.6C35,301,31.4,291.3,35.1,283s13.4-12.2,21.8-8.8 c-7.9-4.6-10.7-14.5-6.3-22.6c4.4-8,14.4-11.1,22.5-7c-7.5-5.2-9.6-15.4-4.6-23c5-7.7,15.3-9.9,23.1-5.1c-7.2-5.7-8.4-16.1-2.8-23.4 c5.6-7.3,16.1-8.7,23.5-3.2c-6.8-6.2-7.3-16.7-1.1-23.6c6.2-6.9,16.7-7.5,23.7-1.4c-6.3-6.7-6-17.2,0.7-23.6 c6.7-6.4,17.3-6.2,23.8,0.4c-5.8-7.2-4.8-17.7,2.3-23.6c7-5.8,17.4-5,23.5,1.8c-5.1-7.5-3.2-17.7,4.2-23c7.4-5.3,17.7-3.7,23.3,3.4 c-4.5-7.9-2-17.9,5.8-22.7c7.8-4.8,18-2.5,23,5.1c-4-8.1-0.7-18,7.4-22.2c8.1-4.2,18.1-1.3,22.6,6.6c-3.4-8.4,0.5-18,8.8-21.7 c8.4-3.7,18.1-0.1,22.1,8.1c-2.8-8.6,1.7-17.9,10.3-21c8.6-3.1,18.1,1.1,21.5,9.5c-2.3-8.8,2.9-17.8,11.6-20.3 c8.8-2.5,18,2.3,20.8,10.9c-1.7-8.9,4-17.5,12.9-19.5s17.8,3.4,20,12.2c-1.1-9,5.1-17.2,14.2-18.6l0,0c9-1.4,17.5,4.6,19.2,13.4 c-0.5-9,6.2-16.9,15.3-17.7l0,0c9.1-0.8,17.2,5.6,18.3,14.6c0.1-9,7.3-16.4,16.4-16.7C492,0,499.7,7,500.3,16 c0.6-9,8.3-16,17.4-15.7C526.8,0.6,534,8,534.1,17c1.2-8.9,9.3-15.4,18.3-14.5c9.1,0.9,15.8,8.7,15.3,17.7 c1.7-8.9,10.2-14.8,19.2-13.4s15.2,9.7,14.1,18.7c2.3-8.7,11.1-14.1,20.1-12.1c8.9,2,14.6,10.7,12.9,19.5c2.9-8.6,12-13.4,20.8-10.8 s13.9,11.6,11.6,20.3c3.4-8.4,12.9-12.6,21.5-9.5s13.1,12.5,10.2,21c4-8.1,13.7-11.7,22.1-8c8.4,3.7,12.2,13.3,8.8,21.7 c4.5-7.9,14.5-10.8,22.6-6.5s11.3,14.1,7.3,22.3c5-7.5,15.2-9.8,23-5s10.3,14.9,5.8,22.7c5.5-7.2,15.8-8.7,23.3-3.4 c7.4,5.3,9.2,15.5,4.2,23c6-6.8,16.4-7.6,23.5-1.8c7,5.8,8.1,16.1,2.5,23.3c6.5-6.3,16.9-6.4,23.5-0.1c6.5,6.3,6.9,16.5,1,23.2 c7-5.7,17.2-4.9,23.3,1.8c6.1,6.8,5.7,17-0.8,23.3c7.4-5.2,17.6-3.7,23.1,3.5s4.3,17.4-2.6,23.2c7.8-4.6,17.9-2.3,22.8,5.3 c5,7.6,2.9,17.8-4.5,22.9c8.1-4,18-0.9,22.4,7.1s1.5,18-6.4,22.5c8.4-3.4,18.1,0.5,21.8,8.9s0,18.1-8.3,22c8.7-2.7,18.1,2,21.1,10.6 c3,8.7-1.6,18.1-10.2,21.3c8.9-2,17.9,3.4,20.2,12.3c2.2,8.8-3,17.8-11.8,20.3c9-1.1,17.4,5,18.8,14c1.5,9-4.5,17.5-13.5,19.2 c9.1-0.4,16.9,6.5,17.6,15.6c0.7,9.1-6,17-15.1,18c9.1,0.4,16.3,7.9,16.2,17c0.1,8.9-7.3,16.2-16.4,16.4l0,0l0,0l0,0 c9,1.1,15.6,9.2,14.7,18.3c-0.9,9.1-8.9,15.8-18,15.2c8.9,1.9,14.7,10.5,13.1,19.5l0,0c-1.7,9-10.2,15-19.2,13.6 c8.7,2.6,13.8,11.7,11.4,20.5c-2.4,8.8-11.4,14.1-20.3,11.9c8.5,3.4,12.8,12.8,9.6,21.4c-3.2,8.6-12.6,13-21.2,10.2 c8.2,4.1,11.6,13.9,7.8,22.1c-3.9,8.3-13.6,12-22,8.4c7.8,4.7,10.5,14.8,5.9,22.7l0,0c-4.5,8-14.6,10.8-22.6,6.5 c7.4,5.3,9.3,15.5,4.1,23.1l0,0c-5.2,7.6-15.4,9.6-23.1,4.7c7,5.9,8,16.2,2.3,23.3s-16.1,8.4-23.4,3c6.5,6.4,6.8,16.8,0.5,23.4 c-6.3,6.7-16.7,7.2-23.5,1.2c6,6.8,5.5,17.2-1.2,23.4s-17.2,5.9-23.6-0.5c5.5,7.2,4.2,17.6-2.9,23.3c-7.2,5.7-17.5,4.7-23.5-2.2 c5,7.6,3,17.8-4.6,23c-7.5,5.2-17.8,3.4-23.2-3.9c4.4,7.9,1.7,18-6.1,22.6c-7.9,4.6-18,2.2-22.9-5.4c3.8,8.2,0.5,18-7.7,22.1 s-18.1,1-22.5-7c3.3,8.4-0.7,18-9.2,21.6c-8.4,3.6-18.1-0.2-21.9-8.4c2.7,8.6-2,17.9-10.6,20.9l0,0c-1.8,0.6-3.7,0.9-5.6,0.9 c-6.9,0-13.3-4.2-15.8-11c0.1,0.3,0.1,0.5,0.2,0.8c0.1,0.5,0.2,1.1,0.2,1.6c0.1,0.5,0.1,1.1,0.1,1.7c0,0.6,0,1.1-0.1,1.7 c0,0.5-0.1,1.1-0.2,1.6c-0.1,0.5-0.3,1.1-0.4,1.6c-0.2,0.5-0.3,1-0.6,1.5c-0.2,0.5-0.4,1-0.7,1.5s-0.5,1-0.8,1.4 c-0.3,0.5-0.6,0.9-1,1.3c-0.3,0.4-0.7,0.8-1.1,1.2c-0.4,0.4-0.8,0.8-1.2,1.1s-0.9,0.7-1.3,1c-0.5,0.3-0.9,0.6-1.4,0.8 c-0.5,0.3-1,0.5-1.5,0.7s-1,0.4-1.6,0.6c-0.5,0.2-1.1,0.3-1.6,0.4c-0.5,0.1-1.1,0.2-1.6,0.2c-0.6,0.1-1.1,0.1-1.7,0.1 s-1.1,0-1.7-0.1c-0.6-0.1-1.1-0.1-1.6-0.2c-0.5-0.1-1.1-0.2-1.6-0.4s-1.1-0.3-1.6-0.6c-0.5-0.2-1-0.4-1.5-0.7s-1-0.5-1.4-0.8 c-0.5-0.3-0.9-0.6-1.3-1c-0.4-0.4-0.8-0.7-1.2-1.1c-0.4-0.4-0.8-0.8-1.1-1.2s-0.7-0.9-1-1.3c-0.3-0.5-0.6-0.9-0.8-1.4 c-0.3-0.5-0.5-1-0.7-1.5s-0.4-1-0.6-1.5c-0.2-0.5-0.3-1.1-0.4-1.6c-0.1-0.5-0.2-1.1-0.3-1.6c0-0.5-0.1-1.1-0.1-1.7 c0-0.5,0-1.1,0.1-1.7c0.1-0.5,0.1-1.1,0.3-1.6c0.1-0.5,0.2-1.1,0.4-1.6s0.3-1,0.6-1.5c0.2-0.5,0.4-1,0.7-1.5s0.5-1,0.8-1.4 s0.6-0.9,1-1.3c0.3-0.4,0.7-0.8,1.1-1.2c0.4-0.4,0.8-0.8,1.2-1.1s0.9-0.7,1.3-1c0.5-0.3,0.9-0.6,1.4-0.8c0.5-0.3,1-0.5,1.5-0.7 s1-0.4,1.6-0.6c0.5-0.2,1.1-0.3,1.6-0.4c0.5-0.1,1.1-0.2,1.6-0.2c1.1-0.1,2.2-0.1,3.3,0c0.6,0.1,1.1,0.1,1.6,0.2 c0.5,0.1,1.1,0.2,1.6,0.4s1.1,0.3,1.6,0.6c0.5,0.2,1,0.4,1.5,0.7c-4.9-5.8-5.4-14.3-0.8-20.7c4.7-6.4,13-8.6,20.1-5.8 c-5.5-5.2-6.9-13.8-2.9-20.6c4-6.9,12.2-9.9,19.5-7.7c-6-4.8-8.2-13.2-4.7-20.4c3.4-7.2,11.4-10.9,18.9-9.2 c-6.4-4.3-9.2-12.5-6.4-20l0,0c2.9-7.5,10.6-11.7,18.2-10.6c-6.7-3.8-10.1-11.9-7.8-19.5c2.4-7.7,9.7-12.4,17.4-11.9 c-7-3.4-10.9-11.2-9.1-19c1.8-7.8,8.9-13.1,16.6-13c-7.2-2.9-11.6-10.4-10.3-18.3c1.3-7.9,8-13.6,15.7-14 c-7.3-2.4-12.3-9.6-11.5-17.6s7-14.1,14.6-15.1c-7.5-1.9-12.9-8.7-12.8-16.7c0.2-7.9,5.8-14.5,13.3-16.1c-7.5-1.3-13.5-7.5-14-15.4 c-0.6-7.8,4.3-14.7,11.4-17.2c-7.4-0.4-14-5.7-15.6-13.3c-1.6-7.5,2.1-14.8,8.5-18.3H728c-0.6,0.1-1.1,0.1-1.7,0.1 c-0.6,0-1.1,0-1.7-0.1c-0.6,0-1.1-0.1-1.6-0.2s-1.1-0.3-1.6-0.4c-0.5-0.2-1.1-0.3-1.6-0.6c-0.5-0.2-1-0.4-1.5-0.7 c-0.5-0.3-1-0.5-1.4-0.8c-0.5-0.3-0.9-0.6-1.3-1c-0.4-0.3-0.8-0.7-1.2-1.1s-0.8-0.8-1.1-1.2c-0.3-0.4-0.7-0.9-1-1.3 c-0.3-0.5-0.6-0.9-0.8-1.4c-0.3-0.5-0.5-1-0.7-1.5s-0.4-1-0.6-1.5c-0.2-0.5-0.3-1.1-0.4-1.6c-0.1-0.3-0.1-0.7-0.2-1l-0.7,0.1 c0,0.1,0,0.2,0,0.3c0.8,9.3-6.1,17.4-15.4,18.2c-0.5,0-1,0.1-1.5,0.1c-8.7,0-16.1-6.6-16.8-15.4c0-0.1,0-0.2,0-0.3 c-0.2,0-0.4,0-0.7,0c0,0.1,0,0.2,0,0.3c0.2,9.3-7.2,17-16.5,17.2c-0.1,0-0.3,0-0.4,0c-9.2,0-16.7-7.3-16.9-16.4c0-0.1,0-0.2,0-0.3 H640c0,0.1,0,0.2,0,0.3c-0.4,9.1-7.8,16.2-16.9,16.2c-0.2,0-0.5,0-0.7,0c-9.3-0.4-16.6-8.2-16.2-17.5c0-0.1,0-0.2,0-0.3 c-0.2,0-0.4,0-0.7,0c0,0.1,0,0.2,0,0.3c-0.9,8.7-8.2,15.1-16.8,15.1c-0.6,0-1.2,0-1.8-0.1c-9.3-1-16-9.2-15.1-18.5 c0-0.1,0-0.2,0-0.3l-0.7-0.1c0,0.1,0,0.2,0,0.3c-1.4,8.2-8.6,14-16.7,14c-0.9,0-1.9-0.1-2.8-0.2c-9.2-1.6-15.4-10.3-13.8-19.4 c0-0.1,0-0.2,0.1-0.3c-0.2,0-0.4-0.1-0.6-0.1c0,0.1,0,0.2-0.1,0.3c-1.9,7.7-8.8,12.9-16.4,12.9c-1.3,0-2.6-0.2-3.9-0.5 c-9.1-2.2-14.7-11.2-12.5-20.3c0-0.1,0.1-0.2,0.1-0.3c-0.2-0.1-0.4-0.1-0.6-0.2c0,0.1,0,0.2-0.1,0.3c-2.2,7.2-8.9,11.9-16.1,11.9 c-1.7,0-3.3-0.2-5-0.8c-8.9-2.8-13.9-12.2-11.2-21.1c0-0.1,0.1-0.2,0.1-0.3l-0.6-0.2c0,0.1-0.1,0.2-0.1,0.3 c-2.6,6.7-9,10.8-15.8,10.8c-2,0-4.1-0.4-6.1-1.1c-8.7-3.3-13.1-13.1-9.7-21.8c0-0.1,0.1-0.2,0.1-0.3l-0.6-0.3 c0,0.1-0.1,0.2-0.1,0.3c-2.9,6.1-9,9.7-15.4,9.7c-2.4,0-4.8-0.5-7.1-1.6c-8.5-3.9-12.1-13.9-8.2-22.4c0-0.1,0.1-0.2,0.1-0.3 c-0.2-0.1-0.4-0.2-0.6-0.3c0,0.1-0.1,0.2-0.1,0.3c-3.1,5.6-8.9,8.7-14.8,8.7c-2.8,0-5.6-0.7-8.2-2.1l0,0 c-8.2-4.5-11.1-14.7-6.6-22.9c0-0.1,0.1-0.2,0.2-0.2c-0.2-0.1-0.4-0.2-0.6-0.3c-0.1,0.2-0.2,0.3-0.3,0.5c-0.3,0.5-0.6,0.9-1,1.3 s-0.7,0.8-1.1,1.2c-0.4,0.4-0.8,0.8-1.2,1.1c-0.4,0.3-0.9,0.7-1.3,1c-0.5,0.3-0.9,0.6-1.4,0.8c-0.5,0.2-1,0.5-1.5,0.7 s-1,0.4-1.6,0.6c-0.5,0.2-1.1,0.3-1.6,0.4s-1.1,0.2-1.6,0.2c-0.5,0.1-1.1,0.1-1.7,0.1s-1.1,0-1.7-0.1s-1.1-0.1-1.6-0.2 s-1.1-0.2-1.6-0.4c-0.5-0.2-1.1-0.3-1.6-0.6c-0.5-0.2-1-0.5-1.5-0.7c-0.5-0.3-1-0.5-1.4-0.8c-0.5-0.3-0.9-0.6-1.3-1 s-0.8-0.7-1.2-1.1c-0.4-0.4-0.8-0.8-1.1-1.2c-0.3-0.4-0.7-0.9-1-1.3c-0.3-0.5-0.6-0.9-0.8-1.4c-0.3-0.5-0.5-1-0.7-1.5 C347.5,422.3,347.4,422,347.3,421.7z M773.8,215.7c0.9,1.7,1.3,1.7,2.6,2.6l0.3,0.8c-0.6-0.2-1.2-0.3-1.8-0.5 c7.5,8.4,27.7,25.2,30.4,34.5c-9.3,8.8-20.9,16.2-32.2,22.2c2,0.6,4.4-1.6,5.1-2.3c0.4,1.2,3.4-0.5,3.6-0.5 c6.1-2.6,18.8-3.5,26.1-1.5c7.1,2,7.2,9.5,13,13c2.9,1.8,4.5,4,6.9,5.6c2.5,1.7,5.4-1.1,6.7,2.3c2.1-0.6,8.9-1.4,10.2-2.6 c10.8-9.7,2.7-24.1-6.4-33c-8.6-8.2-17.9-16.7-26.5-24c-4.8-4-12-6.1-17.1-9.5l-10.2-2.8C781.4,218.5,777.7,216.1,773.8,215.7z  M573.4,354.6c-1.5-4.2-3.6-11.1-3.6-14.3l0.5-1.5c-1.9-1.9-2.7-5-4.1-6.7c-4.5-5.4-14.6-9.6-20.7-10.2c-1.6,6,1.2,11.7-0.3,18.9 c-3.2,15.6-7.2,33.1-14.3,48.8c-3.1,6.8-17.2,27.7-16.9,32c0.5,7.9,3.4,15.5,5.4,22l0.5,9c1.6,2.7,6.8,5.8,6.7,9 c3.4,3.7,11.7,5.6,18.9,6.4c2.1-1.2,1.9-2.6,4.9-1.8c3.2-4.7,4.4-10.3,8.2-16.5c13.5-21.8,24.5-52.9,16.6-81.3 C573.9,363.8,574.9,358.7,573.4,354.6z M860.3,479.9l-2.6-2c-1.3-4.4-2.6-8.9-3.8-13.3c-1.2-1.5-1.5-0.8-2.3-2.8h-0.8l0.5,2 c-5.4-2.2-3.6-9-6.9-13c-0.3,0.6-1.1-0.7-1.8-1c-1.8,0.7-8.2-16.6-9.7-15.9l-0.5-1.8c-0.8-0.4-1.5-0.9-2.3-1.3 c0.1-0.3,0.2-0.7,0.3-1l0.5,1l0.5-1l-0.3-0.8c-0.6,0.3-1.2,0.5-1.8,0.8c-10.4-12.7-19.6-25.1-27.9-38.1c-3.5-5.5-15.4-18-16.6-22 h-0.3l-1,0.3c3.6,9.2,13.4,19,14.1,27.6c-4.6-6.9-9.2-13.8-13.8-20.7l-1,0.3l3.1,6.1c-1.3-0.6-0.8-0.7-2,0h0.8 c0.2,1,1.5,0.2,0.8,1.5c-0.9-0.1,0-0.1-1,0.3c-1.7-2.1-1.9-4.6-3.1-7.2c0,0-1.2,0.2-2.8-0.3h-0.3c2.4,3.9,2.5,5.1,4.9,9l0.3-0.8 l4.1,8.4c9.9,17.4,11.3,28.5,17.4,49.4c-1.2-0.7-1.1-1.6-1.8-2.8l2,9.5l-1,10.2c-0.3,0.1-0.7,0.2-1,0.3c-1.6-2-4.8-1.9-7.4-3.6 c-4.3-2.7-12.3-6.9-16.9-10.2c-20-14.3-39.8-29.8-56.3-48.6c3.3-7.9,10.6-15.9,15.9-22c0.4-1.1,0.9-2.2,1.3-3.3 c5.2-6.4,10-13.2,12.5-21.2l1.8-2.8c0.1-3.4,2.1-8.3,1.3-11c-3.2-9.9-7.7-17.6-16.1-25.6c-3.5-3.3-8.4-9.3-15.9-11 c-2.2,3.7,1.7,14.2-1,21c-6,15.2-15.5,31.4-21.2,46.5l-0.3,0.3c-7.4-6-19.9-43.5-20.5-51.4c-0.4-5.5-6.2-13.3-3.8-18.7 c0.8-1.7,11.1-3.9,14.1-5.9c8.5-5.5,20.3-18.8,31.7-19.4c1.1-1.1,1.1-1.2,0.3-2.6c23.5-7.8,5.6-30.3-9.2-29.4 c-14.8,0.9-24.9,3.9-36.3,10.7c-1.6,1-1.8,3-3.1,4.1l-7.2,4.1c-2.6-1.7-5.4-4.4-7.2-7.4l2.3-3.1c0.1-0.2,0.2-0.3,0.3-0.5 c-0.5,0.5-1,1-1.5,1.5c-0.3-0.6-0.5-1.2-0.8-1.8c0.8-0.9,2.2-0.5,1-1.3c6.2-4.5,7.4-4.6,8.7-10.2c1.1,0.6,0.3,0.5,1.3,0.3 c4.1-2.6,8.1-12.2,13-12.8l-1-0.5c2.5-3.3,4.9-6.7,7.4-10c0.9,1.8,6.3-4.7,6.7-5.4l1.8-5.9c5.7-6.4,9.5-13.7,14.6-18.7 c3.1-3,3.3-9.1,6.7-11.8c0.1-0.1,13.2-4.5,14.6-4.9c4.6-1.3,10.7,6.2,12.5,9.2c3.2,5.4,23.7,27.4,36.3,17.6 c3.3-2.6,6.5-7.3,8.4-10.7l-0.3-4.1c-1.3-3.5-2.7-6.1-4.6-9.2c-3.2-5.2-18.7-16.5-25.8-19.9c-4-1.9-8.8-2.4-12.5-4.9 c-3.7-2.4-9.6,0.3-13-0.8c-0.7-0.1-0.3,0-1-0.5c0.2-2.7,7.2-13.6,5.9-18.7c-4.4-16.7-14.9-29.1-25.3-43.2c-0.7-0.9-3.5-1.3-4.1-2 c-2.1-2.6-4-5.7-7.4-6.9V75c0.2,0.3,0.3,0.5,0.5,0.8c-0.7-0.4-1.4-0.9-2-1.3c0.3,1.1,0.5,2.2,0.8,3.3l-2.8-2l-0.3,0.3 c2.5,5.8-0.3,8,0.5,13c0.2-0.6,0.7,1.3,0.8,1.8c1,4.5,1.2,14.2-0.5,20.5c-2.8,10.4-7.2,22.5-10.5,33.2c-13.2,1.1-30.2,4.3-44.2,5.4 l-2.3,0.5c-4.1,0.8-8.8,1.3-11.3,1.8c-9.5,2.3-18.9,4.6-28.4,6.9c-2.7-1.2-4.1-6-6.1-8.7c-5-6.5-18.6-22.6-28.1-23.5v0.3h0.8 c-4.1,5.1-1,27.3,1,35c0.6,2.1,2.3,4.1,1,6.1c0.4,1.7-14.2,5.5-16.6,6.9c-9.1,5.3-22.5,6.4-33.8,9.5c-6.7-2.4-24.5,1.1-29.2,5.9 c1.2,5.4,5.7,9.7,9.7,11.8c0.8,0.4,1.9-1,2.8-0.3l5.4,5.1c1.6,0.9,4.7,0.9,5.4,1.5c6,5.8,13.8,6.8,21.7,10.5 c22.4,10.5,36-1.8,43.5-22.2l0.8-0.3c5.7,6.6,17.7,38.8,36.1,29.7l5.6-4.6c-1.2-3.6,3.8-8.5,4.3-11.3c0.5-2.7-2.1-7.9-1-11.5 c1.8-6,3.7-28.2,9.7-34.3c3.1-3.1,41.1-8.1,49.1-7.9v0.3c-4.4,17.1-12.9,32.3-19.4,46.8c-2.9,6.4-10.5,13.3-11.3,19.4 c-0.2,0.5-0.5,0.5,0,0.5c-0.7,1.1-0.2,0.6-1.3,0.8c0.5,1.1-0.2,0.3,1,0.8c-2.5,2.3-10.4,13.1-10.2,15.3h-0.5 c-7.4-4.1-11.6-10.1-20.5-10c0,0,5.9,30.3,5.9,30.4l-2.6,2.6h1.3c-1.6,2.7-4.5,2.2-4.1,5.9c-0.1,0.3-0.2,0.7-0.3,1l-1-1 c-2.3,4.2-6.2,8.5-10,12l0.5,1.8c-1.9-0.5-1.1-0.1-3.3,0.8l-0.3,1v0.3l2.6-1.5l-0.3,0.8l1,0.5c0.4-0.7,0.9-1.4,1.3-2 c0.2-0.9,0.1-0.3-0.8-0.5l1-2.3h1l-0.5,1.3l1,0.3l1.3-1.3c0.1-0.2,0.2-0.3,0.3-0.5c1.1,2-7.6,8.7-8.4,9.2c2.3,0.6,2.6-1.1,5.1-1.3 l-0.3-1.3c1.4,0.6,0.8,0.6,2.3,0.3c-0.5,1.2-0.4,0.8,0,1.8l-9.7,4.1l0.3-1c-1,0.5-1.3,1.3-2,2.6c-7.1,1.3-18.1,9.6-30.4,10 c6.4,13.1,38.8,17.1,56,11.8c2.7-0.8,12.7-4.4,15.9-4.1c9.9,20.1,19.6,43.6,29.7,62.4c3.7,6.9,14.1,19.6,3.8,22.5l-0.3,0.8l1.8-0.3 c-5,5-10.2,8.9-16.4,12.8c0.8,0.7,0.3,0,0.5,1c-6-0.6-12.5,6.6-18.2,8.4c-2.2,0.7-4.6,0.3-6.9,1.3l1.8,0.5l0.5,0.3 c-12.6,1.9-25.9,10.8-38.9,3.1c0.4,0.7,0.9,1.4,1.3,2c-6.8-2.1-10.6-2.6-16.4-5.6h-0.3c1.5,2,3.7,4,4.9,6.9c-1.6,0-0.6,0.4-1.8-0.8 l-1,0.8v0.3c3.1,1.4,15.2,9.2,15.1,11c4.3,3.6,23.2,8.7,30.2,8.7c-0.7-0.3-1.4-0.5-2-0.8v-0.3c3.1-0.6,3.7-0.5,5.6,1 c7.1-0.6,13-4.2,19.2-6.7c5-2,8.4,1.9,12,0c4.1-2.2,5-4.2,8.4-6.1l2.3,0.5c3-3,7.8-3.2,10.5-5.4l13-10c3.1,1.3,5.6,6.5,7.9,9.5 c6.6,7,13.3,14,19.9,21c18.6,17.2,38.4,32.3,61.4,44.5c4,2.1,9.9,6.1,13.3,7.4c4.3,1.6,17.6,3.8,19.4,5.6c0.4-0.9,2.1-0.6,2.6-0.5 c9.6,2.1,16.8-3.7,24-7.2l-0.4-3.3C855.4,496.9,862.3,483.4,860.3,479.9z"/>
    <path d="M683.6,658.2c21.8-25.1,36.7-63.4,17.7-85.4c-16.9-19.5-158.9-27.6-182.9,0c-2.9,3.3-4.9,6.7-6.4,10.3 c-3.9-0.5-7.9-0.8-12.1-0.8s-8.2,0.3-12.1,0.8c-1.4-3.5-3.5-7-6.4-10.3c-23.9-27.6-166-19.5-182.9,0c-19,22-4.1,60.3,17.7,85.4 c21.8,25.1,124.1,19.7,141.5-0.4c11.2-12.9,27.7-33,31.7-53c3.2-0.5,6.7-0.7,10.4-0.7s7.2,0.3,10.4,0.7c4,20,20.5,40,31.7,53 C559.5,677.9,661.8,683.3,683.6,658.2L683.6,658.2z"/>
    <path d="M612.5,178.6l-1.5-3.1c3.4-3.5,10.4-4.5,13-6.6C623.5,171.8,616.1,177.6,612.5,178.6z"/>
    <path d="M633.8,273.5c1.2,0.7,1.9,3.6,1.5,4.9c0,0-0.5,0.5-1,1.3c0.3,0.1,0.7,0.2,1,0.3c-4.2,2.9-11.4,7.6-18.4,8.7 c1.3-1.4,4.2-4,5.6-4.3c-1.2-0.9-1-0.3-2.6,0.3c0.9-1.3,2-2.7,3.6-3.3l0.5-0.5c-0.6,0.7-1.2,1.4-1.8,2L622,283 c2,0.2,2.4-1.9,5.1-2.6C625.8,277.6,633,275.6,633.8,273.5L633.8,273.5z"/>
</svg>
