<svg id="logoSVG"  version="1.1" xmlns="http://www.w3.org/2000/svg" viewBox="0 0 100 88">
    <path id="afro" d="M98.3 47c.9 0 1.6-.7 1.7-1.7 0-.9-.7-1.7-1.6-1.7.9-.1 1.6-.9 1.5-1.8-.1-.9-.8-1.6-1.8-1.6.9-.2 1.5-1 1.3-1.9-.1-.9-1-1.5-1.9-1.4.9-.2 1.4-1.1 1.2-2-.2-.9-1.1-1.4-2-1.2.9-.3 1.3-1.3 1-2.1-.3-.9-1.2-1.3-2.1-1.1.8-.4 1.2-1.4.8-2.2-.4-.8-1.3-1.2-2.2-.9.8-.4 1.1-1.4.6-2.3-.4-.8-1.4-1.1-2.2-.7.7-.5.9-1.5.4-2.3-.5-.8-1.5-1-2.3-.5.7-.6.8-1.6.3-2.3-.5-.7-1.6-.9-2.3-.3.6-.6.7-1.6.1-2.3-.6-.7-1.6-.7-2.3-.2.6-.7.6-1.7-.1-2.3-.6-.6-1.7-.6-2.3 0 .5-.7.4-1.7-.3-2.3-.7-.5-1.6-.5-2.2.1.4-.7.2-1.7-.5-2.2-.7-.5-1.6-.4-2.2.2.3-.7 0-1.6-.7-2.1-.7-.4-1.6-.3-2.1.3H76c.2-.8-.1-1.6-.8-2-.7-.4-1.6-.2-2.1.4H73c.2-.8-.2-1.6-1-1.9-.7-.3-1.6-.1-2.1.6h-.1c.1-.8-.3-1.6-1.1-1.8-.8-.3-1.6 0-2 .7h-.1c.1-.8-.4-1.6-1.2-1.8-.8-.2-1.7.2-2 .9.1-.8-.5-1.6-1.3-1.8-.9-.2-1.7.3-2 1.1 0-.9-.5-1.6-1.4-1.8-.9-.3-1.7.3-1.9 1.2 0-.9-.6-1.7-1.5-1.7-.9-.1-1.7.6-1.8 1.4 0-.9-.7-1.6-1.6-1.7-.9 0-1.7.7-1.7 1.6-.2-.9-1-1.6-1.9-1.6-.9 0-1.6.8-1.6 1.7-.1-.9-.9-1.5-1.8-1.5-.9.1-1.6.8-1.5 1.7-.2-.9-1-1.5-1.9-1.3-.9.1-1.5.9-1.4 1.8-.3-.8-1.1-1.3-2-1.1-.8.2-1.4 1-1.3 1.8-.3-.8-1.2-1.2-2-.9-.8.2-1.3 1-1.2 1.8h-.1c-.4-.7-1.3-1-2-.7-.8.3-1.2 1.1-1.1 1.8h-.1c-.4-.6-1.3-.9-2.1-.6-.7.3-1.1 1.1-1 1.9h-.1c-.5-.6-1.4-.8-2.1-.4-.7.4-1.1 1.2-.8 2h-.1c-.5-.6-1.4-.7-2.1-.3-.7.4-1 1.3-.7 2.1-.6-.6-1.5-.7-2.2-.2-.7.5-.9 1.4-.5 2.2-.6-.6-1.6-.6-2.2-.1-.7.6-.8 1.6-.3 2.3-.6-.6-1.7-.6-2.3 0-.7.6-.7 1.7-.1 2.4-.7-.6-1.7-.5-2.4.1-.6.7-.6 1.7.1 2.4-.7-.5-1.8-.4-2.3.3-.6.7-.4 1.8.3 2.3-.8-.5-1.8-.3-2.3.5-.5.8-.3 1.8.5 2.3-.8-.4-1.8-.1-2.2.7-.7 1-.5 2 .3 2.4-.8-.3-1.8 0-2.2.9-.4.8 0 1.8.8 2.2-.9-.3-1.8.2-2.1 1.1-.3.8.1 1.8.9 2.1-.7-.2-1.8.3-2 1.2-.2.9.3 1.8 1.2 2-.9-.1-1.7.5-1.9 1.4s.4 1.7 1.3 1.9c-.9 0-1.7.6-1.8 1.5-.1.9.6 1.7 1.5 1.8-.9 0-1.6.8-1.6 1.7 0 .9.7 1.6 1.6 1.7-.8.1-1.6.9-1.4 1.8.1.9.9 1.6 1.8 1.5-.8.1-1.5 1-1.3 1.9.2.9 1 1.5 1.9 1.4-.7.2-1.4 1.2-1.1 2 .2.9 1.1 1.4 2 1.2-.8.3-1.3 1.3-1 2.1.3.9 1.3 1.3 2.1 1-.8.4-1.2 1.4-.8 2.2.4.8 1.4 1.2 2.2.8-.8.5-1 1.5-.6 2.3.4.8 1.4 1.1 2.2.7-.7.5-.9 1.5-.4 2.3.5.7 1.4.9 2.2.5-.6.6-.7 1.6-.1 2.2.5.7 1.4.8 2.2.4-.5.6-.5 1.6.1 2.2.6.6 1.5.7 2.1.3-.4.7-.3 1.6.3 2.1.6.6 1.5.6 2.2.1h.1c-.4.7-.2 1.6.4 2.1.6.5 1.6.5 2.2 0-.3.7-.1 1.6.6 2.1s1.6.4 2.2-.2c-.3.8 0 1.7.7 2.1.7.4 1.7.2 2.2-.4-.3.8 0 1.7.8 2.1.8.4 1.8.1 2.2-.6-.3.8.1 1.8.9 2.1.8.4 1.8 0 2.2-.8-.3.9.2 1.8 1.1 2.1.9.3 1.8-.2 2.1-1h.1c-.2 1 .3 2.1 1.6 2.1 2.3 0 2.1-3.6-.2-3.4-.4 0-.7.2-.9.4v-.1c.7-.5.9-1.6.3-2.3-.5-.7-1.5-.9-2.3-.4v-.1c.7-.5 1-1.5.5-2.2-.4-.8-1.4-1.1-2.2-.7v-.1c.8-.4 1.1-1.4.7-2.2-.4-.8-1.3-1.2-2.2-.9v-.1c.8-.3 1.2-1.3.9-2.1-.3-.9-1.3-1.3-2.1-1v-.1c.9-.3 1.4-1.2 1.1-2.1-.3-.9-1.2-1.4-2.1-1.1V69c.9-.2 1.5-1.1 1.3-2s-1.1-1.5-2-1.3h-.1v-.1h.1c.9-.1 1.6-1 1.4-1.9-.1-.9-1-1.6-1.9-1.4h-.1v-.1h.1c.9-.1 1.6-.9 1.6-1.8-.1-.9-.9-1.6-1.8-1.6h-.1v-.1h.1c.9 0 1.7-.7 1.7-1.7 0-.9-.7-1.7-1.7-1.7h-.1v-.1h.2c.8 0 1.6-.6 1.7-1.5.1-.9-.5-1.7-1.4-1.9v-.1h.4c.7 0 1.4-.5 1.6-1.2.2-.8-.2-1.7-.9-2v-.1c.2.1.4.1.6.1.6 0 1.1-.3 1.5-.8.4-.7.2-1.6-.4-2.1v-.1c.3.2.7.3 1 .3.4 0 .8-.1 1.1-.4.6-.6.7-1.5.2-2.2h.1c.3.5.8.7 1.4.7.3 0 .5-.1.8-.2.8-.4 1.1-1.4.7-2.2h.1c.2.6.7 1.1 1.6 1.1.7 0 1.2-.3 1.4-.8h.1c-.4.8-.1 1.8.7 2.3.3.1.5.2.8.2.6 0 1.2-.3 1.5-.9h.1c-.4.8 0 1.8.8 2.2.2.1.5.2.7.2.6 0 1.2-.4 1.5-1h.1c-.3.9.1 1.8 1 2.2.2.1.4.1.6.1.7 0 1.3-.4 1.6-1.1h.1c-.3.9.2 1.8 1.1 2.1.2 0 .3.1.5.1.7 0 1.4-.5 1.6-1.2h.1c-.2.9.3 1.8 1.2 2h.4c.8 0 1.5-.5 1.6-1.3h.1c-.2.9.5 1.8 1.4 1.9h.3c.8 0 1.5-.6 1.7-1.4h.1c-.1.9.6 1.7 1.5 1.8h.2c.9 0 1.6-.6 1.7-1.5h.1c0 .9.7 1.7 1.6 1.7h.1c.9 0 1.6-.7 1.7-1.6h.3c0 .9.8 1.6 1.7 1.6.9 0 1.7-.8 1.6-1.7h.1c.1.9.8 1.5 1.7 1.5h.1c.9-.1 1.6-.9 1.5-1.8h.1c.1.7.6 1.4 1.6 1.4h.2c-.6.3-1 1.1-.8 1.8.2.7.8 1.3 1.5 1.3-.6.2-1.2.9-1.1 1.7.1.8.6 1.4 1.4 1.5-.6.1-1.3.8-1.3 1.6s.5 1.5 1.3 1.7c-.8.1-1.4.7-1.5 1.5-.1.8.4 1.5 1.1 1.8-.8 0-1.4.6-1.6 1.4-.1.8.3 1.5 1 1.8-.8 0-1.5.5-1.7 1.3-.2.8.2 1.6.9 1.9-.8-.1-1.5.4-1.7 1.2-.2.8.1 1.6.8 1.9-.8-.1-1.5.3-1.8 1.1-.3.7 0 1.6.6 2-.7-.2-1.5.2-1.9.9-.3.7-.1 1.6.5 2-.7-.2-1.5.1-1.9.8-.4.7-.3 1.5.3 2.1-.7-.3-1.5-.1-2 .6-.4.6-.4 1.5 0 2-.3-.1-.6-.2-.9-.2-2.1.2-1.9 3.4.2 3.4 1.3 0 1.8-1.2 1.6-2.1.2.7.9 1.1 1.6 1.1.2 0 .4 0 .6-.1.9-.3 1.3-1.2 1.1-2.1.4.8 1.3 1.2 2.2.8.8-.3 1.2-1.3.9-2.1.4.8 1.4 1 2.2.6.8-.4 1.1-1.3.8-2.1.5.7 1.5.9 2.2.4.7-.4 1-1.3.7-2.1.6.6 1.5.7 2.2.2.7-.5.9-1.4.6-2.1h.1c.6.5 1.5.6 2.2 0 .6-.5.8-1.4.4-2.1h.1c.6.5 1.5.4 2.2-.1.6-.6.7-1.5.3-2.1.7.4 1.6.3 2.1-.3.6-.6.6-1.5.1-2.2.7.4 1.6.2 2.2-.4.5-.7.5-1.6-.1-2.2.7.4 1.7.2 2.2-.5.5-.7.3-1.7-.4-2.3.8.4 1.8.1 2.2-.7.4-.8.2-1.8-.6-2.3.8.4 1.8 0 2.2-.8.4-.8 0-1.8-.8-2.2.9.3 1.8-.2 2.1-1 .3-.9-.1-1.8-1-2.1.9.2 1.8-.3 2-1.2.2-.9-.3-1.8-1.1-2 .9.1 1.7-.5 1.9-1.4s-.4-1.8-1.3-1.9c.9.1 1.7-.6 1.8-1.5.4.1-.2-.7-1.2-.8zM2.4 43.5v.2c-.1-.1-.3-.1-.5-.1.2 0 .4 0 .5-.1zm-.5 3.4c.1 0 .3-.1.4-.1v.2c-.1 0-.2-.1-.4-.1zm.4 3.4c.1 0 .2-.1.3-.1v.1h-.3zm.4-9.8c-.1-.1-.3-.1-.5-.2.2 0 .4 0 .5-.1v.3zm.2 13.1c.1 0 .1 0 .2-.1v.1c-.1-.1-.2-.1-.2 0zm.3-16.4c-.1-.1-.3-.2-.5-.2h.5v.2zm.5 19.6c.1 0 .1 0 0 0h.1-.1zM4 34c-.1-.1-.3-.2-.4-.2h.5c-.1 0-.1.1-.1.2zm1-3.2c-.1-.1-.2-.2-.4-.2.1 0 .3.1.4.1v.1zm1.3-3.1c-.1-.1-.2-.1-.3-.2.1 0 .2.1.3.1v.1zm1.5-3c-.1 0-.1-.1-.2-.1 0 0 .1 0 .2.1zm1.7-2.9s-.1 0 0 0c-.1 0 0 0 0 0zm71.7 1.4c.9.7 1.8 1.6 2.6 2.4.9.9 1.7 2.3.6 3.3-.1.1-.8.2-1 .3-.1-.3-.4-.1-.7-.2-.2-.2-.4-.4-.7-.6-.6-.3-.6-1.1-1.3-1.3-.7-.2-2-.1-2.6.1 0 0-.3.2-.4 0-.1.1-.3.3-.5.2 1.1-.6 2.3-1.3 3.2-2.2-.3-.9-2.3-2.6-3-3.4h.2v-.1c-.1-.1-.2-.1-.3-.3.4 0 .8.3 1.1.4l1 .3c.6.5 1.3.7 1.8 1.1zM55.9 45c-.4.6-.5 1.2-.8 1.6-.3-.1-.3.1-.5.2-.7-.1-1.5-.3-1.9-.6 0-.3-.5-.6-.7-.9v-.9c-.2-.6-.5-1.4-.5-2.2 0-.4 1.4-2.5 1.7-3.2.7-1.6 1.1-3.3 1.4-4.9.1-.7-.1-1.3 0-1.9.6.1 1.6.5 2.1 1 .1.2.2.5.4.7v.1c0 .3.2 1 .4 1.4.1.4 0 .9.2 1.4.6 2.9-.5 6-1.8 8.2zm29.4 4.8v.3c-.7.3-1.4.9-2.4.7h-.3c-.2-.2-1.5-.4-1.9-.6-.3-.1-.9-.5-1.3-.7-2.3-1.2-4.3-2.7-6.1-4.4-.7-.7-1.3-1.4-2-2.1-.2-.3-.5-.8-.8-.9l-1.3 1c-.3.2-.7.2-1 .5H68c-.3.2-.4.4-.8.6-.4.2-.7-.2-1.2 0-.6.2-1.2.6-1.9.7-.2-.1-.2-.2-.6-.1.1 0 .1 0 .2.1-.7 0-2.6-.5-3-.9 0-.2-1.2-1-1.5-1.1l.1-.1c.1.1 0 .1.2.1-.1-.3-.3-.5-.5-.7.6.3 1 .3 1.6.6 0-.1-.1-.1-.1-.2 1.3.8 2.6-.1 3.9-.3h-.2c.2-.1.5-.1.7-.1.6-.2 1.2-.9 1.8-.8v-.1c.6-.4 1.1-.8 1.6-1.3h-.2v-.1c1-.3 0-1.6-.4-2.2-1-1.9-2-4.2-3-6.2-.3 0-1.3.3-1.6.4-1.7.5-5 .1-5.6-1.2 1.2 0 2.3-.9 3-1 .1-.1.1-.2.2-.3v.1l1-.4v-.2h-.2v.1c-.2 0-.3.2-.5.1.1 0 .9-.7.8-.9l-.1.1h-.1v-.1h-.1l-.1.2h.1c0 .1-.1.1-.1.2h-.1v-.1H61v-.1c.2-.1.1-.1.3-.1v-.2c.4-.3.8-.8 1-1.2l.1.1v-.1c0-.4.2-.3.4-.6h-.1l.3-.3-.6-3c.9 0 1.3.6 2 1 0-.2.8-1.3 1-1.5-.1 0 0 0-.1-.1.1 0 .1 0 .1-.1.1-.6.8-1.3 1.1-1.9.6-1.4 1.5-3 1.9-4.7-.8 0-4.6.5-4.9.8-.6.6-.8 2.8-1 3.4-.1.4.1.9.1 1.1 0 .3-.5.8-.4 1.1l-.6.5c-1.8.9-3-2.3-3.6-3h-.1c-.7 2-2.1 3.3-4.3 2.2-.8-.4-1.6-.5-2.2-1-.1-.1-.4-.1-.5-.1l-.5-.5c-.1-.1-.2.1-.3 0-.4-.2-.8-.6-1-1.2.5-.5 2.2-.8 2.9-.6 1.1-.3 2.5-.4 3.4-.9.2-.1 1.7-.5 1.7-.7.1-.2 0-.4-.1-.6-.2-.8-.5-3-.1-3.5h.1c.9.1 2.3 1.7 2.8 2.3.2.3.3.7.6.9.9-.2 1.9-.5 2.8-.7.2 0 .7-.1 1.1-.2h.2c1.4-.1 3.1-.4 4.4-.5.3-1.1.8-2.3 1-3.3.2-.6.1-1.6 0-2l-.1-.2c-.1-.5.2-.7 0-1.3l.3.2c0-.1 0-.2-.1-.3.1 0 .1.1.2.1V7.4c.3.1.5.4.7.7.1.1.3.1.4.2 1 1.4 2.1 2.6 2.5 4.3.1.5-.6 1.6-.6 1.9h.1c.3.1.9-.2 1.3.1.4.2.8.3 1.2.5.7.3 2.3 1.5 2.6 2 .2.3.3.6.5.9v.4c-.2.3-.5.8-.8 1.1-1.3 1-3.3-1.2-3.6-1.8-.2-.3-.8-1-1.2-.9-.1 0-1.4.5-1.5.5-.3.3-.4.9-.7 1.2-.5.5-.9 1.2-1.5 1.9l.1.6c0 .1-.6.7-.7.5-.2.3-.5.7-.7 1h.1c-.5.1-.9 1-1.3 1.3H67c-.1.6-.2.6-.9 1 .1.1 0 0-.1.1 0 .1 0 .1.1.2l.1-.1-.2.3c.2.3.5.6.7.7l.7-.4c.1-.1.1-.3.3-.4 1.1-.7 2.1-1 3.6-1.1 1.5-.1 3.3 2.2.9 2.9.1.1.1.1 0 .3-1.1.1-2.3 1.4-3.2 1.9-.3.2-1.3.4-1.4.6-.2.5.3 1.3.4 1.9.1.8 1.3 4.5 2 5.1.6-1.5 1.5-3.1 2.1-4.6.3-.7-.1-1.7.1-2.1.7.2 1.2.8 1.6 1.1.8.8 1.3 1.6 1.6 2.6.1.3-.1.8-.1 1.1l-.2.3c-.1.8-.6 1.5-1.1 2.1 0 .1-.1.2-.1.3-.5.6-1.3 1.4-1.6 2.2 1.6 1.9 3.6 3.4 5.6 4.9.5.3 1.3.7 1.7 1 .3.2.6.2.7.4h.1l.1-1-.2-.9c.1.1.1.2.2.3-.6-2.1-.7-3.2-1.7-4.9l-.4-.8v.1c-.2-.4-.2-.5-.5-.9h.3c.1.3.1.5.3.7h.1c.1-.1-.1 0-.1-.1h-.1c.1-.1.1-.1.2 0l-.3-.6h.1l1.4 2.1c-.1-.9-1-1.8-1.4-2.8h.1c.1.4 1.3 1.6 1.7 2.2.8 1.3 1.7 2.5 2.8 3.8.1 0 .1 0 .2-.1v.2-.1.1c.1 0 .1.1.2.1v.2c.1-.1.8 1.7 1 1.6.1 0 .1.2.2.1.3.4.1 1.1.7 1.3v-.2h.1c.1.2.1.1.2.3.1.4.2.9.4 1.3V48c.2.3-.5 1.7-.7 1.8zm5.3-27.9zm1.7 2.9c0-.1.1-.1.2-.1-.1 0-.1 0-.2.1zm1.5 3v-.1c.1 0 .2 0 .3-.1-.1 0-.2.1-.3.2zm1.3 3.1c0-.1 0-.1-.1-.2.1 0 .3 0 .4-.1l-.3.3zm1.1 25.9h.1-.1zm-.1-22.7c0-.1 0-.1-.1-.2h.5c-.1 0-.3 0-.4.2zm.7 2.9h.5c-.2 0-.3.1-.5.2V37zm.1 16.6s.1 0 0 0h.2-.2zm.5-13.1v-.2c.2 0 .3.1.5.1-.2 0-.4 0-.5.1zm0 9.9v-.1c.1 0 .2.1.3.1 0-.1-.2-.1-.3 0zm.3-3.3v-.2c.1 0 .3.1.4.1-.1 0-.3 0-.4.1zm-.1-3.3v-.2c.1 0 .3.1.5.1-.1 0-.3 0-.5.1z"/>
    <path id="glassesID" d="M70.1 57.3c-1.7-1.9-15.9-2.8-18.3 0-.3.3-.5.7-.6 1-.4 0-.8-.1-1.2-.1-.4 0-.8 0-1.2.1-.1-.3-.3-.7-.6-1-2.4-2.8-16.6-1.9-18.3 0-1.9 2.2-.4 6 1.8 8.5s12.4 2 14.1 0c1.1-1.3 2.8-3.3 3.2-5.3.3 0 .7-.1 1-.1s.7 0 1 .1c.4 2 2 4 3.2 5.3 1.8 2 12 2.5 14.2 0 2.2-2.5 3.6-6.3 1.7-8.5z"/>
    <path id="kanji_ko01ID" class="st0" d="M62.4 16.9c-.3.2-1 .3-1.3.7l.1.3c.4-.1 1.2-.7 1.2-1z"/>
    <path id="kanji_ko02ID" class="st0" d="M62.2 28.3l.2-.2c-.2.1-.3.2-.4.3.2-.1.1-.1.3 0-.1 0-.4.3-.6.4.7-.1 1.4-.6 1.8-.9h-.1c0-.1.1-.1.1-.1 0-.1 0-.4-.1-.5-.1.2-.8.4-.7.7-.2.1-.3.3-.5.3z"/>
</svg>