<svg id="logoSVG"  version="1.1" xmlns="http://www.w3.org/2000/svg" viewBox="0 0 100 88">
    <path id="afro" d="M48.165,0v0.1c0.855,0,1.585,0.579,1.776,1.407l0.097,0.422l0.098-0.422 c0.192-0.827,0.922-1.405,1.775-1.405l0.065,0.001c0.871,0.03,1.601,0.673,1.737,1.528l0.068,0.426l0.127-0.412 c0.232-0.755,0.948-1.282,1.741-1.282c0.064,0,0.128,0.003,0.193,0.01c0.867,0.091,1.55,0.783,1.625,1.646l0.037,0.43l0.156-0.403 c0.268-0.695,0.951-1.163,1.699-1.163c0.107,0,0.215,0.009,0.321,0.028c0.859,0.152,1.491,0.891,1.504,1.757l0.006,0.433 l0.184-0.391c0.298-0.634,0.946-1.044,1.65-1.044c0.15,0,0.301,0.019,0.448,0.056c0.846,0.213,1.424,0.995,1.374,1.861 l-0.025,0.432l0.212-0.378c0.322-0.573,0.931-0.928,1.591-0.928c0.194,0,0.387,0.031,0.574,0.093 c0.829,0.273,1.348,1.096,1.234,1.957l-0.057,0.43l0.24-0.362c0.338-0.511,0.907-0.816,1.523-0.816c0.24,0,0.475,0.047,0.698,0.139 c0.807,0.333,1.264,1.192,1.086,2.043l-0.089,0.425l0.266-0.343c0.343-0.442,0.883-0.706,1.446-0.706 c0.287,0,0.563,0.066,0.821,0.196c0.78,0.393,1.171,1.284,0.929,2.119L75.172,8.3l0.291-0.323c0.345-0.382,0.84-0.601,1.358-0.601 c0.331,0,0.657,0.091,0.942,0.262c0.749,0.451,1.07,1.369,0.764,2.184l-0.153,0.408l0.316-0.3c0.34-0.323,0.788-0.501,1.261-0.501 c0.382,0,0.748,0.117,1.06,0.339c0.712,0.508,0.96,1.449,0.59,2.238l-0.185,0.395l0.339-0.275c0.324-0.263,0.733-0.407,1.153-0.407 c0.429,0,0.846,0.152,1.174,0.427c0.67,0.562,0.842,1.521,0.41,2.279l-0.216,0.379l0.36-0.247c0.305-0.209,0.663-0.32,1.036-0.32 c0.484,0,0.941,0.187,1.284,0.527c0.621,0.614,0.715,1.581,0.224,2.301l-0.243,0.356l0.375-0.213 c0.274-0.156,0.586-0.238,0.903-0.238c0.536,0,1.042,0.232,1.389,0.638c0.568,0.664,0.58,1.637,0.029,2.315l-0.273,0.335 l0.393-0.181c0.241-0.112,0.499-0.168,0.766-0.168c0.589,0,1.144,0.284,1.485,0.76c0.51,0.711,0.437,1.683-0.173,2.311 l-0.303,0.311l0.408-0.147c0.199-0.072,0.408-0.109,0.62-0.109c0.645,0,1.247,0.343,1.573,0.895 c0.445,0.755,0.285,1.717-0.38,2.289l-0.331,0.284l0.421-0.111c0.152-0.04,0.309-0.061,0.466-0.061c0.703,0,1.351,0.408,1.65,1.04 c0.376,0.793,0.127,1.738-0.59,2.247l-0.357,0.253l0.432-0.073c0.1-0.017,0.203-0.026,0.305-0.026c0.765,0,1.454,0.48,1.714,1.195 c0.301,0.826-0.036,1.745-0.801,2.185l-0.382,0.22l0.439-0.033c0.046-0.003,0.092-0.005,0.138-0.005 c0.831,0,1.557,0.559,1.764,1.359c0.22,0.849-0.201,1.732-1.002,2.099l-0.396,0.182l0.436,0.009 c0.882,0.019,1.622,0.661,1.76,1.528c0.138,0.866-0.366,1.705-1.198,1.994l-0.411,0.143l0.432,0.051 c0.875,0.103,1.55,0.813,1.605,1.688c0.054,0.876-0.528,1.663-1.384,1.872l-0.425,0.104l0.428,0.091 c0.862,0.184,1.467,0.954,1.438,1.831c-0.029,0.876-0.683,1.605-1.555,1.733l-0.43,0.063l0.415,0.131 c0.84,0.265,1.368,1.089,1.255,1.958c-0.113,0.871-0.835,1.535-1.717,1.578l-0.438,0.021l0.404,0.171 c0.813,0.343,1.26,1.214,1.065,2.07c-0.19,0.83-0.921,1.41-1.777,1.41c-0.027,0-0.053-0.001-0.08-0.002l-0.433-0.019l0.381,0.207 c0.773,0.419,1.134,1.327,0.858,2.159c-0.247,0.744-0.943,1.244-1.731,1.244c-0.084,0-0.169-0.006-0.252-0.018l-0.432-0.06 l0.363,0.242c0.731,0.489,1.005,1.426,0.652,2.229c-0.29,0.66-0.946,1.086-1.671,1.086c-0.141,0-0.282-0.016-0.419-0.049 l-0.426-0.1l0.34,0.275c0.683,0.553,0.87,1.512,0.445,2.279c-0.32,0.578-0.933,0.938-1.598,0.938c-0.197,0-0.391-0.032-0.578-0.094 l-0.416-0.139l0.315,0.306c0.63,0.611,0.731,1.582,0.239,2.309c-0.339,0.501-0.905,0.8-1.513,0.8c-0.253,0-0.498-0.051-0.729-0.151 l-0.403-0.176l0.288,0.333c0.574,0.663,0.589,1.639,0.036,2.32c-0.347,0.428-0.864,0.673-1.418,0.673 c-0.304,0-0.604-0.076-0.87-0.22l-0.387-0.21l0.259,0.356c0.515,0.709,0.447,1.682-0.161,2.314 c-0.347,0.36-0.814,0.559-1.316,0.559c-0.358,0-0.704-0.103-1.001-0.297l-0.369-0.241l0.228,0.377 c0.454,0.748,0.306,1.712-0.351,2.291c-0.334,0.294-0.762,0.456-1.208,0.456c-0.405,0-0.804-0.136-1.122-0.383l-0.348-0.27 l0.197,0.394c0.391,0.781,0.166,1.73-0.535,2.255c-0.318,0.239-0.697,0.365-1.094,0.365c-0.458,0-0.896-0.169-1.233-0.475 l-0.325-0.296l0.165,0.408c0.328,0.809,0.029,1.736-0.711,2.205c-0.293,0.186-0.631,0.284-0.977,0.284 c-0.504,0-0.99-0.209-1.333-0.574l-0.301-0.32l0.133,0.419c0.264,0.831-0.106,1.732-0.879,2.143 c-0.264,0.14-0.56,0.215-0.857,0.215c-0.557,0-1.075-0.247-1.423-0.677l-0.276-0.341l0.101,0.427c0.2,0.848-0.237,1.718-1.038,2.07 c-0.234,0.103-0.481,0.155-0.735,0.155c-0.6,0-1.161-0.293-1.501-0.783l-0.248-0.357l0.067,0.43 c0.134,0.858-0.367,1.693-1.19,1.984c-0.198,0.07-0.403,0.105-0.611,0.105c-0.645,0-1.248-0.344-1.574-0.898l-0.221-0.376 l0.035,0.434c0.004,0.048,0.008,0.097,0.008,0.146c0,1-0.818,1.814-1.824,1.814c-1.006,0-1.824-0.814-1.824-1.814 c0-1,0.818-1.814,1.824-1.814c0.192,0,0.382,0.031,0.567,0.091l0.254,0.083l-0.137-0.229c-0.368-0.615-0.339-1.39,0.075-1.974 c0.341-0.481,0.898-0.768,1.491-0.768c0.124,0,0.249,0.013,0.37,0.038l0.264,0.054l-0.164-0.213 c-0.443-0.576-0.499-1.357-0.144-1.989c0.322-0.572,0.933-0.928,1.593-0.928c0.065,0,0.131,0.003,0.196,0.011l0.268,0.029 l-0.184-0.197c-0.5-0.535-0.63-1.311-0.33-1.977c0.293-0.652,0.947-1.073,1.666-1.073l0.044,0.001l0.27,0.007l-0.2-0.181 c-0.547-0.493-0.741-1.259-0.494-1.951c0.248-0.694,0.885-1.167,1.625-1.205l0.27-0.014l-0.214-0.165 c-0.586-0.451-0.838-1.202-0.642-1.912c0.196-0.711,0.798-1.229,1.534-1.321l0.269-0.033l-0.226-0.149 c-0.618-0.409-0.924-1.14-0.78-1.863c0.144-0.723,0.707-1.283,1.434-1.427l0.266-0.053l-0.236-0.133 c-0.645-0.363-1.003-1.069-0.913-1.8c0.09-0.729,0.608-1.328,1.319-1.526l0.26-0.073l-0.245-0.114 c-0.667-0.312-1.079-0.987-1.047-1.719c0.031-0.728,0.495-1.364,1.181-1.621l0.253-0.095l-0.253-0.093 c-0.684-0.251-1.151-0.881-1.19-1.605c-0.038-0.712,0.35-1.382,0.989-1.709l0.24-0.123l-0.262-0.063 c-0.691-0.167-1.225-0.722-1.361-1.413c-0.134-0.683,0.13-1.37,0.689-1.792l0.215-0.162l-0.268-0.018 c-0.751-0.049-1.403-0.562-1.623-1.277l-0.16-0.521l-0.035,0.544c-0.058,0.891-0.776,1.618-1.671,1.69 c-0.05,0.004-0.1,0.006-0.149,0.006c-0.844,0-1.572-0.571-1.769-1.39l-0.121-0.504l-0.075,0.513 c-0.13,0.889-0.88,1.542-1.803,1.552c-0.893,0-1.649-0.636-1.796-1.513l-0.086-0.51l-0.11,0.506 c-0.181,0.827-0.928,1.428-1.778,1.428c-0.036,0-0.072-0.001-0.109-0.003c-0.9-0.053-1.618-0.739-1.706-1.632l-0.05-0.51 l-0.145,0.492c-0.226,0.766-0.944,1.302-1.745,1.302c-0.078,0-0.158-0.005-0.237-0.015c-0.895-0.116-1.562-0.851-1.586-1.748 l-0.014-0.513l-0.18,0.48c-0.264,0.706-0.95,1.18-1.705,1.18c-0.122,0-0.245-0.012-0.365-0.037 c-0.885-0.179-1.497-0.96-1.456-1.858l0.023-0.513l-0.214,0.466c-0.296,0.644-0.946,1.059-1.656,1.059 c-0.166,0-0.331-0.023-0.493-0.068c-0.87-0.243-1.423-1.066-1.317-1.959l0.061-0.51l-0.248,0.45 c-0.32,0.581-0.932,0.941-1.598,0.941c-0.211,0-0.419-0.036-0.619-0.108c-0.85-0.306-1.341-1.168-1.168-2.05l0.099-0.504 l-0.281,0.431c-0.338,0.517-0.91,0.826-1.53,0.826c-0.257,0-0.507-0.053-0.743-0.159c-0.825-0.368-1.25-1.265-1.011-2.132 l0.137-0.496l-0.313,0.409c-0.343,0.448-0.886,0.715-1.452,0.715c-0.301,0-0.6-0.076-0.866-0.22 c-0.796-0.43-1.152-1.357-0.845-2.205l0.176-0.485l-0.344,0.385c-0.347,0.388-0.843,0.61-1.362,0.61c-0.56,0-1.081-0.251-1.43-0.69 l-0.219-0.275l0.041,0.349c0.087,0.736-0.278,1.443-0.929,1.801c-0.269,0.148-0.572,0.226-0.877,0.226 c-0.388,0-0.773-0.126-1.086-0.355l-0.267-0.195l0.114,0.31c0.241,0.656,0.079,1.399-0.411,1.895 c-0.344,0.348-0.805,0.54-1.297,0.54c-0.202,0-0.4-0.033-0.591-0.097l-0.313-0.106l0.201,0.261 c0.426,0.554,0.496,1.311,0.178,1.929c-0.313,0.609-0.936,0.987-1.625,0.987c-0.034,0-0.069-0.001-0.103-0.003l-0.334-0.019 l0.269,0.199c0.588,0.435,0.857,1.174,0.685,1.882c-0.178,0.734-0.781,1.272-1.536,1.37l-0.342,0.045l0.313,0.145 c0.687,0.319,1.108,1.037,1.048,1.786c-0.062,0.766-0.606,1.412-1.355,1.608l-0.337,0.088l0.332,0.104 c0.744,0.233,1.256,0.909,1.276,1.683c0.02,0.78-0.463,1.484-1.202,1.75l-0.329,0.119l0.342,0.073 c0.77,0.164,1.345,0.797,1.43,1.575c0.086,0.78-0.339,1.522-1.058,1.847l-0.319,0.144l0.347,0.046 c0.783,0.104,1.407,0.692,1.552,1.464c0.145,0.772-0.223,1.545-0.916,1.923l-0.307,0.167l0.349,0.02 c0.789,0.046,1.455,0.587,1.657,1.347c0.202,0.759-0.109,1.557-0.772,1.984l-0.294,0.19l0.35-0.005l0.029,0 c0.777,0,1.469,0.49,1.723,1.219c0.258,0.74,0.01,1.557-0.615,2.033l-0.278,0.212l0.348-0.032c0.057-0.005,0.113-0.008,0.17-0.008 c0.724,0,1.379,0.425,1.67,1.082c0.315,0.713,0.138,1.544-0.441,2.07l-0.258,0.234l0.343-0.062 c0.106-0.019,0.215-0.029,0.324-0.029c0.664,0,1.276,0.358,1.596,0.934c0.376,0.675,0.279,1.515-0.241,2.09l-0.233,0.258 l0.334-0.094c0.162-0.046,0.329-0.069,0.498-0.069c0.595,0,1.153,0.288,1.493,0.771c0.44,0.625,0.438,1.464-0.006,2.088 l-0.201,0.282l0.32-0.132c0.222-0.091,0.456-0.138,0.696-0.138c1.006,0,1.824,0.814,1.824,1.814c0,1-0.818,1.814-1.824,1.814 c-1.006,0-1.824-0.814-1.824-1.814c0-0.116,0.012-0.233,0.035-0.35l0.171-0.87l-0.361,0.81c-0.292,0.655-0.946,1.079-1.666,1.079 c-0.209,0-0.415-0.036-0.613-0.106c-0.822-0.293-1.322-1.127-1.187-1.985l0.067-0.429l-0.248,0.356 c-0.34,0.488-0.901,0.78-1.499,0.78c-0.255,0-0.503-0.053-0.738-0.156c-0.799-0.353-1.235-1.223-1.036-2.069l0.1-0.424 l-0.275,0.338c-0.348,0.428-0.865,0.673-1.419,0.673c-0.298,0-0.595-0.075-0.86-0.216c-0.771-0.411-1.14-1.312-0.877-2.141 l0.132-0.415l-0.3,0.316c-0.343,0.362-0.827,0.569-1.329,0.569c-0.347,0-0.686-0.099-0.98-0.286 c-0.738-0.469-1.036-1.396-0.709-2.203l0.164-0.404l-0.323,0.293c-0.336,0.304-0.772,0.471-1.228,0.471 c-0.398,0-0.778-0.127-1.097-0.366c-0.698-0.525-0.923-1.471-0.535-2.251l0.194-0.388l-0.344,0.264 c-0.317,0.243-0.713,0.377-1.115,0.377c-0.446,0-0.876-0.163-1.21-0.458c-0.655-0.579-0.802-1.541-0.351-2.287l0.225-0.372 l-0.365,0.236c-0.296,0.191-0.64,0.293-0.994,0.293c-0.503,0-0.971-0.199-1.318-0.561c-0.606-0.631-0.673-1.603-0.161-2.31 l0.255-0.352l-0.383,0.205c-0.264,0.141-0.562,0.216-0.863,0.216c-0.555,0-1.073-0.246-1.42-0.676 c-0.551-0.68-0.535-1.655,0.037-2.317l0.285-0.33l-0.4,0.172c-0.229,0.099-0.472,0.149-0.723,0.149c-0.609,0-1.175-0.3-1.514-0.802 c-0.49-0.726-0.389-1.697,0.24-2.307l0.313-0.304l-0.414,0.137c-0.185,0.061-0.378,0.092-0.573,0.092 c-0.666,0-1.279-0.36-1.599-0.94c-0.424-0.768-0.235-1.726,0.448-2.278l0.34-0.275l-0.426,0.1 c-0.136,0.032-0.276,0.048-0.416,0.048c-0.726,0-1.383-0.427-1.672-1.089c-0.352-0.804-0.076-1.742,0.658-2.23l0.365-0.243 l-0.434,0.06c-0.083,0.012-0.168,0.017-0.252,0.017c-0.79,0-1.486-0.501-1.732-1.247c-0.275-0.835,0.089-1.743,0.866-2.16 l0.387-0.208l-0.439,0.02c-0.027,0.001-0.055,0.002-0.082,0.002c-0.858,0-1.588-0.581-1.777-1.413 c-0.195-0.858,0.255-1.728,1.07-2.069l0.407-0.17l-0.44-0.022c-0.883-0.044-1.605-0.709-1.717-1.581 c-0.111-0.871,0.419-1.694,1.261-1.957l0.418-0.131l-0.433-0.064c-0.873-0.128-1.527-0.858-1.554-1.736 c-0.028-0.878,0.579-1.647,1.443-1.829l0.43-0.091l-0.427-0.104c-0.857-0.21-1.439-0.998-1.383-1.874 c0.056-0.875,0.732-1.584,1.607-1.685l0.432-0.05l-0.411-0.144c-0.831-0.291-1.334-1.13-1.194-1.996 c0.14-0.866,0.881-1.507,1.763-1.525l0.436-0.009l-0.396-0.182c-0.8-0.368-1.22-1.251-0.998-2.1 c0.209-0.799,0.934-1.356,1.764-1.356c0.044,0,0.089,0.002,0.133,0.005l0.431,0.032l-0.373-0.218 c-0.759-0.442-1.091-1.36-0.79-2.182c0.261-0.713,0.949-1.193,1.713-1.193c0.102,0,0.204,0.009,0.305,0.026l0.429,0.073L4.66,29.56 c-0.715-0.51-0.961-1.455-0.585-2.247c0.3-0.63,0.947-1.037,1.649-1.037c0.159,0,0.317,0.021,0.47,0.062l0.423,0.113l-0.332-0.285 c-0.666-0.573-0.825-1.536-0.378-2.29c0.326-0.55,0.928-0.892,1.572-0.892c0.215,0,0.426,0.037,0.628,0.111l0.413,0.151 L8.212,22.93c-0.613-0.629-0.686-1.602-0.174-2.315c0.341-0.475,0.896-0.758,1.483-0.758c0.271,0,0.532,0.058,0.776,0.173 l0.4,0.187l-0.28-0.341c-0.556-0.679-0.545-1.655,0.027-2.321c0.347-0.404,0.852-0.635,1.386-0.635 c0.322,0,0.638,0.085,0.915,0.245l0.383,0.222l-0.251-0.365c-0.497-0.722-0.404-1.694,0.222-2.31 c0.343-0.338,0.799-0.525,1.282-0.525c0.376,0,0.737,0.113,1.044,0.326l0.365,0.253l-0.221-0.385 c-0.436-0.76-0.264-1.72,0.41-2.284c0.328-0.274,0.744-0.426,1.172-0.426c0.421,0,0.832,0.145,1.156,0.409l0.338,0.275 l-0.185-0.395c-0.369-0.79-0.119-1.731,0.594-2.237c0.311-0.221,0.677-0.338,1.057-0.338c0.474,0,0.923,0.179,1.263,0.503 l0.315,0.301l-0.153-0.408c-0.305-0.815,0.017-1.733,0.767-2.183c0.284-0.171,0.609-0.261,0.939-0.261 c0.519,0,1.015,0.22,1.36,0.603l0.291,0.323l-0.121-0.418c-0.241-0.835,0.151-1.726,0.932-2.118 c0.257-0.129,0.533-0.194,0.819-0.194c0.564,0,1.105,0.265,1.447,0.708l0.266,0.344l-0.088-0.425 c-0.177-0.851,0.281-1.709,1.089-2.041c0.223-0.092,0.457-0.138,0.696-0.138c0.617,0,1.187,0.306,1.525,0.818l0.239,0.362 l-0.056-0.43c-0.113-0.861,0.407-1.683,1.237-1.955c0.186-0.061,0.378-0.092,0.571-0.092c0.661,0,1.271,0.357,1.592,0.931 l0.212,0.378l-0.025-0.433c-0.049-0.866,0.53-1.648,1.376-1.859c0.146-0.037,0.296-0.055,0.445-0.055 c0.705,0,1.353,0.411,1.651,1.047l0.184,0.392l0.007-0.433c0.014-0.867,0.648-1.605,1.507-1.755 c0.105-0.018,0.212-0.028,0.318-0.028c0.749,0,1.433,0.468,1.7,1.165l0.155,0.403l0.038-0.431c0.076-0.863,0.761-1.554,1.628-1.644 c0.064-0.007,0.128-0.01,0.191-0.01c0.794,0,1.511,0.528,1.742,1.285l0.126,0.413l0.068-0.426c0.137-0.855,0.868-1.496,1.739-1.526 L48.165,0.1V0 M48.165,0c-0.022,0-0.044,0-0.066,0.001c-0.936,0.031-1.692,0.723-1.834,1.61c-0.243-0.797-0.988-1.356-1.837-1.356 c-0.066,0-0.133,0.003-0.201,0.01C43.295,0.362,42.589,1.105,42.51,2c-0.283-0.737-0.999-1.229-1.794-1.229 c-0.111,0-0.223,0.01-0.336,0.029c-0.923,0.162-1.575,0.953-1.589,1.852c-0.316-0.674-1-1.104-1.741-1.104 c-0.155,0-0.312,0.019-0.469,0.058c-0.91,0.227-1.503,1.064-1.452,1.962c-0.341-0.61-0.99-0.982-1.68-0.982 c-0.199,0-0.402,0.031-0.602,0.097c-0.891,0.292-1.422,1.17-1.305,2.063c-0.359-0.544-0.97-0.863-1.608-0.863 c-0.245,0-0.493,0.047-0.734,0.146c-0.868,0.357-1.332,1.272-1.148,2.154c-0.369-0.478-0.939-0.747-1.527-0.747 c-0.291,0-0.586,0.066-0.863,0.205c-0.839,0.421-1.233,1.368-0.983,2.235c-0.371-0.412-0.897-0.637-1.435-0.637 c-0.338,0-0.68,0.089-0.991,0.275c-0.805,0.483-1.125,1.459-0.809,2.304c-0.365-0.348-0.846-0.531-1.332-0.531 c-0.387,0-0.777,0.116-1.115,0.356c-0.765,0.544-1.009,1.542-0.627,2.361c-0.351-0.285-0.784-0.432-1.219-0.432 c-0.437,0-0.876,0.147-1.236,0.449c-0.722,0.604-0.884,1.623-0.432,2.41c-0.33-0.229-0.715-0.343-1.101-0.343 c-0.489,0-0.977,0.184-1.352,0.553c-0.67,0.661-0.748,1.69-0.234,2.438c-0.299-0.173-0.633-0.258-0.965-0.258 c-0.543,0-1.082,0.227-1.462,0.67h0c-0.613,0.714-0.604,1.746-0.028,2.449c-0.261-0.123-0.541-0.182-0.819-0.182 c-0.599,0-1.189,0.278-1.565,0.8h0C7.408,21.321,7.506,22.348,8.14,23c-0.216-0.079-0.44-0.117-0.662-0.117 c-0.658,0-1.299,0.336-1.658,0.941c-0.479,0.809-0.291,1.824,0.399,2.417c-0.164-0.044-0.331-0.065-0.496-0.065 c-0.72,0-1.411,0.404-1.739,1.095c-0.404,0.849-0.124,1.843,0.617,2.371c-0.107-0.018-0.215-0.027-0.322-0.027 c-0.786,0-1.523,0.481-1.807,1.258h0c-0.322,0.882,0.048,1.845,0.834,2.303c-0.047-0.003-0.094-0.005-0.14-0.005 c-0.855,0-1.635,0.57-1.86,1.431c-0.238,0.91,0.225,1.835,1.053,2.216c-0.912,0.018-1.71,0.681-1.859,1.609 c-0.149,0.928,0.399,1.805,1.26,2.106c-0.906,0.105-1.636,0.84-1.696,1.778c-0.06,0.939,0.572,1.761,1.459,1.978 c-0.894,0.189-1.552,0.99-1.522,1.93c0.03,0.94,0.736,1.699,1.64,1.832c-0.871,0.272-1.45,1.132-1.33,2.065 c0.12,0.934,0.897,1.623,1.811,1.668c-0.843,0.353-1.337,1.265-1.129,2.183v0c0.202,0.889,0.996,1.491,1.875,1.491 c0.029,0,0.058-0.001,0.087-0.002c-0.805,0.431-1.209,1.385-0.914,2.279c0.266,0.806,1.018,1.316,1.827,1.316 c0.088,0,0.177-0.006,0.266-0.018c-0.759,0.505-1.071,1.491-0.694,2.353c0.315,0.72,1.022,1.149,1.764,1.149 c0.146,0,0.293-0.017,0.439-0.051c-0.708,0.572-0.927,1.581-0.473,2.404c0.35,0.634,1.008,0.991,1.687,0.991 c0.202,0,0.406-0.032,0.605-0.097c-0.652,0.632-0.779,1.656-0.254,2.435h0c0.371,0.55,0.978,0.846,1.597,0.846 c0.258,0,0.517-0.051,0.762-0.157c-0.593,0.686-0.63,1.715-0.039,2.445c0.38,0.469,0.936,0.713,1.498,0.713 c0.312,0,0.625-0.075,0.911-0.228c-0.531,0.733-0.481,1.761,0.169,2.438c0.378,0.394,0.883,0.592,1.39,0.592 c0.365,0,0.73-0.103,1.049-0.309c-0.468,0.774-0.332,1.792,0.371,2.414v0c0.366,0.324,0.822,0.483,1.276,0.483 c0.417,0,0.833-0.134,1.176-0.398c-0.403,0.808-0.186,1.812,0.564,2.375c0.347,0.261,0.753,0.386,1.157,0.386 c0.469,0,0.934-0.17,1.295-0.497c-0.339,0.837-0.044,1.821,0.748,2.325c0.321,0.204,0.679,0.301,1.033,0.301 c0.52,0,1.032-0.21,1.401-0.6c-0.273,0.86,0.097,1.818,0.925,2.26c0.289,0.154,0.6,0.228,0.907,0.228 c0.571,0,1.126-0.254,1.497-0.71c-0.206,0.877,0.235,1.804,1.093,2.183c0.253,0.112,0.518,0.165,0.778,0.165 c0.621,0,1.218-0.301,1.581-0.823c-0.139,0.889,0.369,1.78,1.253,2.095c0.214,0.076,0.432,0.112,0.647,0.112 c0.744,0,1.444-0.433,1.758-1.138c-0.024,0.12-0.037,0.243-0.037,0.369c0,1.057,0.861,1.914,1.924,1.914s1.924-0.857,1.924-1.914 c0-1.057-0.861-1.914-1.924-1.914c-0.26,0-0.508,0.052-0.734,0.145c0.456-0.641,0.486-1.523,0.006-2.203 c-0.374-0.53-0.969-0.813-1.575-0.813c-0.176,0-0.352,0.024-0.525,0.072c0.534-0.59,0.662-1.473,0.254-2.206 c-0.351-0.631-1.007-0.985-1.684-0.985c-0.114,0-0.228,0.01-0.341,0.03c0.594-0.538,0.807-1.412,0.465-2.184 c-0.317-0.716-1.022-1.142-1.761-1.142c-0.06,0-0.119,0.003-0.179,0.008c0.641-0.488,0.928-1.345,0.649-2.145h0 c-0.276-0.791-1.021-1.286-1.818-1.286c-0.01,0-0.021,0-0.031,0c0.679-0.438,1.032-1.273,0.814-2.094 c-0.218-0.821-0.94-1.374-1.747-1.421c0.71-0.387,1.123-1.195,0.967-2.029h0c-0.157-0.834-0.835-1.438-1.637-1.545 c0.736-0.333,1.208-1.106,1.116-1.949h0c-0.092-0.841-0.72-1.494-1.509-1.662c0.757-0.273,1.289-1.002,1.268-1.847h0 c-0.021-0.839-0.584-1.537-1.346-1.776c0.769-0.201,1.363-0.864,1.429-1.697c0.066-0.819-0.398-1.557-1.105-1.885 c0.766-0.1,1.428-0.655,1.62-1.446c0.187-0.769-0.122-1.542-0.723-1.987c0.036,0.002,0.072,0.003,0.108,0.003 c0.699,0,1.373-0.379,1.714-1.041v0c0.35-0.679,0.25-1.468-0.188-2.036c0.202,0.068,0.412,0.102,0.623,0.102 c0.496,0,0.992-0.19,1.368-0.569c0.539-0.544,0.681-1.327,0.434-2c0.332,0.243,0.735,0.374,1.145,0.374 c0.313,0,0.631-0.076,0.925-0.238c0.706-0.387,1.069-1.15,0.98-1.9c0.352,0.443,0.896,0.727,1.508,0.727 c0.572,0,1.084-0.25,1.436-0.643c-0.316,0.874,0.045,1.871,0.891,2.327c0.291,0.157,0.605,0.232,0.914,0.232 c0.589,0,1.161-0.27,1.532-0.754c-0.247,0.895,0.189,1.859,1.067,2.25h0c0.255,0.114,0.522,0.168,0.784,0.168 c0.64,0,1.254-0.32,1.614-0.872c-0.178,0.91,0.329,1.839,1.232,2.164c0.216,0.078,0.436,0.114,0.653,0.114 c0.691,0,1.344-0.374,1.686-0.993c-0.11,0.92,0.464,1.809,1.389,2.067c0.173,0.048,0.348,0.071,0.52,0.071 c0.743,0,1.432-0.433,1.747-1.118c-0.042,0.925,0.595,1.77,1.536,1.96c0.129,0.026,0.258,0.039,0.385,0.039 c0.797,0,1.518-0.496,1.799-1.245c0.025,0.925,0.721,1.722,1.673,1.845c0.084,0.011,0.168,0.016,0.25,0.016 c0.852,0,1.602-0.564,1.841-1.373c0.091,0.921,0.841,1.666,1.799,1.722c0.038,0.002,0.077,0.003,0.115,0.003 c0.91,0,1.686-0.637,1.876-1.506c0.153,0.907,0.943,1.596,1.895,1.596c0.007,0,0.014,0,0.021,0c0.961-0.01,1.747-0.72,1.881-1.637 c0.205,0.852,0.974,1.466,1.866,1.466c0.052,0,0.104-0.002,0.157-0.006c0.964-0.078,1.702-0.85,1.763-1.783 c0.229,0.744,0.902,1.294,1.712,1.347c-0.566,0.428-0.873,1.15-0.727,1.891h0c0.149,0.757,0.728,1.32,1.436,1.491 c-0.653,0.334-1.085,1.026-1.043,1.804c0.042,0.787,0.557,1.437,1.256,1.693c-0.7,0.262-1.212,0.92-1.246,1.71 c-0.034,0.794,0.424,1.496,1.105,1.814c-0.725,0.202-1.294,0.82-1.392,1.61c-0.098,0.792,0.306,1.53,0.963,1.899 c-0.741,0.147-1.357,0.722-1.513,1.505c-0.156,0.783,0.193,1.549,0.823,1.965c-0.75,0.093-1.406,0.623-1.618,1.394 c-0.212,0.77,0.081,1.558,0.678,2.018c-0.754,0.039-1.446,0.519-1.714,1.271c-0.268,0.75-0.036,1.555,0.522,2.059 c-0.016,0-0.031-0.001-0.047-0.001c-0.735,0-1.437,0.421-1.757,1.132c-0.326,0.723-0.163,1.541,0.348,2.086 c-0.069-0.007-0.138-0.011-0.207-0.011c-0.674,0-1.328,0.353-1.68,0.979c-0.387,0.688-0.301,1.51,0.151,2.099 c-0.129-0.027-0.26-0.04-0.391-0.04c-0.604,0-1.198,0.282-1.573,0.81c-0.452,0.637-0.456,1.454-0.08,2.083 c-0.188-0.061-0.389-0.096-0.598-0.096c-1.062,0-1.924,0.857-1.924,1.914c0,1.057,0.861,1.914,1.924,1.914 c1.062,0,1.924-0.857,1.924-1.914c0-0.052-0.004-0.103-0.008-0.154c0.347,0.591,0.986,0.947,1.66,0.947 c0.214,0,0.431-0.036,0.644-0.111v0c0.884-0.313,1.394-1.204,1.256-2.094c0.363,0.523,0.961,0.826,1.584,0.826 c0.259,0,0.523-0.052,0.775-0.163c0.86-0.378,1.302-1.306,1.095-2.185c0.371,0.459,0.928,0.714,1.501,0.714 c0.306,0,0.616-0.073,0.904-0.226c0.83-0.441,1.2-1.401,0.927-2.262c0.37,0.393,0.883,0.605,1.406,0.605 c0.353,0,0.711-0.097,1.031-0.3c0.794-0.503,1.09-1.489,0.75-2.327c0.362,0.329,0.829,0.501,1.3,0.501 c0.402,0,0.808-0.125,1.154-0.385v0c0.752-0.564,0.97-1.57,0.564-2.38c0.345,0.268,0.764,0.404,1.183,0.404 c0.453,0,0.908-0.158,1.274-0.481c0.705-0.622,0.841-1.643,0.371-2.418c0.32,0.209,0.688,0.313,1.056,0.313 c0.506,0,1.011-0.197,1.388-0.59v0c0.652-0.678,0.703-1.708,0.17-2.442c0.287,0.155,0.603,0.232,0.918,0.232 c0.561,0,1.116-0.243,1.496-0.71c0.593-0.73,0.556-1.761-0.038-2.448c0.247,0.108,0.509,0.16,0.769,0.16 c0.618,0,1.224-0.295,1.596-0.844c0.527-0.779,0.401-1.804-0.252-2.437c0.2,0.067,0.406,0.099,0.61,0.099 c0.678,0,1.335-0.357,1.685-0.989l0,0c0.456-0.823,0.238-1.832-0.469-2.405c0.147,0.035,0.295,0.051,0.442,0.051 c0.741,0,1.447-0.427,1.763-1.146c0.378-0.861,0.068-1.846-0.688-2.353c0.089,0.012,0.178,0.018,0.266,0.018 c0.808,0,1.559-0.508,1.826-1.313c0.296-0.892-0.105-1.844-0.906-2.278c0.028,0.001,0.056,0.002,0.084,0.002 c0.878,0,1.671-0.6,1.874-1.488c0.21-0.917-0.282-1.829-1.123-2.184c0.913-0.045,1.69-0.732,1.811-1.665h0 c0.121-0.932-0.455-1.792-1.324-2.067c0.902-0.133,1.609-0.89,1.64-1.829c0.031-0.94-0.625-1.741-1.517-1.932 c0.887-0.216,1.519-1.037,1.461-1.975h0c-0.058-0.938-0.787-1.674-1.693-1.781c0.861-0.3,1.412-1.176,1.264-2.104h0 c-0.148-0.928-0.944-1.593-1.857-1.612c0.829-0.38,1.293-1.305,1.057-2.215c-0.224-0.863-1.005-1.434-1.861-1.434 c-0.048,0-0.097,0.002-0.145,0.005c0.791-0.455,1.167-1.421,0.845-2.306c-0.283-0.778-1.022-1.261-1.808-1.261 c-0.107,0-0.214,0.009-0.321,0.027c0.743-0.527,1.026-1.521,0.623-2.372c-0.328-0.692-1.019-1.097-1.74-1.097 c-0.164,0-0.329,0.021-0.492,0.064c0.69-0.592,0.879-1.606,0.401-2.416c-0.358-0.607-1-0.944-1.659-0.944 c-0.219,0-0.441,0.037-0.654,0.114c0.632-0.65,0.73-1.676,0.183-2.439c-0.375-0.523-0.966-0.802-1.567-0.802 c-0.274,0-0.55,0.058-0.808,0.177c0.572-0.702,0.58-1.73-0.03-2.443c-0.38-0.444-0.921-0.673-1.464-0.673 c-0.328,0-0.656,0.083-0.952,0.251c0.509-0.747,0.43-1.77-0.237-2.429c-0.375-0.371-0.865-0.556-1.354-0.556 c-0.382,0-0.765,0.113-1.092,0.338c0.448-0.786,0.287-1.801-0.432-2.405h0c-0.361-0.303-0.801-0.451-1.238-0.451 c-0.434,0-0.866,0.146-1.216,0.43c0.383-0.818,0.141-1.817-0.623-2.362v0c-0.339-0.242-0.73-0.358-1.118-0.358 c-0.486,0-0.965,0.182-1.33,0.529c0.317-0.845-0.002-1.821-0.806-2.305c-0.311-0.187-0.654-0.277-0.993-0.277 c-0.536,0-1.062,0.223-1.433,0.634c0.251-0.866-0.142-1.814-0.98-2.236l0,0c-0.278-0.14-0.574-0.206-0.866-0.206 c-0.587,0-1.156,0.268-1.525,0.745c0.185-0.882-0.278-1.797-1.145-2.156c-0.241-0.1-0.491-0.147-0.736-0.147 c-0.637,0-1.247,0.318-1.607,0.86C68.649,3.878,68.119,3,67.229,2.706c-0.201-0.066-0.405-0.098-0.605-0.098 c-0.689,0-1.337,0.371-1.678,0.979c0.052-0.898-0.54-1.735-1.449-1.964c-0.158-0.04-0.316-0.059-0.472-0.059 c-0.741,0-1.424,0.429-1.74,1.102c-0.013-0.899-0.664-1.691-1.587-1.854h0c-0.114-0.02-0.227-0.03-0.338-0.03 c-0.794,0-1.509,0.491-1.793,1.227c-0.078-0.895-0.783-1.639-1.715-1.737c-0.068-0.007-0.136-0.011-0.204-0.011 c-0.849,0-1.592,0.557-1.837,1.353c-0.141-0.887-0.896-1.579-1.832-1.612v0c-0.023-0.001-0.046-0.001-0.069-0.001 c-0.906,0-1.675,0.628-1.873,1.482C49.842,0.63,49.073,0,48.165,0L48.165,0z"/>
    <path id="glasses" d="M60.076,55.622c4.625,0,9.088,0.783,9.948,1.744 c1.079,1.249,0.958,2.891,0.666,4.048c-0.366,1.454-1.229,3.029-2.366,4.321c-0.914,1.039-3.408,1.659-6.671,1.659 c-3.411,0-6.514-0.698-7.38-1.661c-1.8-1.95-2.868-3.717-3.175-5.252l-0.011-0.057l-0.055-0.018C50.716,60.3,50.302,60.3,50,60.3 c-0.157,0-0.339,0.026-0.514,0.051C49.317,60.375,49.143,60.4,49,60.4h-0.082l-0.016,0.08c-0.393,1.963-2.057,3.93-3.159,5.232 l-0.019,0.023c-0.816,0.96-3.881,1.657-7.288,1.657c-3.257,0-5.747-0.62-6.661-1.659c-2.264-2.573-3.609-6.273-1.801-8.367 c0.861-0.962,5.324-1.745,9.949-1.745c4.199,0,7.265,0.652,8.206,1.749c0.24,0.24,0.455,0.599,0.576,0.961l0.029,0.088l0.09-0.022 C49.212,58.3,49.613,58.3,50,58.3c0.194,0,0.394,0.025,0.588,0.049c0.2,0.025,0.406,0.051,0.612,0.051h0.072l0.023-0.068 c0.121-0.362,0.336-0.721,0.581-0.967C52.812,56.273,55.877,55.622,60.076,55.622 M60.076,55.522c-3.675,0-7.188,0.509-8.276,1.778 c-0.3,0.3-0.5,0.7-0.6,1c-0.4,0-0.8-0.1-1.2-0.1s-0.8,0-1.2,0.1c-0.1-0.3-0.3-0.7-0.6-1c-1.088-1.269-4.602-1.778-8.276-1.778 c-4.43,0-9.094,0.74-10.024,1.778c-1.9,2.2-0.4,6,1.8,8.5c1.039,1.181,3.865,1.693,6.736,1.693c3.205,0,6.468-0.638,7.364-1.693 c1.1-1.3,2.8-3.3,3.2-5.3c0.3,0,0.7-0.1,1-0.1c0.3,0,0.7,0,1,0.1c0.4,2,2,4,3.2,5.3c0.949,1.055,4.237,1.693,7.454,1.693 c2.882,0,5.707-0.511,6.746-1.693c2.2-2.5,3.6-6.3,1.7-8.5C69.171,56.262,64.506,55.522,60.076,55.522L60.076,55.522z"/>
    <g id="kanji">
        <path d="M77.559,21.541c0.16,0.047,0.32,0.127,0.467,0.2c0.121,0.061,0.236,0.118,0.346,0.154l0.981,0.294 c0.326,0.268,0.673,0.448,1.008,0.622c0.285,0.148,0.554,0.287,0.779,0.467c0.895,0.696,1.796,1.597,2.591,2.392 c0.339,0.339,1.126,1.224,1.104,2.119c-0.009,0.394-0.178,0.742-0.503,1.038c-0.046,0.038-0.303,0.098-0.474,0.138 c-0.153,0.036-0.3,0.07-0.407,0.106c-0.083-0.129-0.214-0.148-0.325-0.148c-0.032,0-0.065,0.001-0.099,0.003 c-0.034,0.002-0.068,0.003-0.104,0.003c-0.067,0-0.12-0.006-0.169-0.02c-0.195-0.195-0.399-0.396-0.708-0.601 c-0.25-0.125-0.387-0.349-0.532-0.586c-0.181-0.296-0.369-0.602-0.785-0.721c-0.258-0.074-0.611-0.113-1.02-0.113 c-0.596,0-1.255,0.086-1.639,0.214l-0.013,0.004l-0.011,0.007c-0.03,0.02-0.125,0.072-0.197,0.072 c-0.02,0-0.033-0.004-0.042-0.011c0.966-0.549,1.92-1.163,2.664-1.907l0.044-0.044l-0.02-0.059 c-0.217-0.651-1.271-1.685-2.118-2.516c-0.28-0.274-0.547-0.537-0.751-0.753H77.7v-0.1v-0.1v-0.041l-0.029-0.029 C77.633,21.592,77.596,21.566,77.559,21.541 M77.3,21.4c0.1,0.2,0.2,0.2,0.3,0.3v0.1h-0.2c0.7,0.8,2.7,2.5,3,3.4 c-0.9,0.9-2.1,1.6-3.2,2.2c0.038,0.019,0.076,0.027,0.114,0.027c0.159,0,0.305-0.146,0.386-0.227 c0.033,0.067,0.089,0.089,0.148,0.089c0.118,0,0.252-0.089,0.252-0.089c0.371-0.124,1.009-0.209,1.608-0.209 c0.37,0,0.725,0.033,0.992,0.109c0.7,0.2,0.7,1,1.3,1.3c0.3,0.2,0.5,0.4,0.7,0.6c0.075,0.025,0.15,0.031,0.222,0.031 c0.072,0,0.141-0.006,0.203-0.006c0.125,0,0.225,0.025,0.275,0.175c0.2-0.1,0.9-0.2,1-0.3c1.1-1,0.3-2.4-0.6-3.3 c-0.8-0.8-1.7-1.7-2.6-2.4c-0.5-0.4-1.2-0.6-1.8-1.1l-1-0.3C78.1,21.7,77.7,21.4,77.3,21.4L77.3,21.4z"/>
        <path d="M54.685,32.318c0.613,0.126,1.486,0.504,1.933,0.942c0.021,0.042,0.041,0.089,0.063,0.137 c0.076,0.171,0.171,0.381,0.319,0.544V34c0,0.315,0.203,1.03,0.403,1.424c0.038,0.152,0.046,0.325,0.053,0.509 c0.012,0.277,0.025,0.591,0.146,0.887c0.706,3.411-1.015,6.821-1.785,8.124c-0.212,0.318-0.342,0.637-0.457,0.918 c-0.098,0.239-0.183,0.449-0.3,0.622c-0.036-0.008-0.07-0.012-0.102-0.012c-0.138,0-0.215,0.077-0.276,0.138 c-0.031,0.031-0.061,0.061-0.1,0.085c-0.791-0.116-1.45-0.32-1.785-0.55c-0.03-0.208-0.227-0.397-0.417-0.581 c-0.103-0.099-0.209-0.2-0.279-0.297V44.4v-0.016l-0.005-0.015l-0.061-0.181C51.841,43.617,51.6,42.906,51.6,42.2 c0-0.209,0.52-1.092,0.938-1.802c0.323-0.549,0.629-1.067,0.753-1.358c0.75-1.715,1.146-3.531,1.407-4.926 c0.052-0.366,0.026-0.699,0-1.022C54.677,32.824,54.657,32.569,54.685,32.318 M54.6,32.2c-0.1,0.6,0.1,1.2,0,1.9 c-0.3,1.6-0.7,3.3-1.4,4.9c-0.3,0.7-1.7,2.8-1.7,3.2c0,0.8,0.3,1.6,0.5,2.2v0.9c0.2,0.3,0.7,0.6,0.7,0.9c0.4,0.3,1.2,0.5,1.9,0.6 c0.162-0.081,0.193-0.227,0.357-0.227c0.039,0,0.085,0.008,0.143,0.027c0.3-0.4,0.4-1,0.8-1.6c1.3-2.2,2.4-5.3,1.8-8.2 c-0.2-0.5-0.1-1-0.2-1.4c-0.2-0.4-0.4-1.1-0.4-1.4v-0.1c-0.2-0.2-0.3-0.5-0.4-0.7C56.2,32.7,55.2,32.3,54.6,32.2L54.6,32.2z"/>
        <path d="M70.3,7.557c0.2,0.124,0.357,0.358,0.529,0.614c0.067,0.067,0.158,0.097,0.239,0.124 c0.066,0.022,0.128,0.043,0.15,0.063c0.189,0.265,0.382,0.522,0.572,0.777c0.819,1.095,1.592,2.128,1.911,3.484 c0.055,0.273-0.176,0.789-0.361,1.203C73.191,14.157,73.1,14.368,73.1,14.5v0.1h0.1h0.085c0.05,0.014,0.107,0.021,0.174,0.021 c0.095,0,0.197-0.013,0.306-0.028c0.117-0.015,0.237-0.031,0.355-0.031c0.179,0,0.313,0.037,0.435,0.127 c0.205,0.102,0.411,0.18,0.61,0.254c0.194,0.073,0.395,0.148,0.595,0.248c0.672,0.288,2.259,1.468,2.556,1.964 c0.096,0.145,0.168,0.288,0.244,0.439c0.071,0.142,0.144,0.289,0.24,0.435v0.34c-0.033,0.05-0.068,0.104-0.105,0.162 c-0.191,0.295-0.429,0.661-0.656,0.889c-0.204,0.157-0.439,0.236-0.698,0.236c-1.13,0-2.502-1.503-2.757-2.012 c-0.177-0.265-0.738-0.954-1.202-0.954c-0.036,0-0.072,0.004-0.081,0.01c-0.058,0-0.229,0.058-0.783,0.256 c-0.28,0.1-0.663,0.237-0.717,0.244h-0.041l-0.029,0.029c-0.163,0.163-0.269,0.401-0.371,0.63 c-0.095,0.213-0.192,0.433-0.329,0.57c-0.281,0.281-0.531,0.624-0.796,0.988c-0.217,0.298-0.442,0.607-0.709,0.918l-0.03,0.035 l0.008,0.046l0.096,0.577c-0.056,0.108-0.392,0.424-0.516,0.446l-0.069-0.138l-0.096,0.143c-0.099,0.149-0.224,0.323-0.348,0.497 c-0.126,0.176-0.251,0.352-0.352,0.503l-0.014,0.021c-0.263,0.136-0.488,0.437-0.707,0.73c-0.15,0.201-0.293,0.391-0.43,0.504H67 h-0.085l-0.014,0.084c-0.083,0.496-0.138,0.528-0.669,0.826l-0.182,0.103l-0.114,0.065l0.024,0.024 c-0.01,0.008-0.021,0.017-0.031,0.027L65.9,24.859V24.9c0,0.116,0.012,0.15,0.092,0.232l-0.075,0.112L65.88,25.3l0.037,0.055 c0.211,0.317,0.522,0.626,0.738,0.734l0.048,0.024l0.046-0.027l0.7-0.4l0.012-0.007l0.009-0.009 c0.05-0.05,0.078-0.112,0.106-0.172c0.04-0.087,0.074-0.162,0.177-0.214c1.071-0.681,2.067-0.986,3.553-1.085 c0.03-0.002,0.059-0.003,0.089-0.003c0.832,0,1.755,0.746,1.864,1.506c0.078,0.547-0.308,0.974-1.087,1.201l-0.162,0.047 l0.119,0.119c0.019,0.019,0.041,0.041,0.045,0.041c0,0,0,0,0,0c-0.001,0.013-0.018,0.05-0.04,0.095 c-0.742,0.093-1.516,0.688-2.201,1.214c-0.353,0.271-0.686,0.527-0.99,0.696c-0.12,0.08-0.383,0.167-0.638,0.251 c-0.447,0.148-0.725,0.245-0.8,0.395c-0.143,0.357,0.026,0.824,0.189,1.276c0.088,0.243,0.171,0.473,0.204,0.674 c0.098,0.787,1.289,4.525,2.034,5.164l0.106,0.091l0.052-0.13c0.299-0.747,0.679-1.533,1.047-2.294 c0.369-0.764,0.752-1.553,1.052-2.304c0.176-0.412,0.127-0.903,0.083-1.336c-0.027-0.264-0.052-0.516-0.013-0.679 c0.449,0.154,0.808,0.474,1.128,0.759c0.124,0.11,0.24,0.214,0.34,0.288c0.798,0.798,1.284,1.587,1.576,2.561 c0.053,0.16,0.002,0.416-0.044,0.641c-0.029,0.143-0.056,0.279-0.061,0.396l-0.184,0.276l-0.013,0.02l-0.003,0.023 c-0.098,0.783-0.6,1.475-1.078,2.048L73.9,37.264V37.3c0,0.026-0.02,0.067-0.039,0.105c-0.023,0.046-0.049,0.097-0.057,0.155 c-0.094,0.113-0.199,0.232-0.308,0.357c-0.464,0.531-1.042,1.191-1.289,1.848l-0.021,0.055l0.038,0.045 c1.607,1.909,3.646,3.437,5.625,4.921c0.177,0.106,0.391,0.225,0.612,0.347c0.406,0.225,0.825,0.457,1.083,0.65 c0.135,0.09,0.266,0.141,0.382,0.185c0.156,0.06,0.245,0.098,0.284,0.176l0.028,0.055H80.3h0.1h0.09l0.009-0.09l0.1-1l0.002-0.016 l-0.003-0.016l-0.097-0.436l0.201,0.201l-0.106-0.371c-0.147-0.514-0.266-0.978-0.372-1.387c-0.335-1.301-0.577-2.241-1.335-3.53 l-0.4-0.8l-0.033-0.067l0.029-0.028c0.003-0.003,0.01-0.01,0.017-0.017c0.008,0.007,0.017,0.016,0.028,0.027l0.436,0.436 l-0.157-0.315l0.909,1.364l0.228,0.342l-0.045-0.408c-0.061-0.551-0.398-1.083-0.755-1.647c-0.059-0.093-0.118-0.186-0.176-0.28 c0.124,0.148,0.258,0.305,0.395,0.465c0.291,0.339,0.593,0.689,0.751,0.926c0.758,1.232,1.651,2.444,2.809,3.812l0.03,0.035H83 c0.042,0,0.073-0.002,0.1-0.007V43.4v0.1h0.1c0.008,0,0.009,0,0.029,0.021c0.016,0.016,0.039,0.039,0.071,0.055V43.7v0.241 l0.106-0.106c0.069,0.108,0.188,0.348,0.287,0.547c0.386,0.778,0.532,1.021,0.69,1.021l0.008-0.001 c0.005,0.007,0.011,0.017,0.016,0.024c0.024,0.038,0.065,0.101,0.144,0.101c0.004,0,0.009,0,0.013-0.001 c0.07,0.126,0.103,0.279,0.136,0.441c0.068,0.321,0.144,0.685,0.568,0.827l0.132,0.044V46.7v-0.011 c0.01,0.012,0.019,0.021,0.029,0.031c0.021,0.021,0.038,0.038,0.074,0.104l0.049,0.201c0.087,0.363,0.186,0.774,0.359,1.119 l0.024,0.047c-0.003,0.045-0.011,0.104-0.029,0.181c-0.121,0.518-0.537,1.272-0.65,1.338L85.2,49.738V49.8v0.235 c-0.149,0.067-0.296,0.145-0.451,0.227c-0.443,0.235-0.9,0.478-1.451,0.478c-0.125,0-0.252-0.013-0.398-0.04h-0.264 c-0.146-0.107-0.486-0.198-1.008-0.327c-0.351-0.087-0.714-0.177-0.897-0.268c-0.17-0.057-0.459-0.225-0.737-0.388 c-0.19-0.111-0.387-0.226-0.548-0.306c-2.159-1.126-4.147-2.56-6.076-4.382c-0.349-0.349-0.679-0.704-0.998-1.048 c-0.32-0.345-0.651-0.701-0.99-1.037l-0.067-0.101c-0.204-0.311-0.484-0.738-0.785-0.838l-0.05-0.017l-0.042,0.032l-1.294,0.996 c-0.113,0.075-0.245,0.121-0.385,0.169c-0.204,0.07-0.414,0.143-0.6,0.314H68h-0.03l-0.025,0.017 c-0.126,0.084-0.219,0.168-0.308,0.249c-0.131,0.119-0.254,0.231-0.481,0.345c-0.064,0.032-0.127,0.047-0.198,0.047 c-0.09,0-0.183-0.025-0.282-0.051c-0.113-0.03-0.241-0.064-0.382-0.064c-0.113,0-0.221,0.021-0.325,0.063 c-0.225,0.075-0.443,0.174-0.675,0.28c-0.373,0.17-0.759,0.346-1.176,0.411c-0.028-0.015-0.051-0.03-0.073-0.044 c-0.075-0.048-0.146-0.094-0.281-0.094c-0.075,0-0.167,0.014-0.288,0.044l-0.226,0.057c-0.84-0.125-2.132-0.517-2.461-0.814 c-0.095-0.238-0.735-0.685-1.178-0.946h0.028l-0.044-0.132c-0.051-0.154-0.126-0.283-0.213-0.397 c0.135,0.049,0.264,0.087,0.389,0.125c0.253,0.076,0.492,0.148,0.784,0.294l0.145,0.072v-0.141 c0.299,0.138,0.616,0.205,0.962,0.205c0.549,0,1.098-0.171,1.63-0.336c0.369-0.115,0.751-0.234,1.123-0.291l-0.005-0.064 C64.572,42.3,64.762,42.3,64.9,42.3h0.016l0.015-0.005c0.243-0.081,0.483-0.238,0.715-0.39c0.312-0.204,0.634-0.415,0.934-0.415 c0.034,0,0.068,0.003,0.102,0.008l0.116,0.019V41.4v-0.047c0.607-0.408,1.093-0.805,1.571-1.283l0.171-0.171h-0.194 c0.12-0.075,0.203-0.175,0.247-0.3c0.179-0.506-0.35-1.279-0.699-1.791l-0.107-0.156c-0.57-1.084-1.151-2.319-1.712-3.514 c-0.422-0.898-0.858-1.826-1.287-2.684L64.762,31.4H64.7c-0.34,0-1.443,0.342-1.628,0.404c-0.454,0.134-1.031,0.204-1.667,0.204 c-1.502,0-3.214-0.416-3.738-1.214c0.694-0.046,1.353-0.363,1.891-0.623c0.374-0.18,0.698-0.336,0.956-0.373l0.033-0.005 l0.024-0.024c0.053-0.053,0.083-0.106,0.108-0.154l0.059-0.023l1-0.4l0.063-0.025V29.1v-0.2v-0.1h-0.1h-0.16 c0.123-0.124,0.233-0.252,0.293-0.349c0.076-0.123,0.094-0.22,0.056-0.296l-0.062-0.124l-0.098,0.098L61.7,28.159V28.1h-0.1h-0.1 h-0.039c0.323-0.268,0.655-0.666,0.864-1.034l0.005,0.005l0.171,0.171V27v-0.1c0-0.197,0.044-0.229,0.141-0.301 c0.069-0.051,0.156-0.115,0.242-0.244l0.104-0.155h-0.045l0.129-0.129l0.038-0.038l-0.01-0.052l-0.575-2.876 c0.521,0.035,0.856,0.288,1.239,0.578c0.182,0.138,0.37,0.28,0.588,0.405l0.138,0.072l0.012-0.158 c0.012-0.168,0.75-1.21,0.971-1.43l0.171-0.171h-0.15c0.006-0.023,0.008-0.051,0.008-0.084c0.058-0.347,0.342-0.748,0.618-1.135 c0.174-0.245,0.355-0.499,0.476-0.742c0.164-0.382,0.348-0.775,0.543-1.19c0.501-1.07,1.07-2.282,1.363-3.526l0.029-0.123H68.4 c-0.702,0-4.62,0.479-4.971,0.829c-0.443,0.443-0.671,1.673-0.838,2.572c-0.069,0.373-0.129,0.695-0.189,0.875 c-0.073,0.292,0,0.625,0.053,0.868C62.48,20.852,62.5,20.946,62.5,21c0,0.106-0.094,0.272-0.185,0.432 c-0.122,0.215-0.249,0.436-0.225,0.63l-0.534,0.448c-0.196,0.098-0.393,0.148-0.586,0.148c-1.026,0-1.848-1.409-2.392-2.341 c-0.194-0.333-0.362-0.62-0.501-0.783l-0.03-0.035H58h-0.1h-0.071l-0.023,0.067c-0.572,1.634-1.529,2.535-2.696,2.535 c-0.453,0-0.946-0.132-1.465-0.391c-0.317-0.158-0.63-0.269-0.934-0.377c-0.46-0.163-0.894-0.317-1.24-0.605 c-0.107-0.107-0.332-0.127-0.529-0.129l-0.471-0.471c-0.038-0.038-0.084-0.058-0.134-0.058c-0.052,0-0.096,0.022-0.131,0.039 c-0.014,0.007-0.035,0.017-0.035,0.019l-0.011-0.011l-0.015-0.007c-0.417-0.208-0.752-0.6-0.929-1.082 c0.412-0.351,1.477-0.592,2.22-0.592c0.217,0,0.402,0.02,0.537,0.059l0.027,0.008l0.027-0.007c0.372-0.102,0.79-0.182,1.194-0.26 c0.797-0.154,1.622-0.312,2.224-0.647c0.052-0.026,0.237-0.086,0.433-0.149c0.992-0.32,1.289-0.455,1.32-0.612 c0.109-0.239-0.006-0.469-0.1-0.652c-0.227-0.907-0.449-2.879-0.145-3.376l0.037,0c0.842,0.094,2.193,1.615,2.728,2.256 c0.063,0.095,0.116,0.2,0.172,0.312c0.115,0.23,0.234,0.468,0.456,0.616l0.036,0.024l0.042-0.009 c0.452-0.1,0.936-0.228,1.404-0.351c0.466-0.123,0.948-0.25,1.375-0.347c0.214,0,0.733-0.105,1.1-0.2l0.207,0 c0.733-0.052,1.55-0.16,2.341-0.263c0.741-0.097,1.44-0.189,2.06-0.237l0.07-0.005l0.019-0.068c0.124-0.456,0.286-0.936,0.441-1.4 c0.217-0.647,0.442-1.317,0.557-1.894c0.208-0.625,0.104-1.648-0.005-2.076l-0.094-0.188c-0.036-0.195-0.006-0.341,0.026-0.495 c0.032-0.154,0.068-0.324,0.035-0.548l0.087,0.058L70.2,8.087V7.9c0-0.031,0-0.065-0.003-0.1c0.001,0,0.002,0,0.003,0h0.1V7.7 V7.557 M61.422,28.132l-0.012,0.024L61.4,28.176v-0.027C61.407,28.143,61.415,28.138,61.422,28.132 M61.288,28.4L61.288,28.4 l-0.013,0C61.28,28.4,61.284,28.4,61.288,28.4 M78.127,38.1c0.009,0.029,0.017,0.058,0.025,0.085 c-0.017-0.027-0.036-0.055-0.057-0.085H78.127 M70.2,7.4v0.3c-0.1,0-0.1-0.1-0.2-0.1c0.1,0.1,0.1,0.2,0.1,0.3l-0.3-0.2 c0.2,0.6-0.1,0.8,0,1.3l0.1,0.2c0.1,0.4,0.2,1.4,0,2c-0.2,1-0.7,2.2-1,3.3c-1.3,0.1-3,0.4-4.4,0.5h-0.2c-0.4,0.1-0.9,0.2-1.1,0.2 c-0.9,0.2-1.9,0.5-2.8,0.7c-0.3-0.2-0.4-0.6-0.6-0.9c-0.5-0.6-1.9-2.2-2.8-2.3h-0.1c-0.4,0.5-0.1,2.7,0.1,3.5 c0.1,0.2,0.2,0.4,0.1,0.6c0,0.2-1.5,0.6-1.7,0.7c-0.9,0.5-2.3,0.6-3.4,0.9c-0.15-0.043-0.345-0.063-0.564-0.063 c-0.807,0-1.943,0.269-2.336,0.663c0.2,0.6,0.6,1,1,1.2c0.021,0.021,0.042,0.029,0.063,0.029c0.058,0,0.115-0.058,0.173-0.058 c0.021,0,0.042,0.008,0.063,0.029l0.5,0.5c0.1,0,0.4,0,0.5,0.1c0.6,0.5,1.4,0.6,2.2,1c0.553,0.277,1.056,0.402,1.51,0.402 c1.35,0,2.266-1.105,2.79-2.602H58c0.527,0.615,1.517,3.158,2.97,3.158c0.201,0,0.411-0.049,0.63-0.158l0.6-0.5 c-0.1-0.3,0.4-0.8,0.4-1.1c0-0.2-0.2-0.7-0.1-1.1c0.2-0.6,0.4-2.8,1-3.4c0.3-0.3,4.1-0.8,4.9-0.8c-0.4,1.7-1.3,3.3-1.9,4.7 c-0.3,0.6-1,1.3-1.1,1.9c0,0.1,0,0.1-0.1,0.1c0.1,0.1,0,0.1,0.1,0.1c-0.2,0.2-1,1.3-1,1.5c-0.7-0.4-1.1-1-2-1l0.6,3l-0.3,0.3h0.1 c-0.2,0.3-0.4,0.2-0.4,0.6V27l-0.1-0.1c-0.2,0.4-0.6,0.9-1,1.2v0.2c-0.2,0-0.1,0-0.3,0.1v0.1h0.3v0.1h0.1c0-0.1,0.1-0.1,0.1-0.2 h-0.1l0.1-0.2h0.1v0.1h0.1l0.1-0.1c0.1,0.2-0.7,0.9-0.8,0.9c0.04,0.02,0.076,0.028,0.11,0.028c0.134,0,0.23-0.128,0.39-0.128v-0.1 h0.2v0.2l-1,0.4v-0.1c-0.1,0.1-0.1,0.2-0.2,0.3c-0.7,0.1-1.8,1-3,1c0.433,0.939,2.275,1.408,3.905,1.408 c0.627,0,1.223-0.069,1.695-0.208c0.3-0.1,1.3-0.4,1.6-0.4c1,2,2,4.3,3,6.2c0.4,0.6,1.4,1.9,0.4,2.2V40h0.2 c-0.5,0.5-1,0.9-1.6,1.3v0.1c-0.04-0.007-0.079-0.01-0.119-0.01c-0.56,0-1.121,0.623-1.681,0.81c-0.2,0-0.5,0-0.7,0.1h0.2 c-0.913,0.14-1.825,0.626-2.738,0.626c-0.387,0-0.775-0.087-1.162-0.326c0,0.1,0.1,0.1,0.1,0.2c-0.6-0.3-1-0.3-1.6-0.6 c0.2,0.2,0.4,0.4,0.5,0.7c-0.2,0-0.1,0-0.2-0.1l-0.1,0.1c0.3,0.1,1.5,0.9,1.5,1.1c0.4,0.4,2.3,0.9,3,0.9c-0.1-0.1-0.1-0.1-0.2-0.1 c0.117-0.029,0.2-0.041,0.264-0.041c0.154,0,0.195,0.071,0.336,0.141c0.7-0.1,1.3-0.5,1.9-0.7 c0.106-0.042,0.202-0.058,0.293-0.058c0.248,0,0.45,0.115,0.664,0.115c0.078,0,0.158-0.015,0.243-0.058c0.4-0.2,0.5-0.4,0.8-0.6 h0.2c0.3-0.3,0.7-0.3,1-0.5l1.3-1c0.3,0.1,0.6,0.6,0.8,0.9c0.7,0.7,1.3,1.4,2,2.1c1.8,1.7,3.8,3.2,6.1,4.4c0.4,0.2,1,0.6,1.3,0.7 c0.4,0.2,1.7,0.4,1.9,0.6h0.3c0.138,0.028,0.271,0.04,0.398,0.04c0.795,0,1.399-0.481,2.002-0.74v-0.3c0.2-0.1,0.9-1.5,0.7-1.8 v0.1c-0.2-0.4-0.3-0.9-0.4-1.3c-0.1-0.2-0.1-0.1-0.2-0.3h-0.1v0.2c-0.6-0.2-0.4-0.9-0.7-1.3c-0.02,0.02-0.036,0.028-0.05,0.028 c-0.054,0-0.07-0.128-0.15-0.128c-0.005,0.003-0.011,0.004-0.017,0.004c-0.214,0-0.849-1.608-0.973-1.608 c-0.004,0-0.007,0.001-0.009,0.004v-0.2c-0.1,0-0.1-0.1-0.2-0.1v-0.1v-0.1c-0.1,0.1-0.1,0.1-0.2,0.1c-1.1-1.3-2-2.5-2.8-3.8 c-0.4-0.6-1.6-1.8-1.7-2.2h-0.1c0.4,1,1.3,1.9,1.4,2.8L78.4,38h-0.1l0.3,0.6c-0.048-0.048-0.074-0.07-0.099-0.07 c-0.024,0-0.047,0.02-0.086,0.059C78.302,38.423,78.282,38.245,78.2,38h-0.3c0.3,0.4,0.3,0.5,0.5,0.9v-0.1l0.4,0.8 c1,1.7,1.1,2.8,1.7,4.9c-0.1-0.1-0.1-0.2-0.2-0.3l0.2,0.9l-0.1,1h-0.1c-0.1-0.2-0.4-0.2-0.7-0.4c-0.4-0.3-1.2-0.7-1.7-1 c-2-1.5-4-3-5.6-4.9c0.3-0.8,1.1-1.6,1.6-2.2c0-0.1,0.1-0.2,0.1-0.3c0.5-0.6,1-1.3,1.1-2.1l0.2-0.3c0-0.3,0.2-0.8,0.1-1.1 c-0.3-1-0.8-1.8-1.6-2.6c-0.4-0.3-0.9-0.9-1.6-1.1c-0.2,0.4,0.2,1.4-0.1,2.1c-0.6,1.5-1.5,3.1-2.1,4.6c-0.7-0.6-1.9-4.3-2-5.1 c-0.1-0.6-0.6-1.4-0.4-1.9c0.1-0.2,1.1-0.4,1.4-0.6c0.9-0.5,2.1-1.8,3.2-1.9c0.1-0.2,0.1-0.2,0-0.3 c2.349-0.685,0.674-2.903-0.804-2.903c-0.032,0-0.064,0.001-0.096,0.003c-1.5,0.1-2.5,0.4-3.6,1.1c-0.2,0.1-0.2,0.3-0.3,0.4 L66.7,26c-0.2-0.1-0.5-0.4-0.7-0.7l0.2-0.3l-0.1,0.1C66,25,66,25,66,24.9c0.1-0.1,0.2,0,0.1-0.1c0.7-0.4,0.8-0.4,0.9-1h0.1 c0.4-0.3,0.8-1.2,1.3-1.3h-0.1c0.2-0.3,0.5-0.7,0.7-1c0.014,0.028,0.038,0.041,0.069,0.041c0.188,0,0.631-0.455,0.631-0.541 l-0.1-0.6c0.6-0.7,1-1.4,1.5-1.9c0.3-0.3,0.4-0.9,0.7-1.2c0.1,0,1.4-0.5,1.5-0.5c0.026-0.007,0.053-0.01,0.081-0.01 c0.396,0,0.932,0.629,1.119,0.91c0.246,0.492,1.633,2.057,2.841,2.057c0.267,0,0.524-0.076,0.759-0.257c0.3-0.3,0.6-0.8,0.8-1.1 V18c-0.2-0.3-0.3-0.6-0.5-0.9c-0.3-0.5-1.9-1.7-2.6-2c-0.4-0.2-0.8-0.3-1.2-0.5c-0.142-0.107-0.309-0.137-0.479-0.137 c-0.235,0-0.475,0.059-0.661,0.059c-0.059,0-0.113-0.006-0.159-0.021h-0.1c0-0.3,0.7-1.4,0.6-1.9c-0.4-1.7-1.5-2.9-2.5-4.3 c-0.1-0.1-0.3-0.1-0.4-0.2C70.7,7.8,70.5,7.5,70.2,7.4L70.2,7.4z"/>
    </g>
    <path id="kanji_ko01ID" d="M62.183,17.117c-0.201,0.238-0.619,0.547-0.919,0.658l-0.052-0.155 c0.183-0.209,0.502-0.327,0.785-0.433C62.061,17.164,62.124,17.141,62.183,17.117 M62.4,16.9c-0.3,0.2-1,0.3-1.3,0.7l0.1,0.3 C61.6,17.8,62.4,17.2,62.4,16.9L62.4,16.9z"/>
    <path id="kanji_ko02ID" d="M63.373,27.475c0.012,0.054,0.023,0.133,0.026,0.251 c-0.056,0.031-0.099,0.09-0.099,0.174v0.023c-0.344,0.25-0.75,0.512-1.172,0.664c0.063-0.066,0.116-0.134,0.146-0.195 c0.119-0.023,0.206-0.098,0.29-0.171c0.056-0.049,0.114-0.099,0.181-0.133l0.078-0.039l-0.027-0.082 c-0.036-0.109,0.181-0.241,0.356-0.347C63.235,27.571,63.312,27.524,63.373,27.475 M63.4,27.3c-0.1,0.2-0.8,0.4-0.7,0.7 c-0.2,0.1-0.3,0.3-0.5,0.3l0.2-0.2c-0.2,0.1-0.3,0.2-0.4,0.3c0.2-0.1,0.1-0.1,0.2-0.1c0,0.1-0.3,0.4-0.5,0.5 c0.7-0.1,1.4-0.6,1.8-0.9h-0.1c0-0.1,0.1-0.1,0.1-0.1C63.5,27.7,63.5,27.4,63.4,27.3L63.4,27.3z"/>
</svg>
