<svg version="1.1" xmlns="http://www.w3.org/2000/svg" viewBox="0 0 1000 880">
    <g>
        <path d="M983.4,470.5c9.1-0.2,16.5-7.5,16.4-16.4c0.1-9.1-7.1-16.6-16.2-17c9.1-1,15.8-8.9,15.1-18c-0.7-9.1-8.5-16-17.6-15.6 c9-1.7,15-10.2,13.5-19.2c-1.4-9-9.8-15.1-18.8-14c8.8-2.5,14-11.5,11.8-20.3c-2.3-8.9-11.3-14.3-20.2-12.3 c8.6-3.2,13.2-12.6,10.2-21.3c-3-8.6-12.4-13.3-21.1-10.6c8.3-3.9,12-13.6,8.3-22c-3.7-8.4-13.4-12.3-21.8-8.9 c7.9-4.5,10.8-14.5,6.4-22.5s-14.3-11.1-22.4-7.1c7.4-5.1,9.5-15.3,4.5-22.9c-4.9-7.6-15-9.9-22.8-5.3c6.9-5.8,8.1-16,2.6-23.2 c-5.5-7.2-15.7-8.7-23.1-3.5c6.5-6.3,6.9-16.5,0.8-23.3c-6.1-6.7-16.3-7.5-23.3-1.8c5.9-6.7,5.5-16.9-1-23.2 c-6.6-6.3-17-6.2-23.5,0.1c5.6-7.2,4.5-17.5-2.5-23.3c-7.1-5.8-17.5-5-23.5,1.8c5-7.5,3.2-17.7-4.2-23c-7.5-5.3-17.8-3.8-23.3,3.4 c4.5-7.8,2-17.9-5.8-22.7c-7.8-4.8-18-2.5-23,5c4-8.2,0.8-18-7.3-22.3c-8.1-4.3-18.1-1.4-22.6,6.5c3.4-8.4-0.4-18-8.8-21.7 c-8.4-3.7-18.1-0.1-22.1,8c2.9-8.5-1.6-17.9-10.2-21c-8.6-3.1-18.1,1.1-21.5,9.5c2.3-8.7-2.8-17.7-11.6-20.3 c-8.8-2.6-17.9,2.2-20.8,10.8c1.7-8.8-4-17.5-12.9-19.5c-9-2-17.8,3.4-20.1,12.1c1.1-9-5.1-17.3-14.1-18.7 c-9-1.4-17.5,4.5-19.2,13.4c0.5-9-6.2-16.8-15.3-17.7c-9-0.9-17.1,5.6-18.3,14.5c-0.1-9-7.3-16.4-16.4-16.7 C508.6,0,500.9,7,500.3,16c-0.6-9-8.3-16-17.4-15.7C473.8,0.6,466.6,8,466.5,17c-1.1-9-9.2-15.4-18.3-14.6 c-9.1,0.8-15.8,8.7-15.3,17.7c-1.7-8.8-10.2-14.8-19.2-13.4c-9.1,1.4-15.3,9.6-14.2,18.6c-2.2-8.8-11.1-14.2-20-12.2 c-8.9,2-14.6,10.6-12.9,19.5c-2.8-8.6-12-13.4-20.8-10.9c-8.7,2.5-13.9,11.5-11.6,20.3c-3.4-8.4-12.9-12.6-21.5-9.5 s-13.1,12.4-10.3,21c-4-8.2-13.7-11.8-22.1-8.1c-8.3,3.7-12.2,13.3-8.8,21.7c-4.5-7.9-14.5-10.8-22.6-6.6 c-8.1,4.2-11.4,14.1-7.4,22.2c-5-7.6-15.2-9.9-23-5.1c-7.8,4.8-10.3,14.8-5.8,22.7c-5.6-7.1-15.9-8.7-23.3-3.4 c-7.4,5.3-9.3,15.5-4.2,23c-6.1-6.8-16.5-7.6-23.5-1.8c-7.1,5.9-8.1,16.4-2.3,23.6c-6.5-6.6-17.1-6.8-23.8-0.4 c-6.7,6.4-7,16.9-0.7,23.6c-7-6.1-17.5-5.5-23.7,1.4c-6.2,6.9-5.7,17.4,1.1,23.6c-7.4-5.5-17.9-4.1-23.5,3.2 c-5.6,7.3-4.4,17.7,2.8,23.4c-7.8-4.8-18.1-2.6-23.1,5.1c-5,7.6-2.9,17.8,4.6,23c-8.1-4.1-18.1-1-22.5,7c-4.4,8.1-1.6,18,6.3,22.6 c-8.4-3.4-18.1,0.5-21.8,8.8c-3.7,8.3-0.1,18,8.1,21.9c-8.7-2.7-17.9,2-20.9,10.6c-3,8.5,1.4,17.8,9.8,21.1 c-8.8-1.8-17.6,3.6-19.8,12.4c-2.3,8.8,3,17.8,11.7,20.3c-9-1.2-17.4,5-18.9,14s4.5,17.5,13.4,19.2c-9.1-0.4-16.9,6.4-17.6,15.5 c-0.7,9.1,6,17.1,15.1,18c-9.1,0.4-16.4,7.9-16.3,17c0.1,9.2,7.5,16.5,16.6,16.7c-9.1,1.1-15.7,9.2-14.8,18.3 c0.9,9.1,8.9,15.8,18,15.2c-9,1.9-14.8,10.5-13.2,19.5s10.2,15,19.2,13.6c-8.7,2.6-13.8,11.7-11.4,20.5 c2.4,8.8,11.4,14.1,20.3,11.9c-8.5,3.3-12.8,12.8-9.7,21.4c3.1,8.6,12.5,13.1,21.2,10.2c-8.2,4-11.7,13.8-7.8,22.1 c3.8,8.3,13.6,12,22,8.4c-7.8,4.7-10.5,14.7-6,22.7s14.5,10.9,22.6,6.6c-7.4,5.3-9.2,15.5-4.1,23.1c5.2,7.6,15.4,9.7,23.1,4.8 c-6.9,5.8-8,16.2-2.3,23.3c5.7,7.1,16.1,8.4,23.4,3c-6.5,6.3-6.7,16.7-0.5,23.4c6.2,6.6,16.6,7.2,23.5,1.2 c-6,6.8-5.5,17.2,1.2,23.4s17.1,5.9,23.5-0.5c-5.5,7.2-4.2,17.5,2.9,23.2c7.1,5.7,17.5,4.7,23.4-2.1c-4.9,7.5-2.9,17.7,4.6,22.9 c7.5,5.1,17.8,3.4,23.2-3.8c-4.3,7.9-1.7,17.9,6.2,22.6c7.9,4.6,18,2.2,22.9-5.4c-3.8,8.2-0.5,18,7.7,22.1s18.1,1,22.5-6.9 c-3.2,8.5,0.8,18,9.2,21.6c8.4,3.6,18.1-0.2,21.9-8.4c-2.7,8.6,2,17.9,10.6,20.9c8.8,3.1,18.4-1.5,21.5-10.3 c0.1-0.1,0.1-0.2,0.1-0.3c0.2,0.1,0.5,0.1,0.7,0.2c-0.2,0.5-0.3,1-0.4,1.5c-0.1,0.5-0.2,1.1-0.2,1.6c-0.1,0.6-0.1,1.2-0.1,1.7 c0,0.6,0,1.2,0.1,1.7c0,0.5,0.1,1.1,0.2,1.6c0.1,0.5,0.2,1.1,0.4,1.6s0.4,1,0.6,1.5s0.4,1,0.7,1.5s0.6,0.9,0.9,1.4 c0.3,0.4,0.7,0.9,1,1.3s0.7,0.8,1.1,1.2c0.4,0.4,0.8,0.7,1.2,1.1c0.4,0.4,0.8,0.7,1.3,1c0.4,0.3,0.9,0.5,1.4,0.8s1,0.5,1.5,0.7 c0.5,0.3,1.1,0.4,1.6,0.6s1.1,0.3,1.6,0.4c0.5,0.1,1,0.1,1.6,0.2c0.6,0.1,1.1,0.1,1.7,0.1c0.6,0,1.1,0,1.7-0.1 c0.5,0,1.1-0.1,1.6-0.2c0.5-0.1,1.1-0.2,1.6-0.4c0.6-0.2,1.1-0.4,1.6-0.6s1-0.4,1.5-0.7c0.5-0.2,0.9-0.5,1.4-0.8 c0.4-0.3,0.9-0.7,1.3-1c0.4-0.3,0.8-0.7,1.2-1.1c0.4-0.4,0.7-0.8,1.1-1.2c0.4-0.4,0.7-0.8,1-1.3c0.3-0.4,0.5-0.9,0.8-1.4 c0.2-0.5,0.5-1,0.7-1.5c0.3-0.5,0.4-1,0.6-1.5c0.1-0.5,0.3-1.1,0.4-1.6c0.1-0.5,0.1-1.1,0.2-1.6c0.1-0.6,0.1-1.1,0.1-1.7 c0-0.6,0-1.2-0.1-1.7c0-0.5-0.1-1.1-0.2-1.6c-0.1-0.5-0.2-1.1-0.4-1.6s-0.4-1-0.6-1.5s-0.4-1-0.7-1.5s-0.6-0.9-0.9-1.4 c-0.3-0.4-0.7-0.9-1-1.3s-0.7-0.8-1.1-1.2c-0.4-0.4-0.8-0.7-1.2-1.1c-0.4-0.4-0.8-0.7-1.3-1c-0.4-0.3-0.9-0.6-1.4-0.8 c-0.5-0.3-1-0.5-1.5-0.7c-0.5-0.3-1.1-0.4-1.6-0.6s-1.1-0.3-1.6-0.4c-0.5-0.1-1.1-0.1-1.6-0.2c-1.1-0.1-2.2-0.1-3.3,0 c-0.5,0-1.1,0.1-1.6,0.2c-0.5,0.1-1.1,0.2-1.6,0.4c-0.6,0.2-1.1,0.4-1.6,0.6s-1,0.4-1.5,0.7c-0.5,0.2-0.9,0.5-1.4,0.8 c-0.4,0.3-0.9,0.7-1.3,1c-0.1,0-0.2,0.1-0.3,0.2c-0.1-0.3-0.3-0.5-0.5-0.7c7.3-5.5,8.9-15.8,3.6-23.2c-5.3-7.5-15.6-9.3-23.2-4.2 c-0.2-0.2-0.3-0.5-0.5-0.7c7.9-4.6,10.6-14.7,6-22.7c-4.5-7.9-14.6-10.7-22.7-6.4c-0.1-0.3-0.3-0.5-0.4-0.8c8.3-4,11.9-13.9,8-22.2 c-3.8-8.4-13.7-12.1-22.1-8.4c-0.1-0.3-0.2-0.5-0.3-0.8c8.6-3.3,12.9-12.9,9.7-21.5c-3.2-8.6-12.7-13-21.4-10l-0.3-0.8 c8.8-2.7,13.8-12,11.2-20.8c-2.6-8.8-11.8-13.9-20.7-11.5c-0.1-0.3-0.1-0.6-0.2-0.9c9-2.1,14.7-10.9,12.7-19.9 c-1.9-9-10.8-14.7-19.8-12.9c-0.1-0.3-0.1-0.6-0.2-0.9c9.1-1.5,15.3-9.9,14-19c-1.4-9.1-9.8-15.5-18.9-14.3l-0.1-0.9 c9.2-0.8,16-8.7,15.4-17.9c-0.6-9.2-8.5-16.1-17.7-15.6c0-0.3,0-0.6,0-0.9c9.1-0.1,16.6-7.4,16.7-16.6c0.1-9.1-7.1-16.7-16.3-17 c0.1-0.2,0.1-0.5,0.1-0.8c0.5,0.1,1.1,0.1,1.6,0.1c8.4,0,15.7-6.2,16.8-14.7c1.1-9-5.2-17.3-14.1-18.7c0.1-0.2,0.1-0.5,0.2-0.8 c1.4,0.3,2.7,0.5,4.1,0.5c7.3,0,14-4.7,16.2-12c2.6-8.7-2.1-17.7-10.5-20.7c0.1-0.3,0.2-0.5,0.3-0.8c2.4,1.2,5,1.8,7.6,1.8 c5.8,0,11.5-3,14.6-8.3c4.5-7.7,2.2-17.5-5.1-22.4l0.5-0.6c3.2,3,7.4,4.5,11.5,4.5c4.1,0,8.2-1.5,11.5-4.5 c6.6-6.1,7.1-16.1,1.6-22.9c0.3-0.2,0.5-0.3,0.7-0.5c3.1,5.2,8.7,8.1,14.4,8.1c2.7,0,5.4-0.7,7.9-2c8-4.2,11.2-13.8,7.4-21.9 c0.3-0.2,0.6-0.3,0.9-0.4c0.1,0.3,0.2,0.6,0.3,0.9c0.2,0.5,0.4,1,0.7,1.5c0.2,0.5,0.5,0.9,0.8,1.4c0.3,0.4,0.7,0.9,1,1.3 c0.3,0.4,0.7,0.8,1.1,1.2c0.4,0.4,0.8,0.7,1.2,1.1c0.4,0.4,0.8,0.7,1.3,1c0.4,0.3,0.9,0.5,1.4,0.8c0.5,0.2,1,0.5,1.5,0.7 c0.5,0.3,1.1,0.4,1.6,0.6s1.1,0.3,1.6,0.4c0.5,0.1,1,0.1,1.6,0.2c0.6,0.1,1.1,0.1,1.7,0.1c0.6,0,1.2,0,1.7-0.1 c0.5,0,1.1-0.1,1.6-0.2c0.5-0.1,1.1-0.2,1.6-0.4c0.6-0.2,1.1-0.4,1.6-0.6s1-0.5,1.5-0.7s0.9-0.5,1.4-0.8c0.4-0.3,0.9-0.7,1.3-1 c0.4-0.3,0.8-0.7,1.2-1.1c0.4-0.4,0.7-0.8,1.1-1.2c0.4-0.4,0.7-0.8,1-1.3c0.1-0.2,0.2-0.3,0.3-0.5c0.2,0.1,0.4,0.2,0.6,0.3 c-0.1,0-0.2,0.1-0.2,0.2c-4.5,8.2-1.6,18.4,6.6,22.9c2.6,1.4,5.4,2.1,8.2,2.1c5.9,0,11.7-3.1,14.8-8.7c0-0.1,0.1-0.2,0.1-0.3 c0.2,0.1,0.4,0.2,0.6,0.3c0,0.1-0.1,0.2-0.1,0.3c-3.9,8.5-0.3,18.5,8.2,22.4c2.3,1.1,4.7,1.6,7.1,1.6c6.4,0,12.5-3.6,15.4-9.7 c0-0.1,0.1-0.2,0.1-0.3l0.6,0.3c0,0.1-0.1,0.2-0.1,0.3c-3.4,8.7,1,18.5,9.7,21.8c2,0.7,4.1,1.1,6.1,1.1c6.8,0,13.2-4.1,15.8-10.8 c0-0.1,0.1-0.2,0.1-0.3l0.6,0.2c0,0.1-0.1,0.2-0.1,0.3c-2.7,8.9,2.3,18.3,11.2,21.1c1.7,0.6,3.3,0.8,5,0.8 c7.2,0,13.9-4.7,16.1-11.9c0.1-0.1,0.1-0.2,0.1-0.3c0.2,0.1,0.4,0.1,0.6,0.2c0,0.1-0.1,0.2-0.1,0.3c-2.2,9.1,3.4,18.1,12.5,20.3 c1.3,0.3,2.6,0.5,3.9,0.5c7.6,0,14.5-5.2,16.4-12.9c0.1-0.1,0.1-0.2,0.1-0.3c0.2,0,0.4,0.1,0.6,0.1c-0.1,0.1-0.1,0.2-0.1,0.3 c-1.6,9.1,4.6,17.8,13.8,19.4c0.9,0.1,1.9,0.2,2.8,0.2c8.1,0,15.3-5.8,16.7-14c0-0.1,0-0.2,0-0.3l0.7,0.1c0,0.1,0,0.2,0,0.3 c-0.9,9.3,5.8,17.5,15.1,18.5c0.6,0.1,1.2,0.1,1.8,0.1c8.6,0,15.9-6.4,16.8-15.1c0-0.1,0-0.2,0-0.3c0.3,0,0.5,0,0.7,0 c0,0.1,0,0.2,0,0.3c-0.4,9.3,6.9,17.1,16.2,17.5c0.2,0,0.5,0,0.7,0c9.1,0,16.5-7.1,16.9-16.2c0-0.1,0-0.2,0-0.3h0.7 c0,0.1,0,0.2,0,0.3c0.2,9.1,7.7,16.4,16.9,16.4c0.1,0,0.3,0,0.4,0c9.3-0.2,16.7-7.9,16.5-17.2c0-0.1,0-0.2,0-0.3c0.3,0,0.5,0,0.7,0 c0,0.1,0,0.2,0,0.3c0.7,8.8,8.1,15.4,16.8,15.4c0.5,0,1-0.1,1.5-0.1c9.3-0.8,16.2-8.9,15.4-18.2c0-0.1,0-0.2,0-0.3l0.7-0.1 c0.1,0.3,0.1,0.7,0.2,1c0.1,0.5,0.2,1.1,0.4,1.6c0.2,0.5,0.4,1,0.6,1.5s0.4,1,0.7,1.5c0.2,0.5,0.5,0.9,0.8,1.4 c0.3,0.4,0.7,0.9,1,1.3c0.3,0.4,0.7,0.8,1.1,1.2c0.4,0.4,0.8,0.8,1.2,1.1c0.4,0.4,0.8,0.7,1.3,1c0.4,0.3,0.9,0.5,1.4,0.8 s1,0.5,1.5,0.7c0.5,0.3,1.1,0.4,1.6,0.6c0.5,0.1,1.1,0.3,1.6,0.4c0.5,0.1,1,0.2,1.6,0.2c0.6,0.1,1.1,0.1,1.7,0.1 c0.6,0,1.1,0,1.7-0.1h0.1c-6.4,3.5-10.1,10.8-8.5,18.3c1.6,7.6,8.2,12.9,15.6,13.3c-7.1,2.5-12,9.4-11.4,17.2 c0.5,7.9,6.5,14.1,14,15.4c-7.5,1.6-13.1,8.2-13.3,16.1c-0.1,8,5.3,14.8,12.8,16.7c-7.6,1-13.8,7.1-14.6,15.1s4.2,15.2,11.5,17.6 c-7.7,0.4-14.4,6.1-15.7,14c-1.3,7.9,3.1,15.4,10.3,18.3c-7.7-0.1-14.8,5.2-16.6,13c-1.8,7.8,2.1,15.6,9.1,19 c-7.7-0.5-15,4.2-17.4,11.9c-2.3,7.6,1.1,15.7,7.8,19.5c-7.6-1.1-15.3,3.1-18.2,10.6c-2.8,7.5,0,15.7,6.4,20 c-7.5-1.7-15.5,2-18.9,9.2c-3.5,7.2-1.3,15.6,4.7,20.4c-7.3-2.2-15.5,0.8-19.5,7.7c-4,6.8-2.6,15.4,2.9,20.6 c-7.1-2.8-15.4-0.6-20.1,5.8c-4.6,6.4-4.1,14.9,0.8,20.7c-0.5-0.3-1-0.5-1.5-0.7c-0.5-0.3-1.1-0.4-1.6-0.6s-1.1-0.3-1.6-0.4 c-0.5-0.1-1-0.1-1.6-0.2c-1.1-0.1-2.2-0.1-3.3,0c-0.5,0-1.1,0.1-1.6,0.2c-0.5,0.1-1.1,0.2-1.6,0.4c-0.6,0.2-1.1,0.4-1.6,0.6 s-1,0.4-1.5,0.7c-0.5,0.2-0.9,0.5-1.4,0.8c-0.4,0.3-0.9,0.7-1.3,1s-0.8,0.7-1.2,1.1c-0.4,0.4-0.8,0.8-1.1,1.2 c-0.4,0.4-0.7,0.9-1,1.3s-0.5,0.9-0.8,1.4s-0.5,1-0.7,1.5c-0.3,0.5-0.4,1-0.6,1.5s-0.3,1.1-0.4,1.6c-0.2,0.5-0.2,1.1-0.3,1.6 c-0.1,0.6-0.1,1.2-0.1,1.7c0,0.6,0.1,1.2,0.1,1.7c0.1,0.5,0.2,1.1,0.3,1.6c0.1,0.5,0.2,1.1,0.4,1.6c0.2,0.5,0.4,1,0.6,1.5 s0.4,1,0.7,1.5c0.2,0.5,0.5,0.9,0.8,1.4c0.3,0.4,0.7,0.9,1,1.3s0.7,0.8,1.1,1.2c0.4,0.4,0.8,0.7,1.2,1.1c0.4,0.4,0.8,0.7,1.3,1 c0.4,0.3,0.9,0.5,1.4,0.8s1,0.5,1.5,0.7c0.5,0.3,1.1,0.4,1.6,0.6s1.1,0.3,1.6,0.4c0.5,0.1,1,0.1,1.6,0.2c0.6,0.1,1.1,0.1,1.7,0.1 s1.1,0,1.7-0.1c0.5,0,1.1-0.1,1.6-0.2c0.5-0.1,1.1-0.2,1.6-0.4c0.6-0.2,1.1-0.4,1.6-0.6s1-0.4,1.5-0.7c0.5-0.2,0.9-0.5,1.4-0.8 c0.4-0.3,0.9-0.7,1.3-1s0.8-0.7,1.2-1.1c0.4-0.4,0.8-0.8,1.1-1.2c0.4-0.4,0.7-0.8,1-1.3c0.3-0.4,0.5-0.9,0.8-1.4s0.5-1,0.7-1.5 c0.3-0.5,0.4-1,0.6-1.5c0.1-0.5,0.3-1.1,0.4-1.6c0.1-0.5,0.2-1.1,0.2-1.6c0.1-0.6,0.1-1.1,0.1-1.7c0-0.6,0-1.2-0.1-1.7 c0-0.5-0.1-1.1-0.2-1.6c-0.1-0.3-0.1-0.5-0.2-0.8c2.5,6.8,8.9,11,15.8,11c1.9,0,3.8-0.3,5.6-0.9c8.6-3,13.3-12.3,10.6-20.9 c3.8,8.2,13.5,12,21.9,8.4c8.5-3.6,12.5-13.2,9.2-21.6c4.4,8,14.3,11.1,22.5,7s11.5-13.9,7.7-22.1c4.9,7.6,15,10,22.9,5.4 c7.8-4.6,10.5-14.7,6.1-22.6c5.4,7.3,15.7,9.1,23.2,3.9c7.6-5.2,9.6-15.4,4.6-23c6,6.9,16.3,7.9,23.5,2.2 c7.1-5.7,8.4-16.1,2.9-23.3c6.4,6.4,16.9,6.7,23.6,0.5s7.2-16.6,1.2-23.4c6.8,6,17.2,5.5,23.5-1.2c6.3-6.6,6-17-0.5-23.4 c7.3,5.4,17.7,4.1,23.4-3s4.7-17.4-2.3-23.3c7.7,4.9,17.9,2.9,23.1-4.7s3.3-17.8-4.1-23.1c8,4.3,18.1,1.5,22.6-6.5 c4.6-7.9,1.9-18-5.9-22.7c8.4,3.6,18.1-0.1,22-8.4c3.8-8.2,0.4-18-7.8-22.1c8.6,2.8,18-1.6,21.2-10.2c3.2-8.6-1.1-18-9.6-21.4 c8.9,2.2,17.9-3.1,20.3-11.9c2.4-8.8-2.7-17.9-11.4-20.5c9,1.4,17.5-4.6,19.2-13.6c1.6-9-4.2-17.6-13.1-19.5 c9.1,0.6,17.1-6.1,18-15.2C999,479.7,992.4,471.6,983.4,470.5z M811.8,232.3c8.6,7.3,17.9,15.8,26.5,24c9.1,8.9,17.2,23.3,6.4,33 c-1.3,1.2-8.1,2-10.2,2.6c-1.3-3.4-4.2-0.6-6.7-2.3c-2.4-1.6-4-3.8-6.9-5.6c-5.8-3.5-5.9-11-13-13c-7.3-2-20-1.1-26.1,1.5 c-0.2,0-3.2,1.7-3.6,0.5c-0.7,0.7-3.1,2.9-5.1,2.3c11.3-6,22.9-13.4,32.2-22.2c-2.7-9.3-22.9-26.1-30.4-34.5 c0.6,0.2,1.2,0.3,1.8,0.5l-0.3-0.8c-1.3-0.9-1.7-0.9-2.6-2.6c3.9,0.4,7.6,2.8,10.7,4.3l10.2,2.8C799.8,226.2,807,228.3,811.8,232.3 z M558.6,449.7c-3.8,6.2-5,11.8-8.2,16.5c-3-0.8-2.8,0.6-4.9,1.8c-7.2-0.8-15.5-2.7-18.9-6.4c0.1-3.2-5.1-6.3-6.7-9l-0.5-9 c-2-6.5-4.9-14.1-5.4-22c-0.3-4.3,13.8-25.2,16.9-32c7.1-15.7,11.1-33.2,14.3-48.8c1.5-7.2-1.3-12.9,0.3-18.9 c6.1,0.6,16.2,4.8,20.7,10.2c1.4,1.7,2.2,4.8,4.1,6.7l-0.5,1.5c0,3.2,2.1,10.1,3.6,14.3c1.5,4.1,0.5,9.2,1.8,13.8 C583.1,396.8,572.1,427.9,558.6,449.7z M853.4,497.8l0.4,3.3c-7.2,3.5-14.4,9.3-24,7.2c-0.5-0.1-2.2-0.4-2.6,0.5 c-1.8-1.8-15.1-4-19.4-5.6c-3.4-1.3-9.3-5.3-13.3-7.4c-23-12.2-42.8-27.3-61.4-44.5c-6.6-7-13.3-14-19.9-21c-2.3-3-4.8-8.2-7.9-9.5 l-13,10c-2.7,2.2-7.5,2.4-10.5,5.4l-2.3-0.5c-3.4,1.9-4.3,3.9-8.4,6.1c-3.6,1.9-7-2-12,0c-6.2,2.5-12.1,6.1-19.2,6.7 c-1.9-1.5-2.5-1.6-5.6-1v0.3c0.6,0.3,1.3,0.5,2,0.8c-7,0-25.9-5.1-30.2-8.7c0.1-1.8-12-9.6-15.1-11v-0.3l1-0.8 c1.2,1.2,0.2,0.8,1.8,0.8c-1.2-2.9-3.4-4.9-4.9-6.9h0.3c5.8,3,9.6,3.5,16.4,5.6c-0.4-0.6-0.9-1.3-1.3-2c13,7.7,26.3-1.2,38.9-3.1 l-0.5-0.3l-1.8-0.5c2.3-1,4.7-0.6,6.9-1.3c5.7-1.8,12.2-9,18.2-8.4c-0.2-1,0.3-0.3-0.5-1c6.2-3.9,11.4-7.8,16.4-12.8l-1.8,0.3 l0.3-0.8c10.3-2.9-0.1-15.6-3.8-22.5c-10.1-18.8-19.8-42.3-29.7-62.4c-3.2-0.3-13.2,3.3-15.9,4.1c-17.2,5.3-49.6,1.3-56-11.8 c12.3-0.4,23.3-8.7,30.4-10c0.7-1.3,1-2.1,2-2.6l-0.3,1l9.7-4.1c-0.4-1-0.5-0.6,0-1.8c-1.5,0.3-0.9,0.3-2.3-0.3l0.3,1.3 c-2.5,0.2-2.8,1.9-5.1,1.3c0.8-0.5,9.5-7.2,8.4-9.2c-0.1,0.2-0.2,0.3-0.3,0.5l-1.3,1.3l-1-0.3l0.5-1.3h-1l-1,2.3 c0.9,0.2,1-0.4,0.8,0.5c-0.4,0.6-0.9,1.3-1.3,2l-1-0.5l0.3-0.8l-2.6,1.5v-0.3l0.3-1c2.2-0.9,1.4-1.3,3.3-0.8l-0.5-1.8 c3.8-3.5,7.7-7.8,10-12l1,1c0.1-0.3,0.2-0.7,0.3-1c-0.4-3.7,2.5-3.2,4.1-5.9h-1.3l2.6-2.6c0-0.1-5.9-30.4-5.9-30.4 c8.9-0.1,13.1,5.9,20.5,10h0.5c-0.2-2.2,7.7-13,10.2-15.3c-1.2-0.5-0.5,0.3-1-0.8c1.1-0.2,0.6,0.3,1.3-0.8c-0.5,0-0.2,0,0-0.5 c0.8-6.1,8.4-13,11.3-19.4c6.5-14.5,15-29.7,19.4-46.8v-0.3c-8-0.2-46,4.8-49.1,7.9c-6,6.1-7.9,28.3-9.7,34.3 c-1.1,3.6,1.5,8.8,1,11.5c-0.5,2.8-5.5,7.7-4.3,11.3l-5.6,4.6c-18.4,9.1-30.4-23.1-36.1-29.7l-0.8,0.3 c-7.5,20.4-21.1,32.7-43.5,22.2c-7.9-3.7-15.7-4.7-21.7-10.5c-0.7-0.6-3.8-0.6-5.4-1.5l-5.4-5.1c-0.9-0.7-2,0.7-2.8,0.3 c-4-2.1-8.5-6.4-9.7-11.8c4.7-4.8,22.5-8.3,29.2-5.9c11.3-3.1,24.7-4.2,33.8-9.5c2.4-1.4,17-5.2,16.6-6.9c1.3-2-0.4-4-1-6.1 c-2-7.7-5.1-29.9-1-35H570V127c9.5,0.9,23.1,17,28.1,23.5c2,2.7,3.4,7.5,6.1,8.7c9.5-2.3,18.9-4.6,28.4-6.9 c2.5-0.5,8.3-0.1,11.3-1.8l2.3-0.5c14-1.1,31-4.3,44.2-5.4c3.3-10.7,7.7-22.8,10.5-33.2c1.7-6.3,1.5-16,0.5-20.5 c-0.1-0.5-0.6-2.4-0.8-1.8c-0.8-5,2-7.2-0.5-13l0.3-0.3l2.8,2c-0.3-1.1-0.5-2.2-0.8-3.3c0.6,0.4,1.3,0.9,2,1.3 c-0.2-0.3-0.3-0.5-0.5-0.8v-0.8c3.4,1.2,5.3,4.3,7.4,6.9c0.6,0.7,3.4,1.1,4.1,2c10.4,14.1,20.9,26.5,25.3,43.2 c1.3,5.1-5.7,16-5.9,18.7c0.7,0.5,0.3,0.4,1,0.5c3.4,1.1,9.3-1.6,13,0.8c3.7,2.5,8.5,3,12.5,4.9c7.1,3.4,22.6,14.7,25.8,19.9 c1.9,3.1,3.3,5.7,4.6,9.2l0.3,4.1c-1.9,3.4-5.1,8.1-8.4,10.7c-12.6,9.8-33.1-12.2-36.3-17.6c-1.8-3-7.9-10.5-12.5-9.2 c-1.4,0.4-14.5,4.8-14.6,4.9c-3.4,2.7-3.6,8.8-6.7,11.8c-5.1,5-8.9,12.3-14.6,18.7l-1.8,5.9c-0.4,0.7-5.8,7.2-6.7,5.4 c-2.5,3.3-4.9,6.7-7.4,10l1,0.5c-4.9,0.6-8.9,10.2-13,12.8c-1,0.2-0.2,0.3-1.3-0.3c-1.3,5.6-2.5,5.7-8.7,10.2 c1.2,0.8-0.2,0.4-1,1.3c0.3,0.6,0.5,1.2,0.8,1.8c0.5-0.5,1-1,1.5-1.5c-0.1,0.2-0.2,0.3-0.3,0.5l-2.3,3.1c1.8,3,4.6,5.7,7.2,7.4 l7.2-4.1c1.3-1.1,1.5-3.1,3.1-4.1c11.4-6.8,21.5-9.8,36.3-10.7c14.8-0.9,32.7,21.6,9.2,29.4c0.8,1.4,0.8,1.5-0.3,2.6 c-11.4,0.6-23.2,13.9-31.7,19.4c-3,2-13.3,4.2-14.1,5.9c-2.4,5.4,3.4,13.2,3.8,18.7c0.6,7.9,13.1,45.4,20.5,51.4l0.3-0.3 c5.7-15.1,15.2-31.3,21.2-46.5c2.7-6.8-1.2-17.3,1-21c7.5,1.7,12.4,7.7,15.9,11c8.4,8,12.9,15.7,16.1,25.6c0.8,2.7-1.2,7.6-1.3,11 l-1.8,2.8c-2.5,8-7.3,14.8-12.5,21.2c-0.4,1.1-0.9,2.2-1.3,3.3c-5.3,6.1-12.6,14.1-15.9,22c16.5,18.8,36.3,34.3,56.3,48.6 c4.6,3.3,12.6,7.5,16.9,10.2c2.6,1.7,5.8,1.6,7.4,3.6c0.3-0.1,0.7-0.2,1-0.3l1-10.2l-2-9.5c0.7,1.2,0.6,2.1,1.8,2.8 c-6.1-20.9-7.5-32-17.4-49.4l-4.1-8.4l-0.3,0.8c-2.4-3.9-2.5-5.1-4.9-9h0.3c1.6,0.5,2.8,0.3,2.8,0.3c1.2,2.6,1.4,5.1,3.1,7.2 c1-0.4,0.1-0.4,1-0.3c0.7-1.3-0.6-0.5-0.8-1.5h-0.8c1.2-0.7,0.7-0.6,2,0l-3.1-6.1l1-0.3c4.6,6.9,9.2,13.8,13.8,20.7 c-0.7-8.6-10.5-18.4-14.1-27.6l1-0.3h0.3c1.2,4,13.1,16.5,16.6,22c8.3,13,17.5,25.4,27.9,38.1c0.6-0.3,1.2-0.5,1.8-0.8l0.3,0.8 l-0.5,1l-0.5-1c-0.1,0.3-0.2,0.7-0.3,1c0.8,0.4,1.5,0.9,2.3,1.3l0.5,1.8c1.5-0.7,7.9,16.6,9.7,15.9c0.7,0.3,1.5,1.6,1.8,1 c3.3,4,1.5,10.8,6.9,13l-0.5-2h0.8c0.8,2,1.1,1.3,2.3,2.8c1.2,4.4,2.5,8.9,3.8,13.3l2.6,2C862.3,483.4,855.4,496.9,853.4,497.8z"/>
        <path d="M633.8,273.5c-0.8,2.1-8,4.1-6.7,6.9c-2.7,0.7-3.1,2.8-5.1,2.6l0.2-0.1c0.6-0.6,1.2-1.3,1.8-2l-0.5,0.5 c-1.6,0.6-2.7,2-3.6,3.3c1.6-0.6,1.4-1.2,2.6-0.3c-1.4,0.3-4.3,2.9-5.6,4.3c7-1.1,14.2-5.8,18.4-8.7c-0.3-0.1-0.7-0.2-1-0.3 c0.5-0.8,1-1.3,1-1.3C635.7,277.1,635,274.2,633.8,273.5z"/>
        <path d="M612.5,178.6c3.6-1,11-6.8,11.5-9.7c-2.6,2.1-9.6,3.1-13,6.6L612.5,178.6z"/>
    </g>
    <path d="M683.6,658.2c21.8-25.1,36.7-63.4,17.7-85.4c-16.9-19.5-158.9-27.6-182.9,0c-2.9,3.3-4.9,6.7-6.4,10.3 c-3.9-0.5-7.9-0.8-12.1-0.8s-8.2,0.3-12.1,0.8c-1.4-3.5-3.5-7-6.4-10.3c-23.9-27.6-166-19.5-182.9,0c-19,22-4.1,60.3,17.7,85.4 c21.8,25.1,124.1,19.7,141.5-0.4c11.2-12.9,27.7-33,31.7-53c3.2-0.5,6.7-0.7,10.4-0.7s7.2,0.3,10.4,0.7c4,20,20.5,40,31.7,53 C559.5,677.9,661.8,683.3,683.6,658.2L683.6,658.2z"/>
</svg>
