<svg id="logoSVG"  version="1.1" xmlns="http://www.w3.org/2000/svg" viewBox="0 0 100 88">
    <path id="afro" fill="none" d="M65.1,42.2c0,0.1,0,0.2,0.3,0.3c0,0-0.1,0-0.1,0.1l-0.1,0.1l-0.1,0.1L65,42.9L64.9,43l-0.1,0.1l-0.1,0.1 c-0.1,0.1-0.2,0.1-0.2,0.1c-0.1,0-0.2,0-0.2,0c-0.1,0-0.1,0-0.2,0c-0.1,0-0.1,0-0.2,0c-0.1,0-0.2,0-0.2,0c-0.1,0-0.2,0-0.2,0 c-0.1,0-0.2,0-0.2,0c-0.1-0.1-0.2-0.1-0.2-0.1L63,43.1L62.9,43l-0.1-0.1l-0.1-0.1l-0.1-0.1c0,0-0.1,0-0.1-0.1s0-0.1,0-0.1 c-0.1,0-0.1,0-0.1,0l0,0c0.4,0.8,0.1,1.8-0.7,2.3l0,0c-0.2,0.1-0.5,0.2-0.8,0.2c-0.6,0-1.2-0.3-1.5-0.9l0,0c-0.1,0-0.1,0-0.1,0l0,0 c0.4,0.8,0,1.8-0.8,2.2c-0.2,0.1-0.5,0.2-0.7,0.2c-0.6,0-1.2-0.4-1.5-1l0,0h-0.1l0,0c0.3,0.9-0.1,1.9-1,2.2 c-0.2,0.1-0.4,0.1-0.6,0.1c-0.7,0-1.3-0.4-1.6-1.1l0,0h-0.1l0,0c0.3,0.9-0.2,1.8-1.1,2.1c-0.2,0.1-0.3,0.1-0.5,0.1 c-0.7,0-1.4-0.5-1.6-1.2l0,0c-0.1,0-0.1,0-0.1,0l0,0c0.3,0.9-0.3,1.8-1.2,2c-0.1,0.1-0.3,0.1-0.4,0.1c-0.7,0-1.4-0.5-1.6-1.3l0,0 c-0.1,0-0.1,0-0.1,0l0,0c0.1,0.9-0.5,1.7-1.4,1.9c-0.1,0-0.2,0-0.3,0c-0.8,0-1.6-0.6-1.7-1.4l0,0h-0.1l0,0c0.1,1-0.6,1.8-1.5,1.9 c-0.1,0-0.1,0-0.2,0c-0.9,0-1.6-0.6-1.7-1.5l0,0c-0.1,0-0.1,0-0.1,0l0,0c0.1,1-0.7,1.8-1.6,1.8c-0.1,0-0.1,0-0.1,0 c-0.9,0-1.7-0.7-1.7-1.6l0,0H36l0,0c0,0.9-0.8,1.6-1.7,1.6l0,0c-0.9,0-1.6-0.8-1.6-1.7l0,0c-0.1,0-0.1,0-0.1,0l0,0 c-0.1,0.8-0.8,1.5-1.7,1.5h-0.1c-0.9-0.1-1.6-0.9-1.5-1.8l0,0h-0.1v0.1c0,0.1,0.1,0.1,0,0.2s-0.1,0.1-0.1,0.2 C29,49.8,29,49.8,29,49.9c0,0-0.1,0-0.1,0.1l-0.1,0.1l-0.1,0.1l-0.1,0.1l-0.1,0.1l-0.1,0.1c0,0.1-0.1,0.1-0.1,0.1 c-0.1,0.1-0.2,0.1-0.2,0.1c-0.1,0-0.2,0-0.2,0c-0.1,0-0.1,0-0.2,0s-0.1,0-0.2,0s-0.1,0-0.2,0l0,0c0.6,0.3,1,1,0.8,1.8 c-0.2,0.7-0.9,1.3-1.6,1.3c0.7,0.2,1.2,0.9,1.1,1.7c-0.1,0.7-0.7,1.4-1.4,1.5c0.7,0.1,1.3,0.8,1.3,1.6s-0.6,1.5-1.3,1.7 c0.8,0.1,1.4,0.7,1.5,1.5s-0.4,1.6-1.1,1.8c0.8,0,1.5,0.6,1.6,1.4c0.2,0.8-0.3,1.5-1,1.8c0.8,0,1.5,0.5,1.7,1.3S28.7,69.7,28,70 c0.7,0,1.5,0.4,1.7,1.2s-0.1,1.6-0.8,2c0.7-0.1,1.5,0.3,1.8,1.1l0,0c0.3,0.7,0,1.6-0.6,2c0.8-0.2,1.6,0.2,1.9,0.9s0.1,1.5-0.5,2 c0.7-0.2,1.5,0.1,1.9,0.8c0.4,0.7,0.2,1.6-0.3,2.1c0.7-0.3,1.5,0,2,0.6c0.4,0.7,0.4,1.5-0.1,2.1c0-0.1,0.1-0.1,0.1-0.1 c0.1-0.1,0.1-0.1,0.2-0.1s0.1,0,0.2,0s0.1,0,0.2,0s0.2,0,0.3,0s0.2,0,0.2,0c0.1,0,0.2,0,0.2,0c0.1,0.1,0.2,0.1,0.2,0.1l0.1,0.1 l0.1,0.1l0.1,0.1l0.1,0.1l0.1,0.1l0.1,0.1c0.1,0,0.1,0,0.1,0.1c0.1,0.1,0.1,0.1,0.1,0.2c0.1,0.1,0.1,0.1,0.1,0.2s0,0.1,0,0.2 s0,0.1,0,0.2s0,0.1,0,0.2s0,0.1,0,0.2s0,0.1,0,0.2s0,0.1,0,0.2c-0.1,0.1-0.1,0.1-0.1,0.2c-0.1,0.1-0.1,0.1-0.1,0.2 c0,0-0.1,0-0.1,0.1l-0.1,0.1L37,87.7l-0.1,0.1l-0.1,0.1c0,0-0.1,0-0.1,0.1s-0.1,0.1-0.1,0.1c-0.1,0.1-0.2,0.1-0.2,0.1 c-0.1,0-0.2,0-0.2,0c-0.1,0-0.1,0-0.2,0c-0.1,0-0.1,0-0.2,0s-0.1,0-0.2,0s-0.1,0-0.2,0s-0.2,0-0.2,0c-0.1-0.1-0.2-0.1-0.2-0.1 L34.9,88l-0.1-0.1l-0.1-0.1l-0.1-0.1l-0.1-0.1c0,0-0.1,0-0.1-0.1c-0.1,0-0.1,0-0.1-0.1c-0.1-0.1-0.1-0.1-0.1-0.2 c-0.1-0.1-0.1-0.1-0.1-0.2s0-0.1,0-0.2s0-0.1,0-0.2s0-0.1,0-0.2s0-0.1,0-0.2s0-0.1,0-0.2v-0.1c-0.3,0.7-0.9,1.1-1.6,1.1 c-0.2,0-0.4,0-0.6-0.1l0,0c-0.9-0.3-1.4-1.2-1.1-2.1c-0.4,0.8-1.4,1.2-2.2,0.8c-0.8-0.4-1.2-1.4-0.9-2.2c-0.4,0.8-1.4,1.1-2.2,0.7 c-0.8-0.4-1.2-1.4-0.8-2.2c-0.5,0.7-1.5,1-2.3,0.5c-0.8-0.5-1-1.5-0.6-2.3c-0.5,0.7-1.6,0.9-2.3,0.4c-0.8-0.5-1-1.5-0.5-2.3 c-0.6,0.7-1.6,0.8-2.3,0.2c-0.7-0.5-0.8-1.6-0.3-2.3c-0.7,0.7-1.8,0.7-2.4,0.1s-0.7-1.6-0.1-2.3c-0.6,0.6-1.7,0.6-2.3-0.1 c-0.7-0.6-0.6-1.7,0-2.3c-0.7,0.5-1.7,0.4-2.3-0.3c-0.6-0.7-0.5-1.7,0.2-2.3c-0.8,0.5-1.8,0.3-2.3-0.5l0,0c-0.5-0.7-0.3-1.8,0.4-2.3 c-0.8,0.4-1.9,0.1-2.3-0.7l0,0c-0.4-0.8-0.2-1.8,0.6-2.3c-0.8,0.4-1.8,0-2.2-0.8c-0.4-0.8,0-1.8,0.8-2.2c-0.8,0.3-1.8-0.1-2.1-1 c-0.3-0.8,0.2-1.8,1-2.1c-0.9,0.2-1.8-0.3-2-1.2c-0.3-0.9,0.2-1.8,1.1-2.1c-0.9,0.1-1.7-0.5-1.9-1.4l0,0c-0.2-0.9,0.4-1.8,1.3-2 c-0.9,0.1-1.7-0.6-1.8-1.5C0,47.9,0.7,47.1,1.6,47l0,0l0,0l0,0C0.7,47,0,46.3,0,45.4s0.7-1.7,1.6-1.7c-0.9-0.1-1.6-0.9-1.5-1.8 C0.2,41,1,40.3,1.9,40.3c-0.9-0.1-1.4-1-1.3-1.9c0.2-0.9,1-1.5,1.9-1.4c-0.9-0.2-1.4-1.1-1.2-2s1.1-1.4,2-1.2 c-0.8-0.3-1.3-1.2-1-2.1c0.3-0.9,1.2-1.4,2.1-1.1c-0.8-0.4-1.2-1.4-0.8-2.2C4,27.6,5,27.2,5.8,27.5c-0.7-0.5-1-1.5-0.6-2.3 c0.4-0.8,1.4-1.1,2.2-0.7C6.7,24,6.5,23,7,22.2c0.5-0.7,1.5-1,2.3-0.5c-0.7-0.6-0.8-1.6-0.3-2.3c0.5-0.8,1.6-0.9,2.3-0.4 c-0.7-0.6-0.7-1.6-0.1-2.3c0.6-0.7,1.6-0.8,2.3-0.2c-0.6-0.6-0.5-1.7,0.1-2.3c0.6-0.6,1.7-0.6,2.3,0c-0.6-0.7-0.5-1.7,0.2-2.3 c0.7-0.6,1.7-0.5,2.3,0.2c-0.5-0.7-0.3-1.8,0.4-2.3c0.7-0.6,1.8-0.4,2.3,0.3c-0.4-0.8-0.2-1.8,0.6-2.3s1.8-0.3,2.3,0.5 c-0.4-0.8-0.1-1.8,0.7-2.2C25.6,5.7,26.6,6,27,6.8c-0.3-0.9,0.1-1.8,0.9-2.2c0.8-0.4,1.8,0,2.2,0.8c-0.3-0.8,0.2-1.8,1-2.1 s1.8,0.1,2.2,1c-0.2-0.8,0.3-1.7,1.2-2c0.9-0.2,1.8,0.2,2.1,1.1c-0.2-0.9,0.4-1.8,1.3-2s1.8,0.3,2,1.2c-0.1-0.9,0.5-1.8,1.4-1.9 C42.2,0.5,43,1.1,43.2,2c-0.1-0.9,0.6-1.7,1.5-1.8c0.9,0,1.7,0.6,1.8,1.5c0-0.9,0.7-1.7,1.6-1.7c0.9,0,1.7,0.7,2,1.4 c0-0.9,0.8-1.6,1.7-1.6c0.9,0.1,1.6,0.8,1.6,1.7c0.1-0.9,0.9-1.6,1.8-1.5l0,0c0.9,0.1,1.5,0.9,1.5,1.8c0.2-0.8,1-1.4,1.9-1.3l0,0 c0.9,0.2,1.5,1,1.4,1.9c0.2-0.9,1.1-1.4,2-1.2s1.5,1.1,1.3,2c0.3-0.9,1.2-1.4,2.1-1.1c0.9,0.2,1.4,1.1,1.2,2c0.3-0.9,1.2-1.3,2.1-1 c0.8,0.3,1.3,1.2,1,2.1c0.4-0.8,1.4-1.2,2.2-0.8c0.9,0.4,1.2,1.4,0.9,2.2c0.5-0.8,1.5-1.1,2.3-0.7c0.8,0.4,1.1,1.4,0.7,2.2 c0.5-0.8,1.5-1,2.3-0.5c0.8,0.5,1,1.5,0.6,2.3c0.5-0.7,1.6-0.8,2.3-0.3c0.7,0.5,0.9,1.5,0.4,2.3c0.6-0.7,1.6-0.8,2.3-0.2 c0.7,0.6,0.8,1.7,0.2,2.4c0.7-0.6,1.7-0.6,2.4,0c0.7,0.7,0.7,1.7,0.1,2.4c0.7-0.7,1.8-0.6,2.4,0.1s0.6,1.8-0.1,2.4 c0.7-0.6,1.7-0.4,2.3,0.3c0.5,0.7,0.4,1.7-0.3,2.3c0.8-0.5,1.8-0.3,2.3,0.5s0.2,1.8-0.5,2.3c0.8-0.4,1.8-0.1,2.2,0.7 c0.5,0.8,0.2,1.8-0.6,2.3c0.9-0.3,1.8,0.1,2.2,0.9s0,1.8-0.8,2.2c0.9-0.2,1.8,0.2,2.1,1.1c0.3,0.8-0.2,1.8-1,2.1 c0.9-0.2,1.8,0.3,2,1.2c0.2,0.8-0.3,1.7-1.2,2c0.9-0.1,1.7,0.5,1.9,1.4c0.2,0.9-0.4,1.7-1.3,1.9c1,0,1.7,0.7,1.8,1.6 c0.1,0.9-0.6,1.7-1.5,1.8c0.9,0,1.6,0.8,1.6,1.7S99.1,47,98.2,47c0.9,0.1,1.6,0.9,1.5,1.8c-0.1,0.9-0.9,1.6-1.8,1.5 c0.9,0.2,1.4,1.1,1.3,2c-0.1,0.9-1,1.5-1.9,1.4c0.8,0.3,1.3,1.2,1.1,2.1s-1.1,1.4-2,1.2c0.9,0.3,1.3,1.2,1,2.1 c-0.3,0.8-1.2,1.3-2.1,1c0.8,0.4,1.2,1.4,0.8,2.2c-0.4,0.8-1.4,1.2-2.2,0.8c0.7,0.5,1,1.5,0.6,2.2l0,0C94,66.1,93,66.4,92.2,66 c0.7,0.6,0.9,1.6,0.4,2.3c-0.5,0.8-1.5,1-2.3,0.5c0.7,0.5,0.8,1.6,0.2,2.3c-0.5,0.8-1.6,0.9-2,0.7c0.6,0.6,0.6,1.6,0,2.3 c-0.6,0.6-1.6,0.7-2.3,0.1c0.6,0.6,0.6,1.7-0.1,2.3c-0.6,0.6-1.7,0.5-2.3-0.1c0.5,0.7,0.4,1.7-0.3,2.3c-0.7,0.6-1.7,0.5-2.3-0.2 c0.4,0.8,0.2,1.8-0.5,2.3c-0.7,0.5-1.8,0.3-2.3-0.4c0.4,0.8,0.2,1.8-0.6,2.3C77,83.2,76,83,75.5,82.2c0.3,0.8,0,1.8-0.8,2.2 c-0.8,0.4-1.8,0.1-2.2-0.7c0.3,0.9-0.1,1.8-0.9,2.2c-0.9,0.4-1.8,0-2.2-0.8c0.2,0.9-0.2,1.8-1.1,2.1l0,0c-0.8,0.3-1.8-0.1-2.1-1l0,0 c-0.1,0-0.1,0-0.1,0c0,0.1,0,0.1,0,0.2s0,0.1,0,0.2s0,0.1,0,0.2s0,0.1,0,0.2s0,0.1,0,0.2s0,0.1,0,0.2c-0.1,0.1,0,0.1-0.1,0.2 s-0.1,0.1-0.1,0.2c0,0-0.1,0-0.1,0.1L65.7,88l-0.1,0.1l-0.1,0.1l-0.1,0.1c0,0-0.1,0-0.1,0.1s-0.1,0.1-0.1,0.1 c-0.1,0.1-0.2,0.1-0.2,0.1c-0.1,0-0.2,0-0.2,0c-0.1,0-0.1,0-0.2,0c-0.1,0-0.1,0-0.2,0c-0.1,0-0.1,0-0.2,0c-0.1,0-0.1,0-0.2,0 c-0.1,0-0.2,0-0.2,0c-0.1-0.1-0.2-0.1-0.2-0.1l-0.1-0.1l-0.1-0.1l-0.1-0.1l-0.1-0.1L63.1,88c0,0-0.1,0-0.1-0.1c-0.1,0-0.1,0-0.1-0.1 c-0.1-0.1-0.1-0.1-0.1-0.2c-0.1-0.1-0.1-0.1-0.1-0.2s0-0.1,0-0.2s0-0.1,0-0.2s0-0.1,0-0.2s0-0.1,0-0.2s0-0.1,0-0.2s0-0.1,0-0.2 c0.1-0.1,0.1-0.1,0.1-0.2c0.1-0.1,0.1-0.1,0.1-0.2c0,0,0.1,0,0.1-0.1l0.1-0.1l0.1-0.1l0.1-0.1l0.1-0.1l0.1-0.1 c0-0.1,0.1-0.1,0.1-0.1c0.1-0.1,0.2-0.1,0.2-0.1c0.1,0,0.1,0,0.2,0c0.1,0,0.2,0,0.2,0c0.1,0,0.2,0,0.3,0c0.1,0,0.2,0,0.2,0 c0.1,0,0.2,0,0.2,0c0.1,0.1,0.2,0.1,0.2,0.1l0.1,0.1l0.1,0.1l0.1,0.1l0,0c0-0.1,0-0.1,0-0.1c-0.8-0.5-0.9-1.6-0.4-2.3l0,0 c0.5-0.7,1.5-0.9,2.3-0.4v-0.1c-0.8-0.5-1.1-1.5-0.6-2.3c0.5-0.8,1.5-1,2.3-0.6v-0.1c-0.8-0.4-1.2-1.4-0.8-2.2s1.4-1.2,2.2-0.8v-0.1 c-0.9-0.4-1.3-1.3-1-2.2c0.3-0.9,1.2-1.3,2.1-1v-0.1c-0.9-0.3-1.4-1.2-1.1-2.1c0.3-0.9,1.2-1.4,2.1-1.2v-0.1c-0.9-0.2-1.5-1.1-1.3-2 c0.2-0.9,1.1-1.5,2-1.3v-0.1c-0.9-0.1-1.5-1-1.4-1.9c0.2-0.9,1-1.5,1.9-1.4v-0.1c-0.9-0.1-1.6-0.8-1.5-1.8s0.9-1.7,1.8-1.6v-0.1 c-0.9,0-1.7-0.8-1.7-1.7S73,56,73.9,56v-0.1c-0.1,0-0.2,0-0.2,0c-0.9,0-1.6-0.6-1.7-1.5s0.5-1.8,1.4-1.9v-0.1 c-0.1,0.1-0.3,0.1-0.4,0.1c-0.7,0-1.4-0.5-1.6-1.2c-0.3-0.9,0.2-1.8,1-2.1v-0.1c-0.3,0.1-0.5,0.2-0.8,0.2c-0.6,0-1.2-0.3-1.5-0.8 c-0.5-0.7-0.2-1.7,0.5-2.2v-0.1c-0.3,0.3-0.7,0.5-1.1,0.5s-0.8-0.2-1.1-0.5l0,0c-0.7-0.6-0.7-1.6-0.2-2.3c-0.1-0.1-0.1-0.1-0.1-0.1 c-0.3,0.5-0.8,0.8-1.4,0.8c-0.3,0-0.6-0.1-0.8-0.2C65.1,44,64.8,43.1,65.1,42.2C65.2,42.2,65.2,42.2,65.1,42.2L65.1,42.2z  M21.3,21.9l-1,0.3c-0.5,0.4-1.2,0.6-1.7,1c-0.8,0.7-1.7,1.6-2.6,2.4c-0.9,0.9-1.7,2.3-0.6,3.3c0.1,0.2,0.8,0.2,1,0.3 c0.2-0.3,0.5,0,0.7-0.2c0.3-0.2,0.4-0.4,0.7-0.6c0.6-0.3,0.6-1.1,1.3-1.3c0.7-0.2,2-0.1,2.6,0.2c0.1,0,0.4,0.2,0.4,0.1 c0.1,0,0.3,0.3,0.5,0.2c-1.1-0.6-2.3-1.3-3.2-2.2c0.2-1,2.3-2.7,3-3.5C22.3,22,22.3,22,22.2,22v-0.1c0.2-0.1,0.2-0.1,0.3-0.3 C22.1,21.6,21.7,21.8,21.3,21.9z M42.4,36.7c-0.7,2.8,0.4,5.9,1.7,8.1c0.4,0.7,0.5,1.2,0.8,1.7c0.3-0.1,0.3,0.1,0.5,0.2 c0.7,0,1.6-0.2,1.9-0.6c0-0.3,0.5-0.6,0.7-0.9v-0.9c0.2-0.6,0.5-1.4,0.5-2.2c0-0.4-1.4-2.5-1.7-3.2c-0.7-1.6-1.1-3.3-1.4-4.9 c-0.1-0.7,0.2-1.3,0-1.9c-0.6,0-1.7,0.5-2.1,1c-0.1,0.2-0.2,0.5-0.4,0.7V34c0,0.3-0.2,1-0.4,1.5C42.4,35.9,42.5,36.4,42.4,36.7z  M14.5,50v0.3c0.7,0.3,1.4,0.9,2.4,0.7c0.1,0,0.3,0,0.3,0.1c0.1-0.2,1.5-0.4,1.9-0.6c0.3-0.1,0.9-0.5,1.3-0.7 c2.3-1.3,4.2-2.8,6.1-4.5c0.7-0.7,1.3-1.4,2-2.1c0.2-0.3,0.5-0.9,0.8-1l1.3,1c0.2,0.2,0.7,0.2,1,0.5l0.2-0.1 c0.3,0.2,0.4,0.4,0.8,0.6c0.4,0.2,0.7-0.2,1.2,0c0.6,0.3,1.2,0.6,1.9,0.7c0.2-0.2,0.3-0.2,0.6-0.1l0,0c-0.1,0-0.1,0.1-0.2,0.1 c0.7,0,2.6-0.5,3-0.9c0-0.2,1.2-1,1.5-1.1l0,0l-0.1-0.1c-0.1,0.1,0,0.1-0.2,0.1c0.1-0.3,0.4-0.5,0.5-0.7l0,0 c-0.5,0.3-0.9,0.4-1.6,0.6c0-0.1,0.1-0.1,0.1-0.2c-1.3,0.8-2.6-0.1-3.9-0.3l0,0l0.2-0.1c-0.2-0.1-0.5,0-0.7-0.1 c-0.6-0.1-1.2-0.9-1.8-0.8c0-0.1-0.1,0,0-0.1c-0.6-0.4-1.1-0.8-1.6-1.3h0.2v-0.1c-1-0.3,0-1.6,0.4-2.3c1-1.8,2-4.2,3-6.2 c0.3,0,1.3,0.3,1.6,0.4c1.7,0.5,5,0.1,5.6-1.2c-1.2,0-2.3-0.9-3-1c-0.1-0.2-0.1-0.2-0.2-0.3v0.1l-1-0.4c0-0.1,0-0.1,0-0.2 c0.1,0.1,0.1,0.1,0.2,0v0.1c0.2,0,0.3,0.2,0.5,0.1c0,0-0.9-0.7-0.8-0.9c0,0.1,0,0.1,0,0.1l0.1,0.1h0.1v-0.1h0.1l0.1,0.2 c-0.1,0.1-0.1,0-0.1,0.1s0.1,0.1,0.1,0.2l0.1-0.1v-0.1l0.3,0.2l0,0v-0.1c-0.2-0.1-0.1-0.2-0.3-0.1v-0.2c-0.4-0.3-0.8-0.8-1-1.2 l-0.3,0.2v-0.1c0-0.4-0.2-0.3-0.4-0.6h0.1l-0.3-0.3l0.6-3c-0.8,0-1.3,0.6-2,1l0,0c0-0.2-0.8-1.3-1-1.5c0.1-0.1,0.1,0,0.1-0.1 c-0.1,0,0,0-0.1-0.1c0,0,0,0,0-0.1c-0.1-0.6-0.8-1.3-1.1-1.9c-0.6-1.5-1.5-3-1.9-4.7l0,0c0.8,0,4.6,0.5,4.9,0.8 c0.6,0.6,0.8,2.8,1,3.4c0.1,0.4-0.1,0.9-0.1,1.2c0,0.2,0.5,0.7,0.4,1.1l0.6,0.5c1.8,0.9,3-2.3,3.6-3h0.1c0.7,2,2.1,3.3,4.3,2.2 c0.8-0.4,1.6-0.5,2.2-1.1c0-0.1,0.3-0.1,0.5-0.2l0.5-0.5c0.1-0.1,0.2,0,0.3,0c0.4-0.2,0.9-0.7,1-1.2c-0.5-0.5-2.2-0.8-2.9-0.6 c-1.2-0.4-2.5-0.5-3.4-1c-0.3-0.1-1.7-0.5-1.7-0.7c-0.1-0.2,0-0.4,0.1-0.6c0.2-0.8,0.5-3,0.1-3.5h0.1l0,0c-0.9,0.1-2.3,1.7-2.8,2.4 c-0.2,0.3-0.3,0.8-0.6,0.9c-0.9-0.2-1.9-0.5-2.8-0.7c-0.2-0.1-0.7-0.1-1.1-0.2l-0.3-0.2c-1.4-0.1-3.1-0.4-4.4-0.5 c-0.3-1-0.7-2.3-1-3.3c-0.1-0.7-0.1-1.6,0-2.1c0-0.1,0.1-0.3,0.1-0.2c0-0.5-0.2-0.7,0-1.3l0,0l-0.3,0.2c0.1-0.1,0.1-0.2,0.1-0.3 c-0.1,0-0.1,0.1-0.2,0.1V7.3V7.2c-0.3,0.1-0.5,0.4-0.7,0.7C28.7,8,28.5,8,28.4,8.1c-1,1.4-2.1,2.6-2.5,4.3c-0.1,0.5,0.6,1.6,0.6,1.9 c-0.1,0.1,0,0.1-0.1,0.1c-0.3,0.1-0.9-0.1-1.3,0.1c-0.3,0.3-0.8,0.3-1.2,0.5c-0.7,0.3-2.3,1.5-2.6,2c-0.2,0.3-0.4,0.5-0.5,0.9v0.4 c0.2,0.4,0.5,0.8,0.8,1.1c1.2,0.9,3.3-1.3,3.6-1.8c0.1-0.3,0.7-1,1.2-0.9c0.2,0,1.5,0.5,1.5,0.5c0.4,0.3,0.4,0.9,0.7,1.2 c0.6,0.5,0.9,1.3,1.5,1.9l0.2,0.6c0.1,0,0.6,0.7,0.7,0.5c0.2,0.3,0.5,0.7,0.7,1l-0.1,0.1c0.5,0.1,0.9,1,1.3,1.3c0.1,0.1,0,0.1,0.1,0 c0.2,0.5,0.3,0.5,0.9,1c-0.1,0,0,0,0.1,0.1c-0.1,0.1-0.1,0.1-0.1,0.2c0-0.1-0.1-0.1-0.1-0.2c0,0.1,0,0.1,0,0.1l0.2,0.3 c-0.2,0.3-0.4,0.5-0.7,0.7l-0.7-0.4c-0.1-0.1-0.1-0.3-0.3-0.4c-1.1-0.7-2.1-1-3.6-1.1s-3.2,2.1-0.9,2.9c-0.1,0.2-0.1,0.2,0,0.3 c1.2,0,2.4,1.3,3.2,1.9c0.3,0.2,1.3,0.4,1.4,0.6c0.2,0.6-0.4,1.3-0.4,1.9c0,0.7-1.3,4.5-2,5.1l0,0c-0.6-1.6-1.5-3.2-2.1-4.7 c-0.3-0.7,0.1-1.7-0.1-2.1c-0.8,0.2-1.3,0.8-1.6,1.1c-0.8,0.8-1.3,1.6-1.6,2.6c-0.1,0.3,0.1,0.8,0.1,1.1l0.2,0.3 c0.2,0.8,0.7,1.5,1.2,2.1c0,0.1,0.1,0.2,0.1,0.3c0.5,0.6,1.3,1.4,1.6,2.2c-1.6,1.9-3.6,3.5-5.6,4.9c-0.5,0.3-1.3,0.7-1.7,1 c-0.2,0.2-0.5,0.2-0.7,0.4h-0.1l-0.1-1l0.2-1c-0.1,0.1-0.1,0.2-0.2,0.3c0.6-2,0.7-3.2,1.7-4.9l0.4-0.8v0.1c0.3-0.4,0.3-0.5,0.5-0.9 l0,0c-0.2,0-0.3,0-0.3,0c-0.1,0.2-0.1,0.5-0.3,0.7c-0.1,0,0,0-0.1,0c0-0.2,0.1-0.1,0.1-0.2h0.1c-0.1-0.1-0.1-0.1-0.2,0l0.3-0.6h-0.1 c-0.5,0.7-0.9,1.4-1.4,2.1c0.1-0.9,1-1.9,1.4-2.8h-0.1l0,0c-0.2,0.4-1.4,1.6-1.7,2.2c-0.8,1.3-1.8,2.5-2.8,3.8 c-0.1,0-0.1-0.1-0.2-0.1V43v0.1V43v0.1c-0.1,0-0.1,0.1-0.2,0.1v0.2c-0.2-0.1-0.8,1.7-1,1.6c-0.1,0-0.2,0.2-0.2,0.1 c-0.3,0.4-0.2,1.1-0.7,1.3v-0.2h-0.1c-0.1,0.2-0.1,0.1-0.2,0.3c-0.1,0.4-0.3,0.9-0.4,1.3L13.8,48C13.6,48.3,14.3,49.7,14.5,50z"/>
    <g>
        <path id="glassesID" fill="none" d="M31.4,65.8c2.2,2.6,12.4,2,14.2,0c1.2-1.3,2.8-3.3,3.2-5.3c0.3-0.1,0.6-0.1,1-0.1c0.3,0,0.7,0,1,0.1 c0.4,2,2.1,4,3.2,5.3c1.7,2,11.9,2.5,14.1,0c2.2-2.5,3.7-6.3,1.8-8.5c-1.7-2-15.9-2.8-18.3,0c-0.3,0.3-0.5,0.6-0.6,1 c-0.4-0.1-0.8-0.1-1.2-0.1s-0.8,0-1.2,0.1c-0.1-0.3-0.3-0.7-0.6-1c-2.4-2.8-16.6-2-18.3,0C27.8,59.5,29.3,63.3,31.4,65.8z"/>
        <path id="kanji_ko01ID" class="st0" fill="none" d="M38.7,17.9l0.1-0.3c-0.3-0.4-1-0.5-1.3-0.7C37.5,17.2,38.3,17.7,38.7,17.9z"/>
        <path id="kanji_ko02ID" class="st1" fill="none" d="M37.2,28.1c0.1-0.3-0.6-0.5-0.7-0.7c-0.1,0.1-0.1,0.4-0.1,0.5c0,0,0.1,0,0.1,0.1h-0.1 c0.4,0.3,1.1,0.8,1.8,0.9c-0.2-0.1-0.5-0.4-0.6-0.4c0.2-0.1,0.1-0.1,0.3,0c-0.1-0.1-0.2-0.2-0.4-0.3v-0.1c0.1,0.1,0.1,0.1,0.2,0.2 l0,0C37.5,28.3,37.4,28.1,37.2,28.1z"/>
    </g>
</svg>
