<svg version="1.1" xmlns="http://www.w3.org/2000/svg" viewBox="0 0 1000 880">
    <path id="afro" d="M48.165,0v0.1l-0.063,0.001c-0.871,0.029-1.602,0.671-1.739,1.526l-0.068,0.426L46.17,1.64 c-0.231-0.756-0.947-1.285-1.742-1.285c-0.063,0-0.127,0.003-0.191,0.01c-0.867,0.09-1.552,0.781-1.628,1.644l-0.038,0.431 l-0.155-0.403c-0.268-0.697-0.951-1.165-1.7-1.165c-0.106,0-0.213,0.009-0.318,0.028c-0.859,0.15-1.493,0.889-1.507,1.755 l-0.007,0.433L38.7,2.694c-0.298-0.636-0.946-1.047-1.651-1.047c-0.149,0-0.299,0.018-0.445,0.055 c-0.847,0.211-1.425,0.993-1.376,1.859l0.025,0.433l-0.212-0.378c-0.321-0.574-0.931-0.931-1.592-0.931 c-0.193,0-0.385,0.031-0.571,0.092c-0.829,0.272-1.35,1.094-1.237,1.955l0.056,0.43L31.458,4.8 c-0.338-0.512-0.908-0.818-1.525-0.818c-0.239,0-0.473,0.046-0.696,0.138c-0.808,0.332-1.265,1.191-1.089,2.041l0.088,0.425 l-0.266-0.344C27.63,5.8,27.089,5.535,26.525,5.535c-0.286,0-0.561,0.065-0.819,0.194c-0.781,0.392-1.173,1.282-0.932,2.118 l0.121,0.418l-0.291-0.323c-0.345-0.383-0.841-0.603-1.36-0.603c-0.33,0-0.655,0.09-0.939,0.261 c-0.749,0.45-1.072,1.368-0.767,2.183l0.153,0.408l-0.315-0.301c-0.341-0.325-0.789-0.503-1.263-0.503 c-0.381,0-0.746,0.117-1.057,0.338c-0.713,0.506-0.963,1.447-0.594,2.237l0.185,0.395l-0.338-0.275 c-0.324-0.264-0.735-0.409-1.156-0.409c-0.428,0-0.844,0.151-1.172,0.426c-0.673,0.563-0.845,1.524-0.41,2.284l0.221,0.385 l-0.365-0.253c-0.307-0.213-0.668-0.326-1.044-0.326c-0.483,0-0.939,0.186-1.282,0.525c-0.625,0.616-0.718,1.588-0.222,2.31 l0.251,0.365l-0.383-0.222c-0.277-0.16-0.593-0.245-0.915-0.245c-0.534,0-1.04,0.232-1.386,0.635 c-0.572,0.666-0.583,1.642-0.027,2.321l0.28,0.341l-0.4-0.187c-0.244-0.115-0.505-0.173-0.776-0.173 c-0.588,0-1.142,0.283-1.483,0.758c-0.512,0.712-0.439,1.686,0.174,2.315l0.307,0.315l-0.413-0.151 c-0.202-0.074-0.413-0.111-0.628-0.111c-0.643,0-1.246,0.342-1.572,0.892c-0.447,0.755-0.288,1.718,0.378,2.29l0.332,0.285 l-0.423-0.113c-0.153-0.041-0.312-0.062-0.47-0.062c-0.702,0-1.349,0.407-1.649,1.037c-0.376,0.792-0.13,1.737,0.585,2.247 l0.354,0.253L4.585,29.74c-0.101-0.017-0.203-0.026-0.305-0.026c-0.764,0-1.452,0.479-1.713,1.193 c-0.301,0.822,0.032,1.74,0.79,2.182l0.373,0.218l-0.431-0.032c-0.045-0.003-0.089-0.005-0.133-0.005 c-0.83,0-1.555,0.558-1.764,1.356c-0.222,0.849,0.198,1.732,0.998,2.1l0.396,0.182l-0.436,0.009 c-0.882,0.018-1.623,0.659-1.763,1.525c-0.139,0.866,0.363,1.705,1.194,1.996l0.411,0.144l-0.432,0.05 c-0.876,0.101-1.551,0.81-1.607,1.685c-0.056,0.876,0.526,1.665,1.383,1.874l0.427,0.104l-0.43,0.091 c-0.864,0.182-1.47,0.951-1.443,1.829c0.028,0.877,0.681,1.607,1.554,1.736l0.433,0.064l-0.418,0.131 c-0.842,0.263-1.372,1.086-1.261,1.957c0.112,0.872,0.834,1.537,1.717,1.581l0.44,0.022l-0.407,0.17 c-0.815,0.341-1.265,1.211-1.07,2.069c0.189,0.832,0.92,1.413,1.777,1.413c0.027,0,0.055-0.001,0.082-0.002l0.439-0.02 l-0.387,0.208c-0.777,0.417-1.142,1.325-0.866,2.16c0.246,0.746,0.942,1.247,1.732,1.247c0.084,0,0.169-0.006,0.252-0.017 l0.434-0.06l-0.365,0.243c-0.733,0.488-1.01,1.425-0.658,2.23c0.29,0.661,0.946,1.089,1.672,1.089c0.14,0,0.28-0.016,0.416-0.048 l0.426-0.1l-0.34,0.275c-0.684,0.552-0.872,1.51-0.448,2.278c0.32,0.58,0.933,0.94,1.599,0.94c0.195,0,0.388-0.031,0.573-0.092 l0.414-0.137l-0.313,0.304c-0.63,0.611-0.731,1.581-0.24,2.307c0.339,0.502,0.905,0.802,1.514,0.802 c0.25,0,0.494-0.05,0.723-0.149l0.4-0.172l-0.285,0.33c-0.572,0.662-0.588,1.637-0.037,2.317c0.348,0.429,0.865,0.676,1.42,0.676 c0.301,0,0.599-0.075,0.863-0.216l0.383-0.205l-0.255,0.352c-0.512,0.707-0.445,1.679,0.161,2.31 c0.347,0.362,0.815,0.561,1.318,0.561c0.355,0,0.698-0.101,0.994-0.293l0.365-0.236l-0.225,0.372 c-0.451,0.746-0.303,1.708,0.351,2.287c0.334,0.295,0.764,0.458,1.21,0.458c0.402,0,0.798-0.134,1.115-0.377l0.344-0.264 L17.456,77.1c-0.389,0.779-0.164,1.726,0.535,2.251c0.319,0.24,0.698,0.366,1.097,0.366c0.456,0,0.892-0.167,1.228-0.471 l0.323-0.293l-0.164,0.404c-0.327,0.807-0.029,1.734,0.709,2.203c0.294,0.187,0.633,0.286,0.98,0.286 c0.502,0,0.986-0.207,1.329-0.569l0.3-0.316l-0.132,0.415c-0.263,0.829,0.106,1.73,0.877,2.141 c0.264,0.141,0.562,0.216,0.86,0.216c0.555,0,1.072-0.245,1.419-0.673l0.275-0.338l-0.1,0.424 c-0.199,0.846,0.237,1.716,1.036,2.069c0.235,0.104,0.483,0.156,0.738,0.156c0.599,0,1.159-0.292,1.499-0.78l0.248-0.356 l-0.067,0.429c-0.134,0.858,0.365,1.692,1.187,1.985c0.198,0.071,0.405,0.106,0.613,0.106c0.72,0,1.374-0.423,1.666-1.079 l0.361-0.81l-0.171,0.87c-0.023,0.117-0.035,0.235-0.035,0.35c0,1,0.818,1.814,1.824,1.814c1.006,0,1.824-0.814,1.824-1.814 c0-1-0.818-1.814-1.824-1.814c-0.24,0-0.474,0.046-0.696,0.138l-0.32,0.132l0.201-0.282c0.444-0.624,0.446-1.463,0.006-2.088 c-0.34-0.483-0.898-0.771-1.493-0.771c-0.168,0-0.336,0.023-0.498,0.069l-0.334,0.094l0.233-0.258 c0.52-0.575,0.617-1.415,0.241-2.09c-0.321-0.576-0.932-0.934-1.596-0.934c-0.108,0-0.217,0.01-0.324,0.029l-0.343,0.062 l0.258-0.234c0.579-0.525,0.756-1.357,0.441-2.07c-0.291-0.657-0.946-1.082-1.67-1.082c-0.056,0-0.113,0.003-0.17,0.008 l-0.348,0.032l0.278-0.212c0.626-0.476,0.873-1.293,0.615-2.033c-0.254-0.729-0.947-1.219-1.723-1.219l-0.029,0l-0.35,0.005 l0.294-0.19c0.663-0.427,0.973-1.225,0.772-1.984c-0.202-0.76-0.867-1.301-1.657-1.347l-0.349-0.02l0.307-0.167 c0.693-0.378,1.061-1.151,0.916-1.923c-0.145-0.772-0.768-1.36-1.552-1.464l-0.347-0.046l0.319-0.144 c0.718-0.325,1.143-1.067,1.058-1.847c-0.086-0.778-0.66-1.411-1.43-1.575l-0.342-0.073l0.329-0.119 c0.739-0.266,1.222-0.97,1.202-1.75c-0.02-0.774-0.533-1.45-1.276-1.683l-0.332-0.104l0.337-0.088 c0.749-0.196,1.294-0.842,1.355-1.608c0.06-0.75-0.361-1.468-1.048-1.786l-0.313-0.145l0.342-0.045 c0.755-0.099,1.357-0.637,1.536-1.37c0.172-0.709-0.097-1.447-0.685-1.882l-0.269-0.199l0.334,0.019 c0.034,0.002,0.069,0.003,0.103,0.003c0.689,0,1.312-0.378,1.625-0.987c0.318-0.618,0.248-1.376-0.178-1.929l-0.201-0.261 l0.313,0.106c0.19,0.064,0.389,0.097,0.591,0.097c0.492,0,0.952-0.192,1.297-0.54c0.49-0.495,0.652-1.239,0.411-1.895l-0.114-0.31 l0.267,0.195c0.313,0.229,0.698,0.355,1.086,0.355c0.305,0,0.608-0.078,0.877-0.226c0.652-0.358,1.016-1.065,0.929-1.801 l-0.041-0.349l0.219,0.275c0.349,0.438,0.87,0.69,1.43,0.69c0.518,0,1.015-0.222,1.362-0.61l0.344-0.385l-0.176,0.485 c-0.307,0.848,0.049,1.776,0.845,2.205c0.266,0.144,0.566,0.22,0.866,0.22c0.567,0,1.11-0.267,1.452-0.715l0.313-0.409 l-0.137,0.496c-0.239,0.868,0.186,1.764,1.011,2.132c0.236,0.105,0.486,0.159,0.743,0.159c0.621,0,1.193-0.309,1.53-0.826 l0.281-0.431l-0.099,0.504c-0.173,0.882,0.318,1.745,1.168,2.05c0.2,0.072,0.408,0.108,0.619,0.108 c0.666,0,1.278-0.361,1.598-0.941l0.248-0.45l-0.061,0.51c-0.107,0.892,0.447,1.716,1.317,1.959 c0.161,0.045,0.327,0.068,0.493,0.068c0.71,0,1.36-0.416,1.656-1.059l0.214-0.466l-0.023,0.513 c-0.041,0.897,0.571,1.678,1.456,1.858c0.121,0.024,0.244,0.037,0.365,0.037c0.756,0,1.441-0.474,1.705-1.18l0.18-0.48 l0.014,0.513c0.024,0.897,0.691,1.633,1.586,1.748c0.08,0.01,0.159,0.015,0.237,0.015c0.801,0,1.519-0.535,1.745-1.302 l0.145-0.492l0.05,0.51c0.088,0.893,0.805,1.579,1.706,1.632c0.036,0.002,0.073,0.003,0.109,0.003c0.85,0,1.598-0.6,1.778-1.428 l0.11-0.506l0.086,0.51c0.148,0.877,0.903,1.513,1.796,1.513c0.923-0.01,1.673-0.662,1.803-1.552l0.075-0.513l0.121,0.504 c0.197,0.818,0.925,1.39,1.769,1.39c0.049,0,0.099-0.002,0.149-0.006c0.895-0.072,1.613-0.798,1.671-1.69l0.035-0.544l0.16,0.521 c0.22,0.714,0.872,1.227,1.623,1.277l0.268,0.018l-0.215,0.162c-0.559,0.422-0.824,1.109-0.689,1.792 c0.136,0.692,0.67,1.247,1.361,1.413l0.262,0.063l-0.24,0.123c-0.639,0.327-1.027,0.998-0.989,1.709 c0.039,0.724,0.506,1.353,1.19,1.605l0.253,0.093l-0.253,0.095c-0.686,0.257-1.15,0.893-1.181,1.621 c-0.031,0.732,0.38,1.407,1.047,1.719l0.245,0.114l-0.26,0.073c-0.711,0.198-1.229,0.797-1.319,1.526 c-0.09,0.731,0.268,1.437,0.913,1.8l0.236,0.133l-0.266,0.053c-0.727,0.144-1.29,0.704-1.434,1.427 c-0.144,0.723,0.162,1.454,0.78,1.863l0.226,0.149l-0.269,0.033c-0.736,0.091-1.338,0.61-1.534,1.321 c-0.195,0.71,0.057,1.461,0.642,1.912l0.214,0.165l-0.27,0.014c-0.74,0.038-1.378,0.511-1.625,1.205 c-0.247,0.692-0.053,1.457,0.494,1.951l0.2,0.181l-0.27-0.007l-0.044-0.001c-0.719,0-1.373,0.421-1.666,1.073 c-0.3,0.666-0.171,1.442,0.33,1.977l0.184,0.197l-0.268-0.029c-0.065-0.007-0.131-0.011-0.196-0.011 c-0.66,0-1.271,0.356-1.593,0.928c-0.356,0.632-0.3,1.413,0.144,1.989l0.164,0.213l-0.264-0.054 c-0.121-0.025-0.246-0.038-0.37-0.038c-0.593,0-1.15,0.287-1.491,0.768c-0.414,0.584-0.444,1.359-0.075,1.974l0.137,0.229 l-0.254-0.083c-0.185-0.06-0.376-0.091-0.567-0.091c-1.006,0-1.824,0.814-1.824,1.814c0,1,0.818,1.814,1.824,1.814 c1.006,0,1.824-0.814,1.824-1.814c0-0.049-0.004-0.098-0.008-0.146l-0.035-0.434l0.221,0.376c0.325,0.554,0.928,0.898,1.574,0.898 c0.208,0,0.413-0.035,0.611-0.105c0.823-0.292,1.324-1.126,1.19-1.984l-0.067-0.43l0.248,0.357c0.34,0.49,0.901,0.783,1.501,0.783 c0.254,0,0.501-0.052,0.735-0.155c0.801-0.352,1.238-1.223,1.038-2.07l-0.101-0.427l0.276,0.341 c0.348,0.43,0.866,0.677,1.423,0.677c0.297,0,0.594-0.074,0.857-0.215c0.773-0.411,1.142-1.312,0.879-2.143l-0.133-0.419 l0.301,0.32c0.343,0.365,0.829,0.574,1.333,0.574c0.346,0,0.684-0.098,0.977-0.284c0.74-0.469,1.039-1.396,0.711-2.205 l-0.165-0.408l0.325,0.296c0.337,0.306,0.774,0.475,1.233,0.475c0.397,0,0.776-0.126,1.094-0.365 c0.701-0.525,0.926-1.474,0.535-2.255l-0.197-0.394l0.348,0.27c0.318,0.247,0.717,0.383,1.122,0.383 c0.445,0,0.874-0.162,1.208-0.456c0.657-0.58,0.805-1.544,0.351-2.291l-0.228-0.377l0.369,0.241 c0.297,0.194,0.644,0.297,1.001,0.297c0.502,0,0.969-0.198,1.316-0.559c0.608-0.632,0.676-1.605,0.161-2.314l-0.259-0.356 l0.387,0.21c0.266,0.144,0.567,0.22,0.87,0.22c0.554,0,1.071-0.245,1.418-0.673c0.553-0.681,0.538-1.657-0.036-2.32l-0.288-0.333 l0.403,0.176c0.231,0.101,0.476,0.151,0.729,0.151c0.608,0,1.174-0.299,1.513-0.8c0.492-0.726,0.391-1.697-0.239-2.309 l-0.315-0.306l0.416,0.139c0.187,0.062,0.381,0.094,0.578,0.094c0.665,0,1.277-0.359,1.598-0.938 c0.425-0.767,0.238-1.726-0.445-2.279l-0.34-0.275l0.426,0.1c0.137,0.032,0.278,0.049,0.419,0.049 c0.725,0,1.381-0.426,1.671-1.086c0.353-0.803,0.079-1.74-0.652-2.229l-0.363-0.242l0.432,0.06 c0.083,0.012,0.168,0.018,0.252,0.018c0.789,0,1.484-0.5,1.731-1.244c0.276-0.832-0.085-1.74-0.858-2.159l-0.381-0.207 l0.433,0.019c0.027,0.001,0.053,0.002,0.08,0.002c0.856,0,1.587-0.58,1.777-1.41c0.196-0.856-0.252-1.727-1.065-2.07l-0.404-0.171 l0.438-0.021c0.882-0.043,1.604-0.707,1.717-1.578c0.113-0.869-0.415-1.693-1.255-1.958l-0.415-0.131l0.43-0.063 c0.872-0.128,1.526-0.857,1.555-1.733c0.029-0.877-0.576-1.647-1.438-1.831l-0.428-0.091l0.425-0.104 c0.857-0.209,1.439-0.996,1.384-1.872c-0.054-0.875-0.729-1.585-1.605-1.688l-0.432-0.051l0.411-0.143 c0.832-0.289,1.336-1.128,1.198-1.994c-0.138-0.866-0.878-1.509-1.76-1.528l-0.436-0.009l0.396-0.182 c0.801-0.367,1.222-1.25,1.002-2.099c-0.208-0.8-0.933-1.359-1.764-1.359c-0.046,0-0.092,0.002-0.138,0.005l-0.439,0.033 l0.382-0.22c0.764-0.44,1.101-1.359,0.801-2.185c-0.26-0.715-0.949-1.195-1.714-1.195c-0.102,0-0.204,0.009-0.305,0.026 l-0.432,0.073l0.357-0.253c0.718-0.509,0.966-1.454,0.59-2.247c-0.299-0.632-0.947-1.04-1.65-1.04 c-0.157,0-0.314,0.02-0.466,0.061l-0.421,0.111l0.331-0.284c0.666-0.572,0.826-1.534,0.38-2.289 c-0.326-0.552-0.929-0.894-1.573-0.895c-0.212,0-0.421,0.036-0.62,0.109l-0.408,0.147l0.303-0.311 c0.61-0.628,0.683-1.6,0.173-2.311c-0.341-0.476-0.896-0.76-1.485-0.76c-0.267,0-0.525,0.057-0.766,0.168l-0.393,0.181 l0.273-0.335c0.552-0.677,0.539-1.651-0.029-2.315c-0.347-0.405-0.853-0.638-1.389-0.638c-0.317,0-0.629,0.082-0.903,0.238 l-0.375,0.213l0.243-0.356c0.491-0.72,0.396-1.688-0.224-2.301c-0.344-0.34-0.8-0.527-1.284-0.527 c-0.373,0-0.731,0.111-1.036,0.32l-0.36,0.247l0.216-0.379c0.433-0.758,0.26-1.716-0.41-2.279 c-0.328-0.276-0.745-0.427-1.174-0.427c-0.42,0-0.83,0.145-1.153,0.407l-0.339,0.275l0.185-0.395 c0.37-0.789,0.121-1.73-0.59-2.238c-0.311-0.222-0.678-0.339-1.06-0.339c-0.473,0-0.921,0.178-1.261,0.501l-0.316,0.3l0.153-0.408 c0.306-0.815-0.015-1.733-0.764-2.184c-0.285-0.172-0.611-0.262-0.942-0.262c-0.518,0-1.013,0.219-1.358,0.601L75.172,8.3 l0.121-0.418c0.242-0.835-0.148-1.726-0.929-2.119c-0.258-0.13-0.534-0.196-0.821-0.196c-0.563,0-1.103,0.264-1.446,0.706 l-0.266,0.343l0.089-0.425c0.178-0.85-0.279-1.709-1.086-2.043c-0.223-0.092-0.458-0.139-0.698-0.139 c-0.616,0-1.185,0.305-1.523,0.816l-0.24,0.362l0.057-0.43c0.114-0.86-0.405-1.683-1.234-1.957 c-0.186-0.061-0.379-0.093-0.574-0.093c-0.66,0-1.269,0.356-1.591,0.928l-0.212,0.378l0.025-0.432 c0.05-0.866-0.527-1.648-1.374-1.861c-0.147-0.037-0.298-0.056-0.448-0.056c-0.704,0-1.351,0.41-1.65,1.044l-0.184,0.391 l-0.006-0.433c-0.013-0.867-0.645-1.606-1.504-1.757c-0.106-0.019-0.214-0.028-0.321-0.028c-0.748,0-1.431,0.467-1.699,1.163 l-0.156,0.403l-0.037-0.43c-0.075-0.863-0.759-1.555-1.625-1.646c-0.065-0.007-0.129-0.01-0.193-0.01 c-0.793,0-1.509,0.527-1.741,1.282l-0.127,0.412l-0.068-0.426c-0.136-0.855-0.866-1.497-1.737-1.528l-0.065-0.001 c-0.854,0-1.584,0.578-1.775,1.405l-0.098,0.422l-0.097-0.422C49.75,0.679,49.02,0.1,48.165,0.1V0 M48.165,0L48.165,0 c0.908,0,1.676,0.63,1.873,1.485c0.198-0.854,0.966-1.482,1.873-1.482c0.023,0,0.046,0,0.069,0.001v0 c0.936,0.033,1.691,0.725,1.832,1.612c0.244-0.796,0.988-1.353,1.837-1.353c0.067,0,0.135,0.004,0.204,0.011 c0.932,0.098,1.637,0.841,1.715,1.737c0.284-0.736,0.999-1.227,1.793-1.227c0.111,0,0.225,0.01,0.338,0.03h0 c0.923,0.163,1.573,0.955,1.587,1.854c0.316-0.673,1-1.102,1.74-1.102c0.156,0,0.314,0.019,0.472,0.059 c0.909,0.228,1.501,1.066,1.449,1.964c0.342-0.608,0.99-0.98,1.678-0.979c0.2,0,0.404,0.031,0.605,0.098 c0.891,0.294,1.42,1.172,1.302,2.065c0.359-0.543,0.969-0.86,1.607-0.86c0.246,0,0.495,0.047,0.736,0.147 c0.867,0.358,1.33,1.274,1.145,2.156c0.369-0.477,0.938-0.745,1.525-0.745c0.292,0,0.588,0.066,0.866,0.206l0,0 c0.838,0.422,1.231,1.37,0.98,2.236c0.371-0.411,0.896-0.634,1.433-0.634c0.339,0,0.682,0.089,0.993,0.277 c0.804,0.484,1.123,1.46,0.806,2.305c0.365-0.347,0.844-0.529,1.33-0.529c0.387,0,0.779,0.116,1.118,0.358v0 c0.764,0.545,1.006,1.544,0.623,2.362c0.35-0.284,0.782-0.43,1.216-0.43c0.438,0,0.878,0.148,1.238,0.451h0 c0.719,0.604,0.88,1.619,0.432,2.405c0.328-0.225,0.71-0.338,1.092-0.338c0.49,0,0.979,0.185,1.354,0.556 c0.667,0.659,0.745,1.682,0.237,2.429c0.296-0.168,0.625-0.251,0.952-0.251c0.544,0,1.084,0.228,1.464,0.673 c0.61,0.713,0.602,1.741,0.03,2.443c0.258-0.119,0.534-0.177,0.808-0.177c0.6,0,1.192,0.279,1.567,0.802 c0.547,0.763,0.449,1.788-0.183,2.439c0.214-0.077,0.435-0.114,0.654-0.114c0.659,0,1.301,0.337,1.659,0.944 c0.478,0.809,0.288,1.824-0.401,2.416c0.163-0.043,0.328-0.064,0.492-0.064c0.721,0,1.413,0.405,1.74,1.097 c0.403,0.85,0.12,1.845-0.623,2.372c0.107-0.018,0.215-0.027,0.321-0.027c0.787,0,1.525,0.483,1.808,1.261 c0.322,0.885-0.054,1.85-0.845,2.306c0.049-0.004,0.097-0.005,0.145-0.005c0.856,0,1.637,0.571,1.861,1.434 c0.236,0.91-0.228,1.835-1.057,2.215c0.913,0.02,1.709,0.684,1.857,1.612h0c0.148,0.928-0.402,1.805-1.264,2.104 c0.906,0.106,1.635,0.843,1.693,1.781h0c0.058,0.938-0.574,1.759-1.461,1.975c0.892,0.191,1.548,0.993,1.517,1.932 c-0.031,0.939-0.738,1.696-1.64,1.829c0.87,0.275,1.445,1.135,1.324,2.067h0c-0.121,0.933-0.899,1.62-1.811,1.665 c0.841,0.355,1.333,1.267,1.123,2.184c-0.203,0.888-0.996,1.488-1.874,1.488c-0.028,0-0.056-0.001-0.084-0.002 c0.801,0.434,1.201,1.386,0.906,2.278c-0.267,0.804-1.018,1.313-1.826,1.313c-0.088,0-0.177-0.006-0.266-0.018 c0.757,0.506,1.067,1.492,0.688,2.353c-0.316,0.719-1.022,1.146-1.763,1.146c-0.147,0-0.295-0.017-0.442-0.051 c0.707,0.573,0.925,1.583,0.469,2.405l0,0c-0.35,0.632-1.007,0.989-1.685,0.989c-0.204,0-0.41-0.032-0.61-0.099 c0.653,0.633,0.779,1.658,0.252,2.437c-0.371,0.548-0.978,0.844-1.596,0.844c-0.26,0-0.522-0.052-0.769-0.16 c0.594,0.687,0.631,1.718,0.038,2.448c-0.38,0.468-0.935,0.71-1.496,0.71c-0.314,0-0.63-0.076-0.918-0.232 c0.533,0.734,0.482,1.764-0.17,2.442v0c-0.378,0.392-0.882,0.59-1.388,0.59c-0.368,0-0.736-0.104-1.056-0.313 c0.47,0.775,0.334,1.796-0.371,2.418c-0.366,0.323-0.821,0.481-1.274,0.481c-0.42,0-0.839-0.136-1.183-0.404 c0.405,0.81,0.188,1.816-0.564,2.38v0c-0.346,0.259-0.752,0.385-1.154,0.385c-0.471,0-0.938-0.172-1.3-0.501 c0.34,0.838,0.044,1.824-0.75,2.327c-0.32,0.203-0.678,0.3-1.031,0.3c-0.522,0-1.036-0.212-1.406-0.605 c0.273,0.861-0.097,1.821-0.927,2.262c-0.289,0.153-0.599,0.226-0.904,0.226c-0.573,0-1.13-0.256-1.501-0.714 c0.207,0.879-0.235,1.807-1.095,2.185c-0.253,0.111-0.516,0.163-0.775,0.163c-0.622,0-1.221-0.303-1.584-0.826 c0.139,0.89-0.371,1.781-1.256,2.094v0c-0.213,0.075-0.43,0.111-0.644,0.111c-0.675,0-1.313-0.356-1.66-0.947 c0.004,0.051,0.008,0.102,0.008,0.154c0,1.057-0.861,1.914-1.924,1.914c-1.062,0-1.924-0.857-1.924-1.914 c0-1.057,0.861-1.914,1.924-1.914c0.209,0,0.41,0.034,0.598,0.096c-0.377-0.629-0.372-1.446,0.08-2.083 c0.375-0.528,0.969-0.81,1.573-0.81c0.13,0,0.261,0.013,0.391,0.04c-0.453-0.588-0.538-1.411-0.151-2.099 c0.353-0.626,1.006-0.979,1.68-0.979c0.069,0,0.138,0.004,0.207,0.011c-0.511-0.546-0.673-1.363-0.348-2.086 c0.32-0.711,1.022-1.132,1.757-1.132c0.015,0,0.031,0,0.047,0.001c-0.558-0.503-0.789-1.309-0.522-2.059 c0.268-0.752,0.96-1.232,1.714-1.271c-0.597-0.46-0.89-1.248-0.678-2.018c0.212-0.77,0.868-1.3,1.618-1.394 c-0.629-0.416-0.979-1.182-0.823-1.965c0.156-0.783,0.772-1.359,1.513-1.505c-0.657-0.37-1.061-1.107-0.963-1.899 c0.098-0.79,0.666-1.408,1.392-1.61c-0.681-0.318-1.139-1.02-1.105-1.814c0.034-0.791,0.545-1.448,1.246-1.71 c-0.699-0.257-1.213-0.907-1.256-1.693c-0.042-0.777,0.39-1.469,1.043-1.804c-0.707-0.171-1.287-0.734-1.436-1.491h0 c-0.146-0.741,0.161-1.464,0.727-1.891c-0.81-0.053-1.483-0.602-1.712-1.347c-0.06,0.933-0.798,1.705-1.763,1.783 c-0.053,0.004-0.105,0.006-0.157,0.006c-0.892,0-1.661-0.614-1.866-1.466c-0.134,0.917-0.92,1.627-1.881,1.637 c-0.007,0-0.014,0-0.021,0c-0.951,0-1.742-0.689-1.895-1.596c-0.19,0.869-0.966,1.506-1.876,1.506 c-0.038,0-0.076-0.001-0.115-0.003c-0.958-0.056-1.709-0.801-1.799-1.722c-0.239,0.81-0.989,1.373-1.841,1.373 c-0.083,0-0.166-0.005-0.25-0.016c-0.952-0.123-1.648-0.919-1.673-1.845c-0.28,0.748-1.002,1.245-1.799,1.245 c-0.127,0-0.256-0.013-0.385-0.039c-0.941-0.191-1.578-1.035-1.536-1.96c-0.314,0.685-1.004,1.118-1.747,1.118 c-0.172,0-0.346-0.023-0.52-0.071c-0.925-0.258-1.499-1.147-1.389-2.067c-0.341,0.619-0.994,0.993-1.686,0.993 c-0.217,0-0.437-0.037-0.653-0.114c-0.904-0.325-1.411-1.254-1.232-2.164c-0.36,0.552-0.974,0.872-1.614,0.872 c-0.262,0-0.529-0.054-0.784-0.168h0c-0.878-0.391-1.314-1.356-1.067-2.25c-0.37,0.484-0.943,0.754-1.532,0.754 c-0.309,0-0.623-0.074-0.914-0.232c-0.846-0.457-1.208-1.453-0.891-2.327c-0.352,0.394-0.864,0.643-1.436,0.643 c-0.612,0-1.155-0.285-1.508-0.727c0.089,0.75-0.275,1.513-0.98,1.9c-0.294,0.161-0.612,0.238-0.925,0.238 c-0.41,0-0.813-0.131-1.145-0.374c0.247,0.673,0.104,1.456-0.434,2c-0.376,0.38-0.872,0.569-1.368,0.569 c-0.21,0-0.421-0.034-0.623-0.102c0.438,0.568,0.537,1.357,0.188,2.036v0c-0.34,0.662-1.015,1.041-1.714,1.041 c-0.036,0-0.072-0.001-0.108-0.003c0.601,0.444,0.91,1.217,0.723,1.987c-0.192,0.791-0.854,1.346-1.62,1.446 c0.707,0.328,1.171,1.066,1.105,1.885c-0.067,0.833-0.661,1.496-1.429,1.697c0.763,0.239,1.325,0.936,1.346,1.776h0 c0.022,0.845-0.511,1.574-1.268,1.847c0.788,0.168,1.416,0.821,1.509,1.662h0c0.093,0.843-0.38,1.616-1.116,1.949 c0.802,0.106,1.48,0.711,1.637,1.545h0c0.157,0.834-0.257,1.642-0.967,2.029c0.808,0.047,1.53,0.601,1.747,1.421 c0.218,0.821-0.135,1.656-0.814,2.094c0.01,0,0.021,0,0.031,0c0.797,0,1.542,0.495,1.818,1.286h0 c0.279,0.8-0.008,1.658-0.649,2.145c0.06-0.006,0.119-0.008,0.179-0.008c0.739,0,1.444,0.425,1.761,1.142 c0.342,0.772,0.128,1.646-0.465,2.184c0.114-0.02,0.228-0.03,0.341-0.03c0.677,0,1.333,0.355,1.684,0.985 c0.408,0.733,0.279,1.616-0.254,2.206c0.172-0.049,0.349-0.072,0.525-0.072c0.605,0,1.201,0.283,1.575,0.813 c0.48,0.68,0.45,1.562-0.006,2.203c0.226-0.093,0.474-0.145,0.734-0.145c1.062,0,1.924,0.857,1.924,1.914 c0,1.057-0.861,1.914-1.924,1.914s-1.924-0.857-1.924-1.914c0-0.126,0.013-0.25,0.037-0.369c-0.314,0.705-1.013,1.138-1.758,1.138 c-0.215,0-0.433-0.036-0.647-0.112c-0.884-0.314-1.392-1.205-1.253-2.095c-0.363,0.522-0.96,0.823-1.581,0.823 c-0.26,0-0.525-0.053-0.778-0.165c-0.859-0.379-1.299-1.306-1.093-2.183c-0.371,0.456-0.926,0.71-1.497,0.71 c-0.307,0-0.618-0.073-0.907-0.228c-0.828-0.442-1.198-1.4-0.925-2.26c-0.37,0.391-0.881,0.6-1.401,0.6 c-0.354,0-0.713-0.097-1.033-0.301c-0.792-0.504-1.087-1.488-0.748-2.325c-0.361,0.327-0.826,0.497-1.295,0.497 c-0.403,0-0.81-0.126-1.157-0.386c-0.75-0.564-0.967-1.567-0.564-2.375c-0.344,0.264-0.759,0.398-1.176,0.398 c-0.454,0-0.91-0.159-1.276-0.483v0c-0.703-0.622-0.838-1.64-0.371-2.414c-0.318,0.206-0.684,0.309-1.049,0.309 c-0.507,0-1.013-0.198-1.39-0.592c-0.65-0.677-0.701-1.705-0.169-2.438c-0.286,0.153-0.599,0.228-0.911,0.228 c-0.562,0-1.118-0.243-1.498-0.713c-0.591-0.73-0.554-1.759,0.039-2.445c-0.245,0.106-0.505,0.157-0.762,0.157 c-0.619,0-1.226-0.296-1.597-0.846h0c-0.526-0.779-0.398-1.802,0.254-2.435c-0.198,0.066-0.403,0.097-0.605,0.097 c-0.679,0-1.337-0.358-1.687-0.991c-0.455-0.823-0.235-1.833,0.473-2.404c-0.146,0.034-0.293,0.051-0.439,0.051 c-0.742,0-1.449-0.429-1.764-1.149c-0.377-0.862-0.065-1.848,0.694-2.353c-0.089,0.012-0.178,0.018-0.266,0.018 c-0.808,0-1.561-0.51-1.827-1.316c-0.295-0.894,0.109-1.848,0.914-2.279c-0.029,0.001-0.058,0.002-0.087,0.002 c-0.879,0-1.673-0.602-1.875-1.491v0c-0.209-0.918,0.286-1.83,1.129-2.183C1.208,51.739,0.43,51.05,0.31,50.116 c-0.119-0.933,0.459-1.793,1.33-2.065c-0.904-0.133-1.61-0.892-1.64-1.832c-0.03-0.94,0.628-1.742,1.522-1.93 c-0.887-0.217-1.519-1.039-1.459-1.978c0.06-0.938,0.789-1.673,1.696-1.778c-0.861-0.301-1.409-1.178-1.26-2.106 c0.15-0.928,0.947-1.591,1.859-1.609c-0.828-0.381-1.291-1.307-1.053-2.216c0.225-0.861,1.005-1.431,1.86-1.431 c0.047,0,0.094,0.002,0.14,0.005c-0.786-0.458-1.157-1.421-0.834-2.303h0c0.284-0.777,1.022-1.258,1.807-1.258 c0.107,0,0.214,0.009,0.322,0.027c-0.741-0.528-1.021-1.522-0.617-2.371c0.328-0.691,1.019-1.095,1.739-1.095 c0.165,0,0.332,0.021,0.496,0.065c-0.69-0.593-0.878-1.608-0.399-2.417c0.358-0.605,0.999-0.941,1.658-0.941 c0.222,0,0.446,0.038,0.662,0.117c-0.635-0.651-0.732-1.679-0.183-2.443h0c0.375-0.522,0.965-0.8,1.565-0.8 c0.278,0,0.558,0.06,0.819,0.182c-0.576-0.703-0.585-1.735,0.028-2.449h0c0.38-0.443,0.919-0.67,1.462-0.67 c0.332,0,0.666,0.085,0.965,0.258c-0.515-0.748-0.437-1.777,0.234-2.438c0.375-0.369,0.863-0.553,1.352-0.553 c0.386,0,0.771,0.115,1.101,0.343c-0.451-0.787-0.29-1.806,0.432-2.41c0.36-0.302,0.799-0.449,1.236-0.449 c0.435,0,0.868,0.146,1.219,0.432c-0.382-0.819-0.139-1.817,0.627-2.361c0.339-0.241,0.729-0.356,1.115-0.356 c0.486,0,0.967,0.183,1.332,0.531c-0.316-0.845,0.004-1.821,0.809-2.304c0.311-0.186,0.653-0.275,0.991-0.275 c0.537,0,1.064,0.224,1.435,0.637c-0.25-0.866,0.144-1.814,0.983-2.235c0.277-0.139,0.573-0.205,0.863-0.205 c0.588,0,1.158,0.269,1.527,0.747C27.868,5.3,28.332,4.385,29.2,4.028c0.24-0.099,0.489-0.146,0.734-0.146 c0.639,0,1.249,0.319,1.608,0.863c-0.117-0.893,0.414-1.771,1.305-2.063c0.2-0.066,0.403-0.097,0.602-0.097 c0.69,0,1.339,0.372,1.68,0.982c-0.051-0.898,0.542-1.735,1.452-1.962c0.157-0.039,0.314-0.058,0.469-0.058 c0.742,0,1.426,0.43,1.741,1.104c0.015-0.899,0.666-1.69,1.589-1.852c0.113-0.02,0.225-0.029,0.336-0.029 c0.795,0,1.511,0.492,1.794,1.229c0.079-0.895,0.785-1.638,1.717-1.734c0.068-0.007,0.135-0.01,0.201-0.01 c0.85,0,1.594,0.559,1.837,1.356c0.142-0.887,0.898-1.578,1.834-1.61C48.121,0,48.143,0,48.165,0z"/>
    <path id="glasses" d="M70.1,57.3c-0.929-1.038-5.594-1.778-10.024-1.778c-3.675,0-7.188,0.509-8.276,1.778 c-0.3,0.3-0.5,0.7-0.6,1c-0.4,0-0.8-0.1-1.2-0.1c-0.4,0-0.8,0-1.2,0.1c-0.1-0.3-0.3-0.7-0.6-1 c-1.088-1.269-4.602-1.778-8.276-1.778c-4.43,0-9.095,0.74-10.024,1.778c-1.9,2.2-0.4,6,1.8,8.5 c1.039,1.181,3.865,1.693,6.736,1.693c3.205,0,6.468-0.638,7.364-1.693c1.1-1.3,2.8-3.3,3.2-5.3c0.3,0,0.7-0.1,1-0.1s0.7,0,1,0.1 c0.4,2,2,4,3.2,5.3c0.949,1.055,4.237,1.693,7.454,1.693c2.882,0,5.707-0.511,6.746-1.693C70.6,63.3,72,59.5,70.1,57.3z  M68.325,65.734c-0.914,1.039-3.408,1.659-6.671,1.659c-3.411,0-6.514-0.698-7.38-1.661c-1.8-1.95-2.868-3.717-3.175-5.252 l-0.011-0.057l-0.055-0.018C50.716,60.3,50.302,60.3,50,60.3c-0.157,0-0.339,0.026-0.514,0.051C49.317,60.375,49.143,60.4,49,60.4 h-0.082l-0.016,0.08c-0.393,1.963-2.057,3.93-3.159,5.232l-0.019,0.023c-0.816,0.96-3.881,1.657-7.288,1.657 c-3.257,0-5.747-0.62-6.661-1.659c-2.264-2.573-3.609-6.273-1.801-8.367c0.861-0.962,5.324-1.745,9.949-1.745 c4.199,0,7.265,0.652,8.206,1.749c0.24,0.24,0.455,0.599,0.576,0.961l0.029,0.088l0.09-0.022C49.212,58.3,49.613,58.3,50,58.3 c0.194,0,0.394,0.025,0.588,0.049c0.2,0.025,0.406,0.051,0.612,0.051h0.072l0.023-0.068c0.121-0.362,0.336-0.721,0.581-0.966 c0.936-1.092,4.001-1.743,8.2-1.743c4.625,0,9.088,0.783,9.948,1.744c1.079,1.249,0.958,2.891,0.666,4.048 C70.324,62.867,69.462,64.442,68.325,65.734z"/>
    <path id="kanji_00" d="M85.3,49.8v0.3c-0.603,0.259-1.207,0.74-2.002,0.74c-0.127,0-0.26-0.012-0.398-0.04h-0.3 c-0.2-0.2-1.5-0.4-1.9-0.6c-0.3-0.1-0.9-0.5-1.3-0.7c-2.3-1.2-4.3-2.7-6.1-4.4c-0.7-0.7-1.3-1.4-2-2.1c-0.2-0.3-0.5-0.8-0.8-0.9 l-1.3,1c-0.3,0.2-0.7,0.2-1,0.5H68c-0.3,0.2-0.4,0.4-0.8,0.6c-0.085,0.042-0.165,0.058-0.243,0.058 c-0.214,0-0.416-0.115-0.664-0.115c-0.091,0-0.187,0.016-0.293,0.058c-0.6,0.2-1.2,0.6-1.9,0.7 c-0.141-0.071-0.183-0.141-0.336-0.141c-0.064,0-0.146,0.012-0.264,0.041c0.1,0,0.1,0,0.2,0.1c-0.7,0-2.6-0.5-3-0.9 c0-0.2-1.2-1-1.5-1.1l0.1-0.1c0.1,0.1,0,0.1,0.2,0.1c-0.1-0.3-0.3-0.5-0.5-0.7c0.6,0.3,1,0.3,1.6,0.6c0-0.1-0.1-0.1-0.1-0.2 c0.387,0.238,0.775,0.326,1.162,0.326c0.913,0,1.825-0.485,2.738-0.626h-0.2c0.2-0.1,0.5-0.1,0.7-0.1 c0.56-0.187,1.121-0.81,1.681-0.81c0.04,0,0.079,0.003,0.119,0.01v-0.1c0.6-0.4,1.1-0.8,1.6-1.3h-0.2v-0.1c1-0.3,0-1.6-0.4-2.2 c-1-1.9-2-4.2-3-6.2c-0.3,0-1.3,0.3-1.6,0.4c-0.472,0.139-1.068,0.208-1.695,0.208c-1.63,0-3.472-0.469-3.905-1.408 c1.2,0,2.3-0.9,3-1c0.1-0.1,0.1-0.2,0.2-0.3v0.1l1-0.4v-0.2h-0.2V29c-0.16,0-0.256,0.128-0.39,0.128 c-0.034,0-0.07-0.008-0.11-0.028c0.1,0,0.9-0.7,0.8-0.9l-0.1,0.1h-0.1v-0.1h-0.1l-0.1,0.2h0.1c0,0.1-0.1,0.1-0.1,0.2h-0.1v-0.1H61 v-0.1c0.2-0.1,0.1-0.1,0.3-0.1v-0.2c0.4-0.3,0.8-0.8,1-1.2l0.1,0.1v-0.1c0-0.4,0.2-0.3,0.4-0.6h-0.1L63,26l-0.6-3 c0.9,0,1.3,0.6,2,1c0-0.2,0.8-1.3,1-1.5c-0.1,0,0,0-0.1-0.1c0.1,0,0.1,0,0.1-0.1c0.1-0.6,0.8-1.3,1.1-1.9c0.6-1.4,1.5-3,1.9-4.7 c-0.8,0-4.6,0.5-4.9,0.8c-0.6,0.6-0.8,2.8-1,3.4c-0.1,0.4,0.1,0.9,0.1,1.1c0,0.3-0.5,0.8-0.4,1.1l-0.6,0.5 c-0.219,0.11-0.429,0.158-0.63,0.158c-1.453,0-2.443-2.544-2.97-3.158h-0.1c-0.524,1.497-1.44,2.602-2.79,2.602 c-0.454,0-0.957-0.125-1.51-0.402c-0.8-0.4-1.6-0.5-2.2-1c-0.1-0.1-0.4-0.1-0.5-0.1l-0.5-0.5 c-0.021-0.021-0.042-0.029-0.063-0.029c-0.058,0-0.115,0.058-0.173,0.058c-0.021,0-0.042-0.008-0.063-0.029 c-0.4-0.2-0.8-0.6-1-1.2c0.393-0.393,1.528-0.663,2.336-0.663c0.219,0,0.415,0.02,0.564,0.063c1.1-0.3,2.5-0.4,3.4-0.9 c0.2-0.1,1.7-0.5,1.7-0.7c0.1-0.2,0-0.4-0.1-0.6c-0.2-0.8-0.5-3-0.1-3.5H57c0.9,0.1,2.3,1.7,2.8,2.3c0.2,0.3,0.3,0.7,0.6,0.9 c0.9-0.2,1.9-0.5,2.8-0.7c0.2,0,0.7-0.1,1.1-0.2h0.2c1.4-0.1,3.1-0.4,4.4-0.5c0.3-1.1,0.8-2.3,1-3.3c0.2-0.6,0.1-1.6,0-2L69.8,9 c-0.1-0.5,0.2-0.7,0-1.3l0.3,0.2c0-0.1,0-0.2-0.1-0.3c0.1,0,0.1,0.1,0.2,0.1V7.4c0.3,0.1,0.5,0.4,0.7,0.7c0.1,0.1,0.3,0.1,0.4,0.2 c1,1.4,2.1,2.6,2.5,4.3c0.1,0.5-0.6,1.6-0.6,1.9h0.1c0.047,0.016,0.1,0.021,0.159,0.021c0.187,0,0.427-0.059,0.661-0.059 c0.17,0,0.337,0.031,0.479,0.137c0.4,0.2,0.8,0.3,1.2,0.5c0.7,0.3,2.3,1.5,2.6,2c0.2,0.3,0.3,0.6,0.5,0.9v0.4 c-0.2,0.3-0.5,0.8-0.8,1.1c-0.235,0.181-0.493,0.257-0.759,0.257c-1.208,0-2.595-1.565-2.841-2.057 c-0.187-0.28-0.723-0.91-1.119-0.91c-0.028,0-0.055,0.003-0.081,0.01c-0.1,0-1.4,0.5-1.5,0.5c-0.3,0.3-0.4,0.9-0.7,1.2 c-0.5,0.5-0.9,1.2-1.5,1.9l0.1,0.6c0,0.086-0.443,0.541-0.631,0.541c-0.031,0-0.055-0.012-0.069-0.041c-0.2,0.3-0.5,0.7-0.7,1h0.1 c-0.5,0.1-0.9,1-1.3,1.3H67c-0.1,0.6-0.2,0.6-0.9,1c0.1,0.1,0,0-0.1,0.1c0,0.1,0,0.1,0.1,0.2l0.1-0.1L66,25.3 c0.2,0.3,0.5,0.6,0.7,0.7l0.7-0.4c0.1-0.1,0.1-0.3,0.3-0.4c1.1-0.7,2.1-1,3.6-1.1c0.032-0.002,0.064-0.003,0.096-0.003 c1.479,0,3.153,2.218,0.804,2.903c0.1,0.1,0.1,0.1,0,0.3c-1.1,0.1-2.3,1.4-3.2,1.9c-0.3,0.2-1.3,0.4-1.4,0.6 c-0.2,0.5,0.3,1.3,0.4,1.9c0.1,0.8,1.3,4.5,2,5.1c0.6-1.5,1.5-3.1,2.1-4.6c0.3-0.7-0.1-1.7,0.1-2.1c0.7,0.2,1.2,0.8,1.6,1.1 c0.8,0.8,1.3,1.6,1.6,2.6c0.1,0.3-0.1,0.8-0.1,1.1l-0.2,0.3C75,36,74.5,36.7,74,37.3c0,0.1-0.1,0.2-0.1,0.3 c-0.5,0.6-1.3,1.4-1.6,2.2c1.6,1.9,3.6,3.4,5.6,4.9c0.5,0.3,1.3,0.7,1.7,1c0.3,0.2,0.6,0.2,0.7,0.4h0.1l0.1-1l-0.2-0.9 c0.1,0.1,0.1,0.2,0.2,0.3c-0.6-2.1-0.7-3.2-1.7-4.9l-0.4-0.8v0.1c-0.2-0.4-0.2-0.5-0.5-0.9h0.3 c0.082,0.245,0.102,0.423,0.214,0.589c0.039-0.039,0.062-0.059,0.086-0.059c0.025,0,0.052,0.023,0.099,0.07L78.3,38h0.1l1.4,2.1 c-0.1-0.9-1-1.8-1.4-2.8h0.1c0.1,0.4,1.3,1.6,1.7,2.2c0.8,1.3,1.7,2.5,2.8,3.8c0.1,0,0.1,0,0.2-0.1v0.1v0.1c0.1,0,0.1,0.1,0.2,0.1 v0.2c0.003-0.003,0.006-0.004,0.009-0.004c0.125,0,0.759,1.608,0.973,1.608c0.006,0,0.012-0.001,0.017-0.004 c0.08,0,0.096,0.128,0.15,0.128c0.014,0,0.03-0.008,0.05-0.028c0.3,0.4,0.1,1.1,0.7,1.3v-0.2h0.1c0.1,0.2,0.1,0.1,0.2,0.3 c0.1,0.4,0.2,0.9,0.4,1.3V48C86.2,48.3,85.5,49.7,85.3,49.8z M85.911,48.145c-0.173-0.345-0.271-0.756-0.359-1.119l-0.049-0.201 c-0.035-0.065-0.053-0.083-0.074-0.104c-0.01-0.01-0.019-0.02-0.029-0.031V46.7v0.139l-0.132-0.044 c-0.424-0.141-0.501-0.506-0.568-0.827c-0.034-0.161-0.066-0.315-0.136-0.441c-0.004,0-0.009,0.001-0.013,0.001 c-0.079,0-0.12-0.063-0.144-0.101c-0.005-0.007-0.011-0.017-0.016-0.024l-0.008,0.001c-0.158,0-0.304-0.242-0.69-1.021 c-0.099-0.2-0.218-0.439-0.287-0.547L83.3,43.941V43.7v-0.124c-0.032-0.017-0.054-0.039-0.071-0.055 C83.209,43.5,83.208,43.5,83.2,43.5h-0.1v-0.1v-0.008C83.073,43.398,83.042,43.4,83,43.4h-0.046l-0.03-0.035 c-1.158-1.368-2.05-2.58-2.809-3.812c-0.158-0.237-0.459-0.587-0.751-0.926c-0.137-0.159-0.272-0.316-0.396-0.465 c0.058,0.094,0.117,0.188,0.176,0.28c0.357,0.564,0.693,1.096,0.755,1.647l0.045,0.408l-0.228-0.342l-0.909-1.364l0.157,0.315 l-0.436-0.436c-0.011-0.011-0.02-0.02-0.028-0.027c-0.007,0.007-0.013,0.013-0.017,0.016l-0.029,0.028l0.033,0.067l0.4,0.8 c0.758,1.289,1,2.229,1.335,3.53c0.105,0.409,0.225,0.873,0.372,1.387l0.106,0.371l-0.201-0.201l0.097,0.436l0.003,0.016 l-0.002,0.016l-0.1,1L80.49,46.2H80.4h-0.1h-0.062l-0.028-0.055c-0.039-0.078-0.129-0.116-0.284-0.176 c-0.116-0.045-0.247-0.096-0.382-0.185c-0.258-0.193-0.678-0.426-1.083-0.65c-0.221-0.122-0.435-0.241-0.612-0.347 c-1.98-1.484-4.018-3.013-5.625-4.921l-0.038-0.045l0.021-0.055c0.246-0.657,0.824-1.317,1.289-1.848 c0.109-0.125,0.214-0.244,0.308-0.357c0.009-0.057,0.034-0.108,0.057-0.155C73.88,37.367,73.9,37.326,73.9,37.3v-0.036 l0.023-0.028c0.478-0.573,0.98-1.265,1.078-2.048l0.003-0.023l0.013-0.02l0.184-0.276c0.004-0.117,0.032-0.253,0.061-0.396 c0.046-0.225,0.097-0.481,0.044-0.641c-0.292-0.974-0.778-1.763-1.576-2.561c-0.1-0.073-0.216-0.177-0.34-0.288 c-0.319-0.285-0.679-0.605-1.128-0.759c-0.039,0.164-0.014,0.415,0.013,0.679c0.044,0.433,0.094,0.924-0.083,1.336 c-0.3,0.751-0.682,1.541-1.052,2.304c-0.368,0.76-0.748,1.547-1.047,2.294l-0.052,0.13l-0.106-0.091 c-0.745-0.639-1.936-4.376-2.034-5.164c-0.034-0.201-0.117-0.431-0.204-0.674c-0.163-0.452-0.332-0.919-0.189-1.276 c0.075-0.15,0.352-0.248,0.8-0.395c0.255-0.084,0.518-0.171,0.638-0.251c0.303-0.169,0.637-0.425,0.99-0.696 c0.685-0.526,1.459-1.121,2.201-1.214c0.022-0.045,0.039-0.082,0.04-0.095c0,0,0,0,0,0c-0.004,0-0.026-0.022-0.045-0.041 l-0.119-0.119l0.162-0.047c0.779-0.227,1.166-0.654,1.087-1.201c-0.108-0.76-1.032-1.506-1.864-1.506 c-0.03,0-0.059,0.001-0.089,0.003c-1.486,0.099-2.482,0.403-3.553,1.085c-0.103,0.052-0.137,0.127-0.177,0.214 c-0.027,0.06-0.056,0.122-0.106,0.172l-0.009,0.009l-0.012,0.007l-0.7,0.4l-0.047,0.027l-0.048-0.024 c-0.216-0.108-0.527-0.417-0.738-0.734L65.88,25.3l0.037-0.055l0.075-0.112C65.912,25.05,65.9,25.016,65.9,24.9v-0.041 l0.029-0.029c0.01-0.01,0.021-0.019,0.031-0.027l-0.024-0.024l0.114-0.065l0.182-0.103c0.531-0.299,0.586-0.33,0.669-0.826 l0.014-0.084H67h0.065c0.137-0.112,0.28-0.303,0.43-0.504c0.219-0.293,0.444-0.594,0.707-0.73l0.014-0.021 c0.101-0.151,0.226-0.327,0.352-0.503c0.124-0.174,0.249-0.348,0.348-0.497l0.096-0.143l0.069,0.138 c0.125-0.022,0.46-0.338,0.516-0.446l-0.096-0.577l-0.008-0.046l0.03-0.035c0.267-0.311,0.491-0.62,0.709-0.918 c0.265-0.363,0.515-0.707,0.796-0.988c0.137-0.137,0.235-0.357,0.329-0.57c0.102-0.23,0.208-0.467,0.371-0.63l0.029-0.029H71.8 c0.054-0.008,0.437-0.144,0.717-0.244c0.555-0.198,0.725-0.256,0.783-0.256c0.009-0.005,0.045-0.01,0.081-0.01 c0.464,0,1.025,0.689,1.202,0.954c0.255,0.509,1.628,2.012,2.757,2.012c0.26,0,0.495-0.079,0.698-0.236 c0.227-0.228,0.465-0.595,0.656-0.889c0.037-0.058,0.073-0.112,0.105-0.162v-0.34c-0.095-0.147-0.169-0.293-0.24-0.435 c-0.076-0.151-0.147-0.294-0.244-0.439c-0.297-0.495-1.885-1.676-2.556-1.964c-0.201-0.1-0.401-0.175-0.595-0.248 c-0.199-0.075-0.405-0.152-0.61-0.254c-0.122-0.089-0.255-0.127-0.435-0.127c-0.117,0-0.238,0.016-0.355,0.031 c-0.109,0.014-0.212,0.028-0.306,0.028c-0.067,0-0.125-0.007-0.174-0.021H73.2h-0.1v-0.1c0-0.132,0.091-0.343,0.241-0.677 c0.185-0.414,0.416-0.93,0.361-1.203c-0.319-1.356-1.092-2.39-1.911-3.484C71.6,8.88,71.408,8.623,71.219,8.358 c-0.023-0.021-0.085-0.041-0.15-0.063c-0.081-0.027-0.172-0.057-0.239-0.124C70.657,7.915,70.5,7.681,70.3,7.557V7.7v0.1h-0.1 c-0.001,0-0.002,0-0.003,0C70.2,7.835,70.2,7.869,70.2,7.9v0.187l-0.155-0.104l-0.087-0.058c0.033,0.224-0.003,0.394-0.035,0.548 c-0.032,0.154-0.063,0.3-0.026,0.495l0.094,0.188c0.11,0.429,0.214,1.451,0.005,2.076c-0.115,0.577-0.339,1.247-0.557,1.894 c-0.156,0.464-0.317,0.945-0.442,1.4l-0.019,0.068l-0.07,0.005c-0.62,0.048-1.319,0.139-2.06,0.237 c-0.79,0.104-1.608,0.211-2.341,0.263l-0.207,0c-0.367,0.095-0.886,0.2-1.1,0.2c-0.427,0.097-0.909,0.224-1.375,0.347 c-0.468,0.123-0.952,0.25-1.404,0.351l-0.042,0.009l-0.036-0.024c-0.222-0.148-0.341-0.386-0.456-0.616 c-0.056-0.111-0.108-0.217-0.172-0.312c-0.535-0.641-1.885-2.162-2.728-2.256l-0.037,0c-0.304,0.497-0.082,2.469,0.145,3.376 c0.094,0.184,0.21,0.414,0.1,0.652c-0.03,0.157-0.328,0.292-1.32,0.612c-0.196,0.063-0.381,0.123-0.433,0.149 c-0.602,0.335-1.427,0.494-2.224,0.647c-0.404,0.078-0.822,0.158-1.194,0.26l-0.027,0.007l-0.027-0.008 c-0.135-0.038-0.32-0.059-0.537-0.059c-0.743,0-1.808,0.241-2.22,0.592c0.176,0.481,0.512,0.873,0.929,1.082l0.015,0.007 l0.011,0.011c0-0.001,0.021-0.012,0.035-0.019c0.035-0.018,0.079-0.039,0.131-0.039c0.05,0,0.096,0.02,0.134,0.058l0.471,0.471 c0.197,0.002,0.422,0.022,0.529,0.129c0.346,0.288,0.781,0.442,1.24,0.605c0.303,0.107,0.617,0.218,0.934,0.377 c0.519,0.259,1.012,0.391,1.465,0.391c1.166,0,2.123-0.9,2.695-2.535l0.023-0.067H57.9H58h0.046l0.03,0.035 c0.14,0.163,0.307,0.45,0.501,0.783c0.544,0.932,1.366,2.341,2.392,2.341c0.193,0,0.39-0.05,0.586-0.148l0.534-0.448 c-0.024-0.194,0.103-0.415,0.225-0.63C62.406,21.272,62.5,21.106,62.5,21c0-0.054-0.02-0.148-0.044-0.256 c-0.053-0.243-0.126-0.576-0.053-0.868c0.06-0.18,0.119-0.502,0.189-0.875c0.167-0.898,0.395-2.129,0.838-2.572 c0.35-0.35,4.269-0.829,4.971-0.829h0.126l-0.029,0.123c-0.293,1.245-0.861,2.457-1.363,3.526 c-0.195,0.416-0.379,0.808-0.543,1.19c-0.121,0.242-0.301,0.496-0.476,0.742c-0.275,0.388-0.56,0.788-0.618,1.135 c0,0.033-0.002,0.061-0.008,0.084h0.15l-0.171,0.171c-0.221,0.221-0.958,1.262-0.971,1.43l-0.012,0.158l-0.138-0.072 c-0.218-0.125-0.406-0.267-0.588-0.405c-0.384-0.29-0.718-0.544-1.24-0.578l0.575,2.876l0.01,0.052l-0.038,0.038L62.941,26.2 h0.045l-0.104,0.155c-0.086,0.129-0.173,0.193-0.242,0.244C62.544,26.671,62.5,26.703,62.5,26.9V27v0.241l-0.171-0.171 l-0.005-0.005c-0.209,0.368-0.541,0.766-0.864,1.034H61.5h0.1h0.1v0.059l0.029-0.029l0.098-0.098l0.062,0.124 c0.038,0.076,0.02,0.173-0.056,0.296c-0.059,0.096-0.17,0.225-0.293,0.349h0.16h0.1v0.1v0.2v0.068l-0.063,0.025l-1,0.4 l-0.059,0.023c-0.025,0.048-0.055,0.101-0.108,0.154l-0.024,0.024l-0.033,0.005c-0.258,0.037-0.581,0.193-0.956,0.373 c-0.538,0.259-1.198,0.577-1.891,0.623c0.524,0.798,2.236,1.214,3.738,1.214c0.636,0,1.212-0.071,1.667-0.204 C63.257,31.742,64.36,31.4,64.7,31.4h0.062l0.028,0.055c0.429,0.858,0.865,1.786,1.287,2.684c0.561,1.195,1.142,2.431,1.712,3.514 l0.107,0.156c0.35,0.512,0.878,1.285,0.699,1.791c-0.044,0.125-0.127,0.225-0.247,0.3h0.194l-0.171,0.171 c-0.477,0.477-0.964,0.875-1.571,1.283V41.4v0.118l-0.116-0.019c-0.034-0.006-0.068-0.008-0.102-0.008 c-0.3,0-0.622,0.211-0.934,0.415c-0.232,0.152-0.472,0.309-0.715,0.39L64.916,42.3H64.9c-0.138,0-0.328,0-0.49,0.035l0.005,0.064 c-0.372,0.057-0.754,0.176-1.123,0.291c-0.532,0.165-1.081,0.336-1.63,0.336c-0.346,0-0.663-0.067-0.962-0.205v0.141l-0.145-0.072 c-0.292-0.146-0.531-0.218-0.784-0.294c-0.126-0.038-0.254-0.076-0.389-0.125c0.087,0.115,0.162,0.243,0.213,0.397L59.639,43 H59.61c0.443,0.261,1.083,0.708,1.178,0.946c0.329,0.297,1.621,0.688,2.461,0.814l0.226-0.057c0.121-0.03,0.213-0.044,0.288-0.044 c0.135,0,0.206,0.045,0.281,0.094c0.022,0.014,0.045,0.029,0.073,0.044c0.417-0.065,0.803-0.241,1.176-0.411 c0.231-0.105,0.45-0.205,0.675-0.28c0.104-0.042,0.212-0.063,0.325-0.063c0.141,0,0.269,0.034,0.382,0.064 c0.099,0.026,0.192,0.051,0.282,0.051c0.071,0,0.134-0.015,0.198-0.047c0.228-0.114,0.351-0.226,0.481-0.345 c0.089-0.081,0.182-0.165,0.308-0.249L67.97,43.5H68h0.16c0.185-0.171,0.396-0.244,0.6-0.314c0.14-0.048,0.272-0.094,0.385-0.169 l1.294-0.996l0.042-0.032l0.05,0.017c0.301,0.1,0.581,0.527,0.785,0.838l0.067,0.101c0.339,0.336,0.67,0.693,0.99,1.037 c0.319,0.344,0.649,0.699,0.998,1.047c1.929,1.822,3.917,3.256,6.076,4.382c0.161,0.081,0.358,0.195,0.548,0.306 c0.279,0.163,0.567,0.331,0.737,0.388c0.183,0.09,0.546,0.181,0.897,0.268c0.521,0.129,0.862,0.22,1.008,0.327H82.9 c0.146,0.027,0.273,0.04,0.398,0.04c0.551,0,1.008-0.243,1.451-0.478c0.155-0.082,0.302-0.16,0.451-0.227V49.8v-0.062l0.055-0.028 c0.113-0.065,0.529-0.819,0.65-1.338c0.018-0.077,0.026-0.136,0.029-0.181L85.911,48.145z"/>
    <path id="kanji_01" d="M57.7,36.8c0.6,2.9-0.5,6-1.8,8.2c-0.4,0.6-0.5,1.2-0.8,1.6c-0.057-0.019-0.104-0.027-0.143-0.027 c-0.165,0-0.196,0.146-0.357,0.227c-0.7-0.1-1.5-0.3-1.9-0.6c0-0.3-0.5-0.6-0.7-0.9v-0.9c-0.2-0.6-0.5-1.4-0.5-2.2 c0-0.4,1.4-2.5,1.7-3.2c0.7-1.6,1.1-3.3,1.4-4.9c0.1-0.7-0.1-1.3,0-1.9c0.6,0.1,1.6,0.5,2.1,1c0.1,0.2,0.2,0.5,0.4,0.7V34 c0,0.3,0.2,1,0.4,1.4C57.6,35.8,57.5,36.3,57.7,36.8z M57.456,35.933c-0.008-0.183-0.015-0.357-0.053-0.509 C57.203,35.03,57,34.315,57,34v-0.06c-0.149-0.162-0.243-0.373-0.319-0.544c-0.022-0.049-0.042-0.095-0.063-0.137 c-0.447-0.438-1.32-0.816-1.933-0.942c-0.028,0.251-0.007,0.506,0.014,0.775c0.026,0.323,0.053,0.656,0,1.022 c-0.261,1.395-0.657,3.211-1.407,4.926c-0.125,0.291-0.43,0.809-0.753,1.358C52.12,41.108,51.6,41.991,51.6,42.2 c0,0.706,0.241,1.417,0.434,1.988l0.061,0.181l0.005,0.015V44.4v0.869c0.07,0.096,0.176,0.198,0.279,0.297 c0.191,0.183,0.388,0.372,0.417,0.581c0.335,0.231,0.994,0.434,1.785,0.55c0.039-0.024,0.069-0.054,0.1-0.085 c0.062-0.062,0.138-0.138,0.276-0.138c0.032,0,0.065,0.004,0.102,0.012c0.117-0.173,0.203-0.383,0.3-0.622 c0.115-0.281,0.246-0.601,0.457-0.918c0.77-1.303,2.491-4.713,1.785-8.124C57.482,36.524,57.468,36.21,57.456,35.933z"/>
    <path id="kanji_02" d="M78.4,21.8l1,0.3c0.6,0.5,1.3,0.7,1.8,1.1c0.9,0.7,1.8,1.6,2.6,2.4c0.9,0.9,1.7,2.3,0.6,3.3 c-0.1,0.1-0.8,0.2-1,0.3c-0.05-0.15-0.15-0.175-0.275-0.175c-0.062,0-0.131,0.006-0.203,0.006S82.775,29.025,82.7,29 c-0.2-0.2-0.4-0.4-0.7-0.6c-0.6-0.3-0.6-1.1-1.3-1.3c-0.267-0.076-0.622-0.109-0.992-0.109c-0.599,0-1.237,0.085-1.608,0.209 c0,0-0.133,0.089-0.252,0.089c-0.059,0-0.115-0.022-0.148-0.089c-0.081,0.081-0.227,0.227-0.386,0.227 c-0.037,0-0.076-0.008-0.114-0.027c1.1-0.6,2.3-1.3,3.2-2.2c-0.3-0.9-2.3-2.6-3-3.4h0.2v-0.1c-0.1-0.1-0.2-0.1-0.3-0.3 C77.7,21.4,78.1,21.7,78.4,21.8z M78.026,21.741c-0.147-0.073-0.307-0.153-0.467-0.2c0.037,0.025,0.075,0.051,0.112,0.088 l0.029,0.029V21.7v0.1v0.1h-0.073c0.203,0.216,0.471,0.478,0.751,0.753c0.847,0.831,1.901,1.865,2.118,2.516l0.02,0.059 l-0.044,0.044c-0.744,0.744-1.698,1.358-2.664,1.907c0.009,0.007,0.022,0.011,0.042,0.011c0.072,0,0.166-0.052,0.197-0.072 l0.011-0.007l0.013-0.004c0.384-0.128,1.043-0.214,1.639-0.214c0.409,0,0.761,0.039,1.02,0.113 c0.416,0.119,0.604,0.425,0.785,0.721c0.145,0.237,0.282,0.461,0.532,0.586c0.31,0.205,0.514,0.406,0.708,0.601 c0.048,0.013,0.102,0.02,0.169,0.02c0.036,0,0.07-0.002,0.104-0.003c0.034-0.002,0.067-0.003,0.099-0.003 c0.111,0,0.242,0.019,0.325,0.148c0.107-0.036,0.254-0.07,0.407-0.106c0.17-0.04,0.428-0.1,0.474-0.138 c0.325-0.296,0.494-0.644,0.503-1.038c0.021-0.895-0.765-1.78-1.104-2.119c-0.795-0.795-1.695-1.695-2.591-2.392 c-0.225-0.18-0.494-0.319-0.779-0.467c-0.336-0.174-0.682-0.354-1.008-0.622l-0.981-0.294 C78.262,21.859,78.147,21.802,78.026,21.741z"/>
    <path id="kanji_ko01" d="M62.183,17.117c-0.201,0.238-0.619,0.547-0.919,0.658l-0.052-0.155 c0.183-0.209,0.502-0.327,0.785-0.433C62.061,17.164,62.124,17.141,62.183,17.117 M62.4,16.9c-0.3,0.2-1,0.3-1.3,0.7l0.1,0.3 C61.6,17.8,62.4,17.2,62.4,16.9L62.4,16.9z"/>
    <path id="kanji_ko02" d="M63.373,27.475c0.012,0.054,0.023,0.133,0.026,0.251c-0.056,0.031-0.099,0.09-0.099,0.174v0.023 c-0.344,0.25-0.75,0.512-1.172,0.664c0.063-0.066,0.116-0.134,0.146-0.195c0.119-0.023,0.206-0.098,0.29-0.171 c0.056-0.049,0.114-0.099,0.181-0.133l0.078-0.039l-0.027-0.082c-0.036-0.109,0.181-0.241,0.356-0.347 C63.235,27.571,63.312,27.524,63.373,27.475 M63.4,27.3c-0.1,0.2-0.8,0.4-0.7,0.7c-0.2,0.1-0.3,0.3-0.5,0.3l0.2-0.2 c-0.2,0.1-0.3,0.2-0.4,0.3c0.2-0.1,0.1-0.1,0.2-0.1c0,0.1-0.3,0.4-0.5,0.5c0.7-0.1,1.4-0.6,1.8-0.9h-0.1c0-0.1,0.1-0.1,0.1-0.1 C63.5,27.7,63.5,27.4,63.4,27.3L63.4,27.3z"/>
</svg>
