<svg xmlns="http://www.w3.org/2000/svg" version="1.1" width="605pt" height="147pt" viewBox="0 0 605 147">
    <g>
        <path d="M600.3,5v84c0,29.2 -23.7,52.9 -52.9,52.9h-489.5c-29.2,0 -52.9,-23.7 -52.9,-52.9v-84zM535.3,53l-205.25704,0c1.30309,1.14718 2.39017,2.53987 3.26332,4.17023c1.05782,1.9566 2.35059,7.23223 2.35059,7.23223c0.51529,2.86219 0.77008,9.96532 0.77008,9.96532c0,2.94661 -0.45185,8.59567 -0.45185,8.59567c-0.30138,2.78379 -1.35718,8.10608 -1.35718,8.10608c-0.60354,2.6202 -2.26447,7.61343 -2.26447,7.61343c-0.90619,2.45534 -1.96365,4.82758 -3.17242,7.11647c-0.00011,0.00021 -0.00022,0.00042 -0.00033,0.00062c-1.38185,2.61043 -4.60025,6.96371 -4.60025,6.96371c-1.68566,2.03087 -3.52374,3.76956 -5.51519,5.2122c-0.49547,0.3612 -0.99863,0.70257 -1.50947,1.02406h217.7442c18.2,0 33,-14.8 33,-33c0,-18.2 -14.8,-33 -33,-33zM70,53c-18.2,0 -33,14.8 -33,33c0,18.2 14.8,33 33,33l197.24783,0l10.1867,-48.74675c-2.72726,0.69246 -6.42187,1.0438 -6.42187,1.0438c-0.23,0 -0.45643,-0.02849 -0.67744,-0.08689c-0.96716,-0.25555 -1.67918,-1.03346 -2.20232,-2.07974c-0.00164,-0.00328 -0.00326,-0.00658 -0.00485,-0.00988c-0.19864,-0.41297 -0.34696,-0.83985 -0.44354,-1.27985c-0.1035,-0.47152 -0.14672,-0.95408 -0.13092,-1.4461c0.00168,-0.7983 0.16734,-1.53765 0.514,-2.20109c0.12439,-0.23806 0.27073,-0.46367 0.43832,-0.67656c0.10265,-0.13039 0.24723,-0.22127 0.40924,-0.25723c3.81367,-0.84645 7.48101,-2.63531 11.00363,-5.38765c0.00087,-0.00068 0.00174,-0.00136 0.00261,-0.00203c1.58557,-1.22714 3.36528,-2.84878 5.34001,-4.87003zM291.39925,68.47108c0.36884,-0.78058 0.75445,-1.55184 1.15682,-2.31377c0.00037,-0.0007 0.00074,-0.0014 0.00111,-0.0021c1.38156,-2.59529 4.5877,-6.93948 4.5877,-6.93948c1.67777,-2.03021 3.50407,-3.77544 5.47984,-5.23205c0.00163,-0.0012 0.00326,-0.00239 0.0049,-0.00358c0.47604,-0.34479 0.95895,-0.6715 1.44873,-0.9801l-9.45217,0zM288.43081,114.78651c-1.05768,-1.95633 -2.35054,-7.22113 -2.35054,-7.22113c-0.49659,-2.75125 -0.75126,-9.42401 -0.76912,-9.90573l-3.82132,18.32084c-0.00028,0.00136 -0.00057,0.00272 -0.00086,0.00408c-0.24069,1.12137 -0.64621,2.12952 -1.22239,3.01542l11.4776,0c-1.32549,-1.15537 -2.42921,-2.56258 -3.31338,-4.21349zM301.59961,110.81967c0.85733,1.86976 1.90006,2.91118 3.06606,3.32034c0.3992,0.14008 1.29114,0.21219 1.29114,0.21219c0.55352,0 1.09102,-0.05959 1.61363,-0.17799c1.9988,-0.45285 5.57242,-4.12958 5.57242,-4.12958c1.078,-1.47577 3.01698,-5.6026 3.01698,-5.6026c0.93062,-2.26177 1.78046,-4.9119 2.54715,-7.95456c0.52776,-2.14497 1.40757,-6.80493 1.40757,-6.80493c0.41087,-2.39376 0.76311,-4.91204 1.05652,-7.55508c0.44893,-4.08359 0.67165,-10.32706 0.67165,-10.32706c0,-4.61774 -0.60032,-8.13739 -1.74584,-10.6148c-0.00133,-0.00287 -0.00264,-0.00575 -0.00393,-0.00864c-0.83094,-1.86117 -1.85262,-2.90082 -3.00072,-3.31547c-0.4038,-0.14584 -1.3119,-0.22105 -1.3119,-0.22105c-0.55395,0 -1.09182,0.05971 -1.61475,0.17834c-1.99799,0.45327 -5.56931,4.13077 -5.56931,4.13077c-1.07742,1.47633 -3.01479,5.60479 -3.01479,5.60479c-0.92994,2.26314 -1.77891,4.91496 -2.54453,7.95962c-0.00013,0.00053 -0.00027,0.00106 -0.0004,0.00158c-0.54392,2.14244 -1.43379,6.80208 -1.43379,6.80208c-0.41182,2.39238 -0.75734,4.90939 -1.03631,7.55128c-0.00011,0.00102 -0.00022,0.00205 -0.00033,0.00307c-0.44899,4.08388 -0.67169,10.28429 -0.67169,10.28429c0,4.61651 0.58552,8.15362 1.7052,10.66339z" fill="#ffffff" fill-rule="nonzero" stroke="#000000" stroke-width="1" stroke-linecap="butt" stroke-linejoin="miter" stroke-miterlimit="10" stroke-dasharray="" stroke-dashoffset="0" style="mix-blend-mode: normal"/>
    </g>
</svg>